<?xml version="1.0" encoding="utf-8"?>
<!-- Generator: Adobe Illustrator 23.0.6, SVG Export Plug-In . SVG Version: 6.00 Build 0)  -->
<svg version="1.1" id="Capa_2" xmlns="http://www.w3.org/2000/svg" xmlns:xlink="http://www.w3.org/1999/xlink" x="0px" y="0px"
	 viewBox="0 0 20.1 20.4" style="enable-background:new 0 0 20.1 20.4;" xml:space="preserve">
<style type="text/css">
	.st0{fill:#D0E557;}
	.st1{fill:#64AD17;}
	.st2{opacity:0.6;enable-background:new    ;}
	.st3{opacity:0.6;}
	.st4{fill:#223D39;}
	.st5{fill:#FF486B;}
</style>
<g>
	<path class="st0" d="M2.1,7.9c0-5.4,3.3-5.4,7.9-5.4c4.6,0,7.9,0,7.9,5.4c0,5.5-3.7,9.2-7.9,9.2C6.5,17.1,2.1,13.4,2.1,7.9z"/>
</g>
<g>
	<circle class="st1" cx="8.7" cy="12.5" r="0.2"/>
</g>
<g>
	<circle class="st1" cx="11.4" cy="12.5" r="0.2"/>
</g>
<g class="st2">
	<path class="st1" d="M12.8,2.6L12,5.8c-0.1,0.3,0.3,0.5,0.5,0.2l2.2-3C14.1,2.8,13.4,2.7,12.8,2.6z"/>
</g>
<g class="st3">
	<g>
		<path class="st1" d="M7.6,6c0.2,0.3,0.6,0.1,0.5-0.2L7.3,2.6C6.7,2.7,6,2.8,5.4,3L7.6,6z M10.1,2.5c-0.3,0-0.7,0-1.2,0l0.8,4.6
			c0.1,0.4,0.7,0.4,0.8,0l0.8-4.6C10.8,2.5,10.4,2.5,10.1,2.5z"/>
	</g>
</g>
<g>
	<path class="st4" d="M12.6,10.1c0.1-0.4,0.7-0.7,1.1-0.6c0.4,0.1,0.7,0.5,0.7,0.8c0,0.5,0.7,0.6,0.8,0c0.1-0.8-0.6-1.5-1.4-1.6
		c-0.8-0.1-1.4,0.5-1.4,1.3C12.4,10.2,12.6,10.2,12.6,10.1z M7.3,10.3c0-0.4-0.6-0.7-0.9-0.7C6,9.7,5.7,10,5.6,10.3
		c0,0.5-0.8,0.5-0.8,0c0-0.7,0.7-1.4,1.5-1.4c0.8,0,1.2,0.7,1.2,1.4C7.6,10.4,7.3,10.4,7.3,10.3z"/>
</g>
<g>
	<path class="st4" d="M10,17.5c-3.9-0.1-8.3-4.2-8.3-9.6c0-5.8,3.7-5.8,8.3-5.8c4.5,0,8.3,0,8.3,5.8C18.4,13.3,14.7,17.5,10,17.5z
		 M10,2.9c-4.7,0-7.5,0-7.5,5c0,5.4,4.4,8.8,7.5,8.8c4.2,0,7.5-3.9,7.5-8.8C17.6,2.9,14.7,2.9,10,2.9z"/>
</g>
<g>
	<path class="st5" d="M11.4,18.5l-1.2-0.6L9,18.5V15l1.2,0.2l1.2-0.2L11.4,18.5z"/>
	<path class="st4" d="M11.7,18.9l-1.5-0.7l-1.5,0.7v-4.2l1.5,0.3l1.5-0.3V18.9z M10.2,17.6l0.9,0.4v-2.6l-0.9,0.2l-0.9-0.2V18
		L10.2,17.6z"/>
</g>
</svg>
