<?xml version="1.0" encoding="utf-8"?>
<!-- Generator: Adobe Illustrator 23.0.6, SVG Export Plug-In . SVG Version: 6.00 Build 0)  -->
<svg version="1.1" id="Capa_2" xmlns="http://www.w3.org/2000/svg" xmlns:xlink="http://www.w3.org/1999/xlink" x="0px" y="0px"
	 viewBox="0 0 20.1 20.4" style="enable-background:new 0 0 20.1 20.4;" xml:space="preserve">
<style type="text/css">
	.st0{fill:#7A6A93;}
	.st1{fill:#30303F;}
	.st2{fill:#D5C3ED;}
	.st3{fill:#403C7A;}
	.st4{fill:#FFFFFF;}
	.st5{fill:#E83F3F;}
	.st6{fill:none;stroke:#350B0B;stroke-linecap:round;stroke-miterlimit:10;}
	.st7{fill:#FFC61B;stroke:#2E2E3D;stroke-width:0.7;stroke-miterlimit:10;}
	.st8{fill:#FFC61B;}
</style>
<g>
	<path class="st0" d="M1.9,3.2c1-0.5,3.9-0.3,4.7,1s0.1,3.5-0.8,4C4.8,8.8,3.2,9.4,2.4,8S1,3.7,1.9,3.2z"/>
	<path class="st1" d="M3.9,9.2c-0.8,0-1.4-0.3-1.8-1C1.4,7.1,0.8,5,1.2,3.7C1.3,3.3,1.5,3,1.8,2.9h0C2.8,2.3,6,2.4,7,4
		c0.5,0.7,0.6,1.7,0.3,2.7C7,7.6,6.6,8.3,6,8.6C5.2,9,4.5,9.2,3.9,9.2z M2.1,3.5C2,3.6,1.9,3.8,1.9,3.9c-0.3,1,0.3,2.9,0.8,3.9
		c0.6,1,1.9,0.6,2.9,0.1C6,7.7,6.3,7.2,6.5,6.6C6.7,5.8,6.7,5,6.3,4.4C5.6,3.3,2.9,3.1,2.1,3.5L2.1,3.5z"/>
</g>
<g>
	<path class="st0" d="M18.1,3.1c-1-0.5-3.9-0.3-4.7,1s-0.1,3.5,0.8,4c1,0.5,2.6,1.1,3.4-0.2C18.5,6.5,19.2,3.6,18.1,3.1z"/>
	<path class="st1" d="M16.2,9.1c-0.6,0-1.3-0.2-2.1-0.6c-0.5-0.3-1-1-1.3-1.8c-0.3-1-0.2-2,0.3-2.7c1-1.6,4.1-1.8,5.2-1.2
		c0.3,0.2,0.5,0.5,0.6,0.9c0.3,1.2-0.2,3.3-1,4.5C17.6,8.8,17,9.1,16.2,9.1z M16.7,3.2c-1.1,0-2.5,0.3-3,1.1
		c-0.3,0.5-0.4,1.3-0.2,2.1c0.2,0.6,0.5,1.2,0.9,1.3c1,0.5,2.3,1,2.9-0.1c0.6-1,1.1-2.9,0.9-3.9c-0.1-0.2-0.1-0.3-0.2-0.4l0,0
		C17.7,3.3,17.3,3.2,16.7,3.2z"/>
</g>
<g>
	<path class="st2" d="M17.7,9.5c0-3.7-3.4-5.4-7.6-5.4S2.5,5.7,2.5,9.5s3.1,8.1,7.6,8.1C13.8,17.6,17.7,13.2,17.7,9.5z"/>
	<path class="st3" d="M10.1,18c-4.7,0-8-4.5-8-8.5c0-3.6,3-5.8,8-5.8c4.9,0,8,2.2,8,5.8C18.1,13.5,13.9,18,10.1,18z M10.1,4.5
		c-4.5,0-7.2,1.9-7.2,5c0,3.7,3,7.7,7.2,7.7c3.4,0,7.2-4.1,7.2-7.7C17.3,6.3,14.6,4.5,10.1,4.5z"/>
</g>
<g>
	
		<ellipse transform="matrix(4.081422e-02 -0.9992 0.9992 4.081422e-02 -5.1745 19.504)" class="st0" cx="7.6" cy="12.4" rx="2.9" ry="4.4"/>
</g>
<g>
	
		<ellipse transform="matrix(0.9993 -3.794919e-02 3.794919e-02 0.9993 -0.4599 0.4901)" class="st0" cx="12.7" cy="12.4" rx="4.3" ry="2.8"/>
</g>
<g>
	<ellipse class="st0" cx="10.1" cy="13.7" rx="6" ry="3.5"/>
</g>
<g>
	<path class="st1" d="M12.7,11.4c0.1-0.3,0.5-0.6,0.8-0.5c0.3,0.1,0.5,0.4,0.5,0.7c0,0.4,0.6,0.5,0.6,0.1c0.1-0.7-0.4-1.3-1-1.4
		c-0.6-0.1-1,0.4-1.1,1.1C12.5,11.5,12.7,11.5,12.7,11.4z M7.4,11.6c0-0.3-0.4-0.6-0.7-0.6c-0.3,0-0.5,0.3-0.6,0.6
		c0,0.4-0.6,0.4-0.6,0c0-0.6,0.6-1.2,1.1-1.2c0.6,0,0.9,0.6,0.9,1.2C7.5,11.8,7.4,11.8,7.4,11.6z"/>
</g>
<g>
	<path class="st0" d="M10.1,4.3c1.7,0,3-0.2,3,0.8s-1.4,2.7-3,2.7S7,6,7,5.1S8.4,4.3,10.1,4.3z"/>
</g>
<g>
	<path class="st1" d="M10.1,18c-4.7,0-8-4.5-8-8.5c0-3.6,3-5.8,8-5.8c4.9,0,8,2.2,8,5.8C18.1,13.5,13.9,18,10.1,18z M10.1,4.5
		c-4.5,0-7.2,1.9-7.2,5c0,3.7,3,7.7,7.2,7.7c3.4,0,7.2-4.1,7.2-7.7C17.3,6.3,14.6,4.5,10.1,4.5z"/>
</g>
<g>
	<path class="st4" d="M13.4,14.1c0,1.4-2.2,2.6-3.4,2.5c-1,0-3.2-1.1-3.2-2.5s1.5-2.2,3.4-2.2S13.4,12.6,13.4,14.1z"/>
</g>
<g>
	<path class="st5" d="M9.3,14.9l-0.8-0.7c-0.4-0.4,0-0.9,0.8-0.9h1.6c0.7,0,1.2,0.5,0.8,0.9l-0.8,0.7C10.5,15.3,9.6,15.3,9.3,14.9z"
		/>
</g>
<g>
	<g>
		<path class="st6" d="M15,15.8"/>
	</g>
	<g>
		<path class="st6" d="M12.1,15"/>
	</g>
</g>
<g>
	<g>
		<path class="st7" d="M12.5,13.2"/>
	</g>
	<g>
		<path class="st7" d="M16,11.4"/>
	</g>
	<g>
		<path class="st7" d="M12.9,14.4"/>
	</g>
	<g>
		<path class="st7" d="M18.1,13.6"/>
	</g>
	<g>
		<line class="st8" x1="3.6" y1="15.4" x2="7.8" y2="14.7"/>
		<rect x="3.5" y="14.8" transform="matrix(0.9859 -0.1676 0.1676 0.9859 -2.447 1.1634)" class="st1" width="4.3" height="0.5"/>
	</g>
	<g>
		<line class="st8" x1="4.7" y1="13.3" x2="7.5" y2="13.8"/>
		<rect x="5.8" y="12.1" transform="matrix(0.1602 -0.9871 0.9871 0.1602 -8.2406 17.4026)" class="st1" width="0.5" height="2.8"/>
	</g>
</g>
<g>
	<g>
		<path class="st7" d="M7.8,13.1"/>
	</g>
	<g>
		<path class="st7" d="M4.3,11.3"/>
	</g>
	<g>
		<path class="st7" d="M7.4,14.4"/>
	</g>
	<g>
		<path class="st7" d="M2.2,13.6"/>
	</g>
	<g>
		<line class="st8" x1="16.7" y1="15.4" x2="12.5" y2="14.7"/>
		
			<rect x="14.4" y="12.9" transform="matrix(0.1675 -0.9859 0.9859 0.1675 -2.6496 26.9339)" class="st1" width="0.5" height="4.3"/>
	</g>
	<g>
		<line class="st8" x1="15.6" y1="13.3" x2="12.8" y2="13.7"/>
		<polygon class="st1" points="12.8,14 12.8,13.5 15.5,13 15.6,13.5 		"/>
	</g>
</g>
</svg>
