<?xml version="1.0" encoding="utf-8"?>
<!-- Generator: Adobe Illustrator 23.0.6, SVG Export Plug-In . SVG Version: 6.00 Build 0)  -->
<svg version="1.1" id="Capa_1" xmlns="http://www.w3.org/2000/svg" xmlns:xlink="http://www.w3.org/1999/xlink" x="0px" y="0px"
	 viewBox="0 0 20.1 20.4" style="enable-background:new 0 0 20.1 20.4;" xml:space="preserve">
<style type="text/css">
	.st0{fill:#F48C51;}
	.st1{fill:#2F313A;}
	.st2{fill:#FFFFFF;}
	.st3{fill:#FFC299;}
</style>
<path class="st0" d="M13,6.5c-0.1-1.4,0.2-2.5,0.6-3.2C14.3,3,15.5,2.7,17,2.8c0.1,1.4-0.2,2.5-0.6,3.2C15.7,6.4,14.5,6.6,13,6.5"/>
<path class="st1" d="M13.3,7h-0.7V6.5C12.5,5,12.8,3.8,13.3,3h0.1c0.9-0.6,2.5-0.7,3.6-0.7h0.5v0.5c0.1,1.5-0.2,2.7-0.7,3.5
	l-0.2,0.1C15.9,6.8,14.7,7,13.3,7z M14,3.8c-0.3,0.5-0.5,1.3-0.5,2.3c1.1,0,1.9-0.2,2.4-0.5c0.3-0.5,0.5-1.3,0.5-2.3
	C15.4,3.3,14.5,3.5,14,3.8z"/>
<path class="st0" d="M7.1,6.5C5.6,6.6,4.5,6.4,3.8,6C3.3,5.3,3.1,4.2,3.1,2.8C4.6,2.7,5.7,3,6.4,3.4C6.9,4,7.1,5.2,7.1,6.5"/>
<path class="st1" d="M6.8,7C5.3,7,4.2,6.8,3.5,6.4L3.4,6.2C2.9,5.5,2.6,4.3,2.6,2.8V2.3h0.5C4.6,2.2,5.9,2.5,6.7,3l0.2,0.1
	C7.4,3.8,7.6,5,7.6,6.6v0.5L7.1,7H6.8z M4.1,5.6C4.7,5.9,5.5,6,6.6,6c0-1-0.2-1.8-0.5-2.3C5.5,3.5,4.7,3.3,3.6,3.3
	C3.7,4.3,3.8,5.1,4.1,5.6z"/>
<path class="st1" d="M6.4,6.6c0.6-2.2,2-2,2.7-1.6c0.7,0.4,0.7,2.5-0.9,4.2c-2.1,2.5-5.4,2.2-5.4,2.2S5.6,9.6,6.4,6.6"/>
<path class="st1" d="M4.9,9.2c-0.2-2.3,1.2-2.6,2-2.5C7.7,6.9,8.4,8.8,7.5,11c-1.2,3-4.3,3.9-4.3,3.9S5.2,12.3,4.9,9.2"/>
<path class="st1" d="M5.4,12.5c-0.2-2.3,1.2-2.6,2-2.5s1.4,2.1,0.6,4.3c-1.2,3-5.2,4.2-5.2,4.2S5.7,15.6,5.4,12.5"/>
<path class="st0" d="M15.3,9.7c0,0.8-0.3,2.1-0.9,4.3s-0.8,4.7-4.2,4.7c-4.3,0-3.8-3.6-4.1-4.8C5.7,12,5,10.5,5,9.7
	c0-1.5-0.4-3.2,1.2-5.3C6.7,4,6.8,3.3,10.1,3.3s3.5,0.5,3.8,0.9C15.5,6.2,15.4,8,15.3,9.7"/>
<path class="st2" d="M8.2,8c0-3.3,0.9-3.9,1.9-3.9S12,4.8,12,8s-1.9,7.9-1.9,7.9S8.2,11.3,8.2,8"/>
<path class="st1" d="M6.9,8.2c-0.6,0-1.1,0.5-1.1,1c0,0.3,0.5,0.4,0.6,0c0-0.3,0.3-0.5,0.5-0.5c0.3,0,0.7,0.2,0.7,0.5
	c0,0.1,0.2,0.1,0.2-0.1C7.8,8.7,7.5,8.2,6.9,8.2z M13.6,8.1c-0.6-0.1-1,0.4-1,0.9c0,0.1,0.2,0.1,0.2,0c0.1-0.3,0.5-0.5,0.8-0.4
	s0.5,0.3,0.5,0.6c0,0.4,0.6,0.4,0.6,0.1C14.7,8.7,14.3,8.1,13.6,8.1z"/>
<path class="st3" d="M13.7,16.2c0.3,1.1-0.6,2.5-3.4,2.5s-3.7-1.2-3.5-2.4c0.6-3.4,1.1-1.5,3.2-1.5C12.6,14.8,13,13,13.7,16.2z"/>
<g>
	<path class="st1" d="M10.3,19.1c-4,0-4.3-3-4.4-4.5c0-0.3,0-0.5-0.1-0.7c-0.2-0.8-0.4-1.6-0.6-2.3c-0.3-0.8-0.5-1.5-0.5-2V8.9
		C4.6,7.6,4.5,6.1,6,4.2l0.1-0.1c0.5-0.7,1-1.2,4-1.2s3.6,0.4,4.1,1L14.3,4c1.7,2,1.6,4.1,1.5,5.7c0,0.8-0.3,2.1-0.9,4.4
		c-0.1,0.2-0.1,0.5-0.2,0.7C14.2,16.9,13.6,19.1,10.3,19.1z M10.1,3.7C7.3,3.7,7,4.2,6.8,4.6c0,0.1-0.1,0.1-0.1,0.2
		C5.4,6.4,5.5,7.7,5.5,9v0.8c0,0.4,0.2,1,0.4,1.7s0.5,1.5,0.7,2.4c0,0.2,0.1,0.5,0.1,0.8c0.1,1.6,0.3,3.7,3.6,3.7
		c2.7,0,3.1-1.6,3.6-3.7c0.1-0.2,0.1-0.5,0.2-0.7c0.6-2.2,0.9-3.5,0.9-4.2c0.1-1.6,0.2-3.4-1.3-5.1l-0.1-0.1
		C13.3,4.2,13,3.7,10.1,3.7z"/>
</g>
<g>
	<path class="st1" d="M12.8,5c2.7-1.6-0.7-4.9-3.9-4.1C5.3,1.8,5.1,6.3,8.4,9C8.4,9,10,6.6,12.8,5z"/>
</g>
<g>
	<path class="st0" d="M9.2,16.6c0-0.4-0.5-0.8-1-0.9c-0.3,0-0.4,0.4,0,0.4c0.3,0,0.5,0.2,0.5,0.4S8.5,17,8.2,17
		c-0.1,0-0.1,0.1,0.1,0.1C8.7,17.3,9.2,17,9.2,16.6z"/>
</g>
<g>
	<path class="st0" d="M12.2,17.1c0.2,0,0.2-0.1,0.1-0.1c-0.3,0-0.5-0.3-0.5-0.5s0.2-0.4,0.5-0.4c0.4,0,0.3-0.4,0-0.4
		c-0.5,0.1-1,0.5-1,0.9S11.8,17.3,12.2,17.1z"/>
</g>
</svg>
