<?xml version="1.0" encoding="utf-8"?>
<!-- Generator: Adobe Illustrator 23.0.6, SVG Export Plug-In . SVG Version: 6.00 Build 0)  -->
<svg version="1.1" id="Capa_1" xmlns="http://www.w3.org/2000/svg" xmlns:xlink="http://www.w3.org/1999/xlink" x="0px" y="0px"
	 viewBox="0 0 20.1 20.4" style="enable-background:new 0 0 20.1 20.4;" xml:space="preserve">
<style type="text/css">
	.st0{fill:#F3EEFF;}
	.st1{fill:#323249;}
	.st2{fill:#FF8D8D;}
</style>
<g>
	<path class="st0" d="M15,18H6.7H5c-0.6,0-1.1-0.5-1.1-1.1V4.1C3.9,3.5,4.4,3,5,3h10c0.6,0,1.1,0.5,1.1,1.1v12.9
		C16.1,17.5,15.6,18,15,18z"/>
	<path class="st1" d="M15,18.4H5c-0.8,0-1.5-0.7-1.5-1.5V4.1c0-0.8,0.7-1.5,1.5-1.5h10c0.8,0,1.5,0.7,1.5,1.5v12.9
		C16.5,17.7,15.8,18.4,15,18.4z M5,3.4c-0.4,0-0.7,0.3-0.7,0.7v12.9c0,0.4,0.3,0.7,0.7,0.7h10c0.4,0,0.7-0.3,0.7-0.7V4.1
		c0-0.4-0.3-0.7-0.7-0.7H5z"/>
</g>
<g>
	<path class="st2" d="M6.7,13.7c0,0,0-1.2,3.3-1.2s3.4,1.2,3.4,1.2c0,1.2,0,4.3,0,4.3H6.6L6.7,13.7z"/>
	<path class="st1" d="M13.8,18.4H6.2l0-4.7c0-0.1,0-0.4,0.4-0.8C7.2,12.3,8.3,12,10,12c3.7,0,3.8,1.5,3.8,1.6V18.4z M7,17.6h5.9
		v-3.9c0-0.2-0.6-0.8-3-0.8c-2.3,0-2.9,0.6-2.9,0.8L7,17.6z M7.1,13.7C7.1,13.7,7.1,13.7,7.1,13.7L7.1,13.7L7.1,13.7z"/>
</g>
<g>
	<path class="st1" d="M12.3,12.6c0,0-1.1-0.6-2.3-0.6c-1.1,0-2.3,0.6-2.3,0.6S8.5,15,10,15C11.5,15,12.3,12.6,12.3,12.6L12.3,12.6z"
		/>
</g>
<g>
	<path class="st1" d="M5.9,8.1H4.2H3.5c-0.2,0-0.4-0.2-0.4-0.4L2.9,2.8c0-0.2,0.4-0.4,0.7-0.4h4C7.8,2.4,8,2.6,8,2.8L7.2,7.2
		C6.9,7.8,6.1,8.1,5.9,8.1z"/>
	<path class="st1" d="M5.9,8.5H3.5c-0.5,0-0.8-0.4-0.8-0.8L2.5,2.8C2.5,2.3,3.2,2,3.5,2h4C8,2,8.4,2.4,8.4,2.8L7.6,7.4
		C7.1,8.2,6.3,8.5,5.9,8.5z M3.3,2.9l0.3,4.8l0.7,0h1.6c0.1,0,0.7-0.2,0.9-0.6l0.7-4.3l-4,0.1C3.5,2.8,3.4,2.9,3.3,2.9z"/>
</g>
<g>
	<path class="st1" d="M12.4,11.2c0.1-0.4,0.7-0.7,1.1-0.6c0.4,0.1,0.7,0.5,0.7,0.9c0,0.5,0.8,0.6,0.8,0.1c0.1-0.8-0.6-1.6-1.4-1.7
		c-0.9-0.1-1.4,0.5-1.5,1.3C12.2,11.3,12.4,11.3,12.4,11.2L12.4,11.2z"/>
</g>
<g>
	<path class="st1" d="M7.5,11.3c-0.1-0.4-0.6-0.7-1-0.7c-0.4,0-0.7,0.4-0.8,0.8c-0.1,0.5-0.9,0.5-0.8,0c0-0.8,0.8-1.5,1.6-1.5
		c0.9,0,1.3,0.7,1.3,1.5C7.8,11.5,7.6,11.5,7.5,11.3L7.5,11.3z"/>
</g>
<g>
	<path class="st1" d="M14.2,8.1h1.6h0.7c0.2,0,0.4-0.2,0.4-0.4l0.3-4.9c0-0.2-0.4-0.4-0.7-0.4h-4c-0.2,0-0.4,0.2-0.4,0.4l0.8,4.4
		C13.2,7.8,14,8.1,14.2,8.1z"/>
	<path class="st1" d="M16.6,8.5h-2.3c-0.4,0-1.3-0.3-1.7-1.1l0-0.1l-0.8-4.4c0-0.5,0.4-0.9,0.8-0.9h4c0.4,0,1.1,0.3,1.1,0.8
		l-0.3,4.9C17.4,8.1,17,8.5,16.6,8.5z M14.2,7.7h2.3l0.3-4.8c-0.1,0-0.2-0.1-0.3-0.1h-4l0.7,4.3C13.5,7.5,14.1,7.7,14.2,7.7z"/>
</g>
</svg>
