<?xml version="1.0" encoding="utf-8"?>
<!-- Generator: Adobe Illustrator 23.0.6, SVG Export Plug-In . SVG Version: 6.00 Build 0)  -->
<svg version="1.1" id="Capa_2" xmlns="http://www.w3.org/2000/svg" xmlns:xlink="http://www.w3.org/1999/xlink" x="0px" y="0px"
	 viewBox="0 0 20.1 20.4" style="enable-background:new 0 0 20.1 20.4;" xml:space="preserve">
<style type="text/css">
	.st0{fill:#FFB43B;}
	.st1{fill:#313644;}
	.st2{fill:#F4EDDF;}
	.st3{fill:#914530;}
	.st4{fill:#DD6F0B;}
	.st5{fill:#FFC61B;}
</style>
<g>
	<g>
		<g>
			<path class="st0" d="M12.7,4.8l4.4-2.4L17,8.3C17,8.3,14.8,6.1,12.7,4.8z"/>
			<path class="st1" d="M17.4,9.3l-0.7-0.7c0,0-2.3-2.2-4.2-3.5l-0.6-0.4l5.7-3L17.4,9.3z M13.5,4.8c1.2,0.9,2.4,1.9,3.1,2.6
				l0.1-4.3L13.5,4.8z"/>
		</g>
		<g>
			<path class="st0" d="M7.4,4.8L3.1,2.4l0.1,5.9C3.2,8.3,5.4,6.1,7.4,4.8z"/>
			<path class="st1" d="M2.8,9.3L2.7,1.7l5.5,3L7.6,5.1C5.7,6.4,3.5,8.6,3.5,8.6L2.8,9.3z M3.5,3.1l0.1,4.3c0.7-0.7,1.8-1.7,3-2.6
				L3.5,3.1z"/>
		</g>
		<g>
			<circle class="st0" cx="10" cy="10.9" r="7.4"/>
		</g>
		<g>
			<ellipse class="st2" cx="10" cy="16" rx="3.5" ry="2.6"/>
		</g>
		<g>
			<path class="st3" d="M11.2,13.5c0,0-0.6-0.3-1.3-0.3c-0.6,0-1.3,0.3-1.3,0.3s1,1.4,1.3,1.4C10.2,14.9,11.2,13.5,11.2,13.5
				L11.2,13.5z"/>
		</g>
		<g>
			<path class="st3" d="M12.5,11.5c0.1-0.4,0.7-0.6,1.2-0.6c0.4,0.1,0.7,0.4,0.7,0.8c0,0.5,0.8,0.6,0.9,0.1c0.1-0.8-0.6-1.5-1.5-1.6
				c-0.9-0.1-1.4,0.5-1.5,1.2C12.3,11.5,12.5,11.6,12.5,11.5L12.5,11.5z"/>
		</g>
		<g>
			<path class="st3" d="M7.5,11.6c-0.1-0.4-0.6-0.7-1.1-0.7c-0.4,0-0.8,0.4-0.8,0.7c-0.1,0.5-0.9,0.4-0.9,0c0-0.8,0.8-1.4,1.7-1.4
				c0.9,0,1.3,0.7,1.3,1.4C7.7,11.7,7.5,11.7,7.5,11.6L7.5,11.6z"/>
		</g>
	</g>
	<g>
		<g>
			<path class="st4" d="M12.7,7.7L14.6,5c-0.5-0.3-1.1-0.5-1.7-0.6l-0.8,3.1C12.1,7.8,12.5,8,12.7,7.7z"/>
		</g>
		<g>
			<path class="st4" d="M7.3,7.7C7.5,8,7.9,7.8,7.9,7.4L7.1,4.3C6.5,4.5,6,4.7,5.5,5L7.3,7.7z"/>
		</g>
		<g>
			<path class="st4" d="M10.4,9l0.8-5C10.8,4,10.4,4,10,4C9.5,4,9.1,4,8.7,4l0.8,5C9.7,9.5,10.3,9.5,10.4,9z"/>
		</g>
	</g>
	<g>
		<path class="st1" d="M10,18.7c-4.3,0-7.8-3.5-7.8-7.8c0-4.3,3.5-7.8,7.8-7.8c4.3,0,7.8,3.5,7.8,7.8C17.8,15.2,14.3,18.7,10,18.7z
			 M10,4c-3.8,0-6.9,3.1-6.9,6.9c0,3.8,3.1,6.9,6.9,6.9c3.8,0,6.9-3.1,6.9-6.9C17,7.1,13.9,4,10,4z"/>
	</g>
	<g>
		<line class="st5" x1="16" y1="17.9" x2="12.2" y2="15.9"/>
		
			<rect x="13.8" y="14.8" transform="matrix(0.4604 -0.8877 0.8877 0.4604 -7.4371 21.6271)" class="st4" width="0.6" height="4.3"/>
	</g>
	<g>
		<line class="st5" x1="17.9" y1="15.6" x2="12.3" y2="14.8"/>
		<rect x="14.8" y="12.4" transform="matrix(0.1479 -0.989 0.989 0.1479 -2.1965 27.8574)" class="st4" width="0.6" height="5.6"/>
	</g>
</g>
<g>
	<g>
		<line class="st5" x1="2.4" y1="15.6" x2="8" y2="14.8"/>
		<rect x="2.4" y="14.9" transform="matrix(0.989 -0.1481 0.1481 0.989 -2.1941 0.9347)" class="st4" width="5.6" height="0.6"/>
	</g>
	<g>
		<line class="st5" x1="4.3" y1="17.9" x2="8.1" y2="15.9"/>
		<rect x="4" y="16.6" transform="matrix(0.8876 -0.4606 0.4606 0.8876 -7.1028 4.7486)" class="st4" width="4.3" height="0.6"/>
	</g>
</g>
</svg>
