<?xml version="1.0" encoding="utf-8"?>
<!-- Generator: Adobe Illustrator 23.0.6, SVG Export Plug-In . SVG Version: 6.00 Build 0)  -->
<svg version="1.1" id="Capa_2" xmlns="http://www.w3.org/2000/svg" xmlns:xlink="http://www.w3.org/1999/xlink" x="0px" y="0px"
	 viewBox="0 0 20.1 20.4" style="enable-background:new 0 0 20.1 20.4;" xml:space="preserve">
<style type="text/css">
	.st0{fill:#FFFFFF;}
	.st1{fill:#31316D;}
	.st2{fill:#FF5A5A;}
</style>
<g>
	<g>
		<path class="st0" d="M13.1,12.5c-0.1,0-0.2,0-0.3,0c-0.7-0.1-1.2-0.8-1.5-1.7c-0.2-0.9-0.2-1.9,0-3c0.3-1.5,1.8-3.7,3-5.4
			c0.2-0.4,0.6-0.6,0.9-0.5c0.3,0.1,0.6,0.4,0.7,0.8c0.3,2,0.7,4.6,0.4,6.1C15.6,10.9,14.3,12.5,13.1,12.5z"/>
		<path class="st1" d="M13.1,12.9c-0.1,0-0.3,0-0.5-0.1c-0.8-0.2-1.4-0.9-1.8-2c-0.3-0.9-0.3-2.1,0-3.2c0.3-1.6,1.8-3.9,3-5.5
			c0.3-0.5,0.8-0.8,1.3-0.7c0.3,0.1,0.8,0.3,1,1.1c0.3,2,0.8,4.7,0.4,6.3C16,11.2,14.5,12.9,13.1,12.9z M14.9,2.3
			c-0.1,0-0.3,0.1-0.4,0.3c-1,1.3-2.6,3.8-2.9,5.2c-0.2,1-0.2,2,0,2.8c0.2,0.8,0.7,1.3,1.2,1.4c0.1,0,0.2,0,0.3,0
			c1,0,2.2-1.5,2.7-3.4c0.4-1.6-0.2-4.8-0.4-5.9C15.3,2.6,15.2,2.3,14.9,2.3C15,2.3,15,2.3,14.9,2.3z"/>
	</g>
	<g>
		<path class="st2" d="M13.5,9c-0.6-0.1-0.8-1-0.6-2.1c0.1-0.7,0.9-1.8,1.4-2.5c0.2-0.2,0.4-0.2,0.5,0.1c0.1,0.8,0.3,2.1,0.2,2.8
			C14.7,8.4,14.1,9.1,13.5,9z"/>
	</g>
</g>
<g>
	<g>
		<path class="st0" d="M4,8.8C3.7,7.3,4,4.6,4.4,2.7C4.5,2.2,4.7,1.9,5,1.9C5.4,1.8,5.7,2,6,2.4c1.2,1.6,2.6,3.9,3,5.4
			c0.2,1.1,0.2,2.2,0,3c-0.3,0.9-0.8,1.6-1.5,1.7c-0.1,0-0.2,0-0.3,0C5.8,12.5,4.5,10.9,4,8.8z"/>
		<path class="st1" d="M7.1,12.9c-1.5,0-2.9-1.7-3.5-4.1C3.2,7.3,3.6,4.5,4,2.6c0.2-0.9,0.7-1.1,1-1.1C5.5,1.3,6,1.6,6.3,2.1
			c1.2,1.6,2.7,3.9,3,5.5c0.3,1.1,0.3,2.3,0,3.2c-0.3,1.1-1,1.8-1.8,2C7.4,12.9,7.2,12.9,7.1,12.9z M4.4,8.7
			c0.5,1.9,1.6,3.4,2.7,3.4c0.1,0,0.2,0,0.2,0c0.6-0.1,1-0.6,1.2-1.4c0.2-0.8,0.2-1.8,0-2.8C8.2,6.3,6.5,3.9,5.6,2.6
			C5.5,2.3,5.3,2.2,5.1,2.3c-0.2,0-0.3,0.3-0.3,0.5C4.6,3.8,4,7.1,4.4,8.7z"/>
	</g>
	<g>
		<path class="st2" d="M5.2,7.3C5,6.6,5.2,5.3,5.3,4.5c0.1-0.3,0.3-0.3,0.5-0.1C6.3,5,7,6.2,7.2,6.9c0.2,1,0,1.9-0.6,2.1
			C6,9.1,5.4,8.4,5.2,7.3z"/>
	</g>
</g>
<g>
	<path class="st0" d="M17.1,12.6c0,3.3-3.2,6-7.1,6s-7.1-2.7-7.1-6S6.1,7.7,10,7.7S17.1,9.3,17.1,12.6z"/>
	<path class="st1" d="M10,19c-4.1,0-7.5-2.9-7.5-6.4c0-3.3,2.9-5.3,7.5-5.3c4.6,0,7.5,2,7.5,5.3C17.5,16.1,14.1,19,10,19z M10,8.1
		c-3.2,0-6.6,1.2-6.6,4.4c0,3.1,3,5.6,6.6,5.6s6.6-2.5,6.6-5.6C16.6,9.3,13.2,8.1,10,8.1z"/>
</g>
<g>
	<path class="st2" d="M10.7,15.1H9.4c-0.2,0-0.3,0.1-0.3,0.3c0,0.2,0.1,0.3,0.3,0.3h0.3v1.5c0,0.2,0.1,0.3,0.3,0.3
		c0.2,0,0.3-0.1,0.3-0.3v-1.5h0.3c0.2,0,0.3-0.1,0.3-0.3C11,15.3,10.8,15.1,10.7,15.1z"/>
</g>
<g>
	<path class="st1" d="M13,12.7c0.1-0.4,0.7-0.7,1.1-0.6c0.4,0.1,0.7,0.4,0.7,0.9c0,0.5,0.8,0.6,0.8,0.1c0.1-0.8-0.6-1.6-1.4-1.7
		c-0.9-0.1-1.3,0.5-1.4,1.3C12.8,12.7,13,12.7,13,12.7z M6.9,12.8c0-0.4-0.6-0.7-1-0.7c-0.4,0-0.7,0.4-0.8,0.7c0,0.5-0.8,0.4-0.8,0
		c0-0.8,0.7-1.4,1.5-1.4c0.8,0,1.2,0.7,1.2,1.4C7.1,12.9,6.9,12.9,6.9,12.8z"/>
</g>
</svg>
