<?xml version="1.0" encoding="utf-8"?>
<!-- Generator: Adobe Illustrator 23.0.6, SVG Export Plug-In . SVG Version: 6.00 Build 0)  -->
<svg version="1.1" id="Capa_2" xmlns="http://www.w3.org/2000/svg" xmlns:xlink="http://www.w3.org/1999/xlink" x="0px" y="0px"
	 viewBox="0 0 20.1 20.4" style="enable-background:new 0 0 20.1 20.4;" xml:space="preserve">
<style type="text/css">
	.st0{fill:#D4C4F7;}
	.st1{fill:#2E2E3D;}
	.st2{fill:#F45D5D;}
	.st3{fill:#DED6F2;}
	.st4{fill:#FFC61B;}
</style>
<g>
	<g>
		<circle class="st0" cx="4.3" cy="5.3" r="2.7"/>
		<path class="st1" d="M4.3,8.4C2.6,8.4,1.2,7,1.2,5.3s1.4-3.1,3.1-3.1s3.1,1.4,3.1,3.1S6,8.4,4.3,8.4z M4.3,2.9C3,2.9,2,4,2,5.3
			S3,7.6,4.3,7.6s2.3-1.1,2.3-2.3S5.6,2.9,4.3,2.9z"/>
	</g>
	<g>
		<circle class="st2" cx="4.8" cy="5.5" r="2"/>
	</g>
</g>
<g>
	<g>
		<circle class="st0" cx="15.7" cy="5.3" r="2.7"/>
		<path class="st1" d="M15.7,8.4c-1.7,0-3.1-1.4-3.1-3.1s1.4-3.1,3.1-3.1s3.1,1.4,3.1,3.1S17.4,8.4,15.7,8.4z M15.7,2.9
			c-1.3,0-2.3,1.1-2.3,2.3s1.1,2.3,2.3,2.3S18,6.6,18,5.3S16.9,2.9,15.7,2.9z"/>
	</g>
	<g>
		<circle class="st2" cx="15.3" cy="5.5" r="2"/>
	</g>
</g>
<g>
	<path class="st3" d="M3.9,8c0-3.4,2.8-5.3,6.1-5.3s6.1,1.9,6.1,5.3s-2.8,9-6.1,9S3.9,11.4,3.9,8z"/>
	<path class="st1" d="M10,17.5c-3.6,0-6.5-5.7-6.5-9.4c0-3.4,2.7-5.7,6.5-5.7s6.5,2.3,6.5,5.7C16.6,11.8,13.6,17.5,10,17.5z M10,3.1
		c-2.9,0-5.8,1.5-5.8,5c0,3.3,2.7,8.7,5.8,8.7s5.8-5.4,5.8-8.7C15.8,4.6,12.9,3.1,10,3.1z"/>
</g>
<g>
	<path class="st1" d="M12.2,9.1c0.1-0.3,0.6-0.6,1-0.5c0.4,0.1,0.6,0.4,0.6,0.7c0,0.5,0.7,0.5,0.8,0.1c0.1-0.7-0.5-1.4-1.3-1.4
		C12.6,8,12.1,8.5,12,9.1C12,9.2,12.2,9.2,12.2,9.1L12.2,9.1z"/>
</g>
<g>
	<path class="st1" d="M7.8,9.2C7.8,8.9,7.3,8.6,6.9,8.6c-0.4,0-0.7,0.3-0.7,0.6c-0.1,0.4-0.8,0.4-0.8,0C5.5,8.6,6.2,8,6.9,8
		c0.8,0,1.2,0.6,1.1,1.2C8.1,9.4,7.9,9.4,7.8,9.2L7.8,9.2z"/>
</g>
<g>
	<path class="st2" d="M11.4,15.9c0,1-0.6,1.8-1.4,1.8c-0.8,0-1.4-0.8-1.4-1.8s0.6-1.1,1.4-1.1C10.8,14.9,11.4,14.9,11.4,15.9z"/>
	<path class="st1" d="M10,18.1c-1,0-1.8-1-1.8-2.2c0-1.4,1.2-1.4,1.8-1.4c0.7,0,1.8,0,1.8,1.4C11.8,17.2,11,18.1,10,18.1z M10,15.2
		c-0.8,0-1,0.1-1,0.7c0,0.8,0.5,1.4,1,1.4c0.6,0,1-0.6,1-1.4C11,15.3,10.8,15.2,10,15.2z"/>
</g>
<g>
	<line class="st4" x1="15.8" y1="17.1" x2="12.3" y2="15.3"/>
	<rect x="13.8" y="14.2" transform="matrix(0.4604 -0.8877 0.8877 0.4604 -6.7954 21.2021)" class="st1" width="0.5" height="3.9"/>
</g>
<g>
	<line class="st4" x1="17.9" y1="14.9" x2="12.7" y2="14.1"/>
	<rect x="15" y="11.9" transform="matrix(0.1479 -0.989 0.989 0.1479 -1.2875 27.4514)" class="st1" width="0.5" height="5.2"/>
</g>
<g>
	<line class="st4" x1="1.9" y1="14.9" x2="7" y2="14.1"/>
	<rect x="1.9" y="14.2" transform="matrix(0.989 -0.1479 0.1479 0.989 -2.0908 0.8211)" class="st1" width="5.2" height="0.5"/>
</g>
<g>
	<line class="st4" x1="4.3" y1="17.1" x2="7.8" y2="15.3"/>
	<rect x="4.1" y="15.9" transform="matrix(0.8876 -0.4606 0.4606 0.8876 -6.774 4.6172)" class="st1" width="3.9" height="0.5"/>
</g>
</svg>
