<?xml version="1.0" encoding="utf-8"?>
<!-- Generator: Adobe Illustrator 23.0.6, SVG Export Plug-In . SVG Version: 6.00 Build 0)  -->
<svg version="1.1" id="Capa_2" xmlns="http://www.w3.org/2000/svg" xmlns:xlink="http://www.w3.org/1999/xlink" x="0px" y="0px"
	 viewBox="0 0 20.1 20.4" style="enable-background:new 0 0 20.1 20.4;" xml:space="preserve">
<style type="text/css">
	.st0{fill:#DD52FF;}
	.st1{fill:#46276D;}
	.st2{fill:#48FBFF;}
	.st3{fill:#FF4848;}
	.st4{fill:#3B2156;}
	.st5{fill:#FFFFFF;}
	.st6{fill:#FFBB10;}
</style>
<g>
	<path class="st0" d="M9.3,8.9c0,0,0.1-6.9,6-5.3c0,0-5,2.4-5.2,8.2L9.3,8.9z"/>
	<path class="st1" d="M10.4,14.6L8.9,8.9l0-0.1c0-0.1,0.1-3.5,2.2-5.2c1.1-0.8,2.6-1,4.3-0.6l1.1,0.3l-1,0.5c0,0-4.8,2.4-5,7.9
		L10.4,14.6z M9.7,8.8l0.2,0.8c0.8-3.1,2.9-5,4.2-5.9c-1-0.1-1.8,0.1-2.5,0.6C9.9,5.6,9.7,8.4,9.7,8.8z"/>
</g>
<g>
	<path class="st2" d="M7.8,5.8c0,0-0.8-2.9,4.8-4c0,0-1.6,2.3-1.9,5.7L7.8,5.8z"/>
	<path class="st1" d="M11.1,8.2L7.4,6.1l0-0.2c0,0-0.3-1,0.4-2c0.7-1.2,2.4-2.1,4.8-2.5l1-0.2l-0.6,0.9c0,0-1.6,2.3-1.8,5.5
		L11.1,8.2z M8.2,5.6l2.2,1.3c0.2-1.9,0.9-3.5,1.4-4.4C9.7,3,8.9,3.8,8.5,4.4C8.2,4.9,8.1,5.3,8.2,5.6z"/>
</g>
<g>
	<path class="st3" d="M16.4,13.3c0,3.8-2.8,5.5-6.3,5.5s-6.3-1.7-6.3-5.5S8.1,5,10,5C12,5,16.4,9.5,16.4,13.3z"/>
	<path class="st4" d="M10.1,19.2c-4.1,0-6.7-2.3-6.7-5.9c0-3.9,4.5-8.7,6.7-8.7s6.7,4.8,6.7,8.7C16.8,16.9,14.2,19.2,10.1,19.2z
		 M10.1,5.4c-1.7,0-5.9,4.3-5.9,7.9c0,3.2,2.2,5.1,5.9,5.1s5.9-1.9,5.9-5.1C15.9,9.7,11.7,5.4,10.1,5.4z"/>
</g>
<g>
	<circle class="st5" cx="13.4" cy="11.9" r="2.2"/>
</g>
<g>
	<circle class="st5" cx="6.6" cy="12" r="2.2"/>
</g>
<g>
	<path class="st6" d="M8.3,12.7c0-1,0.8-1.6,1.8-1.6s1.8,0.5,1.8,1.6s-1.8,4-1.8,4S8.3,13.7,8.3,12.7z"/>
</g>
<g>
	<path class="st1" d="M12.6,11.5c0.1-0.3,0.5-0.5,0.8-0.4c0.3,0.1,0.5,0.4,0.5,0.6c0,0.4,0.6,0.4,0.6,0.1c0.1-0.6-0.4-1.2-1.1-1.3
		s-1,0.4-1.1,1C12.4,11.5,12.6,11.6,12.6,11.5z M7.1,11.7c0-0.3-0.4-0.5-0.7-0.5c-0.3,0-0.5,0.3-0.6,0.5c0,0.4-0.6,0.3-0.6,0
		c0-0.6,0.6-1.1,1.2-1.1c0.6,0,0.9,0.5,0.9,1C7.3,11.8,7.2,11.8,7.1,11.7z"/>
</g>
<g>
	<path class="st1" d="M10.1,19.2c-4.1,0-6.7-2.3-6.7-5.9c0-3.9,4.5-8.7,6.7-8.7s6.7,4.8,6.7,8.7C16.8,16.9,14.2,19.2,10.1,19.2z
		 M10.1,5.4c-1.7,0-5.9,4.3-5.9,7.9c0,3.2,2.2,5.1,5.9,5.1s5.9-1.9,5.9-5.1C15.9,9.7,11.7,5.4,10.1,5.4z"/>
</g>
</svg>
