<?xml version="1.0" encoding="utf-8"?>
<!-- Generator: Adobe Illustrator 23.0.6, SVG Export Plug-In . SVG Version: 6.00 Build 0)  -->
<svg version="1.1" id="Capa_2" xmlns="http://www.w3.org/2000/svg" xmlns:xlink="http://www.w3.org/1999/xlink" x="0px" y="0px"
	 viewBox="0 0 1024 1024" style="enable-background:new 0 0 1024 1024;" xml:space="preserve">
<style type="text/css">
	.st0{fill:#1DA1F2;}
	.st1{fill:#FFFFFF;}
	.st2{fill:none;}
</style>
<circle class="st0" cx="512" cy="512" r="512"/>
<g id="Logo_FIXED">
	<path class="st1" d="M400.7,775c238.7,0,369.2-197.7,369.2-369.2c0-5.6,0-11.2-0.4-16.8c25.4-18.4,47.3-41.1,64.7-67.2
		c-23.7,10.5-48.8,17.4-74.5,20.4c27.1-16.2,47.4-41.7,57.1-71.8c-25.5,15.1-53.3,25.8-82.4,31.5c-49.1-52.3-131.3-54.8-183.6-5.6
		c-33.7,31.7-48,78.9-37.5,124c-104.3-5.2-201.6-54.5-267.4-135.6c-34.4,59.3-16.9,135.1,40.2,173.2c-20.7-0.6-40.9-6.2-58.9-16.2
		c0,0.5,0,1.1,0,1.6c0,61.8,43.6,115,104.1,127.2c-19.1,5.2-39.1,6-58.6,2.2c17,52.9,65.7,89.1,121.2,90.1
		c-46,36.1-102.7,55.7-161.2,55.7c-10.3,0-20.6-0.6-30.9-1.9c59.3,38.1,128.4,58.3,198.9,58.2"/>
	<rect x="12" y="12" class="st2" width="1012" height="1012"/>
</g>
</svg>
