<svg width="23" height="16" fill="none" xmlns="http://www.w3.org/2000/svg"><rect x=".25" y=".25" width="22.5" height="15.5" rx="1.75" fill="#fff" stroke="#DAD9E9" stroke-width=".5"/><path fill-rule="evenodd" clip-rule="evenodd" d="M7.272 10.572H5.88L4.834 6.528c-.05-.186-.155-.35-.31-.428a4.49 4.49 0 00-1.277-.428v-.155h2.245c.31 0 .542.233.58.505l.543 2.917 1.393-3.422h1.354l-2.09 5.055zm2.865 0H8.82l1.084-5.055h1.315l-1.083 5.055zm2.785-3.655c.04-.272.271-.428.542-.428.426-.039.89.04 1.278.233l.232-1.088a3.29 3.29 0 00-1.2-.234c-1.277 0-2.206.7-2.206 1.672 0 .74.658 1.128 1.123 1.362.502.233.696.388.657.622 0 .35-.387.505-.773.505a3.28 3.28 0 01-1.355-.311l-.232 1.089a3.75 3.75 0 001.432.272c1.432.039 2.322-.661 2.322-1.711 0-1.322-1.82-1.4-1.82-1.983zm6.425 3.655l-1.045-5.055H17.18a.583.583 0 00-.542.388l-1.935 4.667h1.355l.27-.739h1.665l.154.74h1.2zm-1.973-3.694l.387 1.905h-1.084l.697-1.905z" fill="#172B85"/></svg>