<svg width="38" height="17" fill="none" xmlns="http://www.w3.org/2000/svg"><path fill-rule="evenodd" clip-rule="evenodd" d="M20.572 2.2l-2.65.586V.574L20.573 0v2.2zm5.51 1.225c-1.034 0-1.699.499-2.068.846l-.137-.672h-2.323v12.639l2.64-.575.01-3.067c.38.281.94.682 1.868.682 1.89 0 3.61-1.56 3.61-4.997-.01-3.143-1.752-4.856-3.6-4.856zm-.633 7.469c-.622 0-.992-.228-1.245-.51l-.01-4.021c.274-.315.654-.531 1.256-.531.96 0 1.625 1.105 1.625 2.525 0 1.453-.654 2.537-1.625 2.537zM38.002 8.39c0-2.775-1.31-4.965-3.811-4.965-2.512 0-4.032 2.19-4.032 4.943 0 3.263 1.794 4.91 4.37 4.91 1.256 0 2.206-.292 2.924-.704v-2.168c-.718.368-1.541.596-2.587.596-1.023 0-1.931-.368-2.047-1.647h5.161c0-.06.004-.196.008-.352.006-.213.014-.463.014-.613zm-5.215-1.03c0-1.225.728-1.734 1.393-1.734.644 0 1.33.51 1.33 1.734h-2.723zM17.923 3.61h2.65v9.484h-2.65V3.61zm-3.008 0l.169.802c.622-1.171 1.857-.933 2.195-.803v2.494c-.327-.12-1.383-.271-2.005.563v6.428h-2.64V3.609h2.28zm-5.11-2.353l-2.575.564-.01 8.683c0 1.604 1.17 2.785 2.733 2.785.866 0 1.499-.162 1.847-.357v-2.2c-.337.14-2.005.639-2.005-.966V5.918H11.8V3.61H9.795l.01-2.353zm-6.237 4.52c-.56 0-.897.163-.897.586 0 .461.58.664 1.302.916 1.176.411 2.723.951 2.73 2.954 0 1.94-1.51 3.056-3.705 3.056-.908 0-1.9-.184-2.882-.618v-2.58c.887.5 2.006.868 2.882.868.59 0 1.013-.163 1.013-.661 0-.512-.63-.745-1.39-1.028C1.46 8.84 0 8.3 0 6.493c0-1.919 1.425-3.068 3.568-3.068a6.8 6.8 0 012.618.499v2.547c-.803-.444-1.816-.693-2.618-.693z" fill="#6461FC"/></svg>