<?xml version="1.0" encoding="utf-8"?>
<!-- Generator: Adobe Illustrator 23.0.6, SVG Export Plug-In . SVG Version: 6.00 Build 0)  -->
<svg version="1.1" id="Capa_3" xmlns="http://www.w3.org/2000/svg" xmlns:xlink="http://www.w3.org/1999/xlink" x="0px" y="0px"
	 viewBox="0 0 1024 1024" style="enable-background:new 0 0 1024 1024;" xml:space="preserve">
<style type="text/css">
	.st0{fill:#25D366;}
	.st1{fill:#FFFFFF;}
</style>
<circle class="st0" cx="512" cy="512" r="512"/>
<g>
	<path class="st1" d="M515.5,808.1c-59.3,0-117.3-16.4-168.7-48.1l-108,34.3c-6.8,2.2-14.3,0.3-19.3-4.8c-5-5.1-6.7-12.6-4.4-19.4
		l34.7-102.7c-17.1-24.9-30.5-52-40-80.8c-10.4-31.9-15.7-65.2-15.7-98.8c0.5-85.9,34.3-166.4,95.2-226.7
		c60.6-60.1,141-93.2,226.3-93.2c0.4,0,0.7,0,1.1,0c0.2,0,0.4,0,0.5,0c85.5,0,165.9,33.1,226.5,93.4c60.8,60.4,94.5,140.8,95,226.5
		c0,0.1,0,0.2,0,0.3c-0.5,62.2-18.8,122.5-52.9,174.4c-47.3,72-119.8,121.3-204.2,138.8C559.6,805.8,537.4,808.1,515.5,808.1z
		 M349.4,720.1c3.7,0,7.3,1.1,10.4,3.1c63.6,41.7,139.6,56.2,214,40.8c74.4-15.4,138.4-58.9,180.2-122.5
		c30.1-45.8,46.2-99,46.7-153.8c-0.9-155.6-128-281.9-283.6-281.9c-0.2,0-0.4,0-0.6,0c-0.3,0-0.7,0-1,0
		c-155.6,0-282.7,126.3-283.5,282c-0.1,58.9,19.1,117.5,54,165c3.7,5,4.7,11.5,2.7,17.3l-25.8,76.4l80.8-25.6
		C345.6,720.4,347.5,720.1,349.4,720.1z M589.3,665.2c-3.9,0-7.8-0.1-11.8-0.4c-43.7-3.2-92.1-23.3-136.4-56.7
		c-44.6-33.6-78.3-75.7-94.9-118.5c-21.7-56.1-12.1-109.8,27-151.1c13.5-14.7,34.8-17.2,50.4-14.6c16.8,2.8,29.5,11.6,34.9,24.1
		c2,4.6,4.6,11,7.4,17.7c4.6,11.3,13.1,32,15.9,36.8c0.6,0.8,1.1,1.6,1.6,2.4c5.4,9.9,5.5,21.7,0.2,31.7c-3.4,6.7-6.1,9.3-10.6,13.4
		c-1.7,1.5-3.9,3.5-7.1,6.6c24.2,36.7,58,65.5,98.3,83.3c4-5.1,9.5-12.8,13.2-18.8c6.9-10.9,15.8-14.1,22.1-14.8
		c7-0.8,13.1,1,18.6,3.2c5.5,2.1,23.7,10.9,49.4,23.3c2.7,1.3,4.7,2.3,6,2.9c1.1,0.5,2.1,1,3.1,1.5c8,3.8,15.5,7.4,20.1,15.2
		c1.1,1.8,1.8,3.7,2.2,5.7c5.7,16.8,3.2,35.3-6.8,50.1C670.8,645.2,634.6,665.2,589.3,665.2z M412.8,360.9c-0.2,0-0.4,0-0.6,0
		c-6,0.1-9.8,2-11,3.2c-0.1,0.1-0.2,0.2-0.3,0.3c-29.4,31-35.9,68.5-19.3,111.4c29,74.8,121.8,145.4,198.6,151
		c36.7,2.7,63.3-10.1,79.1-38.1c0.3-0.5,0.6-1,1-1.5c2.9-4.1,4-9.2,3.2-14.1c-1.1-0.5-2.2-1.1-3.3-1.6c-1.1-0.5-2.2-1-3.4-1.6
		c-1.3-0.6-3.4-1.7-6.1-3c-9.2-4.5-35.4-17.2-44.2-21.1c-5.3,7.9-12.4,17.6-17.1,22.9c-7.3,8.2-20.1,15.9-39.4,6.5
		c-49.7-21.8-91.1-57.6-119.8-103.7c-0.1-0.1-0.2-0.3-0.3-0.4c-6.1-10.4-5-19.4-2.9-25.1c2.2-6.2,6.1-10.4,8.5-12.9l0.4-0.5
		c0.2-0.2,0.3-0.3,0.5-0.5c5.3-5.3,8.7-8.4,10.9-10.4c0.3-0.3,0.7-0.6,1-0.9c-3.4-6.2-8.2-17.2-17.8-40.7c-2.6-6.3-5-12.2-6.8-16.4
		C422.8,362.7,418.8,360.9,412.8,360.9z M481,401.4C481,401.4,481,401.4,481,401.4C481,401.4,481,401.4,481,401.4z M424.2,363.8
		L424.2,363.8L424.2,363.8z"/>
</g>
</svg>
