<?xml version="1.0" encoding="utf-8"?>
<!-- Generator: Adobe Illustrator 23.0.6, SVG Export Plug-In . SVG Version: 6.00 Build 0)  -->
<svg version="1.1" xmlns="http://www.w3.org/2000/svg" xmlns:xlink="http://www.w3.org/1999/xlink" x="0px" y="0px"
	 viewBox="0 0 64 64" style="enable-background:new 0 0 64 64;" xml:space="preserve">
<style type="text/css">
	.st0{display:none;fill:#03CDF5;}
	.st1{fill:#5746FF;}
	.st2{fill:#FEF38B;}
	.st3{fill:#E85B92;}
	.st4{fill:#03CDF5;}
	.st5{fill:#FFE027;}
	.st6{fill:#03487C;}
</style>
<g id="Capa_1">
	<path class="st0" d="M-8.6,123.2V17.4C-8.6-34.2,33.2-76,84.8-76h12.5c51.6,0,93.4,41.8,93.4,93.4v120.4l-54.9,22.8
		c-28.6,8-68.3,8.3-96.7-0.5l-47.7-22.3V123.2L-8.6,123.2z"/>
</g>
<g id="Capa_2">
	<circle class="st1" cx="32" cy="32" r="32"/>
	<path class="st2" d="M27.5,14.4c-0.2,0-0.4-0.1-0.5-0.3l-1.2-7.6c0-0.2,0.1-0.3,0.4-0.4c0.2,0,0.4,0.1,0.5,0.3l1.2,7.6
		C27.9,14.3,27.7,14.4,27.5,14.4z"/>
	<path class="st3" d="M28,6.5c0.1,0.9-0.6,1.6-1.5,1.7c-1,0.1-1.9-0.5-2-1.4s0.6-1.6,1.5-1.7C27,5.1,27.9,5.7,28,6.5z M31,14.7
		c-0.3-1.7-2.1-2.9-4-2.7c-2,0.2-3.4,1.8-3.2,3.5L31,14.7z"/>
	<path class="st4" d="M49.5,58.8l-35.1-0.2c0,0,7.1,5.3,17.7,5.3S49.5,58.8,49.5,58.8z"/>
	<path class="st4" d="M2.1,83.5"/>
	<path class="st4" d="M15.5,48.5V31c0-8.6,6.9-15.5,15.5-15.5H33c8.6,0,15.5,6.9,15.5,15.5v17.6L15.5,48.5z"/>
	<path class="st5" d="M20.6,50.6h22.7v6.2H20.6V50.6z"/>
	<path class="st3" d="M49.7,32c2.3,0.4,4,2.3,4,4.6v3.1c0,2.3-1.7,4.3-4,4.6V32z M14.3,32c-2.3,0.4-4,2.3-4,4.6v3.1
		c0,2.3,1.7,4.3,4,4.6V32z"/>
	<path class="st6" d="M38.8,29.2c0.3-1,1.7-1.7,2.8-1.4c1,0.3,1.7,1.2,1.7,2.2c0,1.3,1.9,1.4,2.1,0.1c0.3-2-1.5-4-3.7-4.2
		c-2.2-0.3-3.5,1.3-3.7,3.2C38.2,29.4,38.8,29.5,38.8,29.2z M25,29.7c-0.1-1-1.5-1.8-2.4-1.7c-1,0.1-1.8,1-1.9,1.8
		c-0.1,1.2-2.1,1.2-2.1-0.1c0.1-1.9,1.9-3.6,3.9-3.5c2.1,0.1,3.2,1.7,3.1,3.5C25.6,29.9,25,30,25,29.7z"/>
</g>
</svg>
