<svg width="23" height="16" fill="none" xmlns="http://www.w3.org/2000/svg"><rect x=".25" y=".25" width="22.5" height="15.5" rx="1.75" fill="#fff" stroke="#DAD9E9" stroke-width=".5"/><path fill-rule="evenodd" clip-rule="evenodd" d="M14.597 12.287c2.533 0 4.586-2 4.586-4.467 0-2.467-2.053-4.467-4.586-4.467A4.642 4.642 0 0011.62 4.42a4.642 4.642 0 00-2.975-1.067c-2.534 0-4.587 2-4.587 4.467 0 2.467 2.053 4.467 4.587 4.467a4.642 4.642 0 002.975-1.067 4.642 4.642 0 002.976 1.067z" fill="#ED0006"/><path fill-rule="evenodd" clip-rule="evenodd" d="M11.621 11.22a4.41 4.41 0 001.612-3.4 4.41 4.41 0 00-1.612-3.4 4.642 4.642 0 012.975-1.067c2.534 0 4.587 2 4.587 4.467 0 2.467-2.053 4.467-4.587 4.467a4.642 4.642 0 01-2.975-1.067z" fill="#F9A000"/><path fill-rule="evenodd" clip-rule="evenodd" d="M11.622 11.22a4.41 4.41 0 001.611-3.4 4.41 4.41 0 00-1.611-3.4 4.41 4.41 0 00-1.612 3.4 4.41 4.41 0 001.612 3.4z" fill="#FF5E00"/></svg>