<svg width="64" height="64" viewBox="0 0 64 64" fill="none" xmlns="http://www.w3.org/2000/svg">
<path d="M32 64C49.6731 64 64 49.6753 64 32.0048C64 14.3343 49.6731 0.00952148 32 0.00952148C14.3269 0.00952148 4.16239e-07 14.3343 9.29697e-07 32.0048C1.44315e-06 49.6753 14.3269 64 32 64Z" fill="#5746FF"/>
<mask id="mask0" mask-type="alpha" maskUnits="userSpaceOnUse" x="0" y="0" width="64" height="64">
<path d="M32 64C49.6731 64 64 49.6731 64 32C64 14.3269 49.6731 0 32 0C14.3269 0 4.26692e-07 14.3269 9.53044e-07 32C1.4794e-06 49.6731 14.3269 64 32 64Z" fill="#5746FF"/>
</mask>
<g mask="url(#mask0)">
<path d="M32.2537 50.146H25.6575C23.184 50.146 21.1914 48.1534 21.1914 45.6798V10.638C21.1914 8.16445 23.184 6.17188 25.6575 6.17188H32.2537V50.146Z" fill="#030307"/>
<path d="M32.2539 6.20581H39.0218C41.4953 6.20581 43.4879 8.19839 43.4879 10.6719V45.7481C43.4879 48.2217 41.4953 50.2142 39.0218 50.2142H32.2539V6.20581Z" fill="#0B0914"/>
<path d="M42.1134 11.019H22.5312V42.7285H42.1134V11.019Z" fill="white"/>
<path d="M34.6927 46.0244C34.6927 47.1583 33.7308 48.086 32.5971 48.086C31.429 48.086 30.5015 47.1583 30.5015 46.0244C30.5015 44.8906 31.4634 43.9628 32.5971 43.9628C33.7308 43.9285 34.6927 44.8562 34.6927 46.0244Z" fill="#2C2A3F"/>
<path d="M41.1172 9.2649C41.1172 9.60849 40.8424 9.91773 40.4645 9.91773H24.7987C24.4552 9.91773 24.146 9.64285 24.146 9.2649C24.146 8.9213 24.4208 8.61206 24.7987 8.61206H40.4645C40.8424 8.61206 41.1172 8.88694 41.1172 9.2649Z" fill="#2C2A3F"/>
<rect x="23.8403" y="30.0129" width="16.7766" height="5.29866" rx="2" fill="#EE3F8B"/>
<rect x="23.8403" y="13.2378" width="16.7766" height="14.1277" rx="2" fill="white"/>
<rect x="24.3403" y="13.7378" width="15.7766" height="13.1277" rx="1.5" stroke="#29273F" stroke-opacity="0.15"/>
<ellipse cx="32.2286" cy="18.9749" rx="3.09043" ry="3.09043" fill="#29273F" fill-opacity="0.15"/>
<path d="M43.4833 59.5266C40.1907 59.7324 36.9187 62.5517 35.2518 64.2186C34.6139 62.9839 33.6261 61.2141 33.0087 60.9054C32.1238 60.4733 26.2589 53.5176 26.3412 49.834C26.3412 49.4636 26.4029 49.1549 26.547 48.8462C26.547 48.8462 26.691 48.1054 26.9586 47.2411C26.9586 47.2205 26.9791 47.1999 26.9791 47.1588C27.3496 45.9652 27.9463 44.5453 28.7283 44.3395V32.7536C28.7283 31.7864 29.5309 31.0044 30.5393 31.0044C30.7039 31.0044 30.8685 31.025 31.0126 31.0661C31.3213 31.1484 31.5888 31.3131 31.8152 31.5189C32.1444 31.8275 32.3502 32.2803 32.3502 32.7536V40.7588C32.3502 40.7382 32.3502 40.697 32.3502 40.6764C32.3914 40.2854 32.7618 39.9356 33.2762 39.7915C33.4615 39.7298 33.6672 39.7092 33.873 39.7092C34.2846 39.7092 34.6756 39.8327 34.9431 39.9973C34.9431 39.9973 34.9431 39.9973 34.9637 39.9973C35.2518 40.1825 35.4164 40.4501 35.4164 40.7382V42.5697C35.4164 41.9935 36.0955 41.5202 36.9599 41.5202C37.392 41.5202 37.7624 41.6436 38.0505 41.8288C38.3386 42.0141 38.5033 42.2816 38.5033 42.5697V45.0597C38.5033 45.0186 38.5033 44.998 38.5033 44.9568C38.5856 44.4218 39.2235 44.0308 40.0261 44.0308C40.4582 44.0308 40.8287 44.1543 41.1168 44.3395C41.3843 44.5247 41.5695 44.7922 41.5695 45.0803V54.7318C41.5489 55.452 42.5573 57.6745 43.4833 59.5266Z" fill="#F4BE92"/>
<path d="M57.1267 83.1703L43.9151 82.3472L40.7048 78.7253L34.1196 65.4314C34.1196 65.4314 34.5312 64.9375 35.2515 64.2173C36.9183 62.5504 40.1904 59.7311 43.483 59.5253C43.9769 59.4841 44.4913 59.5253 44.9852 59.6282L47.3312 65.4314L57.1267 83.1703Z" fill="#32A2ED"/>
<rect x="26.8452" y="24.1641" width="11.6329" height="0.894971" rx="0.447485" fill="#29273F" fill-opacity="0.15"/>
<path d="M28.7073 44.3376C28.7073 44.3376 28.7279 44.811 28.7073 45.4901C28.7073 45.8399 28.6867 46.2309 28.6661 46.6631C28.6456 46.8688 28.6456 47.0952 28.625 47.3216C28.6044 47.5479 28.6044 47.7743 28.5838 48.0007C28.5632 48.4534 28.5221 48.9061 28.5015 49.3383C28.5015 49.5441 28.4809 49.7499 28.4603 49.9557C28.4603 50.1615 28.4398 50.3467 28.4398 50.5113C28.4398 50.6759 28.4192 50.8406 28.4398 50.9846C28.4398 51.1287 28.4398 51.2521 28.4398 51.355C28.4603 51.5608 28.4603 51.6637 28.4603 51.6637C28.4603 51.6637 28.4192 51.5608 28.3369 51.355C28.2957 51.2521 28.2751 51.1287 28.234 51.0052C28.1928 50.8611 28.1722 50.6965 28.1517 50.5319C28.1311 50.3672 28.1105 50.1615 28.0899 49.9762C28.0693 49.7705 28.0693 49.5647 28.0693 49.3383C28.0693 49.1119 28.0693 48.8856 28.0693 48.6592C28.0693 48.4328 28.0899 48.2065 28.0899 47.9595C28.1105 47.7332 28.1311 47.5068 28.1517 47.2598C28.1722 47.0335 28.1928 46.8071 28.234 46.6013C28.2957 46.1692 28.3574 45.7782 28.4192 45.4283C28.5838 44.7904 28.7073 44.3376 28.7073 44.3376Z" fill="#D39871"/>
<path d="M32.4942 44.3373C32.4942 44.3373 32.4736 44.2756 32.4324 44.1727C32.4118 44.0698 32.3707 43.9257 32.3295 43.7405C32.2884 43.5552 32.2678 43.37 32.2266 43.1436C32.2061 42.9172 32.1855 42.6908 32.1649 42.4438C32.1649 42.2174 32.1443 41.9704 32.1649 41.744C32.1649 41.5176 32.1855 41.3118 32.2061 41.1472C32.2266 40.9619 32.2472 40.8179 32.2678 40.7149C32.2884 40.612 32.309 40.5503 32.309 40.5503C32.309 40.5503 32.3295 40.612 32.3707 40.7149C32.3913 40.8179 32.4324 40.9619 32.4736 41.1472C32.5147 41.3324 32.5353 41.5176 32.5765 41.744C32.5971 41.9704 32.6176 42.1968 32.6382 42.4438C32.6382 42.6702 32.6588 42.9172 32.6382 43.1436C32.6382 43.37 32.6176 43.5758 32.597 43.7405C32.5765 43.9257 32.5559 44.0698 32.5353 44.1727C32.5147 44.2756 32.4942 44.3373 32.4942 44.3373Z" fill="#D39871"/>
<path d="M35.3954 42.322C35.3954 42.322 35.4778 42.4455 35.5189 42.6307C35.5807 42.816 35.6218 43.0835 35.6218 43.3305C35.6218 43.5775 35.5807 43.8451 35.5189 44.0303C35.4572 44.2155 35.3749 44.339 35.3749 44.339C35.3749 44.339 35.2926 44.2155 35.2308 44.0303C35.1691 43.8451 35.1279 43.5775 35.1279 43.3305C35.1279 43.0835 35.1691 42.816 35.2308 42.6307C35.3337 42.4455 35.3954 42.322 35.3954 42.322Z" fill="#D39871"/>
<path d="M38.4824 44.9756C38.4824 44.9756 38.5647 45.0991 38.6264 45.2843C38.6881 45.4696 38.7499 45.7165 38.791 45.9635C38.8116 46.087 38.8116 46.2105 38.8322 46.3134C38.8322 46.4369 38.8322 46.5398 38.8528 46.6221C38.8528 46.6633 38.8528 46.7045 38.8528 46.7456C38.8528 46.7868 38.8528 46.828 38.8528 46.8485C38.8528 46.9103 38.8528 46.9515 38.8528 46.9515C38.8528 46.9515 38.8116 46.9309 38.7704 46.9103C38.7499 46.8897 38.7087 46.8691 38.6881 46.828C38.647 46.7868 38.6264 46.7662 38.5852 46.7045C38.4618 46.5192 38.3589 46.2723 38.3383 46.0047C38.2972 45.7371 38.3177 45.4696 38.3795 45.2843C38.4 45.0991 38.4824 44.9756 38.4824 44.9756Z" fill="#D39871"/>
<path d="M29.5718 33.8448H31.5679V32.1159C31.5679 32.1159 31.3416 31.375 30.4567 31.375C29.5718 31.375 29.5718 32.2394 29.5718 32.2394V33.8448Z" fill="#F4E4D7"/>
</g>
</svg>
