<?xml version="1.0" encoding="utf-8"?>
<!-- Generator: Adobe Illustrator 23.0.6, SVG Export Plug-In . SVG Version: 6.00 Build 0)  -->
<svg version="1.1" id="Capa_3" xmlns="http://www.w3.org/2000/svg" xmlns:xlink="http://www.w3.org/1999/xlink" x="0px" y="0px"
	 viewBox="0 0 1024 1024" style="enable-background:new 0 0 1024 1024;" xml:space="preserve">
<style type="text/css">
	.st0{fill:#8888A3;}
	.st1{fill:#FFFFFF;}
</style>
<circle class="st0" cx="512" cy="512" r="512"/>
<g>
	<path class="st1" d="M761.3,730.4H272.7c-32.6,0-59.7-27.1-59.7-59.7V344.9c0-32.6,27.1-59.7,59.7-59.7h488.6
		c32.6,0,59.7,27.1,59.7,59.7v325.7C821,703.2,793.9,730.4,761.3,730.4z M272.7,323.2c-13.6,0-21.7,10.9-21.7,21.7v325.7
		c0,13.6,10.9,21.7,21.7,21.7h488.6c13.6,0,21.7-10.9,21.7-21.7V344.9c0-13.6-10.9-21.7-21.7-21.7
		C761.3,323.2,272.7,323.2,272.7,323.2z"/>
</g>
<g>
	<path class="st1" d="M517,526.8c-24.4,0-46.1-8.1-65.1-21.7l-222.6-171c-8.1-5.4-8.1-16.3-2.7-24.4c5.4-8.1,19-10.9,27.1-2.7
		l219.9,171c24.4,19,62.4,19,86.9,0l219.9-171c8.1-5.4,19-5.4,24.4,2.7s5.4,19-2.7,24.4l-219.9,171
		C563.1,518.7,541.4,526.8,517,526.8z"/>
</g>
</svg>
