<svg width="24" height="24" viewBox="0 0 24 24" fill="none" xmlns="http://www.w3.org/2000/svg">
<g clip-path="url(#clip0)">
<path d="M23.5238 12.2763C23.5238 11.4605 23.4577 10.6404 23.3166 9.83789H11.9978V14.4589H18.4795C18.2106 15.9492 17.3463 17.2676 16.0809 18.1054V21.1037H19.9479C22.2187 19.0137 23.5238 15.9272 23.5238 12.2763Z" fill="#4285F4"/>
<path d="M11.9979 24.0003C15.2344 24.0003 17.9637 22.9377 19.9523 21.1034L16.0854 18.1051C15.0095 18.837 13.6205 19.2515 12.0023 19.2515C8.8717 19.2515 6.21728 17.1394 5.26486 14.2998H1.27441V17.3907C3.31153 21.4429 7.46071 24.0003 11.9979 24.0003Z" fill="#34A853"/>
<path d="M5.26034 14.2997C4.75768 12.8094 4.75768 11.1956 5.26034 9.7052V6.61426H1.2743C-0.427698 10.005 -0.427698 13.9999 1.2743 17.3907L5.26034 14.2997Z" fill="#FBBC04"/>
<path d="M11.9979 4.74966C13.7087 4.7232 15.3622 5.36697 16.6013 6.54867L20.0273 3.12262C17.8579 1.0855 14.9786 -0.034466 11.9979 0.000808666C7.46071 0.000808666 3.31153 2.55822 1.27441 6.61481L5.26045 9.70575C6.20846 6.86173 8.86729 4.74966 11.9979 4.74966Z" fill="#EA4335"/>
</g>
<defs>
<clipPath id="clip0">
<rect width="23.5238" height="24" fill="white"/>
</clipPath>
</defs>
</svg>
