<svg width="38" height="38" viewBox="0 0 38 38" fill="none" xmlns="http://www.w3.org/2000/svg">
<path fill-rule="evenodd" clip-rule="evenodd" d="M19 3.8C10.6053 3.8 3.8 10.6053 3.8 19C3.8 27.3947 10.6053 34.2 19 34.2C27.3947 34.2 34.2 27.3947 34.2 19C34.2 10.6053 27.3947 3.8 19 3.8ZM0 19C0 8.50659 8.50659 0 19 0C29.4934 0 38 8.50659 38 19C38 29.4934 29.4934 38 19 38C8.50659 38 0 29.4934 0 19Z" fill="white" fill-opacity="0.5"/>
<path fill-rule="evenodd" clip-rule="evenodd" d="M19 0C29.4923 0 38 8.50766 38 19H34.2C34.2 10.6063 27.3937 3.8 19 3.8V0Z" fill="white"/>
</svg>
