<?xml version="1.0" standalone="no"?>
<!DOCTYPE svg PUBLIC "-//W3C//DTD SVG 20010904//EN"
 "http://www.w3.org/TR/2001/REC-SVG-20010904/DTD/svg10.dtd">
<svg version="1.0" xmlns="http://www.w3.org/2000/svg"
 width="700.000000pt" height="700.000000pt" viewBox="0 0 700.000000 700.000000"
 preserveAspectRatio="xMidYMid meet">
<metadata>
Created by potrace 1.11, written by Peter Selinger 2001-2013
</metadata>
<g transform="translate(0.000000,700.000000) scale(0.100000,-0.100000)"
fill="#000000" stroke="none">
<path d="M1200 5989 c-349 -30 -666 -213 -866 -499 -91 -131 -147 -271 -189
-475 -14 -67 -14 -291 0 -370 35 -201 113 -378 223 -503 98 -113 244 -252 312
-297 60 -40 251 -135 270 -135 5 0 21 -5 36 -12 25 -12 26 -15 20 -73 -3 -33
-12 -103 -21 -155 -25 -149 -27 -173 -30 -380 -5 -355 57 -633 210 -945 225
-460 700 -943 1230 -1252 85 -50 115 -60 115 -40 0 11 20 5 78 -23 80 -39 241
-96 352 -125 234 -61 476 -97 659 -98 65 0 241 12 251 18 3 2 31 6 62 9 31 3
63 8 70 11 7 2 30 6 50 9 21 3 57 10 80 15 24 6 54 12 68 14 105 20 331 89
364 113 13 9 33 12 56 8 31 -5 53 3 143 49 59 31 128 70 153 86 25 17 47 31
50 31 8 0 145 101 223 164 184 149 427 416 554 609 122 184 253 477 316 702
17 61 32 121 35 135 2 14 7 36 10 50 3 14 8 36 10 50 2 14 7 41 10 60 40 241
40 537 0 850 -8 57 -9 99 -3 104 2 2 54 29 114 60 208 106 348 237 482 451 49
78 105 221 133 340 41 173 44 267 15 430 -36 199 -96 346 -196 482 -58 78
-198 217 -284 282 -135 102 -323 177 -500 200 -69 9 -310 7 -351 -2 -12 -3
-38 -8 -59 -11 -157 -25 -334 -108 -468 -219 -34 -28 -106 -95 -160 -147 -54
-52 -104 -96 -112 -98 -7 -2 -35 8 -62 21 -117 59 -422 152 -565 172 -150 21
-698 28 -863 12 -222 -23 -519 -119 -769 -250 l-102 -54 -34 51 c-19 28 -57
81 -86 117 -199 251 -523 429 -830 454 -120 11 -127 11 -204 4z m3335 -2137
c17 -288 172 -611 412 -856 132 -134 235 -207 465 -330 48 -26 94 -56 102 -67
12 -18 9 -39 -29 -188 -55 -210 -94 -331 -111 -338 -7 -3 -23 5 -36 17 -51 50
-180 88 -288 85 -85 -3 -124 -11 -185 -40 -74 -34 -107 -70 -128 -137 -9 -27
13 -91 40 -120 31 -32 110 -72 176 -89 44 -11 168 -8 259 5 16 2 30 1 33 -3 7
-12 -31 -78 -105 -181 -331 -462 -700 -724 -1195 -851 -143 -37 -221 -44 -495
-44 -206 0 -301 7 -375 26 -51 14 -71 18 -119 25 -33 5 -93 27 -201 74 -103
44 -285 138 -350 180 -190 125 -500 433 -614 610 -72 113 -180 324 -236 462
-29 71 -28 88 11 218 33 109 59 154 136 230 164 165 371 268 773 389 155 46
497 126 675 157 14 3 32 7 40 9 8 2 31 7 50 10 154 26 316 83 501 176 334 167
554 332 734 552 26 32 50 55 53 52 3 -3 6 -18 7 -33z"/>
<path d="M2433 2814 c-109 -22 -192 -71 -288 -169 -116 -117 -166 -264 -115
-335 13 -18 42 -41 65 -51 76 -34 132 -7 181 86 17 34 57 84 96 120 53 50 76
65 118 75 70 17 168 8 222 -20 98 -50 181 -161 218 -289 13 -46 28 -80 34 -78
6 2 20 20 30 42 40 80 18 302 -40 402 -93 161 -325 258 -521 217z"/>
<path d="M4517 2824 c-1 -1 -27 -4 -59 -8 -222 -23 -393 -220 -404 -466 -4
-103 10 -166 43 -187 30 -20 34 -15 44 49 21 129 133 276 245 318 46 17 73 21
125 17 117 -8 199 -64 283 -195 54 -83 77 -102 126 -102 79 0 142 58 142 131
0 156 -169 348 -364 414 -41 13 -174 35 -181 29z"/>
<path d="M1985 2142 c-44 -5 -165 -44 -165 -53 0 -4 -9 -11 -20 -14 -11 -3
-31 -21 -44 -38 -52 -68 -41 -144 30 -206 65 -57 127 -75 254 -76 160 0 262
41 309 126 40 71 19 142 -61 199 -68 50 -193 75 -303 62z"/>
<path d="M4407 1713 c-1 -1 -319 -4 -707 -8 -898 -8 -938 -10 -985 -29 -35
-15 -37 -18 -31 -48 7 -37 93 -208 138 -274 130 -192 350 -336 575 -373 389
-66 740 78 950 389 37 55 118 223 130 270 8 31 9 41 4 68 -1 6 -69 11 -74 5z"/>
</g>
</svg>
