<svg width="272" height="188" fill="none" xmlns="http://www.w3.org/2000/svg"><path opacity=".06" fill-rule="evenodd" clip-rule="evenodd" d="M84.11 181.922c42.053 18.612 80.514-18.283 117.507-9.559 20.25 4.776 59.776 20.58 69.73-54.877 6.257-48.738-35.323-66.688-83.202-47.64-13.819 3.581-23.95.552-34.483-6.238-10.533-6.79-21.84-32.346-48.433-40.834C25.202-2.771-73.374 112.222 84.111 181.922z" fill="#1A0FA6"/><path d="M42.223 112.888h-4.006c-2.97 0-5.388 2.414-5.388 5.38 0 2.967 2.418 5.381 5.388 5.381h4.006" fill="#F2994A"/><path d="M232.39 112.888h4.006c2.97 0 5.388 2.414 5.388 5.38 0 2.967-2.418 5.381-5.388 5.381h-4.006" fill="#B0B0C8"/><path d="M174.823 101.693C130.215 101.441 85.607 101 41 101v33h193v-32.055c-19.749 0-39.429-.126-59.177-.252z" fill="#fff"/><path d="M174.826 101.193h-.001c-13.38-.076-26.762-.168-40.144-.261-31.226-.216-62.454-.432-93.681-.432h-.5v34h194v-33.055h-.5c-19.678 0-39.289-.125-58.969-.251l-.205-.001z" stroke="#2A2376" stroke-opacity=".2"/><mask id="a" maskUnits="userSpaceOnUse" x="40" y="46" width="195" height="56" fill="#000"><path fill="#fff" d="M40 46h195v56H40z"/><path d="M41 101.929V80.256C41.207 60.928 58.746 47 73.868 47H201.13c15.122 0 33.144 25.013 32.868 44.412V102"/></mask><path d="M41 101.929V80.256C41.207 60.928 58.746 47 73.868 47H201.13c15.122 0 33.144 25.013 32.868 44.412V102" fill="#fff"/><path d="M41 80.256l-1-.01v.01h1zm192.997 11.156l-1-.014v.014h1zM42 101.93V80.256h-2v21.673h2zm0-21.663c.1-9.35 4.392-17.415 10.524-23.156C58.67 51.359 66.598 48 73.868 48v-2c-7.851 0-16.253 3.605-22.71 9.65C44.688 61.705 40.107 70.268 40 80.245l2 .021zM73.868 48H201.13v-2H73.869v2zm127.261 0c3.509 0 7.273 1.455 10.983 4.033 3.703 2.572 7.289 6.22 10.419 10.49 6.274 8.56 10.6 19.454 10.466 28.875l2 .028c.142-9.978-4.405-21.29-10.853-30.086-3.232-4.408-6.97-8.226-10.891-10.95-3.913-2.719-8.072-4.39-12.124-4.39v2zm31.868 43.412V102h2V91.412h-2z" fill="#2A2376" fill-opacity=".2" mask="url(#a)"/><path d="M174.916 129.61h-.856V48.013c0-.406.214-.65.428-.65.268 0 .428.325.428.65v81.597z" fill="#2A2376" fill-opacity=".2"/><path d="M241.3 136.41c0 3.587-3.178 6.484-7.115 6.484H40.841c-3.937 0-7.114-2.897-7.114-6.484s3.177-6.484 7.114-6.484h193.344c3.937 0 7.115 2.897 7.115 6.484z" fill="#3C2E63"/><path d="M62.531 143.171c0-9.934 8.082-17.935 18.098-17.935 10.016 0 18.098 8.001 18.098 17.935" stroke="#4F4373" stroke-width="9.36" stroke-miterlimit="10" stroke-linecap="round" stroke-linejoin="round"/><path d="M98.727 144.136c0 9.933-8.082 17.935-18.098 17.935-10.016 0-18.098-8.002-18.098-17.935 0-9.933 8.082-17.935 18.098-17.935 10.016 0 18.098 8.002 18.098 17.935z" fill="#2D234A"/><path d="M90.024 144.136c0 5.174-4.214 9.313-9.394 9.313-5.181 0-9.395-4.208-9.395-9.313 0-5.173 4.214-9.312 9.395-9.312 5.18 0 9.394 4.139 9.394 9.312z" fill="#4F4373"/><path d="M84.773 144.136c0 2.276-1.865 4.07-4.144 4.07-2.28 0-4.145-1.863-4.145-4.07 0-2.276 1.865-4.07 4.145-4.07 2.28 0 4.144 1.794 4.144 4.07z" fill="#EDEDED"/><path d="M82.425 144.136c0 .966-.829 1.794-1.796 1.794a1.782 1.782 0 01-1.796-1.794c0-.966.829-1.793 1.796-1.793.967 0 1.796.827 1.796 1.793z" fill="#2D234A"/><path d="M176.299 143.17c0-9.933 8.082-17.934 18.098-17.934 10.016 0 18.098 8.001 18.098 17.934" stroke="#4F4373" stroke-width="9.36" stroke-miterlimit="10" stroke-linecap="round" stroke-linejoin="round"/><path d="M212.564 144.136c0 9.933-8.082 17.935-18.098 17.935-10.016 0-18.098-8.002-18.098-17.935 0-9.933 8.082-17.935 18.098-17.935 9.947 0 18.098 8.002 18.098 17.935z" fill="#2D234A"/><path d="M203.86 144.136c0 5.174-4.214 9.313-9.394 9.313-5.181 0-9.395-4.208-9.395-9.313 0-5.173 4.214-9.312 9.395-9.312 5.18 0 9.394 4.139 9.394 9.312z" fill="#4F4373"/><path d="M198.542 144.136c0 2.276-1.865 4.07-4.145 4.07-2.279 0-4.144-1.863-4.144-4.07 0-2.276 1.865-4.07 4.144-4.07 2.28 0 4.145 1.794 4.145 4.07z" fill="#EDEDED"/><path d="M196.262 144.136c0 .966-.829 1.794-1.796 1.794a1.783 1.783 0 01-1.796-1.794c0-.966.829-1.793 1.796-1.793.967 0 1.796.827 1.796 1.793z" fill="#2D234A"/><path d="M200.891 105.714a2.151 2.151 0 01-2.142 2.139h-8.703a2.151 2.151 0 01-2.142-2.139 2.15 2.15 0 012.142-2.138h8.703a2.15 2.15 0 012.142 2.138z" fill="#3C2E63"/><path opacity=".4" d="M152.122 109.922a.766.766 0 01-.759.759h-27.7a.767.767 0 01-.76-.759c0-.414.346-.759.76-.759h27.7c.414 0 .759.345.759.759zM152.122 113.164a.766.766 0 01-.759.759h-27.7a.767.767 0 01-.76-.759c0-.414.346-.758.76-.758h27.7c.414 0 .759.344.759.758zM152.122 116.406a.766.766 0 01-.759.759h-27.7a.767.767 0 01-.76-.759c0-.414.346-.758.76-.758h27.7c.414 0 .759.344.759.758zM152.122 119.648a.766.766 0 01-.759.759h-27.7a.767.767 0 01-.76-.759c0-.414.346-.758.76-.758h27.7c.414 0 .759.344.759.758z" fill="#B0B0C8"/><path d="M162 87.622c0 2.4-1.945 4.378-4.307 4.378h-29.386c-2.431 0-4.307-1.977-4.307-4.378V65.378c0-2.4 1.945-4.378 4.307-4.378h29.386c2.362 0 4.307 1.977 4.307 4.378v22.244z" fill="#5746FF"/><path d="M136.892 67.795s-2.536-.975-2.932 2.096c-.396 3.07-4.278 12.014-1.129 12.595 1.446.27 2.417-5.292 2.833-13.322 0 0-.06-1.1 1.228-.664 0 .021.832-.228 0-.705zm10.973 0s2.536-.975 2.932 2.096c.396 3.07 4.278 12.014 1.129 12.595-1.446.27-2.417-5.292-2.833-13.322 0 0 .06-1.1-1.228-.664 0 .021-.832-.228 0-.705z" fill="#1A263D"/><path d="M148.795 70.45c-.416-5.622-6.398-5-6.398-5s-5.982-.622-6.398 5C135.583 76.075 133.5 92 134 92h16.5c.5 0-1.289-15.905-1.705-21.55z" fill="url(#paint0_linear)"/><path d="M134.911 80.577s7.171 2.925 14.935 0l.139 1.307s-5.942 3.216-15.213 0l.139-1.307z" fill="#EF433F"/><path d="M142.379 84.789c.525 0 .95-.446.95-.996s-.425-.996-.95-.996c-.526 0-.951.446-.951.996s.425.996.951.996z" fill="#FEC66C"/><path d="M141.744 83.938s.059.041.119.124c.039.042.059.083.099.125.02.041.039.104.079.166a.586.586 0 00.218.228.328.328 0 00.138.042v.02s-.059.021-.158 0a1.374 1.374 0 00-.158-.062c-.06-.041-.099-.083-.159-.124l-.139-.146c-.039-.062-.039-.124-.059-.166-.02-.124 0-.207.02-.207z" fill="#4B4F50"/><path d="M143.053 83.938s.02.083 0 .187c0 .062-.019.103-.059.166a.473.473 0 01-.139.145c-.039.041-.099.083-.158.124a.31.31 0 01-.159.063c-.099.02-.158 0-.158 0v-.021s.059 0 .139-.042a.584.584 0 00.217-.228.423.423 0 00.08-.166c.019-.041.059-.083.099-.124.059-.063.119-.104.138-.104z" fill="#4B4F50"/><path d="M142.061 78.564c2.341 0 4.239-1.022 4.239-2.283 0-1.26-1.898-2.282-4.239-2.282s-4.239 1.022-4.239 2.282 1.898 2.283 4.239 2.283zM143.626 70.741c.119-.435.753-.705 1.169-.622.416.083.713.54.713.954-.02.56.792.664.891.104.099-.892-.574-1.764-1.466-1.867-.891-.104-1.446.56-1.545 1.37-.039.144.199.186.238.061zm-3.288.125c-.059-.457-.555-.789-1.03-.789-.416.021-.753.395-.792.789-.06.519-.852.456-.812-.062.059-.851.812-1.557 1.663-1.494.852.062 1.248.767 1.229 1.577.019.103-.218.103-.258-.021z" fill="#1A263D"/><path d="M233.64 91.86l-42.406.14c-2.322 0-4.234-1.973-4.234-4.368V65.368c0-2.395 1.912-4.368 4.234-4.368h31.412c3.209-.07 13.384 17.473 10.994 30.86z" fill="#5746FF"/><path d="M220.163 81.64c-1.45 2.346-2.97 4.76-4.421 7.105l-.621 1.035c-.484.828-.207 2 .621 2.483.898.483 1.935.207 2.487-.62 1.451-2.346 2.97-4.76 4.421-7.106l.622-1.034c.483-.828.207-2-.622-2.484-.967-.482-2.003-.207-2.487.621z" fill="#4F4373"/><path d="M212 92c-.343-5.676-2.056-9-8.294-9-6.375 0-8.226 3.162-8.706 9h17z" fill="#1A263D"/><path d="M209.299 73.708h-12.398l-.363 8.967h13.125l-.364-8.967z" fill="#BA346E"/><path d="M210.889 88.275a14.812 14.812 0 01-7.358 1.945c-2.687 0-5.205-.712-7.359-1.945l1.908-3.663 2.206-.954 6.398-.026 2.103.878 2.102 3.764z" fill="#1A263D"/><path d="M206.899 83.71s-.691 1.724-2.763 2.07c-3.799 0-4.835-1.725-4.835-1.725.345-.345 2.012-.677 2.56-.74v-1.879h3.26v1.879c.521.063 1.27.28 1.778.395z" fill="#FDC2B2"/><path opacity=".5" d="M201.923 81.436h3.214v1.183h-3.214v-1.183z" fill="#E7A593"/><path d="M196.764 78.058a1.606 1.606 0 100-3.21c-.887 0-1.607.718-1.607 1.605 0 .886.72 1.605 1.607 1.605zM210.214 78.058c.841 0 1.522-.719 1.522-1.605 0-.887-.681-1.605-1.522-1.605s-1.523.718-1.523 1.605c0 .886.682 1.605 1.523 1.605z" fill="#FCB7AB"/><path d="M209.874 68.615v7.08a6.404 6.404 0 01-2.548 5.024 6.444 6.444 0 01-5.542 1.084 6.436 6.436 0 01-3.436-2.288 6.398 6.398 0 01-1.33-3.898v-7.002c0-.815.662-1.462 1.467-1.462h9.935c.792 0 1.454.66 1.454 1.462z" fill="#FDC2B2"/><path opacity=".5" d="M200.683 77.846c.921 0 .921-1.38 0-1.38s-.921 1.38 0 1.38zM208.448 77.433c.621 0 .621-.952 0-.952-.622 0-.622.952 0 .952z" fill="#FB697C"/><path d="M209.612 77.382s.079-1.361-.294-2.64c-.399-1.356-.438-1.604 0-3.104 0 0-1.315-.646-1.727-2.759-3.488 3.522-7.944 1.681-7.944 1.681.438 1.5.066 3.26-.345 4.63-.374 1.266-1.826 2.192-1.826 2.192-1.628-4.02-.966-6.822-.966-6.822v-.04a7.122 7.122 0 013.462-6.09c0-.04.013-.066.026-.105a6.958 6.958 0 017.065 0c.013.04.013.065.026.104a7.122 7.122 0 013.462 6.092c-.013.013-.733 6.222-.939 6.86z" fill="#EE3F8B"/><path d="M204.216 78.747c-.985 0-2.166-.128-2.606-1.142-.026-.072 0-.157.064-.186a.125.125 0 01.169.072c.376.87 1.465.97 2.373.97.882 0 2.075-.1 2.373-.97.026-.072.104-.115.169-.086a.153.153 0 01.078.186c-.363 1.042-1.66 1.156-2.62 1.156zM205.956 75.703v-.034c0-.034-.018-.05-.018-.119v-.186c.018-.068.035-.153.069-.238.034-.084.086-.17.154-.254.069-.085.154-.17.24-.237.103-.068.206-.136.326-.17.12-.034.257-.05.377-.068.085 0 .102 0 .188.017.069 0 .137.034.189.051.12.034.24.102.325.17.103.068.172.152.24.237.069.085.12.17.154.254.035.085.052.17.069.238a.346.346 0 010 .186c0 .051-.017.085-.017.119v.034c-.017.05-.052.085-.103.068-.034 0-.051-.034-.069-.068 0 0-.017-.051-.051-.119-.017-.034-.034-.085-.069-.135l-.102-.153c-.035-.05-.086-.102-.137-.153a.718.718 0 00-.189-.118.854.854 0 00-.223-.085c-.034 0-.085-.017-.103-.017-.017 0-.102 0-.119-.017-.086 0-.155.017-.24.034a1.17 1.17 0 00-.223.085c-.069.034-.137.084-.189.118-.051.051-.102.102-.137.153l-.102.153c-.018.05-.052.084-.069.135-.017.034-.017.068-.034.102 0 .017-.017.034-.017.034-.018.05-.069.068-.103.05.017-.016 0-.033-.017-.067zM200.32 75.669v.034c0 .034.017.05.034.05.034.018.086 0 .103-.05 0 0 .017-.017.017-.034.017-.034.017-.068.034-.102.017-.05.052-.085.069-.135l.103-.153c.034-.05.085-.102.137-.153.051-.034.12-.084.188-.118.069-.034.154-.068.223-.085.034 0 .086-.017.12-.017h.086c.12 0 .154.017.24.034a.86.86 0 01.222.085.713.713 0 01.189.118c.051.051.103.102.137.153l.103.152c.034.051.051.102.068.136.034.068.052.119.052.119.017.034.034.068.068.068.052.016.086-.017.103-.068v-.034c0-.034.017-.068.017-.119a.346.346 0 000-.186c-.017-.068-.034-.153-.068-.238a1.024 1.024 0 00-.155-.254 1.043 1.043 0 00-.24-.237.976.976 0 00-.325-.17.96.96 0 00-.36-.068h-.103c-.034 0-.068.017-.103.017l-.188.051c-.12.034-.223.102-.326.17a1.636 1.636 0 00-.24.237c-.068.085-.119.17-.154.254-.034.085-.051.17-.068.238v.186c0 .068.017.085.017.119z" fill="#1A263D"/><path d="M213.254 87.573c-.345 2.69 2.003 2.897 3.385 3.035 3.799.344 3.039-.552.76-.897.69 0 2.348.138 2.348-.414-.069-.483-1.727-.62-2.21-.897 2.417.414 3.661-.759 0-1.241.621.138 2.348-.276 2.003-.966-.276-.483-2.141.069-2.556.069.069-.345.76-2.483-.276-1.794-1.105.76-3.454 2.208-3.454 3.105z" fill="#FDC2B2"/><path d="M206.302 87.585c1.438-.885 8.907-1.18 9.463.05 1.253 2.754-8.164 2.852-9.556 2.459" fill="#FDC2B2"/><mask id="b" maskUnits="userSpaceOnUse" x="41" y="47" width="195" height="77"><path d="M41.266 123.514V85.06c.208-26.796 17.882-37.696 33.12-37.696H202.62c15.238 0 33.398 34.676 33.12 61.57v14.679" fill="#fff"/></mask><g mask="url(#b)" fill-rule="evenodd" clip-rule="evenodd" fill="#F3F2FF"><path d="M79.71 69.987a16.955 16.955 0 018.376 3.405 16.921 16.921 0 015.429 7.222 15.2 15.2 0 01-1.046 13.414 5.005 5.005 0 00-.178 4.595l.002.003a12.81 12.81 0 01.76 8.763 12.827 12.827 0 01-5.073 7.191l-.026.018a13.258 13.258 0 01-6.155 2.183 13.259 13.259 0 01-6.432-1.008 14.476 14.476 0 01-8.55-9.663 5.222 5.222 0 00-5.002-3.851 14.49 14.49 0 01-11.535-5.798 13.226 13.226 0 01-2.065-12.455l.01-.03a12.83 12.83 0 015.673-6.728 12.859 12.859 0 018.68-1.497h.003a5.025 5.025 0 004.405-1.34 15.243 15.243 0 0112.724-4.424zM91.166 43.951a7.544 7.544 0 013.483 1.467 7.53 7.53 0 012.307 2.99c.514 1.182.75 2.488.733 3.83-.018 1.34-.29 2.707-.78 4.025a14.212 14.212 0 01-2.072 3.714 14.231 14.231 0 01-3.069 2.946c-1.151.808-2.405 1.418-3.7 1.777-1.294.358-2.62.462-3.894.267A7.545 7.545 0 0180.69 63.5a7.53 7.53 0 01-2.308-2.99c-.513-1.182-.75-2.488-.732-3.83.018-1.34.29-2.707.78-4.025a14.217 14.217 0 012.071-3.714 14.229 14.229 0 013.07-2.946c1.151-.808 2.405-1.418 3.7-1.777 1.294-.358 2.62-.462 3.894-.267zM62.442 49.122c2.613-.724 5.313-.39 7.377 1.2 2.064 1.589 3.075 4.111 3.04 6.819-.036 2.695-1.092 5.46-2.852 7.74-1.759 2.278-4.168 4.002-6.769 4.722-2.613.724-5.313.39-7.377-1.2-2.064-1.589-3.076-4.111-3.04-6.819.036-2.694 1.092-5.46 2.851-7.74 1.76-2.278 4.17-4.002 6.77-4.722zM106.129 58.735c2.613-.724 5.313-.39 7.377 1.2 2.065 1.589 3.076 4.111 3.04 6.819-.036 2.695-1.092 5.46-2.851 7.74-1.759 2.278-4.169 4.002-6.769 4.722-2.613.724-5.313.39-7.378-1.2-2.064-1.589-3.075-4.111-3.04-6.819.036-2.694 1.092-5.46 2.852-7.739 1.759-2.28 4.169-4.003 6.769-4.723zM107.699 83.961c2.613-.723 5.314-.389 7.378 1.2 2.064 1.59 3.075 4.112 3.039 6.82-.035 2.694-1.091 5.46-2.851 7.739-1.759 2.279-4.169 4.003-6.769 4.723-2.613.724-5.313.389-7.377-1.2s-3.076-4.111-3.04-6.82c.036-2.694 1.092-5.46 2.851-7.739 1.76-2.279 4.169-4.002 6.769-4.723z"/></g><ellipse cx="140" cy="161.5" rx="76" ry="2.5" fill="#2A2376" fill-opacity=".2"/><rect x="11" y="79" width="23" height="5" rx="2.5" fill="#2A2376" fill-opacity=".2"/><rect x="22" y="89" width="12" height="5" rx="2.5" fill="#2A2376" fill-opacity=".2"/><rect x="17" y="100" width="17" height="5" rx="2.5" fill="#2A2376" fill-opacity=".2"/><defs><linearGradient id="paint0_linear" x1="142.397" y1="87.848" x2="142.397" y2="92.332" gradientUnits="userSpaceOnUse"><stop stop-color="#F8F0F0"/><stop offset="1" stop-color="#E1D8D8"/></linearGradient></defs></svg>