<svg xmlns="http://www.w3.org/2000/svg" viewBox="0 0 517.6 490.3">
  <path fill="#d8d1b6" d="M354 490.3c-4-3.3-27.7-23-31-31.8-5.1-13.4-4-30.3-4.4-44.2H199c-.3 13.9.7 30.8-4.4 44.2-3.3 8.8-27 28.5-31 31.8"/>
  <path fill="#1fb4e4" d="M6.7 61.1h499.9v287.7H6.7z"/>
  <path fill="#f23d3d" d="M463 74c0-5.7 45.4 18.9 45.2 46l-.2 22.4c-.2 21.4-32.6 38.7-45.8 38.6-13.7-.1-45.4-17.8-45.2-39.2l.2-22.4c0-26.4 35.1-45.5 45.8-45.4.3 0-.1 13.5 0 0zm45.2 45.7l-90.7-.7.4-59 90.7.7-.4 59z"/>
  <path fill="#9d5fff" d="M463.8 171.3s-.7 27.9-30 21.4c0 0 25-9.7 26.2-33.2l3.8 11.8z"/>
  <path fill="#61f4ff" d="M471.9 171.4s3.3 20.4-19.8 27.8c0 0 6.7-16.1 7.9-39.6l11.9 11.8z"/>
  <ellipse cx="488.1" cy="128.9" fill="#fff" rx="16.7" ry="14.2" transform="matrix(.00728 -1 1 .00728 355.65 615.98)"/>
  <ellipse cx="436.6" cy="129.6" fill="#fff" rx="16.7" ry="14.2" transform="matrix(.0073 -1 1 .0073 303.8 565.33)"/>
  <path fill="#ff952c" d="M481.8 111.7c-.1 12.3-8.7 18.7-19.5 18.7-10.8-.1-19.3-6.4-19.2-18.9.1-12.5 19.7-46.8 19.7-46.8s19.1 34.5 19 47z"/>
  <path fill="#434849" d="M442.6 126.8c-.8 2.3-3.9 3.9-6.1 3.3s-3.9-2.9-3.6-5c0-3.1-4.4-3.4-4.6-.6-.5 4.7 3.1 9.4 7.8 10 4.7.6 7.6-3.1 8.1-7.5-.4-.7-1.6-1-1.6-.2zm39.9-1.5c.2 2.4 3.1 4.2 5.3 4.2 2.2-.2 3.9-2.1 4.2-4.1.3-2.9 4.4-2.6 4.4.3-.3 4.4-4.2 8.3-8.6 8.3-4.4-.3-6.8-4-6.5-8.1 0-1.4.9-1.4 1.2-.6z"/>
  <path fill="#ff6262" d="M96.8 307.1c10.2-4.7 22.5-.4 27.4 9.7s-3.4 40.9-3.4 40.9-29-13-33.7-23.2c-5-10.3-.7-22.6 9.7-27.4zm-36.2-46.4c7-8.8 5.8-21.7-2.8-28.9s-40.5-6.6-40.5-6.6 5.6 31.3 14.4 38.3c8.7 7 21.6 6.1 28.9-2.8z"/>
  <ellipse cx="59" cy="299.3" fill="#ffad9e" rx="48.9" ry="57.5" transform="rotate(-38 59 299.3)"/>
  <ellipse cx="38.9" cy="315" fill="#ff6262" rx="13.8" ry="22.9" transform="rotate(-38 38.9 315)"/>
  <circle cx="32.3" cy="306.6" r="3.4" fill="#cc3636"/>
  <circle cx="45.4" cy="323.4" r="3.4" fill="#cc3636"/>
  <path fill="#751a1a" d="M67.5 316.1c2.7-1.1 6.7 1 8.1 3.6s.4 6-1.7 7.6c-2.9 2.2.1 6.9 3.3 5 4.8-3.1 6.3-10.2 3-15.2s-9-5.2-13.4-2.4c-.9.3-.1 1.7.7 1.4zm-24.8-29.6c1.9-2.2 1.5-6.1-.4-8.6a5.8 5.8 0 00-7.3-.9c-2.8 1.9-6-2.6-3.2-4.5 4.5-3.2 11.2-2.1 14.5 2.5 3.3 4.7 1.6 9.7-2.5 12.9-.6.5-1.5-.7-1.1-1.4z"/>
  <path fill="#ff6262" d="M58.5 104.3c5.8 1.4 8.5 10.7 6.1 21.3-1.5 7.1-9.5 18.9-14.1 25.5-1.9 2.6-4.1 2-4.8-1-1.4-8-3.6-21.9-1.9-29.1 2.4-10.5 9.1-17.9 14.7-16.7z"/>
  <path fill="#fff" d="M57.1 102.5c.5 0 1.2 0 1.7.2 3.4.7 6 3.7 7.3 8.3 1.2 4.3 1.2 9.5 0 14.8-1.5 7.1-8.6 18.2-14.4 26.2-1 1.9-2.7 2.7-4.4 2.4s-2.7-1.9-3.2-3.9c-1.7-9.7-3.6-22.6-1.9-29.8 2.5-10.7 8.8-18.2 14.9-18.2zm1.1 3.5c-4.8-1-10.5 6-12.6 15.3-1.5 7 .5 20.8 1.9 28.4.2 1 .5 1.4.7 1.4 0 0 .5-.2 1-.9 4.6-6.3 12.3-18 14-24.8 1-4.8 1-9.5 0-13.3-1.1-3.5-2.8-5.5-5-6.1z"/>
  <path fill="#ff6262" d="M84.5 104.3c-5.8 1.4-8.5 10.7-6.1 21.3 1.5 7.1 9.5 18.9 14.1 25.5 1.9 2.6 4.1 2 4.8-1 1.4-8 3.6-21.9 1.9-29.1-2.4-10.5-8.9-17.9-14.7-16.7z"/>
  <path fill="#fff" d="M85.9 102.5c6.3 0 12.6 7.5 15 18 1.5 7.1-.2 20.1-1.9 29.8-.3 2.2-1.5 3.6-3.2 3.9-1.7.3-3.2-.5-4.6-2.2-5.8-8-12.8-19.1-14.5-26.2-1.2-5.3-1.2-10.5 0-14.8 1.4-4.6 3.9-7.7 7.3-8.3.7-.1 1.2-.2 1.9-.2zm9 48.5s.5-.3.7-1.4c1.4-7.7 3.4-21.4 1.9-28.4-2-9.4-7.8-16.3-12.6-15.3-2.2.5-3.9 2.6-4.9 6-1 3.7-1 8.5 0 13.3 1.5 7 9.4 18.5 14 24.8.4 1 .9 1 .9 1zM37.4 93.1c0-16.2 15.5-29.3 34.5-29.3s34.5 13.1 34.5 29.3-15.4 23.8-34.5 23.8-34.5-7.6-34.5-23.8z"/>
  <path fill="#ff6262" d="M68.7 80.5H75c.9 0 1.7-.7 1.7-1.7 0-.9-.7-1.7-1.7-1.7h-1.5V70c0-.9-.7-1.7-1.7-1.7-.9 0-1.7.7-1.7 1.7v7.1h-1.5c-.9 0-1.7.7-1.7 1.7.3 1 1 1.7 1.8 1.7z"/>
  <path fill="#38454c" d="M60.2 91.9c-.5 1.5-2.6 2.6-4.3 2.2-1.5-.3-2.6-1.7-2.6-3.2 0-1.9-2.9-2.2-3.1-.3-.3 3.1 2.2 6 5.4 6.3s5.1-2 5.4-4.8c.2-.4-.6-.5-.8-.2zm23.3-.7c.2 1.5 2.2 2.7 3.7 2.6a3.4 3.4 0 002.9-2.7c.2-1.9 3.1-1.7 3.1.2-.2 2.9-2.7 5.4-5.8 5.3-3.1-.2-4.6-2.6-4.6-5.3-.1-.4.7-.4.7-.1z"/>
  <path fill="#ffc61b" d="M423.9 314.9c-.3-8.9-8.1-14.7-17.4-13.4-6.4 1-17.8 10.4-23.9 16-2.5 2.1-2.4 5.9.3 7.1 6.6 3.8 28.4 19.9 34.8 18.9 9.1-1.4 6.6-19.8 6.2-28.6zm49.7-48.8c-8.9-.4-14.6-8.4-13-17.6 1.1-6.4 10.7-17.6 16.5-23.6 2.2-2.5 5.9-2.3 7.1.4 3.7 6.6 19.4 28.8 18.2 35.2-1.6 9.1-20 6.2-28.8 5.6z"/>
  <path fill="#ffc61b" d="M505.5 260.4c20.3 20.7 9.5 49-14.8 72.9s-52.8 34.1-73.2 13.4c-20.3-20.7-17.1-56.8 7.2-80.7 24.3-23.9 60.6-26.2 80.8-5.6z"/>
  <path fill="#d48b07" d="M454.8 271.1l-4.1-21.5c-3.8 1.2-7.4 3-10.8 4.9l10.5 18c1.7 2.3 4.9 1.3 4.4-1.4zm-25.9 25.5c2.7.6 3.6-2.8 1.5-4.3l-17.8-10.9c-2 3.4-3.6 7.1-4.7 10.7m42-4.1l-19-27.3c-2.2 1.8-4.3 3.5-6.3 5.5-2.2 2.1-4 4.2-6 6.6l27 19.5c3.1 1.8 6.4-1.4 4.3-4.3z"/>
  <path fill="#fff" d="M466.1 308.2c-10.6 10.4-11.9 26.5-2.8 35.7 2.1 2.2 4.6 3.6 7.3 4.9 7.7-3.3 14.7-8.1 21.2-14.4 6.5-6.4 11.4-13.6 14.8-20.9-.9-2.7-2.6-5.2-4.8-7.4-8.8-9.4-24.9-8.5-35.7 2.1z"/>
  <path fill="#d48b07" d="M510.1 267.2c-1.2-2-2.5-3.6-3.9-5.4l-11.4 14.4 15.3-9zm-86 84.4l9.3-15.1-14.6 11.1c1.5 1.6 3.1 2.9 5.3 4z"/>
  <path fill="#a5550e" d="M472 287.2c-1.4-2.9.2-7.3 2.9-9.3 2.5-1.8 6.3-1.2 8.4 1 2.8 2.9 7.5-1 4.9-4.1-3.9-4.7-11.7-5.5-16.6-1.4-5 4.2-4.6 10.1-1.2 14.6.9 1 2.1.1 1.6-.8zm-25.6 26.5c-2.5-1.8-7.1-.8-9.5 1.5-2 2.3-2 5.9-.3 8.4 2.3 3.1-2.2 7.1-4.7 4.2-4.1-4.5-3.6-12.4 1.1-16.6 4.9-4.4 10.7-3.1 14.6 1.2.8.8-.3 1.9-1.2 1.3zm29.9 5.3l-23.7 2.1 26.3-25.8-2.6 23.7z"/>
  <path fill="#b8c443" d="M211.8 336.5c11.3 1.4 23 2.2 34.7 2.1 11.7-.1 23.5-1.2 34.7-2.8l-1.5-157.4-69.4.6 1.5 157.5z"/>
  <path fill="#d0e557" d="M162.2 153.2c-.6-60.1 60.6-56.8 82.1-57s82.6-4.7 83.1 55.5c.3 27.4-37.7 96.7-81.7 97.1-36.7-.2-83.3-68.3-83.5-95.6z"/>
  <circle cx="231.1" cy="209.7" r="2.4" fill="#50930f"/>
  <circle cx="259.5" cy="209.5" r="2.4" fill="#50930f"/>
  <path fill="#50930f" d="M273.1 96.9l-8.5 33.3c-.9 3.4 3.5 5.3 5.4 2.4l22.2-32c-5.9-1.9-12.7-3.3-19.1-3.7zM219.2 133.1c2 2.9 6.4.9 5.4-2.5l-9.1-33.2c-6.3 1-13.2 2.1-19.5 4.6l23.2 31.1zm25.1-36.9c-3.4 0-7.8.1-12.7.1l9.2 47.8c1 4.4 7.4 4.3 8.3-.1l8.4-48c-5.4.1-9.8.1-13.2.2z" opacity=".6"/>
  <path fill="#0e4f3e" d="M271.9 175.1c.9-3.9 6.8-6.9 11.2-6 3.9.9 6.9 4.8 6.9 8.7 0 5.4 7.9 5.8 8.3.4.9-8.3-6-16.1-14.8-17s-14.1 5.5-14.5 13.3c.5 1.6 2.9 2.1 2.9.6zm-55.2 2.5c-.5-3.9-5.9-7.3-9.8-6.8s-7.3 4-7.8 7.4c-.4 4.9-8.3 5-8.3-.4.4-7.8 7.7-14.7 15.5-14.3 8.3.4 12.8 6.7 12.4 14.1.4.9-2 1.5-2 0z"/>
  <path fill="#ff5757" d="M258 313.1l-11.9-12.6-11.6 12.8-.7-77.2 10.8 4.8 12.7-5 .7 77.2z"/>
  <path fill="#1e1e1e" d="M500.6 46H17.5C8 46 0 53.2 0 62.8v295.5h517.6V62.8c0-9.6-7.4-16.8-17-16.8zM258.7 56.7c1.2 0 2.2 1 2.2 2.2s-1 2.2-2.2 2.2-2.2-1-2.2-2.2 1-2.2 2.2-2.2zm233.8 277.2H23.8V71.1h468.8l-.1 262.8z"/>
  <path fill="#eeebdd" d="M0 398.1c0 9.6 8 17.6 17.5 17.6h483.1c9.6 0 17-8 17-17.6v-39.8H0v39.8z"/>
</svg>
