<svg width="135" height="40" fill="none" xmlns="http://www.w3.org/2000/svg"><path d="M124.249 0H10.757c-.414 0-.823 0-1.235.002-.346.002-.688.008-1.037.013-.758.008-1.513.067-2.26.177A8.208 8.208 0 0 0 4.08.819a7.294 7.294 0 0 0-1.826 1.178 6.352 6.352 0 0 0-1.33 1.621A6.093 6.093 0 0 0 .22 5.522a11.56 11.56 0 0 0-.202 2.002c-.01.306-.011.614-.017.92V31.56c.006.31.007.61.017.921.01.671.077 1.34.202 2.002a6.08 6.08 0 0 0 .705 1.905c.342.598.791 1.143 1.33 1.614.533.477 1.15.875 1.826 1.179a8.248 8.248 0 0 0 2.144.63c.748.11 1.503.168 2.26.177.35.007.692.011 1.038.011.412.002.821.002 1.235.002h113.492c.406 0 .818 0 1.223-.002.344 0 .697-.004 1.04-.01a16.872 16.872 0 0 0 2.257-.178 8.367 8.367 0 0 0 2.152-.63A7.1 7.1 0 0 0 132.746 38a6.5 6.5 0 0 0 1.333-1.614c.341-.6.576-1.242.698-1.905.126-.661.196-1.33.21-2.002.004-.31.004-.61.004-.921.009-.364.009-.725.009-1.094V9.536c0-.366 0-.73-.009-1.092 0-.306 0-.614-.004-.92a12.043 12.043 0 0 0-.21-2.002 6.096 6.096 0 0 0-.698-1.904c-.696-1.203-1.801-2.182-3.158-2.8a8.324 8.324 0 0 0-2.152-.627c-.746-.11-1.5-.169-2.257-.176-.343-.005-.696-.011-1.04-.013C125.067 0 124.655 0 124.249 0Z" fill="#A6A6A6"/><path d="M9.54 38.998c-.343 0-.679-.004-1.02-.01a16.211 16.211 0 0 1-2.108-.163 7.283 7.283 0 0 1-1.869-.544 6.131 6.131 0 0 1-1.575-1.01 5.379 5.379 0 0 1-1.151-1.387 5.225 5.225 0 0 1-.613-1.646 10.903 10.903 0 0 1-.187-1.863c-.008-.21-.017-.907-.017-.907V8.519s.01-.686.017-.888c.008-.623.07-1.245.186-1.86a5.255 5.255 0 0 1 .613-1.651c.294-.514.681-.983 1.145-1.389.464-.41.998-.752 1.582-1.016a7.205 7.205 0 0 1 1.865-.54c.7-.1 1.406-.155 2.115-.163L9.541 1h115.913l1.03.013c.702.007 1.403.061 2.096.161.655.098 1.29.282 1.884.544 1.171.532 2.123 1.372 2.724 2.404.294.516.498 1.069.604 1.638.117.62.182 1.247.196 1.875.003.282.003.584.003.884.009.373.009.728.009 1.085v20.79c0 .362 0 .714-.009 1.069 0 .323 0 .619-.004.924a11.187 11.187 0 0 1-.193 1.84 5.238 5.238 0 0 1-.609 1.66c-.297.509-.684.974-1.146 1.376a6.11 6.11 0 0 1-1.578 1.016 7.258 7.258 0 0 1-1.881.546c-.698.1-1.402.155-2.109.162-.33.007-.676.011-1.012.011l-1.222.002L9.54 38.998Z" fill="#000"/><path d="M30.668 19.827a5.91 5.91 0 0 1 2.813-4.958 6.048 6.048 0 0 0-4.765-2.576c-2.005-.21-3.949 1.2-4.97 1.2-1.042 0-2.615-1.179-4.309-1.144a6.346 6.346 0 0 0-5.34 3.257c-2.31 3.998-.587 9.873 1.625 13.105 1.106 1.583 2.4 3.35 4.092 3.287 1.656-.068 2.275-1.056 4.274-1.056 1.98 0 2.56 1.056 4.288 1.017 1.777-.03 2.896-1.59 3.964-3.187a13.091 13.091 0 0 0 1.813-3.693 5.71 5.71 0 0 1-3.485-5.252ZM27.406 10.168A5.818 5.818 0 0 0 28.736 6a5.92 5.92 0 0 0-3.829 1.982 5.536 5.536 0 0 0-1.366 4.013 4.894 4.894 0 0 0 3.865-1.827ZM51.303 27.14h-4.734l-1.137 3.356h-2.005l4.484-12.418h2.083l4.483 12.418h-2.039l-1.136-3.356Zm-4.244-1.55h3.752l-1.85-5.447h-.051l-1.85 5.448ZM64.16 25.97c0 2.813-1.506 4.62-3.778 4.62a3.07 3.07 0 0 1-2.849-1.583h-.043v4.484h-1.858V21.442h1.799v1.506h.034a3.212 3.212 0 0 1 2.882-1.6c2.298 0 3.813 1.816 3.813 4.622Zm-1.91 0c0-1.833-.947-3.038-2.393-3.038-1.42 0-2.375 1.23-2.375 3.038 0 1.824.955 3.046 2.375 3.046 1.446 0 2.393-1.197 2.393-3.046ZM74.125 25.97c0 2.813-1.506 4.62-3.778 4.62a3.069 3.069 0 0 1-2.85-1.583h-.042v4.484h-1.859V21.442h1.8v1.506h.033a3.211 3.211 0 0 1 2.883-1.6c2.298 0 3.813 1.816 3.813 4.622Zm-1.91 0c0-1.833-.948-3.038-2.393-3.038-1.42 0-2.375 1.23-2.375 3.038 0 1.824.955 3.046 2.375 3.046 1.445 0 2.393-1.197 2.393-3.046ZM80.71 27.036c.138 1.232 1.335 2.04 2.97 2.04 1.566 0 2.693-.809 2.693-1.919 0-.964-.68-1.54-2.29-1.936l-1.609-.388c-2.28-.55-3.339-1.617-3.339-3.348 0-2.142 1.868-3.614 4.52-3.614 2.623 0 4.422 1.472 4.483 3.614H86.26c-.112-1.239-1.136-1.987-2.633-1.987s-2.522.757-2.522 1.858c0 .878.654 1.395 2.255 1.79l1.368.336c2.548.603 3.607 1.626 3.607 3.443 0 2.323-1.85 3.778-4.794 3.778-2.754 0-4.614-1.42-4.734-3.667h1.903ZM92.346 19.3v2.142h1.722v1.472h-1.722v4.991c0 .776.345 1.137 1.102 1.137.204-.004.408-.018.611-.043v1.463c-.34.064-.686.092-1.032.086-1.833 0-2.548-.689-2.548-2.444v-5.19h-1.316v-1.472h1.316V19.3h1.867ZM95.065 25.97c0-2.849 1.678-4.639 4.294-4.639 2.625 0 4.295 1.79 4.295 4.639 0 2.856-1.661 4.638-4.295 4.638-2.633 0-4.294-1.782-4.294-4.638Zm6.695 0c0-1.954-.895-3.108-2.4-3.108-1.507 0-2.401 1.162-2.401 3.108 0 1.962.894 3.106 2.4 3.106 1.506 0 2.401-1.144 2.401-3.106ZM105.186 21.442h1.773v1.541h.043a2.162 2.162 0 0 1 2.177-1.635c.215-.001.428.022.637.069v1.738a2.591 2.591 0 0 0-.835-.112 1.872 1.872 0 0 0-1.936 2.083v5.37h-1.859v-9.054ZM118.385 27.837c-.25 1.643-1.851 2.771-3.899 2.771-2.634 0-4.268-1.764-4.268-4.595 0-2.84 1.643-4.682 4.19-4.682 2.505 0 4.08 1.72 4.08 4.466v.637h-6.394v.112a2.353 2.353 0 0 0 1.458 2.391c.31.127.643.186.977.173a2.05 2.05 0 0 0 2.091-1.273h1.765Zm-6.283-2.702h4.527A2.185 2.185 0 0 0 115.284 23a2.182 2.182 0 0 0-.876-.163 2.293 2.293 0 0 0-2.306 2.298ZM44.428 11.716c0-1.935 1.029-3.13 2.687-3.13a2.384 2.384 0 0 1 2.482 2.068h-.923a1.535 1.535 0 0 0-1.559-1.204c-1.071 0-1.741.873-1.741 2.266 0 1.39.67 2.262 1.745 2.262a1.495 1.495 0 0 0 1.555-1.1h.923a2.328 2.328 0 0 1-2.478 1.964c-1.658 0-2.691-1.195-2.691-3.126ZM50.61 12.444a2.132 2.132 0 1 1 4.248 0 2.134 2.134 0 1 1-4.248 0Zm3.333 0c0-.976-.438-1.546-1.208-1.546-.772 0-1.207.57-1.207 1.546 0 .984.435 1.55 1.207 1.55.77 0 1.208-.57 1.208-1.55ZM56.05 10.195h.855v.715h.067a1.348 1.348 0 0 1 1.343-.802 1.464 1.464 0 0 1 1.559 1.675v2.915h-.889v-2.692c0-.724-.314-1.084-.971-1.084a1.032 1.032 0 0 0-1.076 1.141v2.635h-.888v-4.503ZM62.895 10.108c1.012 0 1.674.471 1.761 1.265h-.852c-.082-.33-.406-.541-.91-.541-.496 0-.872.235-.872.586 0 .27.227.439.715.55l.748.174c.857.199 1.258.567 1.258 1.229 0 .847-.79 1.414-1.865 1.414-1.071 0-1.77-.484-1.849-1.282h.89a.913.913 0 0 0 .98.562c.553 0 .947-.248.947-.608 0-.269-.211-.442-.662-.55l-.785-.182c-.857-.202-1.254-.587-1.254-1.257 0-.798.732-1.36 1.75-1.36ZM65.865 9.442l1.038-1.422h1.042l-1.162 1.422h-.918Zm.092.753h.885v4.503h-.885v-4.503ZM68.226 15.149h.909c.075.326.45.537 1.05.537.74 0 1.18-.351 1.18-.947v-.864h-.067a1.514 1.514 0 0 1-1.39.756c-1.15 0-1.86-.888-1.86-2.236 0-1.373.719-2.275 1.869-2.275a1.561 1.561 0 0 1 1.414.794h.07v-.72h.852v4.54c0 1.03-.807 1.684-2.08 1.684-1.125 0-1.853-.504-1.947-1.27Zm3.155-2.759c0-.897-.464-1.472-1.22-1.472-.766 0-1.195.575-1.195 1.472 0 .898.43 1.472 1.194 1.472.762 0 1.22-.57 1.22-1.472ZM77.465 14.698h-.856v-.716h-.07a1.35 1.35 0 0 1-1.36.803 1.463 1.463 0 0 1-1.552-1.667v-2.923h.89v2.692c0 .727.293 1.075.946 1.075a1.022 1.022 0 0 0 1.113-1.133v-2.634h.89v4.503ZM82.689 13.482a1.828 1.828 0 0 1-1.951 1.303 2.046 2.046 0 0 1-2.08-2.325 2.077 2.077 0 0 1 2.076-2.352c1.253 0 2.009.856 2.009 2.27v.31h-3.18v.05a1.19 1.19 0 0 0 1.2 1.29 1.08 1.08 0 0 0 1.07-.546h.856Zm-3.126-1.451h2.274a1.086 1.086 0 0 0-1.108-1.167 1.151 1.151 0 0 0-1.166 1.167ZM83.977 8.437h.889v6.26h-.889v-6.26ZM86.101 12.444a2.134 2.134 0 1 1 4.247 0 2.134 2.134 0 1 1-4.247 0Zm3.333 0c0-.976-.438-1.546-1.208-1.546-.772 0-1.207.57-1.207 1.546 0 .984.435 1.55 1.207 1.55.77 0 1.208-.57 1.208-1.55ZM97.791 13.482a1.828 1.828 0 0 1-1.95 1.303 2.046 2.046 0 0 1-2.08-2.325 2.077 2.077 0 0 1 2.075-2.352c1.253 0 2.01.856 2.01 2.27v.31h-3.18v.05a1.19 1.19 0 0 0 1.199 1.29 1.08 1.08 0 0 0 1.071-.546h.855Zm-3.126-1.451h2.275a1.086 1.086 0 0 0-1.108-1.167 1.151 1.151 0 0 0-1.166 1.167ZM99.039 10.195h.855v.715h.066a1.346 1.346 0 0 1 1.344-.802 1.467 1.467 0 0 1 1.559 1.675v2.915h-.889v-2.692c0-.724-.314-1.084-.972-1.084a1.033 1.033 0 0 0-1.075 1.141v2.635h-.888v-4.503ZM110.488 13.482a1.832 1.832 0 0 1-1.951 1.303 2.044 2.044 0 0 1-2.081-2.325 2.077 2.077 0 0 1 2.077-2.352c1.253 0 2.008.856 2.008 2.27v.31h-3.179v.05a1.191 1.191 0 0 0 1.199 1.29 1.08 1.08 0 0 0 1.071-.546h.856Zm-3.126-1.451h2.274a1.09 1.09 0 0 0-.666-1.084 1.09 1.09 0 0 0-.442-.083 1.15 1.15 0 0 0-1.166 1.167ZM111.776 8.437h.889v6.26h-.889v-6.26Z" fill="#fff"/></svg>