<svg xmlns="http://www.w3.org/2000/svg" viewBox="0 0 359.3 359.3">
  <path fill="#fef38b" d="M152.7 90.2c-2 .2-3.8-1.2-4-3.2l-8.6-73.8c-.2-2 1.2-3.8 3.2-4 2-.2 3.8 1.2 4 3.2l8.6 73.8c.2 2-1.2 3.8-3.2 4z"/>
  <path fill="#e85b92" d="M158 52.7c.6 5.3-3.2 10.2-8.5 10.8-5.3.6-10.2-3.2-10.8-8.5s3.2-10.2 8.5-10.8c5.3-.6 10.2 3.1 10.8 8.5zM174.4 103.5a19.9 19.9 0 00-22.7-16.7 19.93 19.93 0 00-16.9 21.4l39.6-4.7z"/>
  <path fill="#03cdf5" d="M80 309.2V203.4c0-51.6 41.8-93.4 93.4-93.4h12.5c51.6 0 93.4 41.8 93.4 93.4v120.4l-54.9 22.8c-28.6 8-68.3 8.3-96.7-.5L80 323.8v-14.6z"/>
  <path fill="#e85b92" d="M289.3 204.8a29.7 29.7 0 0124.6 29.2v19.8a29.7 29.7 0 01-24.6 29.2v-78.2zM72.1 204.8A29.7 29.7 0 0047.5 234v19.8A29.7 29.7 0 0072.1 283v-78.2z"/>
  <path fill="#03487c" d="M222.5 208.6c1.5-6 10.5-10.5 17.2-9 6.1 1.7 10.3 7.2 10.5 13.5 0 8.2 12 9 12.7.7 1.5-12.7-9-24.7-22.5-26.2s-21.7 8.2-22.5 20.2c.8 2.3 4.6 3 4.6.8zm-84.7 3c-.7-6-9-11.2-15-10.5s-11.2 6-12 11.2c-.7 7.5-12.7 7.5-12.7-.7.7-12 12-22.5 24-21.7 12.7.7 19.5 10.5 18.7 21.7.7 1.5-3 2.2-3 0z"/>
  <path fill="#fff" d="M179.6 10c93.7 0 169.7 75.9 169.7 169.6 0 45-17.9 88.2-49.7 120-66.3 66.3-173.7 66.3-239.9 0S-6.6 126 59.7 59.7C91.4 27.8 134.6 9.9 179.6 10m0-10C80.4 0 0 80.4 0 179.6s80.4 179.6 179.6 179.6 179.6-80.4 179.6-179.6C359.3 80.4 278.9 0 179.6 0z"/>
</svg>
