<svg xmlns="http://www.w3.org/2000/svg" xmlns:xlink="http://www.w3.org/1999/xlink" viewBox="0 0 373 344.8">
  <path d="M183.4 334.4c37.8 0 68.4-30.6 68.4-68.4s-30.6-68.4-68.4-68.4S115 228.2 115 266c0 37.7 30.7 68.4 68.4 68.4z" opacity=".07"/>
  <path fill="#eaa182" d="M210.3 257.4c-3.1-1.2-3.9-6.4-1.9-11.4 2-5.1 6.2-8.1 9.3-6.9 3.1 1.2 3.9 6.4 1.9 11.4s-6.2 8.1-9.3 6.9zm-53.8 0c3.1-1.2 3.9-6.4 1.9-11.4-2-5.1-6.2-8.1-9.3-6.9-3.1 1.2-3.9 6.4-1.9 11.4 2.1 5 6.2 8.1 9.3 6.9z"/>
  <path fill="#fabf97" d="M198.7 264.7l-3.9 48.2H172l-3.8-48.2h30.5z"/>
  <defs>
    <path id="a" d="M198.7 264.7l-3.9 48.2H172l-3.8-48.2z"/>
  </defs>
  <clipPath id="b">
    <use overflow="visible" xlink:href="#a"/>
  </clipPath>
  <path fill="#eaa182" d="M183.4 296.7c-18.2 0-38.1-27.2-38.1-58.3s-11.2-56.3 38.1-56.3 38.1 25.2 38.1 56.3c0 31-19.9 58.3-38.1 58.3z" clip-path="url(#b)"/>
  <path fill="#fabf97" d="M183.4 291.8c-5.9 0-21.9-7.6-27.8-15.7-4.1-5.5-2.2-9.1-2.2-19.2 0-24.9-9.3-55.2 30.1-55.2s30.1 30.3 30.1 55.2c0 10.3 1.8 13.7-2.4 19.3-6.1 7.9-21.9 15.6-27.8 15.6z"/>
  <path fill="#d34646" d="M169.1 242.5c3.1.2 6.1 4.6 6.4 1.7.3-3.3-2.8-5.5-5.9-5.8-2.4-.3-5.9 2.3-5.8 5.2.1 3.2 2.2-1.3 5.3-1.1zm28.6.2c-3.1.2-6 4.4-6.3 1.5-.3-3.3 2.8-5.5 5.9-5.8 2.4-.3 5.9 2.3 5.8 5.2-.2 3.2-2.3-1.1-5.4-.9z"/>
  <path fill="#d34646" d="M219.7 201.6c-.2-1.8-2-1.5-3.8-1.4-5.5.3-6.8-1.5-18.1-8.1-11.2-6.6-22.7-4-30.3 1.7-35.1 8.1-14.6 55.8-14.6 55.8s-.1-25.1 10.7-32.7c18.2 12.4 36.8 13.1 47.4 5.7 4.1 9.5 2.8 27 2.8 27s7-17.7 3.2-33.4c2.3-4 3.4-8.9 2.7-14.6z"/>
  <path fill="#4f3766" d="M232.9 335c-5.7-15.3-11.3-28.4-11.3-28.4s-.1-.2-.4-.3c-7.6-5.5-25.4-7-25.4-7s-.8 9.2-12.4 9.2-12.4-9.2-12.4-9.2-17.9 1.5-25.5 7c-.2.1-.3.3-.3.3s-5.6 13.1-11.3 28.4c6.8 2.5 13.8 4.5 21.1 6h.1l3 .6c.3.1.6.1.9.1.8.1 1.7.3 2.5.4.2 0 .4.1.7.1 1 .1 2 .3 2.9.4.4 0 .8.1 1.2.1.6.1 1.3.1 1.9.2.4 0 .9.1 1.3.1.9.1 1.8.2 2.7.2 3.7.3 7.5.4 11.3.4s7.5-.2 11.2-.4c.9-.1 1.8-.2 2.7-.2.4 0 .9-.1 1.3-.1.7-.1 1.3-.1 2-.2.4 0 .8-.1 1.2-.1 1-.1 2-.3 2.9-.4.2 0 .4-.1.6-.1.9-.1 1.7-.3 2.6-.4.3 0 .5-.1.8-.1 8.3-1.5 16.4-3.7 24.1-6.6 0 .1 0 .1 0 0z"/>
  <path fill="#562b48" d="M165.8 258.9h33.6s-2.7 13.5-16.9 13.5c-14.2.1-16.7-13.5-16.7-13.5z"/>
  <defs>
    <path id="c" d="M165.8 258.9h33.6s-2.7 13.5-16.9 13.5c-14.2.1-16.7-13.5-16.7-13.5z"/>
  </defs>
  <clipPath id="d">
    <use overflow="visible" xlink:href="#c"/>
  </clipPath>
  <path fill="#ff6c6c" d="M169.6 267.1c-.2.6 15.3 13.1 25.3.3-11.3-8.2-24.8-1.8-25.3-.3z" clip-path="url(#d)"/>
  <path fill="#fff" d="M243.9 147.3h-124c-31.2 0-56.7-25.5-56.7-56.7V57.2C63.2 26 88.7.5 119.9.5H244c31.2 0 56.7 25.5 56.7 56.7v33.4c-.1 31.2-25.6 56.7-56.8 56.7z"/>
  <path fill="#fff" d="M122.4 115l60.5-60.5 60.5 60.5-60.5 60.5-60.5-60.5z"/>
  <g>
    <circle cx="182.8" cy="75.5" r="31.5" fill="#0cbbd5"/>
  </g>
  <g>
    <defs>
      <circle id="e" cx="182.8" cy="75.5" r="31.5"/>
    </defs>
    <clipPath id="f">
      <use overflow="visible" xlink:href="#e"/>
    </clipPath>
    <g clip-path="url(#f)">
      <path fill="#fff" d="M187.3 87.7s.6 2.8 2.9 4.5c2.3 1.7 2.7 7.7 2.9 9.9.1 2.2-3.7 8.7-6.9 12.4-3.3 3.7-4.6 13.8-10.6 16.3 0 0-6.3-10.3 2-23.5 0 0 4.5-14.5-.3-18.8.1-.1 8-2.3 10-.8z"/>
      <path fill="#f48500" d="M167.1 75c0 .1-.3 6.6 5.8 10.3 6.1 3.7-6.4 16.3-8.5 20.6-8 16.6-3.5 22.2-1.4 24.9 2.1 2.6 11.3 1.6 15.2.2 0 0 .1 0 .1-.1 0-.5-.4-3.9-2.3-7.6-1.1-2.1-1-4.5 0-6.7.4-.7.8-1.5 1.3-2.3 1.5-2.4 5.1-2.5 6.7-.1 1.8 2.8 4.1 7.5 6.5 15.6l.1.1 3.9-.6c.1 0 .1-.1.1-.1-.4-.9-3.2-6.8-5.1-14.2-.7-2.6-.9-6.8-.1-9.3.3-.9-.3-1.9-1.1-5.5-1.2-5.7 2.1-10.3-1.7-13.6h-.1l-1.1-.1c-3.8-.4-7.3-2.4-9.4-5.6-1.2-2-1.8-4.2-.4-6.3 3.5-5.2 10.8-5.1 14.7-3.8.1 0 .1 0 .1-.1-.5-1.1-3.3-6.8-5.7-8.1-2.7-1.4-6.1-1.2-9.6-.3s-6.7 2.5-7 4.3c-.4 1.7-.2 5.5-1 8.4z"/>
      <path fill="#2d2d2d" d="M188.7 90.7l-15.4 1.8s.2-.5.6-1.2l.5-1.7c.2-.6.6-.7 1.2-.8l11.2-2c.3-.1.6.5.9 1.2l.2.5c.4 1 .8 2.2.8 2.2z"/>
      <path fill="#f48500" d="M172.9 85.3c.2.1.3.2.5.3l2.5-.4c-.1 0-.1-.1-.2-.1l2.9 2.5 6-.9c-.7-.4-14.2-.1-9.8-11.9 1.8-4.8 11.9-5.5 15.7-4.1 0 0-3.1-6.8-5.8-8.3-2.7-1.4-6.1-1.2-9.6-.3s-6.7 2.5-7 4.3-.1 5.7-.9 8.6c-.1 0-.4 6.6 5.7 10.3z"/>
      <path fill="#f48500" d="M168.3 62.3s.8 12.5-.5 13.9c-1.3 1.4-9-2.7-9.3-3.4-.3-.6 5.6-8.9 9.8-10.5zm12.2-2.6c-.9.1 5.6 9.5 7.1 10.1 1.5.5 5.3-5.4 4.7-6.5-.7-1.1-8.7-3.9-11.8-3.6z"/>
      <path fill="#1f1e21" d="M173 73.4v-.9s0-.4.1-.6c0-.2.1-.4.1-.7l.2-.7.3-.6.1-.1.1-.1.1-.1.2-.1h.4c.1 0 .2 0 .3.1s.2.1.3.1a5.39 5.39 0 011.8 1.1c.1.1.3.2.4.3l.2.2.1.1v-.1s0-.2-.1-.3c0-.1-.1-.3-.2-.5l-.3-.6c-.1-.2-.3-.4-.6-.6-.2-.2-.5-.4-.8-.6s-.7-.3-1-.4h-.6c-.1 0-.3 0-.4.1l-.2.1h-.2l-.1.1c-.1.1-.2.1-.3.2s-.2.1-.2.2c-.1.1-.1.2-.2.2-.2.3-.3.7-.4 1-.1.3-.1.6-.1.9s.1.6.1.8c.1.2.1.5.2.6.1.2.2.3.2.5s.3.3.5.4zm10.5-4.2c0-.2 0-.3.1-.4s.1-.2.1-.4c.1-.1.1-.3.2-.4.1-.3.3-.7.6-1 .1-.1.2-.3.4-.4 0 0 .1 0 .1-.1h.3-.1.4c.1 0 .3.1.5.2s.3.2.5.4l.4.4s.2.3.3.4.2.2.2.3l.2.3v-.4c0-.2 0-.6-.1-1-.1-.2-.1-.4-.3-.6-.1-.2-.3-.4-.5-.6s-.5-.4-.8-.5c-.1 0-.2-.1-.2-.1-.1 0-.2-.1-.3-.1h-.7c-.1 0-.2.1-.3.1s-.2.1-.2.1c-.1 0-.1.1-.2.2-.3.2-.5.5-.6.7-.1.3-.2.5-.3.7 0 .2-.1.5-.1.7 0 .4.1.8.2 1 0 .1.1.2.1.2l.1.3z"/>
      <path fill="#fff" d="M173.4 79.8c.7 4.6 6.3 7.7 12.4 6.8 6.1-.9 10.1-5.7 9.4-10.4-.7-4.6-5.8-7.4-12-6.5-6.1.9-10.5 5.4-9.8 10.1z"/>
      <path fill="#1f1e21" d="M186.5 73.6c.2 1.2 2.6 3.6 5.2 3.2s3.6-3.4 3.4-4.6-1.7-2-4.3-1.6-4.6 1.7-4.3 3z"/>
      <path fill="#e54545" d="M193.7 81.4l-7 2.7s5.6 4.9 7.1 4.3c1.6-.5-.1-7-.1-7z"/>
    </g>
  </g>
  <circle cx="244.2" cy="74" r="9.7" fill="#0cbbd5"/>
  <circle cx="122.6" cy="75.5" r="9.7" fill="#0cbbd5"/>
</svg>
