<svg xmlns="http://www.w3.org/2000/svg" viewBox="0 0 158.2 134.8">
  <path fill="#ffdc01" d="M158.2 56.6s-43.3 12.1-54.4 35.8c0 0-5.6-50.2-24.7-74-19.1 23.7-24.7 74-24.7 74C43.3 68.8 0 56.6 0 56.6c11.6 16.8 26 67 26 67h106.2c0 .1 14.3-50.2 26-67"/>
  <path fill="#ffb703" d="M74.2 25.6s20.6 7.8 29.5 66.9c0 0-5.6-50.2-24.7-74-1.7 2.2-3.3 4.6-4.8 7.1z"/>
  <path fill="#ffdc01" d="M56.4 119.2L13.7 73c-2.7-2.9 1.7-7 4.4-4.1.1.1-1.4-1.9 38.3 50.3zM106.3 119.2l35-50c2.3-3.3 7.2.2 4.9 3.4-.1.2 2-2.2-39.9 46.6zM79.1 117.9l-3-82.7c-.1-3.8 5.9-4 6-.2 0 .2.1-3.3-3 82.9z"/>
  <path fill="#ffb10f" d="M132.2 123.7H25.9c-4.3 4.3-7.1 6.8-11.4 11.1h129.1c-4.2-4.4-7.1-6.9-11.4-11.1z"/>
  <path fill="#ffdc01" d="M85.8 15.6a9.2 9.2 0 01-13.1.3 9.2 9.2 0 01-.3-13.1 9.2 9.2 0 0113.1-.3 9.3 9.3 0 01.3 13.1z"/>
  <path fill="#ffb703" d="M87.8 6c-2.2 8.8-14.4 9.5-17.6 1-1.2 5 1.8 10 6.7 11.2s10-1.8 11.2-6.7c.4-1.8.3-3.7-.3-5.5z"/>
  <path fill="#fff876" d="M84.4 4.5c-6-3.5-9.2-.2-12 2 3.5-5.8 9.3-5.3 12-2z"/>
</svg>
