<svg xmlns="http://www.w3.org/2000/svg" viewBox="0 0 158.2 134.8">
  <path fill="#c97943" d="M158.2 56.7s-43.3 12.1-54.4 35.8c0 0-5.6-50.2-24.7-74-19.1 23.7-24.7 74-24.7 74C43.3 68.7 0 56.7 0 56.7c11.6 16.7 26 67 26 67h106.2s14.3-50.3 26-67"/>
  <path fill="#a05827" d="M74.2 25.6s20.6 7.8 29.5 66.9c0 0-5.6-50.2-24.7-74-1.7 2.2-3.3 4.6-4.8 7.1z"/>
  <path fill="#ffa05f" d="M56.4 119.2L13.7 73c-2.7-2.9 1.7-7 4.4-4.1.1.1-1.4-1.9 38.3 50.3zM106.3 119.2l35-50c2.3-3.3 7.2.2 4.9 3.4-.1.2 2-2.3-39.9 46.6zM79.1 117.9l-3-82.7c-.1-3.9 5.9-4.1 6-.2 0 .2.1-3.3-3 82.9z"/>
  <path fill="#a05827" d="M132.2 123.6H26c-4.3 4.3-7.1 6.8-11.4 11.1h129.1c-4.3-4.2-7.2-6.8-11.5-11.1z"/>
  <path fill="#c97943" d="M85.8 15.6c-3.5 3.7-9.4 3.9-13.1.3s-3.9-9.4-.3-13.1 9.3-3.8 13.1-.3a9.3 9.3 0 01.3 13.1z"/>
  <path fill="#a05827" d="M87.8 6c-2.2 8.8-14.5 9.5-17.6 1-1.2 5 1.8 10 6.7 11.2 5 1.2 10-1.8 11.2-6.7.4-1.8.3-3.8-.3-5.5z"/>
  <path fill="#ffa05f" d="M84.4 4.5c-6-3.5-9.2-.2-12 2 3.5-5.9 9.3-5.3 12-2z"/>
</svg>
