<svg xmlns="http://www.w3.org/2000/svg" xmlns:xlink="http://www.w3.org/1999/xlink" id="Capa_1" x="0" y="0" version="1.1" viewBox="0 0 187 200" xml:space="preserve">
  <style>
    .st7{fill:#1e7719}.st8{fill:#e4eace}.st9{fill:#261b23}.st11{fill:#ffdc01}.st12{fill:#ffb703}
  </style>
  <defs>
    <path id="SVGID_1_" d="M0 14h187v186H0z"/>
  </defs>
  <clipPath id="SVGID_2_">
    <use overflow="visible" xlink:href="#SVGID_1_"/>
  </clipPath>
  <g clip-path="url(#SVGID_2_)">
    <path fill="#292641" d="M170.5 171.8c2.3 5.8 4.4 11.6 6.3 17.4a226.5 226.5 0 00-34.2-9.9l6-28.1c13.1 2.8 25.9 6.5 38.4 11.2-5.7 2.9-11.2 6-16.5 9.4zm-154.1 0c-2.4 5.8-4.5 11.6-6.3 17.4 11.1-4.2 22.6-7.5 34.2-9.9l-6-28.1A268.1 268.1 0 00-.1 162.4c5.9 2.9 11.2 6 16.5 9.4z" opacity=".7"/>
    <path fill="#f9f9f9" d="M92.9 200a82.4 82.4 0 100-164.8 82.4 82.4 0 000 164.8z"/>
    <path fill="#f3f2ff" d="M93.5 194.3a75.8 75.8 0 01-70.3-47.2 76.1 76.1 0 1170.3 47.2zm0-150a73.7 73.7 0 00-14.4 146.3 74.3 74.3 0 0075.9-31.2A73.8 73.8 0 0093.6 44.5v-.2z"/>
    <path fill="#54c96d" d="M141.9 105.5c2.6-3.7 3.7-8.4 3.7-13.7 0-13.7-11-20.5-24.2-20.5-11.6 0-21.6 5.3-23.7 15.8H87.2c-2.1-10.5-12.1-15.8-23.7-15.8-13.2 0-24.2 6.3-24.2 20.5 0 5.8 1.6 10.5 4.7 14.7a29.5 29.5 0 00-4.7 16.8c0 24.7 24.2 44.7 54.2 44.7 30 0 54.2-20 54.2-44.7 0-6.7-2.1-13-5.8-17.8z"/>
    <path fill="#366034" d="M93.5 168.3a60.5 60.5 0 01-38.4-13.1 41.2 41.2 0 01-15.9-31.7c0-6.4 1.6-12.2 4.7-16.8A23.7 23.7 0 0139.2 92c0-6.7 2.5-12.1 7.2-15.7 4.3-3.2 10.2-5 17.1-5 12.7 0 21.8 6 23.8 15.8h10.3c2-9.7 11.1-15.8 23.8-15.8 6.7 0 12.8 1.8 17.1 5.2 4.7 3.7 7.2 9 7.2 15.5 0 5.6-1.2 10.2-3.7 13.7a29.5 29.5 0 015.8 17.9c0 12-5.6 23.3-15.9 31.7a61 61 0 01-38.4 13zm-30-96.8c-11.6 0-24.1 5.4-24.1 20.4 0 5.6 1.5 10.4 4.7 14.7l.1.1v.1a29.8 29.8 0 00-4.7 16.8c0 24.6 24.3 44.6 54.1 44.6s54.1-20 54.1-44.6c0-6.7-2-13-5.8-17.8l-.1-.1.1-.1c2.4-3.4 3.7-8 3.7-13.6 0-12.4-9.5-20.4-24.1-20.4-12.6 0-21.6 6-23.6 15.7v.1H87.1v-.1c-2-9.8-11-15.8-23.6-15.8z"/>
    <path d="M84.6 146.6c.9 0 1.6-.7 1.6-1.6 0-.9-.7-1.6-1.6-1.6-.9 0-1.6.7-1.6 1.6 0 .9.7 1.6 1.6 1.6zM102.4 146.6c.9 0 1.6-.7 1.6-1.6 0-.9-.7-1.6-1.6-1.6s-1.6.7-1.6 1.6c.1.9.8 1.6 1.6 1.6z" class="st7"/>
    <path d="M66.1 114.5c9.9 0 17.9-7.3 17.9-16.3s-8-16.3-17.9-16.3-17.9 7.3-17.9 16.3c.1 9 8.1 16.3 17.9 16.3zM120.9 114.5c9.9 0 17.9-7.3 17.9-16.3s-8-16.3-17.9-16.3c-9.9 0-17.9 7.3-17.9 16.3s8 16.3 17.9 16.3z" class="st8"/>
    <path d="M109.3 102.9c.5-3.7 5.8-6.3 9.5-6.3 3.7.5 6.8 3.2 7.4 6.8.5 4.2 8.4 4.2 7.9-.5-.5-6.8-7.4-13.2-15.3-13.2-8.4.5-12.1 6.3-12.1 13.2.5 1 2.1 1 2.6 0z" class="st9"/>
    <g>
      <path d="M77.7 102.9c-1.1-3.7-5.8-6.3-10-6.3-3.7 0-6.8 3.2-7.4 6.8-.5 4.2-8.4 3.7-7.9-.5.5-6.8 7.4-13.2 15.3-13.2 8.4.5 12.1 6.3 12.1 13.2 0 1-2.1 1-2.1 0z" class="st9"/>
    </g>
  </g>
  <g>
    <defs>
      <path id="SVGID_3_" d="M71 0h43.9v37.4H71z"/>
    </defs>
    <clipPath id="SVGID_4_">
      <use overflow="visible" xlink:href="#SVGID_3_"/>
    </clipPath>
    <g clip-path="url(#SVGID_4_)">
      <path d="M115 15.7s-12 3.4-15.1 9.9c0 0-1.5-13.9-6.8-20.5-5.3 6.6-6.8 20.5-6.8 20.5-3.2-6.5-15.3-9.9-15.3-9.9 3.2 4.6 7.2 18.6 7.2 18.6h29.5s4-13.9 7.3-18.6z" class="st11"/>
      <path d="M91.6 7.1s5.7 2.2 8.2 18.6c0 0-1.5-13.9-6.8-20.5l-1.4 1.9z" class="st12"/>
      <path d="M86.7 33.1L74.9 20.3c-.7-.8.5-1.9 1.2-1.1l10.6 13.9zM100.5 33.1l9.7-13.9c.6-.9 2 0 1.4 1l-11.1 12.9zM93 32.7l-.8-22.9c0-1.1 1.6-1.1 1.7-.1l-.9 23z" class="st11"/>
      <path fill="#ffb10f" d="M107.7 34.3H78.3l-3.2 3.1h35.8l-3.2-3.1z"/>
      <path d="M94.9 4.3a2 2 0 01-1.3.7c-.5.1-1 .1-1.5-.1s-.9-.5-1.2-.9c-.3-.4-.5-.9-.5-1.4 0-.5.1-1 .4-1.4.3-.4.7-.8 1.1-1 .5-.2 1-.2 1.5-.2.5.1 1 .3 1.3.7l.6.8.2 1c0 .3 0 .7-.2 1 0 .3-.2.6-.4.8z" class="st11"/>
      <path d="M95.4 1.7c-.6 2.4-4 2.6-4.9.3v1.2l.5 1.1c.3.3.6.6 1 .7.4.2.8.2 1.2.2a2 2 0 001.1-.3l.9-.8c.2-.3.4-.7.4-1.1l-.2-1.3z" class="st12"/>
      <path fill="#fff876" d="M94.5 1.3c-1.7-1-2.5 0-3.3.6.9-1.7 2.5-1.6 3.3-.6z"/>
    </g>
  </g>
</svg>
