<svg xmlns="http://www.w3.org/2000/svg" xmlns:xlink="http://www.w3.org/1999/xlink" viewBox="0 0 373 344">
  <path fill="#584afa" d="M368.2 124.3c0-58.4-43.8-105.8-97.9-105.8-35.3 0-66.1 20.1-83.4 50.3-17.3-29.9-48-49.7-83-49.7C49.8 19.1 6 66.5 6 124.9c0 185.6 181.1 212.2 181.1 212.2s181.1-26.6 181.1-212.2v-.6z"/>
  <defs>
    <path id="a" d="M368.2 124.9c0-58.3-43.7-105.5-97.6-105.5-35.2 0-66 20.1-83.2 50.2C170.2 39.8 139.5 20 104.6 20 50.7 20 7 67.2 7 125.5c0 185.1 180.6 211.6 180.6 211.6s180.6-26.5 180.6-211.6v-.6z"/>
  </defs>
  <clipPath id="b">
    <use overflow="visible" xlink:href="#a"/>
  </clipPath>
  <path fill="#2560b7" d="M138.3 286l-18.9 72.4s65.3-7.4 88-14c-.2-4.3-2-51.1-2-51.1l-67.1-7.3z" clip-path="url(#b)"/>
  <defs>
    <path id="c" d="M368.2 124.9c0-58.3-43.7-105.5-97.6-105.5-35.2 0-66 20.1-83.2 50.2C170.2 39.8 139.5 20 104.6 20 50.7 20 7 67.2 7 125.5c0 185.1 180.6 211.6 180.6 211.6s180.6-26.5 180.6-211.6v-.6z"/>
  </defs>
  <clipPath id="d">
    <use overflow="visible" xlink:href="#c"/>
  </clipPath>
  <path fill="#bc5824" d="M106.8 165.9l.6-26.4 105.9 16.7s-7.7 31.8-8.3 46.2c-.4 11.8 4.4 12.7 4.4 12.7-17.4 42.1-103.3 25.7-120.2-10.9 0 0 9.6-5.9 13.6-12.8 4.1-6.9 4-25.5 4-25.5z" clip-path="url(#d)"/>
  <defs>
    <path id="e" d="M368.2 124.9c0-58.3-43.7-105.5-97.6-105.5-35.2 0-66 20.1-83.2 50.2C170.2 39.8 139.5 20 104.6 20 50.7 20 7 67.2 7 125.5c0 185.1 180.6 211.6 180.6 211.6s180.6-26.5 180.6-211.6v-.6z"/>
  </defs>
  <clipPath id="f">
    <use overflow="visible" xlink:href="#e"/>
  </clipPath>
  <path fill="#de57ff" d="M120.8 229.8l.7-7.2 27.3-11s9.9-4 22.7-4.7c12.8-.6 28.9 1.6 30.5 2.9 1.6 1.3 9.5 7.6 10.4 12.1s3.9 30.6 2.3 30.9c-1.6.3-8.6 22-8.6 22s-11 13.8-22.4 16.2c-11.4 2.4-11.1 6.6-21.4 4.4-10.2-2.2-22.6-9-23.7-9.5-1.2-.4-17.8-56.1-17.8-56.1z" clip-path="url(#f)"/>
  <defs>
    <path id="g" d="M368.2 124.9c0-58.3-43.7-105.5-97.6-105.5-35.2 0-66 20.1-83.2 50.2C170.2 39.8 139.5 20 104.6 20 50.7 20 7 67.2 7 125.5c0 185.1 180.6 211.6 180.6 211.6s180.6-26.5 180.6-211.6v-.6z"/>
  </defs>
  <clipPath id="h">
    <use overflow="visible" xlink:href="#g"/>
  </clipPath>
  <path fill="#d351f2" d="M168.7 257.3l-34.5 44.4-6.7 25.5s25.1 11.2 34.5 11 22.8 4.7 22.8 4.7 6.4-6.4 9.6 3.9c4.7-.5 9-1.2 12.3-2.2-.2-4.3-1.6-51.1-1.6-51.1l12.8-71.9c-7.8-17.8-28.8-12-37.2 12.2-2.8 8.3-6.9 16.2-12 23.5z" clip-path="url(#h)"/>
  <defs>
    <path id="i" d="M368.2 124.9c0-58.3-43.7-105.5-97.6-105.5-35.2 0-66 20.1-83.2 50.2C170.2 39.8 139.5 20 104.6 20 50.7 20 7 67.2 7 125.5c0 185.1 180.6 211.6 180.6 211.6s180.6-26.5 180.6-211.6v-.6z"/>
  </defs>
  <clipPath id="j">
    <use overflow="visible" xlink:href="#i"/>
  </clipPath>
  <path fill="#7a2d1f" d="M133.6 181.5c2.7.3 5.3-.6 7.8-2.8.4-.4.5-1.1.1-1.5s-1.1-.5-1.5-.1c-2 1.8-4.1 2.6-6.2 2.3-3.5-.4-5.9-3.7-6-3.7-.3-.5-1-.6-1.5-.2-.5.3-.6 1-.2 1.5.2.1 3.1 4 7.5 4.5zm39.5 1.2c2.7.3 5.3-.6 7.8-2.8.4-.4.5-1.1.1-1.5s-1.1-.5-1.5-.1c-2 1.8-4.1 2.6-6.2 2.3-3.5-.4-5.9-3.7-6-3.7-.3-.5-1-.6-1.5-.2-.5.3-.6 1-.2 1.5.1.1 3 4 7.5 4.5z" clip-path="url(#j)"/>
  <defs>
    <path id="k" d="M-121.6 189.9c-13.3 56.7 18.3 112.7 70.9 125 34.3 8.1 68.9-4.5 92.5-29.8 9.9 33 35.3 59.3 69.2 67.2 52.4 12.3 105.8-23.6 119.1-80.3C272.5 91.8 102.8 24.7 102.8 24.7S-78.9 9.1-121.4 189.3l-.2.6z"/>
  </defs>
  <clipPath id="l">
    <use overflow="visible" xlink:href="#k"/>
  </clipPath>
  <ellipse cx="127.1" cy="185.9" fill="#fc4c4c" clip-path="url(#l)" rx="4.5" ry="8.1" transform="rotate(-83.38 127.07 185.87)"/>
  <defs>
    <path id="m" d="M-7.5 204.3C-21 261 10.8 317 63.3 329.4c34.3 8.1 68.9-4.5 92.5-29.8 9.9 33 35.3 59.3 69.2 67.2 52.4 12.3 105.8-23.6 119.1-80.3C386.5 106.3 216.8 39.2 216.8 39.2S35 23.6-7.5 203.7v.6z"/>
  </defs>
  <clipPath id="n">
    <use overflow="visible" xlink:href="#m"/>
  </clipPath>
  <ellipse cx="184.9" cy="186.5" fill="#fc4c4c" clip-path="url(#n)" rx="4.5" ry="8.1" transform="rotate(-83.38 184.9 186.48)"/>
  <defs>
    <path id="o" d="M368.2 124.9c0-58.3-43.7-105.5-97.6-105.5-35.2 0-66 20.1-83.2 50.2C170.2 39.8 139.5 20 104.6 20 50.7 20 7 67.2 7 125.5c0 185.1 180.6 211.6 180.6 211.6s180.6-26.5 180.6-211.6v-.6z"/>
  </defs>
  <clipPath id="p">
    <use overflow="visible" xlink:href="#o"/>
  </clipPath>
  <ellipse cx="158.1" cy="225.8" fill="#d351f2" clip-path="url(#p)" rx="11.7" ry="8.2"/>
  <defs>
    <path id="q" d="M368.2 124.9c0-58.3-43.7-105.5-97.6-105.5-35.2 0-66 20.1-83.2 50.2C170.2 39.8 139.5 20 104.6 20 50.7 20 7 67.2 7 125.5c0 185.1 180.6 211.6 180.6 211.6s180.6-26.5 180.6-211.6v-.6z"/>
  </defs>
  <clipPath id="r">
    <use overflow="visible" xlink:href="#q"/>
  </clipPath>
  <path fill="#ffc692" d="M158.8 226.9h-1.9c-3 0-5.5-2.5-5.5-5.5v-23.1c0-3 2.5-5.5 5.5-5.5h1.9c3 0 5.5 2.5 5.5 5.5v23.1c0 3.1-2.4 5.5-5.5 5.5z" clip-path="url(#r)"/>
  <defs>
    <path id="s" d="M368.2 124.9c0-58.3-43.7-105.5-97.6-105.5-35.2 0-66 20.1-83.2 50.2C170.2 39.8 139.5 20 104.6 20 50.7 20 7 67.2 7 125.5c0 185.1 180.6 211.6 180.6 211.6s180.6-26.5 180.6-211.6v-.6z"/>
  </defs>
  <clipPath id="t">
    <use overflow="visible" xlink:href="#s"/>
  </clipPath>
  <path fill="#ffc692" d="M217.2 152.9c-4.2 27-33.9 60.2-65.5 55.3-34.2-5.3-46.3-42.3-42.1-69.4s23.8-18.2 56.6-13.1 55.2.1 51 27.2z" clip-path="url(#t)"/>
  <g>
    <defs>
      <path id="u" d="M368.2 124.9c0-58.3-43.7-105.5-97.6-105.5-35.2 0-66 20.1-83.2 50.2C170.2 39.8 139.5 20 104.6 20 50.7 20 7 67.2 7 125.5c0 185.1 180.6 211.6 180.6 211.6s180.6-26.5 180.6-211.6v-.6z"/>
    </defs>
    <clipPath id="v">
      <use overflow="visible" xlink:href="#u"/>
    </clipPath>
    <path fill="none" d="M181.2 127.5c15.1 9.8 24 25.9 21.4 42.4-3.7 23.9-29.9 39.7-58.4 35.2-2.3-.4-4.6-.9-6.8-1.5 4.3 2.2 9.2 3.7 14.6 4.6 32 4.9 61.3-28.3 65.5-55.3 3.5-22.7-11.9-22.9-36.3-25.4z" clip-path="url(#v)"/>
  </g>
  <g>
    <defs>
      <path id="w" d="M368.2 124.9c0-58.3-43.7-105.5-97.6-105.5-35.2 0-66 20.1-83.2 50.2C170.2 39.8 139.5 20 104.6 20 50.7 20 7 67.2 7 125.5c0 185.1 180.6 211.6 180.6 211.6s180.6-26.5 180.6-211.6v-.6z"/>
    </defs>
    <clipPath id="x">
      <use overflow="visible" xlink:href="#w"/>
    </clipPath>
    <path fill="#ffcda4" d="M181.2 127.5c-4.6-.5-9.5-1-14.7-1.8-14.3-2.2-26-5.1-35.1-5.5-7.4 2.2-14.1 5.8-19.4 10.6a37 37 0 00-2.1 8c-3.6 23 3.6 52.9 27.5 64.8 2.2.6 4.5 1.1 6.8 1.5 28.5 4.5 54.7-11.3 58.4-35.2 2.6-16.5-6.3-32.5-21.4-42.4z" clip-path="url(#x)"/>
  </g>
  <g>
    <defs>
      <path id="y" d="M368.2 124.9c0-58.3-43.7-105.5-97.6-105.5-35.2 0-66 20.1-83.2 50.2C170.2 39.8 139.5 20 104.6 20 50.7 20 7 67.2 7 125.5c0 185.1 180.6 211.6 180.6 211.6s180.6-26.5 180.6-211.6v-.6z"/>
    </defs>
    <clipPath id="z">
      <use overflow="visible" xlink:href="#y"/>
    </clipPath>
    <path fill="none" d="M112 130.8c5.3-4.8 12-8.4 19.4-10.6-9.4-.4-15.9 2-19.4 10.6z" clip-path="url(#z)"/>
  </g>
  <g>
    <defs>
      <path id="A" d="M-130.5 141.3c-17.7 55.5 9.6 113.8 60.9 130.1 33.5 10.8 69 .9 94.6-22.5 7.3 33.6 30.6 61.8 63.8 72.4 51.4 16.4 107.3-15.3 125-70.9C269.9 74 106-6.1 106-6.1S-74.1-35.7-130.3 140.7l-.2.6z"/>
    </defs>
    <clipPath id="B">
      <use overflow="visible" xlink:href="#A"/>
    </clipPath>
    <ellipse cx="120.1" cy="171.9" fill="#efa3a3" clip-path="url(#B)" rx="4" ry="5" transform="rotate(-81.16 120.13 171.9)"/>
  </g>
  <g>
    <defs>
      <path id="C" d="M368.2 124.9c0-58.3-43.7-105.5-97.6-105.5-35.2 0-66 20.1-83.2 50.2C170.2 39.8 139.5 20 104.6 20 50.7 20 7 67.2 7 125.5c0 185.1 180.6 211.6 180.6 211.6s180.6-26.5 180.6-211.6v-.6z"/>
    </defs>
    <clipPath id="D">
      <use overflow="visible" xlink:href="#C"/>
    </clipPath>
    <path fill="#ff7300" d="M174.3 75.3c63.6 11.6 52.8 65.2 50 83.3-.4 2.9-6.6 20.8-6.6 18.3 0-.8-.2-1.6-.6-2.4-.3-.5-.6-1.1-1.1-1.6-5.4-6.3-22.8-9.9-24.8-14.9-5.7-14.2 17.6-29.6 3.1-19.1-12.3 8.9-73.7 12.3-88.9 9.9-1-.2-5.1-39.4 13.3-57.2.1 0 21.3-22.6 55.6-16.3z" clip-path="url(#D)"/>
  </g>
  <g>
    <defs>
      <path id="E" d="M17.8 184.2C0 239.8 27.4 298.1 78.7 314.3c33.6 10.7 69 .9 94.5-22.6 7.3 33.6 30.6 61.7 63.8 72.4 51.4 16.4 107.3-15.3 125-70.9C418.2 116.9 254.2 36.8 254.2 36.8S74.1 7.3 18 183.7l-.2.5z"/>
    </defs>
    <clipPath id="F">
      <use overflow="visible" xlink:href="#E"/>
    </clipPath>
    <ellipse cx="197.6" cy="181.7" fill="#efa3a3" clip-path="url(#F)" rx="4" ry="5" transform="rotate(-81.16 197.6 181.75)"/>
  </g>
  <g>
    <defs>
      <path id="G" d="M368.2 124.9c0-58.3-43.7-105.5-97.6-105.5-35.2 0-66 20.1-83.2 50.2C170.2 39.8 139.5 20 104.6 20 50.7 20 7 67.2 7 125.5c0 185.1 180.6 211.6 180.6 211.6s180.6-26.5 180.6-211.6v-.6z"/>
    </defs>
    <clipPath id="H">
      <use overflow="visible" xlink:href="#G"/>
    </clipPath>
    <path fill="#fff" d="M201.3 157.4c-5.1-2.6-10.2-4.4-18.2-4.2-7.9.2-12.5 3.9-13.8 3.8-1.3-.1-4.6-2.3-8.2-2.9-3.6-.6-7.4.6-8.7.3s-4.5-5.2-12-7.8-12.9-2.5-18.6-1.5c-5.7.9-8.9 2.8-13.8 2l-.9 5.6s3 .6 3.1 2.4c.1 1.8 0 10 3.2 15.6s7 9.6 14.6 11.1c8.3 1.6 14.4-.9 18-3.9 5-4.2 8-11.5 9-15 0 0-1.7-1.3-.7-3.2.8-1.5 2.6-1.6 6.2-1s5.2 1.2 5.5 2.9c.4 2.2-1.6 2.8-1.6 2.8-.1 3.6.5 11.4 4 17 2.5 3.9 7.6 8.3 15.9 9.2 7.6.9 12.5-1.8 17.2-6.1 4.8-4.4 7.2-12.2 7.8-13.9s3.7-1.3 3.7-1.3l.9-5.6c-5.1-.9-7.5-3.6-12.6-6.3zM147.2 173a16.1 16.1 0 01-13.6 7.2c-4.4 0-8.2-.2-13.3-4.1-4.8-3.7-7.2-9.6-7.1-16.1s4.7-11 8.8-12.6c4.7-1.8 13.6-1.2 18.9 1.3 5.4 2.4 8.9 6.8 9.5 10.2.8 3.3.1 9.2-3.2 14.1zm57.6 1.3c-1.9 6.2-5.9 11.1-11.7 13.2-6 2.2-9.7 1.2-13.9-.1-4.7-1.5-9.1-5.3-10.7-11-1.7-5.7-.5-11.5 1.1-14.5s6.3-6.2 12.2-6.8c5.8-.7 14.5 1.4 18.4 4.5 3.5 2.8 6.4 8.5 4.6 14.7z" clip-path="url(#H)"/>
  </g>
  <g>
    <defs>
      <path id="I" d="M368.2 124.9c0-58.3-43.7-105.5-97.6-105.5-35.2 0-66 20.1-83.2 50.2C170.2 39.8 139.5 20 104.6 20 50.7 20 7 67.2 7 125.5c0 185.1 180.6 211.6 180.6 211.6s180.6-26.5 180.6-211.6v-.6z"/>
    </defs>
    <clipPath id="J">
      <use overflow="visible" xlink:href="#I"/>
    </clipPath>
    <path fill="#e54242" d="M169.8 187.6s-.3.5-1 1.3c-.3.4-.7.9-1.3 1.4-.5.5-1.1 1.1-1.8 1.6-.7.6-1.5 1.1-2.5 1.6-.9.5-1.9 1-3 1.3s-2.3.6-3.5.7c-1.2.1-2.5.1-3.7 0s-2.5-.4-3.6-.8c-1.2-.4-2.3-1-3.3-1.6s-1.9-1.4-2.6-2.1c-.8-.7-1.4-1.6-1.9-2.3-.5-.8-.9-1.5-1.2-2.2s-.5-1.3-.6-1.8c-.2-.5-.2-.9-.3-1.2 0-.3-.1-.4-.1-.4s.1.1.2.4c.1.2.4.6.7 1s.6.9 1.1 1.4c.4.5 1 1.1 1.5 1.7.6.6 1.3 1.2 2 1.7s1.6 1 2.5 1.5c.9.4 1.8.8 2.8 1.1s2 .5 3.1.6c1 .1 2.1.1 3.1.1s2.1-.2 3-.4c1-.2 1.9-.5 2.8-.8.4-.2.9-.3 1.3-.5s.8-.3 1.2-.5c.8-.4 1.4-.7 2-1.1.6-.4 1.1-.7 1.5-.9l1.6-.8z" clip-path="url(#J)"/>
  </g>
  <g>
    <defs>
      <path id="K" d="M368.2 124.9c0-58.3-43.7-105.5-97.6-105.5-35.2 0-66 20.1-83.2 50.2C170.2 39.8 139.5 20 104.6 20 50.7 20 7 67.2 7 125.5c0 185.1 180.6 211.6 180.6 211.6s180.6-26.5 180.6-211.6v-.6z"/>
    </defs>
    <clipPath id="L">
      <use overflow="visible" xlink:href="#K"/>
    </clipPath>
    <path fill="#4e4d51" d="M223.1 321.2L249 325c6.9 14.4 12.5 28.9 9.2 33.1-6 7.9-32.9 4.7-44.1.6 0 0 1.1-16.4 11.4-30.9.1 0-.8-2.7-2.4-6.6zm-27.6-47.1s3.3 18.6 10 16.6l9.7 4.1-8.2 6.2c-5.2 2.6-17.7 21.9-35.3 55.4l-12.7-1.9c-.1 0 37.8-57.6 36.5-80.4z" clip-path="url(#L)"/>
  </g>
  <g>
    <defs>
      <path id="M" d="M368.2 124.9c0-58.3-43.7-105.5-97.6-105.5-35.2 0-66 20.1-83.2 50.2C170.2 39.8 139.5 20 104.6 20 50.7 20 7 67.2 7 125.5c0 185.1 180.6 211.6 180.6 211.6s180.6-26.5 180.6-211.6v-.6z"/>
    </defs>
    <clipPath id="N">
      <use overflow="visible" xlink:href="#M"/>
    </clipPath>
    <path fill="#fff" d="M208.9 235.4s-1.7 8.4-8.5 13.3c-6.7 4.9-7.9 22.9-8.3 29.5-.4 6.6 10.6 25.7 20 36.7s13.4 41.1 30.6 48.3c0 0 18.2-30.5-5.9-69.8 0 0-12.9-42.9.8-55.8-.1.1-23.1-6.7-28.7-2.2z" clip-path="url(#N)"/>
  </g>
  <g>
    <defs>
      <path id="O" d="M368.2 124.9c0-58.3-43.7-105.5-97.6-105.5-35.2 0-66 20.1-83.2 50.2C170.2 39.8 139.5 20 104.6 20 50.7 20 7 67.2 7 125.5c0 185.1 180.6 211.6 180.6 211.6s180.6-26.5 180.6-211.6v-.6z"/>
    </defs>
    <clipPath id="P">
      <use overflow="visible" xlink:href="#O"/>
    </clipPath>
    <path fill="#4e4d51" d="M267.1 197.9c0 .2.9 19.5-16.7 30.5-17.7 11.1 18.5 48.5 24.4 61 23.2 49.4 10.1 66 4 73.9-6 7.8-32.6 4.7-43.9.7-.1 0-.2-.1-.2-.2.1-1.5 1.2-11.7 6.6-22.7 3.1-6.2 3-13.5.1-19.8-1.1-2.2-2.3-4.6-3.7-6.9-4.4-7.2-14.8-7.4-19.3-.2-5.2 8.2-11.9 22.2-18.7 46.3 0 .1-.2.2-.3.2l-11.3-1.7c-.2 0-.3-.2-.2-.4 1.2-2.7 9.1-20.2 14.8-42.2 2-7.6 2.5-20.1.4-27.6-.8-2.8.9-5.5 3.3-16.2 3.6-16.8-6-30.5 4.9-40.5 0 0 .1-.1.2-.1l3.1-.3c11.1-1.1 21.2-7.1 27-16.6 3.5-5.8 5.2-12.5 1.1-18.8-10.1-15.4-31.3-15.1-42.4-11.3-.2.1-.4-.1-.3-.3 1.5-3.3 9.4-20.1 16.5-23.9 7.9-4.2 17.5-3.6 27.6-1s19.4 7.3 20.3 12.7c.9 5.3.3 16.8 2.7 25.4z" clip-path="url(#P)"/>
  </g>
  <g>
    <defs>
      <path id="Q" d="M368.2 124.9c0-58.3-43.7-105.5-97.6-105.5-35.2 0-66 20.1-83.2 50.2C170.2 39.8 139.5 20 104.6 20 50.7 20 7 67.2 7 125.5c0 185.1 180.6 211.6 180.6 211.6s180.6-26.5 180.6-211.6v-.6z"/>
    </defs>
    <clipPath id="R">
      <use overflow="visible" xlink:href="#Q"/>
    </clipPath>
    <path fill="#1fa6e4" d="M204.7 244.4l44.4 5.4-1.6-3.7-1.3-4.9c-.6-1.7-1.7-2.1-3.5-2.4l-32.2-6c-.9-.3-1.7 1.6-2.6 3.5l-.7 1.5c-1.2 3-2.5 6.6-2.5 6.6z" clip-path="url(#R)"/>
  </g>
  <g>
    <defs>
      <path id="S" d="M368.2 124.9c0-58.3-43.7-105.5-97.6-105.5-35.2 0-66 20.1-83.2 50.2C170.2 39.8 139.5 20 104.6 20 50.7 20 7 67.2 7 125.5c0 185.1 180.6 211.6 180.6 211.6s180.6-26.5 180.6-211.6v-.6z"/>
    </defs>
    <clipPath id="T">
      <use overflow="visible" xlink:href="#S"/>
    </clipPath>
    <path fill="#4e4d51" d="M250.5 228.4c-.5.3-.9.6-1.3 1l-7.3-1.1c.2-.1.3-.3.5-.4l-8.3 7.5-17.3-2.6c1.9-1.3 41.1-.2 28.3-35.3-5.2-14.2-34.3-16.2-45.2-12.3 0 0 8.8-20.2 16.7-24.5 7.9-4.2 17.5-3.6 27.6-1s19.4 7.3 20.3 12.7c.8 5.4.2 16.9 2.7 25.5-.1 0 .9 19.4-16.7 30.5z" clip-path="url(#T)"/>
  </g>
  <g>
    <defs>
      <path id="U" d="M368.2 124.9c0-58.3-43.7-105.5-97.6-105.5-35.2 0-66 20.1-83.2 50.2C170.2 39.8 139.5 20 104.6 20 50.7 20 7 67.2 7 125.5c0 185.1 180.6 211.6 180.6 211.6s180.6-26.5 180.6-211.6v-.6z"/>
    </defs>
    <clipPath id="V">
      <use overflow="visible" xlink:href="#U"/>
    </clipPath>
    <path fill="#4e4d51" d="M263.6 160.1s-2.3 37 1.4 41.2c3.8 4.3 25.9-8.1 26.8-10 1-1.9-15.9-26.6-28.2-31.2zm-35.2-7.6c2.7.3-16.1 28.3-20.4 30-4.2 1.6-15.2-16.1-13.5-19.3 1.8-3.4 25.1-11.7 33.9-10.7z" clip-path="url(#V)"/>
  </g>
  <g>
    <defs>
      <path id="W" d="M368.2 124.9c0-58.3-43.7-105.5-97.6-105.5-35.2 0-66 20.1-83.2 50.2C170.2 39.8 139.5 20 104.6 20 50.7 20 7 67.2 7 125.5c0 185.1 180.6 211.6 180.6 211.6s180.6-26.5 180.6-211.6v-.6z"/>
    </defs>
    <clipPath id="X">
      <use overflow="visible" xlink:href="#W"/>
    </clipPath>
    <path fill="#fff" d="M249 211.9c-2.1 13.8-18.1 22.9-35.8 20.3-17.7-2.6-29.2-17-27.1-30.8 2.1-13.8 16.8-21.9 34.6-19.3 17.6 2.6 30.3 16 28.3 29.8z" clip-path="url(#X)"/>
  </g>
  <g>
    <defs>
      <path id="Y" d="M368.2 124.9c0-58.3-43.7-105.5-97.6-105.5-35.2 0-66 20.1-83.2 50.2C170.2 39.8 139.5 20 104.6 20 50.7 20 7 67.2 7 125.5c0 185.1 180.6 211.6 180.6 211.6s180.6-26.5 180.6-211.6v-.6z"/>
    </defs>
    <clipPath id="Z">
      <use overflow="visible" xlink:href="#Y"/>
    </clipPath>
    <path fill="#1f1e21" d="M211.2 193.5c-.6 3.7-7.6 10.6-15.1 9.4-7.5-1.2-10.5-10-9.9-13.7s5-5.9 12.5-4.7 13.2 5.3 12.5 9z" clip-path="url(#Z)"/>
  </g>
  <g>
    <defs>
      <path id="aa" d="M368.2 124.9c0-58.3-43.7-105.5-97.6-105.5-35.2 0-66 20.1-83.2 50.2C170.2 39.8 139.5 20 104.6 20 50.7 20 7 67.2 7 125.5c0 185.1 180.6 211.6 180.6 211.6s180.6-26.5 180.6-211.6v-.6z"/>
    </defs>
    <clipPath id="ab">
      <use overflow="visible" xlink:href="#aa"/>
    </clipPath>
    <path fill="#e54545" d="M190.5 216.7l20.3 8s-16.1 14.5-20.5 12.9c-4.7-1.6.2-20.9.2-20.9z" clip-path="url(#ab)"/>
  </g>
  <g>
    <defs>
      <path id="ac" d="M368.2 124.9c0-58.3-43.7-105.5-97.6-105.5-35.2 0-66 20.1-83.2 50.2C170.2 39.8 139.5 20 104.6 20 50.7 20 7 67.2 7 125.5c0 185.1 180.6 211.6 180.6 211.6s180.6-26.5 180.6-211.6v-.6z"/>
    </defs>
    <clipPath id="ad">
      <use overflow="visible" xlink:href="#ac"/>
    </clipPath>
    <path fill="#fcb07c" d="M251.3 292.3s-20.1 15.3-17.4 21.4c2.6 6.2 18.3 8.7 21.9.3 3.6-8.4 6.5-23.6-4.5-21.7zm-78.2-9.6s17.5-6.8 29-12.1 35.7-12.4 40.3-11.2c4.6 1.2 11.5 6.2 11.8 8.4.3 2.1-7.6 4.9-7.6 4.9s-2.6 7.9-7.9 9.2c-4.1 1-16.9.2-27-4.2l-30.9 26.2s-10.9-17-7.7-21.2z" clip-path="url(#ad)"/>
  </g>
  <g>
    <defs>
      <path id="ae" d="M368.2 124.9c0-58.3-43.7-105.5-97.6-105.5-35.2 0-66 20.1-83.2 50.2C170.2 39.8 139.5 20 104.6 20 50.7 20 7 67.2 7 125.5c0 185.1 180.6 211.6 180.6 211.6s180.6-26.5 180.6-211.6v-.6z"/>
    </defs>
    <clipPath id="af">
      <use overflow="visible" xlink:href="#ae"/>
    </clipPath>
    <path fill="#de57ff" d="M162.4 283.9c9-1.8 19.5-4.5 19.5-4.5L188 304s-13.7 10.2-31.6 12.4c-17.8 2.2-36.5-34.8-42.4-61s7.5-32.8 7.5-32.8 35.9.8 31 31.6c0 0-.7 7.5 2 14.6 1.6 4-9.6 4.3-5.3 5.2l5.3.2c1.7.4 6.2 10.1 7.9 9.7z" clip-path="url(#af)"/>
  </g>
  <path fill="#fff" d="M77.9 164.9a8.43 8.43 0 00-16.1-1.8 8.4 8.4 0 00-7.7-2.7c-4.6.8-7.6 5.1-6.9 9.7 2.4 14.5 18.1 14 18.1 14s15.1-4.6 12.6-19.2zm230.7-36.4c.4-2.2-1.1-4.3-3.3-4.6-1.4-.2-2.8.3-3.7 1.3-.5-1.2-1.6-2.2-3.1-2.4-2.2-.4-4.3 1.1-4.6 3.3-1.1 6.9 6 9.1 6 9.1s7.6.3 8.7-6.7zm-43.7 8a5.87 5.87 0 00-11.3-.1 5.87 5.87 0 00-9.6 5.9c2.8 9.9 13.6 8.4 13.6 8.4s10.1-4.3 7.3-14.2zm20.9-78.9c-.6-1.6-2.3-2.3-3.9-1.7-1 .4-1.7 1.3-1.9 2.3a3 3 0 00-2.9-.4c-1.6.6-2.3 2.3-1.7 3.9 1.9 4.9 7.4 3.7 7.4 3.7s4.9-2.9 3-7.8zM49.1 84.4c-.3-2.2-2.3-3.7-4.5-3.4-1.4.2-2.6 1.1-3.1 2.4a3.97 3.97 0 00-7 3.1c.9 7 8.4 7 8.4 7s7.1-2.1 6.2-9.1zm59.8 177.3a5.87 5.87 0 00-10.3-4.7 5.87 5.87 0 00-11.2 1.4c-1.6 10.2 9 13.3 9 13.3s10.9.2 12.5-10zm-4.7-186c-.6-1.6-2.3-2.3-3.9-1.7-1 .4-1.7 1.3-1.9 2.3a3 3 0 00-2.9-.4c-1.6.6-2.3 2.3-1.7 3.9 1.9 4.9 7.4 3.7 7.4 3.7s4.8-2.8 3-7.8z"/>
  <g fill="#933f19">
    <path d="M178.4 174.3c.2-2.8 3.5-5.5 6.3-5.6 2.7-.1 5 2.1 5.4 4.7.6 3.4 5.7 2.7 5.4-.8-.6-5.4-5.7-9.7-11.2-9s-8 5.6-7.5 10.6c.1 1.1 1.6 1 1.6.1zM138.9 168.7c.7-2.7-1.6-6.3-4.2-7.3-2.5-.9-5.4.4-6.7 2.7-1.7 3.1-6.3.8-4.9-2.5 2.3-4.9 8.6-7.4 13.5-4.9 5 2.5 5.8 7.8 3.7 12.5-.3.8-1.6.3-1.4-.5z"/>
  </g>
  <g fill="#1f1e21">
    <path d="M239.4 186.1c.6-2.2 3.2-4.2 5-4s2.9 2.1 2.8 4.2c-.1 2.8 3.3 2.7 3.6-.2.5-4.4-2.2-8.3-5.9-8.1s-6.1 3.9-6.6 8c-.1.7.9.8 1.1.1zM217.4 179.4c.9-2.2 0-5.2-1.6-6.2-1.5-.9-3.6-.1-4.8 1.6-1.6 2.3-4.3.1-2.8-2.4 2.3-3.8 6.8-5.3 9.6-2.9 2.9 2.4 2.5 6.8.4 10.4-.3.6-1.1.1-.8-.5z"/>
  </g>
</svg>
