<svg xmlns="http://www.w3.org/2000/svg" xmlns:xlink="http://www.w3.org/1999/xlink" viewBox="0 0 373 344.8">
  <ellipse cx="186.5" cy="301.3" fill="#f70000" opacity=".09" rx="186.5" ry="43.6"/>
  <path fill="#e8e7e7" d="M237.5 114.2c-.4 0-1.1 0-1.7.1.6 0 1.1-.1 1.7-.1zm-1.6.1s-.1 0 0 0zm-121.6 13.4h.5-.5z"/>
  <path fill="#e8e7e7" d="M205.4 116.8l-.1.1c-1.5.1-.4-.1-1.8.1-.5.2-2.3.2-2.8.3h-.6c-.2.1-.7.1-1.1.1h.2l-1 .1c-.4 0-.5 0-.1-.1-2.5.2-14.8 1.2-17.5 1.5.4 0 1.2-.1 1.5 0-.7.1-1.1.1-1.4.2-.3-.1-1.6.1-2.2 0l-.2.1h-.4c-3.2.4-.7.1-3.6.3l-3.3.4c.1 0 .5 0 .1.1-.1-.1-1.1.1-1.3.1-.4 0-1.8.2-1.3.2-.2 0-1.4.1-.7 0-.4 0-.8.1-1.1.1h.5c-1.4.1-2.1.1-3 .3h.5c-.8.1-1.5.1-1.8.1l.8-.1c-1.4.1-2.2.2-3.3.4h.4c-1.4.2-9 1-10.3 1.2h.6l-1.1.2c.1 0 .5-.3.6-.2-2.4.2-15.1 1.4-17.4 1.6-.9 0-.2-.1-.2-.1-1.1.1-.5.1-1.4.2-.3 0 0-.1.2-.1-.4 0-.8.1-.8.1.5 0 .3.1.5.1l-1.2.1v-.1c-.3 0-.7.2-1.9.3-2 .2-4.2.4-6.2.5 0 0 .5-.1.9-.1-.3 0-.7.1-.9.1.5 0-.8.1-.5.1-1.5.3-3.4.3-4.7.5-.1.1-2.6 2.2-2.6 2.3-.4 0-.8.1-.9.1.1 0 .9 0 1.3-.1l.1-.1c1-.1.2 0 1.2-.1.1.1-.8.1-1.6.2.7-.1 1.4-.1 1.7-.2.7 0-.1.1.7 0 .6-.1 1.3-.2 1.9-.2 1.6-.1 2.4-.3 3.8-.4h-.2c.5 0 1.5-.1 2.4-.2-.3 0-.5 0 .1-.1 1.1-.1 1.8-.2 2.5-.2l.7-.1c3.6-.3 18-1.7 21.7-2h-.1c5.6-.5 17-1.6 22.8-2.2.9 0 2.1-.1 3.1-.2-.5 0-.3 0 .1-.1 2.8-.2.2-.1 3.1-.3 3.3-.4 15.9-1.4 18.9-1.6 1.6-.2 3.5-.3 5.1-.5h-.2c1.7-.2 11-.9 13-1.2h-.3c1.7-.2 1.5-.1 2.8-.2-.2-.1 1.3-.3 1.8-.3.8-.1 2.7-.3 4.1-.5v.1c1.1-.2 3.3-.3 4.1-.4 1.9-.1 4.8-.3 7.3-.6h1.8s2.4-2-.9-2.1v-.1l-.7.1c-.8 0-1.1.1-1.1.1l1.1-.1c-.8.1-.2 0 .1-.1-.3 0-.6 0-.9.1h.2c-.4.1-1 .2-1.5.2-.8.1-.1-.1-1 0l-14.8 1.2h.2c-1.5.1-2.9.3-4.2.4h-.6c.1 0-1.8.2-3.7.4-1.9.1-3.9.3-4 .3z"/>
  <path fill="#584afa" d="M186.9 36.3L65.5 114.9l28 156.2h190.4l24.4-158-121.4-76.8z"/>
  <path fill="#3939b7" d="M300.5 171.3h1c-.3.1-.6 0-1 0zm-2.2 0c.7 0 1.4 0 2.2.1-.7-.1-1.4-.1-2.2-.1zm0 0c-.1 0-.1 0 0 0zm-234.8 8.9h-1c.3-.1.7 0 1 0zm-1.9-.1h.6-.6zm1.8.1h-.2.2zm239.1-8.8c.1 0 .1 0 0 0zm-28.4-.6c-1.2 0-2.4-.1-3.6 0l-7.2.3h.3l-8.2.3c-.7 0-.9 0-1.2-.1.2 0-3.5.2-7.2.3-3.8.1-7.6.3-7.7.3l-.2.1c-2.9.1-.8-.1-3.5 0-1 .2-4.4.1-5.3.3h-1.2c-.4.1-1.3.1-2.2.1h.4l-1.9.1c-.7 0-.9 0-.1-.1-4.9.1-28.6.9-33.9 1.2.7 0 2.3-.1 2.9 0-1.4.1-2.1.1-2.7.1-.5-.1-3.1.1-4.2 0l-.4.1h-.7c-6.2.3-1.4.1-6.9.3-3.1.1-4.6.3-6.3.3.3 0 .8 0 .1.1-.1-.1-2.2.1-2.6.1-.8 0-3.4.1-2.5.2-.4 0-2.8 0-1.4-.1-.8 0-1.5 0-2.1.1h1c-2.6.1-4.1.1-5.8.2h1c-1.6.1-2.9.1-3.5 0l1.6-.1c-2.6.1-4.2.2-6.4.3h.8c-2.8.2-17.4.8-19.9 1.1h1.2l-2.2.2c.3 0 1.1-.3 1.3-.3-4.7.2-29.3 1.1-33.7 1.2-1.8 0-.3-.1-.3-.1-2.1.1-.9.1-2.7.2-.5 0 .1-.1.4-.1-.8 0-1.5 0-1.6.1 1 0 .6.1 1 .2h-2.4l.1-.1c-.5 0-1.3.2-3.6.3-3.1.2-6.4.4-9 .6l.3 2c.1 0 .8.1 1.5.1-.5 0-.9-.1.1-.1 2 .1 3.4 0 4.9.1h1.4c.9 0 2.1.1 3.5 0 .7 0 1.5-.1 2.3-.1s1.7-.1 2.7-.1c3.7-.1 8.1-.3 12.4-.5 8.7-.3 17.5-.7 21-.8h-.3c10.8-.4 33-1.2 44.1-1.7 1.7 0 4.1-.1 5.9-.1-1 0-.7-.1.1-.1 5.5-.2.4-.1 5.9-.3 6.4-.3 30.8-1.1 36.5-1.3 3-.2 6.8-.3 9.8-.4h-.3c3.2-.1 21.4-.8 25.1-.9h-.5c3.2-.2 2.8-.1 5.4-.1-.3-.1 2.4-.3 3.5-.3.8 0 2.1-.1 3.5-.2l4.3-.3-.1.1c2.2-.2 6.3-.5 7.9-.6 2.3-.1 5.4-.4 8.4-.6l.2-1.1-13.9-.3c-1 0-2.2-.1-3.4-.1zm33.7-49.4c.2 0 .2 0 0 0zm-223.7 1.3c-.5 0-1-.1 0 0 2.2 0 3.6.1 5.1.2h1.5c.9 0 2.1.1 3.6.1h17.8c8.9 0 17.9-.1 21.5-.1h-.3c11 0 33.7 0 45.1-.1 1.8.1 4.2.1 6 .1-1 0-.7-.1.1-.1 5.6 0 .4 0 6.1-.1 6.5-.1 31.5 0 37.3.1 3.1-.1 7 0 10.1-.1h-.3 25.6-.5c3.3-.1 2.9.1 5.5.1-.3-.1 2.5-.2 3.6-.2h3.6c1.5 0 3.1-.1 4.4-.2l-.1.1c2.3-.1 6.5-.3 8.1-.3 3-.1 7.2-.2 10.8-.4l.1-.9c-.2-.1.1-.1-1.7-.2-4.9-.3-9.8-.5-14.6-.8-1.2-.1-2.4-.1-3.6-.2s-2.4-.1-3.7-.1h-15.5c-.8 0-1-.1-1.2-.1h-15.3l-.2.1c-2.9 0-.9-.1-3.6-.1-1.1.2-4.5 0-5.5.1 0 0-1.3 0-1.2-.1-.4.1-1.4 0-2.2 0-.3 0 .2 0 .5.1h-1.9c-.8 0-.9-.1-.1-.1-5 0-29.2-.1-34.7-.1.7.1 2.4 0 3 .1-1.4.1-2.1 0-2.7 0-.6-.2-3.2 0-4.2-.2l-.4.1-.7-.1c-6.3.1-1.4 0-7 0-3.2 0-4.7.1-6.5.1.3 0 .8.1.1.1-.1-.1-2.2.1-2.6 0-.8 0-3.5 0-2.6.1-.5-.1-2.8-.1-1.4-.1h-2.2 1c-2.7 0-4.2-.1-5.9 0h1c-1.6 0-3 0-3.6-.1h1.7c-2.7 0-4.3 0-6.5.1h.8c-2.8.1-17.7.2-20.4.3l1.2.1-2.3.1c.3 0 1.1-.3 1.3-.2-4.8 0-30 .1-34.5 0-1.8 0-.3-.1-.3-.1-2.2 0-.9.1-2.8.1-.5 0 .1-.1.4-.1h-1.6c1 0 .6.1 1 .2h-2.4l.1-.1c-.5 0-1.4.1-3.7.2-4 .1-8.3.3-12.3.4.1 0 .9-.1 1.7-.1-.5 0-1.4.1-1.8.1 1 0-1.7.1-.9.1-2 .1-4.3.2-6.1.3l.2 1h-.2c3.1.2 4.7.2 7.6.4h-.3c.8.3 2.8.4 4.6.5zm149.7-53.2c.4.1.8.1 1.4.1-.4-.1-.9-.1-1.4-.1zm-.1 0s.1 0 0 0zm-99.2 3.1c.9-.1.2 0 1 0 0 .1-.7.1-1.3.1.6 0 1.1.1 1.4 0 .5 0-.1.1.6.1.5 0 1.1-.1 1.6-.1 1.3.1 2-.1 3.1 0h-.1 2c-.2 0-.4-.1.1-.1.9 0 1.4 0 2.1.1l.6-.1c3 0 14.8-.1 17.8-.1h-.1c4.6 0 14 0 18.7-.1.7.1 1.7.1 2.5.1-.4 0-.3-.1.1-.1 2.3 0 .2 0 2.5-.1 2.7-.1 13.1 0 15.5.1 1.3-.1 2.9 0 4.2-.1h-.1c1.4 0 9.1.1 10.6 0h-.2c1.4-.1 1.2.1 2.3.1-.1-.1 1-.2 1.5-.2.7 0 2.2-.1 3.3-.1v.1c.9-.1 2.7 0 3.4 0 1.5 0 3.9.1 6 .1l1.3.2h.2s2.1-2.2-.6-2.7v-.1h-1.4.9c-.6 0-.2-.1.1-.1h-.5c-.3 0-.8.1-1.3.1-.7 0 0-.1-.8-.1-4.1-.1-8-.1-12.1-.1h.1-3.5c-.3 0-.4-.1-.5-.1h-6.4l-.1.1c-1.2 0-.4-.1-1.5-.1-.4.2-1.9 0-2.3.1 0 0-.5 0-.5-.1-.2.1-.6 0-.9 0-.1 0 .1 0 .2.1h-.8c-.3 0-.4-.1-.1-.1-2.1 0-12.1-.1-14.4-.1.3.1 1 0 1.2.1-.6.1-.9 0-1.1 0-.2-.2-1.3 0-1.8-.2l-.2.1-.3-.1c-2.6.1-.6 0-2.9 0-1.3 0-2 .1-2.7.1.1 0 .4.1.1.1-.1-.1-.9.1-1.1 0-.3 0-1.4 0-1.1.1-.2-.1-1.2-.1-.6-.1h-.9.4c-1.1 0-1.7-.1-2.5 0h.4c-.7 0-1.2 0-1.5-.1h.7c-1.1 0-1.8 0-2.7.1h.3c-1.2.1-7.4.2-8.4.3l.5.1-.9.1c.1 0 .5-.3.5-.2-2 0-12.4.1-14.3 0-.7 0-.1-.1-.1-.1-.9 0-.4.1-1.2.1-.2 0 0-.1.2-.1h-.7c.4 0 .2.1.4.2h-1v-.1c-.2 0-.6.2-1.5.1h-5.1s.4-.1.7-.1h-.8c.4.1-.7 0-.4.1-1.2.2-2.8 0-3.9.1-.1.1-2.3 2.5-2.3 2.6h-.8c.2.1.9.1 1.2.1zm167 164.7c-.8 0-2-.1-3.2-.1.9 0 1.9.1 3.2.1zm-238 .1h-1 1zm-1.4-.1h-.5.5zm1.3.1h-1.3 1.3zm200.3-1.1c-2.9 0-5.5-.1-8.2-.1-.7 0-.9-.1-1.2-.1.2 0-3.5 0-7.2-.1-3.8-.1-7.6-.1-7.7-.1l-.2.1c-2.9 0-.8-.1-3.5-.1-1 .1-4.4-.1-5.3 0 0 0-1.3 0-1.2-.1-.4.1-1.3 0-2.2 0-.3 0 .2 0 .4.1h-1.9c-.7 0-.9-.1-.1-.1-4.9-.1-28.6-.3-33.9-.2.7.1 2.3 0 2.9.1-1.4.1-2.1 0-2.7 0-.5-.2-3.1 0-4.1-.2l-.4.1-.7-.1c-6.2.1-1.4 0-6.9 0-3.1 0-4.6.1-6.4.1.3 0 .8.1.1.1-.1-.1-2.2.1-2.6 0-.8 0-3.4 0-2.5.1-.4-.1-2.8-.1-1.4-.1h-2.1 1c-2.6 0-4.1-.1-5.8 0h1c-1.6 0-2.9 0-3.5-.1h1.6c-2.6 0-4.2 0-6.4.1h.8c-2.8.1-17.4.3-19.9.4l1.2.1-2.2.1c.3 0 1.1-.2 1.3-.2-4.7.1-29.3.3-33.7.4-1.8 0-.3-.1-.3-.1-2.1.1-.9.1-2.7.1h.4-1.6c1 0 .6.1 1 .1h-2.3.1c-.5 0-3.7.1-2.8.1l.2 1.3c3.1.1 11 .3 19 .3 8.7.1 17.5.2 21 .2h-.3c10.8.1 33 .2 44.1.1 1.7.1 4.1.1 5.9.1-1 0-.7-.1.1-.1 5.5 0 .4-.1 5.9-.1 6.4-.1 30.8-.1 36.5-.1 3-.1 6.9-.1 9.8-.2h-.3c3.2 0 21.4-.2 25.1-.3h-.5c3.2-.1 2.8 0 5.4 0-.3-.1 2.4-.1 3.5-.2 1.6 0 5.2-.1 7.9-.2h-.1c1.8-.1 4.9-.1 6.8-.1l.1-1c-6.2-.2-12.3-.3-18.6-.4-.2.3 0 .3.3.3zm38.8 1c.1 0 .1 0 0 0z"/>
  <path fill="#1a263d" d="M281.4 141.1c0-27.7-22.9-50.1-51.1-50.1-18.4 0-34.5 9.5-43.5 23.8-9-14.1-25.1-23.6-43.4-23.6-28.2 0-51.1 22.4-51.1 50.1 0 87.9 94.6 100.5 94.6 100.5s94.6-12.6 94.6-100.5c-.1 0-.1-.1-.1-.2z"/>
  <circle cx="95.5" cy="265" r="1.6" fill="#c4c6c6"/>
  <circle cx="93.4" cy="254" r="1.6" fill="#c4c6c6"/>
  <circle cx="255" cy="176.9" r="1.6" fill="#c4c6c6"/>
  <circle cx="256.6" cy="165.8" r="1.6" fill="#c4c6c6"/>
  <circle cx="247.4" cy="265" r="1.6" fill="#c4c6c6"/>
  <circle cx="249" cy="253.9" r="1.6" fill="#c4c6c6"/>
  <path fill="#bfbeb5" d="M215.9 134.4c0 .4.1.7.1 1 0-.3 0-.7-.1-1z"/>
  <path fill="#ebe7d6" d="M215.9 132.7c0 .4.1.7.1 1-.1-.3-.1-.7-.1-1z"/>
  <path fill="#3939b7" d="M86.5 112.6l-29.1 10.7 131-95.9 128 97.2-30.6-13.8s-35.3-23.1-54.1-37.5-45.5-34.7-45.5-34.7-24.7 25.5-50.6 41.9-49.1 32.1-49.1 32.1z"/>
  <path fill="#fff" d="M316.2 124.1c-45-24.1-129-92.5-129.9-93.2l-.3-.3-.3.3c-.9.7-87.1 72.4-128.3 91.8-8.2-9.1-8.5-9.4-14.2-14.7C67 94.1 94.4 77.8 117.7 60.2c36-27.2 65-54.8 68.4-58.1C189.3 4.9 214 27 247 51.9c30.9 23.5 70.9 49.4 83.4 57.4-4.7 3.6-10.7 10.6-13.6 14l-.6.8z"/>
  <path fill="#584afa" d="M186.1 2.8c4.3 3.9 28.6 25.3 60.6 49.5 30.4 23.2 69.7 48.7 82.9 57.1-4.7 3.7-10.3 10.4-13.1 13.7-.1.1-.2.3-.3.4-45.2-24.3-128.7-92.3-129.6-93l-.6-.5-.6.5c-.9.7-86.5 72-127.8 91.5-7.8-8.6-8.3-9.2-13.5-14C67.8 94.2 94.9 78 118 60.5c35.1-26.4 63.4-53.3 68.1-57.7m0-1.4S156 30.6 117.4 59.8c-23.6 17.8-51 34.1-75 48.1 6.2 5.8 6.2 5.8 14.9 15.4 41.6-19.4 128.7-92 128.7-92s84.8 69.2 130.3 93.4c2.5-2.9 9.7-11.6 15-15.4-21.6-13.8-56.8-37.1-84-57.8-35.6-26.9-61.2-50.1-61.2-50.1z"/>
  <path fill="#897d7d" d="M116.4 115.8s-12.8-4.7-14.8 10.1-21.6 57.9-5.7 60.7c7.3 1.3 12.2-25.5 14.3-64.2 0 0-.3-5.3 6.2-3.2 0 .1 4.2-1.1 0-3.4zm55.4 0s12.8-4.7 14.8 10.1 21.6 57.9 5.7 60.7c-7.3 1.3-12.2-25.5-14.3-64.2 0 0 .3-5.3-6.2-3.2 0 .1-4.2-1.1 0-3.4z"/>
  <path fill="#e0dada" d="M176.5 128.6c-2.1-27.1-32.3-24.1-32.3-24.1s-30.2-3-32.3 24.1c-2.1 27.1-20.7 155.5-6.4 160.9s38.7 4.3 38.7 4.3 24.4 1.1 38.7-4.3-4.3-133.7-6.4-160.9z"/>
  <path fill="#e0dada" d="M101.5 229.4s-1.4-15.3-13.7-11.6c-29.3 8.8 6.8 71.6 6.8 71.6s-19.8 2.8-18.4 8.4 39.6 2.1 42.1-1.9c1.9-3-16.8-66.5-16.8-66.5zm85.3 0s1.4-15.3 13.7-11.6c29.3 8.8-6.8 71.6-6.8 71.6s19.8 2.8 18.4 8.4c-1.4 5.6-40.5 2.5-42.1-1.9-1.8-5 16.8-66.5 16.8-66.5z"/>
  <path fill="#ef433f" d="M106.4 177.4s36.2 14.1 75.4 0l.7 6.3s-30 15.5-76.8 0l.7-6.3z"/>
  <circle cx="144.1" cy="192.9" r="4.8" fill="#fec66c"/>
  <path fill="#4b4f50" d="M140.9 193.6s.3.2.6.6c.2.2.3.4.5.6.1.2.2.5.4.8.3.5.7.9 1.1 1.1.4.2.7.2.7.2v.1s-.3.1-.8 0c-.2-.1-.5-.2-.8-.3-.3-.2-.5-.4-.8-.6l-.7-.7c-.2-.3-.2-.6-.3-.8-.1-.6 0-1 .1-1z"/>
  <path fill="#4b4f50" d="M147.5 193.6s.1.4 0 .9c0 .3-.1.5-.3.8s-.4.5-.7.7c-.2.2-.5.4-.8.6-.3.2-.6.3-.8.3-.5.1-.8 0-.8 0v-.1s.3 0 .7-.2.8-.6 1.1-1.1c.2-.2.3-.5.4-.8.1-.2.3-.4.5-.6.3-.3.6-.5.7-.5z"/>
  <path fill="#e0dada" d="M119.9 268.9l2.2 27.6c.3 3.8-1.9 7.2-5.4 8.8-1.3.6-2.4 1.6-2.4 3.1-.1 4.6 4.6 7.1 8.5 7.1 2.3 0 6.4-1.3 8.3-2.5 5.5-3.3 6.5-29.4 6.6-46.1.1-11.4-17.1-12.3-17.9-.9.1.9.1 1.9.1 2.9zm48.4 0l-2.2 27.6c-.3 3.8 1.9 7.2 5.4 8.8 1.3.6 2.4 1.6 2.4 3.1.1 4.6-4.6 7.1-8.5 7.1-2.3 0-6.4-1.3-8.3-2.5-5.5-3.3-6.5-29.4-6.6-46.1-.1-11.4 17.1-12.3 17.9-.9 0 .9 0 1.9-.1 2.9z"/>
  <ellipse cx="142.5" cy="156.7" fill="#4b4f50" rx="21.4" ry="11"/>
  <path fill="#e5a21a" d="M95.1 296.9c1.7-.2 3.3-.5 5-.7 1.5-.2 3.3-.4 4.4.6 1.4 1.2 1.2 3.5.1 4.9s-2.9 2.2-4.6 2.8c-5 1.8-10.4 2.8-15.7 3l10.8-10.6z"/>
  <path fill="#fff" d="M73.6 220.9c-3.7-2.7-8.2-4.2-12.8-4.5-3.1-.2-10.9-.2-12.9 2.8-1.9 2.8 2 9.5 3.6 11.8 2.6 3.9 6.4 7.2 10.8 9 1 .4 2 .7 3 .8l8.3-19.9zm32.8 5.9c1.3-8.4-1.7-17.2-7.5-23.2-3.4-3.5-5.3-3.4-8.7.1-2.9 3-5 6.9-5.8 11-1.1 5.7.1 11.7 3.3 16.5l18.7-4.4zm-39 14.7c-1.8 2.5-3.7 5-5.6 7.5-6.5 8.8-13.2 17.9-15.5 28.7-2.3 10.7.9 23.5 10.3 28.9 4.2 2.4 9.2 3.2 14 3.4 5.7.3 11.6.1 16.9-2.3s9.6-7.1 10.3-12.9c.7-6.3-3.1-12.1-6.1-17.7-5-9.7-7.6-20.7-7.5-31.6l-16.8-4z"/>
  <path fill="#0092ff" d="M67.8 259.9c4.1 2.6 9.1 3.6 13.9 3.4 2.9-.1 6.2-.9 7.6-3.5 1.5-2.8.1-6.3-1.8-8.7-4.9-6-13.7-8.8-21.1-6.7-9.5 2.6-4.6 11.6 1.4 15.5z"/>
  <path fill="#fff" d="M104.3 249.6c-2 2.6-4.7 4.5-7.4 6-8.5 4.8-19 6.3-27.4 1.9s-13.6-15.6-10.4-25.4c1.7-5.3 4.6-9.3 8.2-12.3 5.4-4.5 12.4-6.4 19.1-6.1 17.7.6 34 15.5 17.9 35.9zM55 303.2c-2.3 1.6-10.4-3.2-12.4-4.3-3.5-1.9-7-4.1-9.3-7.3-2.4-3.3-3.4-7.4-3.5-11.6 0-1.5 0-2.9.2-4.4 0-.3.1-.7.1-1 .3-2.3.8-4.5 1.4-6.8l1.5-5.6c.4-1.6.8-3.2 1.2-4.9.1-.2.1-.4.1-.7.2-1.1.1-2.3-.7-3-.4-.4-.9-.5-1.4-.5h-.4c-.3 0-.6.1-.9.2-1.3.4-2.4 1-3.5 1.8-.8.6-1.7 1.1-2.5 1.6-2 1.1-4.8 1.6-6.5 0-2.1-2-1.2-5.5.2-8 1.6-2.9 3.7-5.7 6.2-7.7 1.7-1.4 3.6-2.5 5.6-3.1 2.6-.7 5.4-.5 8.4.9 1.3.6 2.3 1.4 3.2 2.3 1.4 1.5 2.3 3.4 2.8 5.4 1.1 4 .9 8.6.6 12.3 0 .4-.1.7-.1 1.1-.2 2-.5 4-.8 6-.5 3.1-.9 6.1-1.2 9.3-.1 1.2-.1 2.3-.1 3.5 0 1.1.1 2.3.2 3.4.6 6.2 3.1 11.9 8.4 15.7.9.9 5.9 3.6 3.2 5.4z"/>
  <path fill="#562b48" d="M96.2 233.7c-.3-1 .5-2.4 1.5-2.8.9-.4 2.1.1 2.6.9.7 1.1 2.4.2 1.8-1-.9-1.8-3.3-2.7-5.2-1.7-1.8 1-2.1 3.1-1.2 4.8 0 .3.5.1.5-.2zm-12.8 3.5c-1.1-2.9-4.5-5.2-7.6-4.7-2.8.5-5 3-4.5 6 .3 1.7 3 1.1 2.7-.7-.3-1.6 1.5-2.8 2.9-2.8 2.3 0 3.7 1.8 5.5 3 .4.3 1.2-.2 1-.8zm.9 5.5c-1.3-.1-2.6.1-3.9.2-1.5.1-2.9.3-4.3.5-2.8.3-14.8 2.2-17.5 2.7-2.1.3-1.7 1.8.3 1.3 2.5-.5 15.4-2.6 18.1-2.9 1.3-.2 2.7-.4 4-.5 1.2-.1 2.6-.2 3.7-.5.8-.2.5-.7-.4-.8zm.5 1.9c-1.1 0-2.2.3-3.2.4l-3.6.6c-2.3.4-12.2 2.7-14.5 3.2-1.7.4-1.3 1.5.3 1 2.1-.6 12.7-3 14.9-3.5 1.1-.2 2.2-.5 3.3-.7 1-.2 2.1-.3 3.1-.6.8-.1.5-.4-.3-.4z"/>
  <path fill="#cbe4ef" d="M88.9 307c6.4-4.1 11.6-11.8 9.1-19.7-1.1-3.4-3.4-6.4-6.6-7.9-3.9-1.8-8.3-1-11.9 1-4.5 2.5-7.6 6.8-10.4 10.9-.6.9.8 1.7 1.4.9 2.3-3.4 4.8-6.9 8.2-9.3 3.1-2.2 7.1-3.5 10.7-2.4 3.2.9 5.6 3.5 6.8 6.6 1.3 3.2 1.2 6.7.1 10-1.4 3.8-4.2 7.2-7.4 9.9-.1-.1-.1 0 0 0z"/>
  <path fill="#cbe4ef" d="M75.6 267c2.2 5 5.7 9.5 9.6 13.2.7.6 1.7-.4 1-1-4.1-3.6-7.5-7.8-10.6-12.2 0-.1-.1 0 0 0z"/>
  <path fill="#ff6c6c" d="M94 239.3c-1.8-1.2-7.2 1.3-6.2 2.3 2.6 2.5 4.2 1.8 5 1.4 1.4-.8 1.2-3.7 1.2-3.7zm-32.1-15.2c-2 4.1-3.7 6.9-3.7 7.3 0 .4-9.1-6-6.2-8.9 2.8-2.9 9.9 1.6 9.9 1.6zm30.2-7.8c4.4 1.1 7.7 1.6 8 1.8s1.3-10.8-2.8-10.5c-4.1.3-5.2 8.7-5.2 8.7z"/>
  <path fill="#562b48" d="M96.7 241.5c-.6.2-.7.6-.1.5.8 0 1.6-.2 2.5-.3s1.8-.3 2.6-.4c1.8-.2 10.4-1.3 12.1-1.4 1.4-.1 1.4-1.1-.1-.9-1.8.2-9.8 1.2-11.7 1.4-.9.1-1.9.3-2.8.5-.8.2-1.7.3-2.5.6zm-.1-1.3c-.5.3-.6.7 0 .6.7-.2 1.6-.6 2.3-.9.8-.3 1.7-.6 2.5-1 1.7-.6 9.8-3.6 11.5-4 1.3-.4 1.1-1.3-.3-.9-1.7.6-9.3 3.3-11 4-.9.4-1.8.7-2.7 1.1-.7.3-1.5.7-2.3 1.1z"/>
  <path fill="#cbe4ef" d="M105 248.7s-12.4 9.1-22.3 9.3c-14.7.3-22-9.7-22-9.7s2.8 7.7 12.9 10.9c10.4 3.3 20.3-2 21.7-2.7 7.5-4 9.7-7.8 9.7-7.8z"/>
  <path fill="#ff6262" d="M254.3 222.7c1.2-5.2 6.5-8.6 11.7-7.5s14.4 13.3 14.4 13.3-13.4 7.1-18.7 5.8c-5.3-1-8.6-6.3-7.4-11.6zm-49.4.9c-1.2-5.2-6.5-8.6-11.7-7.5s-14.4 13.3-14.4 13.3 13.4 7.1 18.7 5.8c5.2-1.2 8.7-6.3 7.4-11.6z"/>
  <path fill="#f56462" d="M261.7 310s.1 8.4-.6 9.3c-.8.9-5.7 1.2-6.2-.6-.5-1.8-.8-8.6-.8-8.6l7.6-.1z"/>
  <path fill="#231f20" d="M261.7 313.7V310H254s.1 2.5.3 4.9c1.4-.1 3.6-.3 5.3-.7.7-.1 1.4-.3 2.1-.5z" opacity=".1"/>
  <path fill="#f56462" d="M232.4 311.5s-.1 9.9-1 10.8-5.7.8-6.1 0c-.4-.8-2.9-17.7-2.9-17.7l10 6.9z"/>
  <path fill="#231f20" d="M232.2 317.3c.2-2.8.2-5.8.2-5.8l-10-6.9s.3 2.2.8 5.1c1 .9 2.5 2.3 3.7 3.1 1.7 1.1 4.2 3 5.3 4.5z" opacity=".1"/>
  <path fill="#f78381" d="M277.1 266.3s9.6 6.2 9.7 21c.1 11.6-8 16.5-9.6 19.1s-3 10.9-3 12.3c.1 1.6-6.2 2.2-6.5.3-.3-1.9-1.1-9-1.1-9s-6.1 1.5-11.4 2.6c-5.3 1.1-11.1 1.3-11.1 1.3s.5 6.6 0 7.9-6.6 2.1-6.9-.2c-.3-2.4-1.5-7.9-1.5-7.9s-16.6-2.1-21.3-22.7c-4.8-20.6 62.7-24.7 62.7-24.7z"/>
  <path fill="#f9a2a1" d="M227 210.4s-17 1.3-25.2 12.5-7.5 18.3-14.4 27.1-5.4 30.3 9.7 38.3c15.1 8 51.7 6.5 67.6-1.1 15.9-7.5 16.1-23.7 13.1-32.9-3-9.3-10.5-10.1-13.1-18.1s-12.5-27.6-37.7-25.8z"/>
  <path fill="#f78381" d="M231.4 247.1s-12.7.4-16.8 8.5 3.3 12.3 10.2 12.8 21.5-.6 24.1-6.9c2.7-6.3-5.6-15.6-17.5-14.4z"/>
  <ellipse cx="224.3" cy="258.2" fill="#ff6262" rx="3.1" ry="5"/>
  <ellipse cx="237.6" cy="258.2" fill="#ff6262" rx="3.1" ry="5"/>
  <path fill="#231f20" d="M278.1 277.3c1.2-2.3 1.9-5.2 2.2-8.1-.4-.5-.9-.9-1.2-1.3.2-1.7.3-3.3.2-4.9-1.8 5.4-6.2 15.2-15.9 20.7-12.1 6.9-40.4 8.4-56.3 7.9 2.4.5 5 .9 7.7 1.2.5 2 1.2 3.8 2 5.4 6.4.7 20.1 1.4 34.7-2.8 20-5.5 23.1-11.7 26.6-18.1zM267 307c.7-2.4 1.9-3.6 1.9-3.6s-1.7.9-3 2.7c-1.3 1.8-5.9 3.7-10.2 4.6s-12.1.7-12.1.7.3 1.7.3 2.5c0 0 5.8-.2 11.1-1.3s11.4-2.6 11.4-2.6-.1-.6.6-3zm19.8-19.7v-.9c-.5 2.9-1.5 6.7-3.4 9.4-3.6 5.2-8 8.4-9.1 13.5-1.2 5.1-1.3 7.3-2.3 9.1-.8 1.5-2.6 1.6-3.4 1.6 1.8.7 5.6 0 5.6-1.2 0-1.4 1.4-9.8 3-12.3 1.6-2.7 9.7-7.6 9.6-19.2zm-49.4 35c1.3 1.5 6.2.7 6.7-.4.5-1.3 0-7.9 0-7.9s0 5-1.5 6.3c-1.4 1.3-5.1 1.9-5.2 2z" opacity=".1"/>
  <path fill="#f78381" d="M284.4 278.1c.8-1.6 2.6-2.9 4.3-3.3 1.6-.4 3 .2 3.6 1.8.7 2-1.1 3-2.2 1.2-1.5-2.4-.7-7.3 2.7-7.2 1.2 0 2.5.6 3.6 1.3.9.6 1.7-.8.8-1.4-2.4-1.6-6-2.4-8 .1s-2 9.7 2.3 10c3.7.3 2.8-5.2.9-6.7-3-2.4-7.8.3-9.3 3.3-.5 1 .9 1.9 1.3.9z"/>
  <path fill="#751a1a" d="M241.6 239.3c.5-1.7 3-2.9 4.8-2.5s3 2.1 3 3.6c0 2.2 3.3 2.5 3.6.3.3-3.5-2.5-6.8-6.2-7.1s-5.9 2.4-6.2 5.5c-.1.6.8.7 1 .2zm-23.5.8c-.3-1.7-2.4-3-4.3-3-1.7.2-3 1.6-3.2 3.2-.2 2.1-3.5 1.9-3.3-.2.2-3.3 3.2-6.2 6.7-6s5.2 2.9 5.2 6c0 .5-.9.5-1.1 0z"/>
  <path fill="#f6f0e8" d="M311.6 300.5s2.3 11.2 12.7 8.1c5.9-1.7 7.9-4.7 9.4-9.7 0 0-2.8-3-7.4-1.8-4.4 1.2-14.7 3.4-14.7 3.4zm-17.1-19s-1.8 34.4-3.7 35.2c-1.9.8-7.7.3-6.4-1.4 1.3-1.7 3.8-4 3.8-4L292 281"/>
  <path fill="#e3e1df" d="M325 301.6c.4-4.4-.6-12.3-12.3-12.3-11.7 0-10.9 16.4-5.2 24.4 0 0-12.1-2.7-12.1 2.3h26.4c-.1 0 2.9-10.7 3.2-14.4z"/>
  <path fill="#f6f0e8" d="M294.8 271.1s45.7 2.3 30.9 34.9c-5 11-26 8.8-32.5 3.9-7.8-5.9-12.2-23.1 1.6-38.8z"/>
  <path fill="#e3e1df" d="M293.2 309.9c1.3 1 3.2 1.9 5.4 2.5.3-1 .5-2.1.6-3.1.4-4.6 1-9.3.6-14-.3-4.5-1.1-9-3.7-12.7-1.5-2.2-3.4-4.2-5.8-5.3-8 13.8-3.8 27.5 2.9 32.6z"/>
  <path fill="#f6f0e8" d="M304.6 250.4s6.9 8.5 5.2 15.5c-1.6 7-8 21.8-28.4 18.7-20.5-3.1-20.4-13.7-17.4-24.2 2.9-10.5 27-25.8 40.6-10z"/>
  <path fill="#f6f0e8" d="M296.6 250.5c.2-.4-3.6-39.4 13.8-40.8 17.4-1.3 6.4 21.1 2 26.3s-13.5 14.3-13.5 14.3l-2.3.2z"/>
  <path fill="#fa6b97" d="M300.1 243.6c-.1-4.2.1-9.9 1-15.3 1.6-9.5 4.8-14.5 9.5-14.8h1.2c3.2 0 3.7 1.1 3.9 1.5.8 1.8.4 5.3-1.2 9.4-1.5 3.9-3.7 7.6-5 9.2-2.4 2.8-6.4 6.9-9.4 10z" opacity=".7"/>
  <path fill="#f6f0e8" d="M328.2 302.1c.4-4.4-.6-12.6-12.3-12.6-11.7 0-10.9 16.7-5.2 24.8 0 0-12.1-3.3-12.1 2.7H325c-.1 0 2.8-11.1 3.2-14.9zm-27-16.5s-4.1 30.3-6 31.1c-1.9.8-7.7.3-6.4-1.4 1.3-1.7 3.8-4 3.8-4l3.8-30.4"/>
  <circle cx="277.8" cy="276.7" r="3.7" fill="#26181d"/>
  <path fill="#f6f0e8" d="M290.1 251.6c-.1-.4 11.6-36-4.4-40.9-15.9-4.9-10.4 18.4-7.4 24.1 3 5.7 9.6 16.1 9.6 16.1l2.2.7z"/>
  <path fill="#fa6b97" d="M288.2 244.4c.9-3.9 2-9.2 2.2-14.5.5-9.2-1.5-14.5-5.8-15.8l-1.1-.3c-3-.7-3.7.3-3.9.6-1.1 1.5-1.4 4.8-.8 9 .6 3.9 1.8 7.9 2.7 9.6 1.8 3.3 4.6 8 6.7 11.4z" opacity=".7"/>
  <path fill="#291233" d="M287.5 264.7c.2-.9 1.5-1.4 2.4-1.3.9.2 1.5 1 1.5 1.8 0 1.1 1.7 1.3 1.8.2.2-1.7-1.3-3.4-3.1-3.6-1.8-.2-2.9 1.2-3.1 2.8 0 .3.4.3.5.1zm-10.8.1c-.2-.9-1.2-1.5-2.1-1.5-.9.1-1.5.8-1.6 1.6-.1 1-1.7 1-1.7-.1a3.2 3.2 0 013.3-3c1.7.1 2.6 1.4 2.6 3 0 .3-.5.3-.5 0z"/>
  <path fill="#4545ff" d="M226.5 138.6s-11.4-11-16.2-10.1c0 0-6.3 15 8.4 20.9l7.8-10.8zm30.9 3s13.3-8.7 17.8-6.8c0 0 3.4 15.9-12.2 18.9l-5.6-12.1zm-26.7 29.8s-20 13-18.4 25.6c0 0 10.3.8 18-5.4 7.8-6.2.4-20.2.4-20.2zm17.4 1.7s17.2 16.5 13.2 28.6c0 0-10.2-1.1-16.7-8.7-6.4-7.5 3.5-19.9 3.5-19.9z"/>
  <path fill="#9694f7" d="M239.5 171.4s23.6 9.2 13.4 32.7c-4.2 9.7-29.1 10.2-32.9-5-2-8.2 2-22.7 19.5-27.7z"/>
  <path fill="#9694f7" d="M268.8 159c-1.7 17.7-13.9 24.1-31.5 22.4-17.7-1.7-27.7-10.2-26-27.9s13-22.3 30.6-20.6c17.7 1.7 28.6 8.5 26.9 26.1z"/>
  <ellipse cx="226.6" cy="157.5" fill="#fff" rx="12" ry="9" transform="matrix(.0949 -.9955 .9955 .0949 48.33 368.18)"/>
  <ellipse cx="253" cy="160.1" fill="#fff" rx="12" ry="9" transform="matrix(.0949 -.9955 .9955 .0949 69.6 396.7)"/>
  <path fill="#fa0" d="M240 161.5s3.4 2.7 2.9 7.8-4.4 7.7-4.4 7.7l1.5-15.5z"/>
  <path fill="#fa0" d="M240 161.5s-3.9 2-4.4 7.1 2.9 8.4 2.9 8.4l1.5-15.5z"/>
  <ellipse cx="229.8" cy="209.2" fill="#4545ff" rx="2.9" ry="3.5" transform="matrix(.0949 -.9955 .9955 .0949 -.2 418.12)"/>
  <ellipse cx="241.5" cy="210.4" fill="#4545ff" rx="2.9" ry="3.5" transform="matrix(.0949 -.9955 .9955 .0949 9.1 430.83)"/>
  <path fill="#1a263d" d="M246.1 158.7c.6-1.7 3.3-2.6 5-2.1s2.8 2.3 2.7 3.9c-.2 2.2 3.1 2.8 3.6.7.6-3.4-1.9-7-5.5-7.7s-6.1 1.8-6.7 4.9c-.2.5.7.8.9.3zm-13.5-.5c-.2-1.8-2.1-3.2-4-3.4-1.7 0-3.1 1.3-3.5 2.9-.4 2-3.7 1.6-3.3-.5.5-3.3 3.7-5.9 7.2-5.4s4.9 3.3 4.6 6.5c.1.5-.8.4-1-.1z"/>
  <path fill="#009e71" d="M164.7 302.5s5.1-9.3 10.2-9.5-.1 11.1-1.8 13.7c-1.7 2.7-4.8 8.2-4.8 8.2s20.6.1 20.9.2c.3.1-4.9.5-6.2 3.3s1.6 4 1.6 4-4.6-1.5-6.3.3-.6 4.6-.6 4.6l-15-9.3 2-15.5zm-17.2 0s-5.1-9.3-10.2-9.5.1 11.1 1.8 13.7 4.8 8.2 4.8 8.2-20.6.1-20.9.2 4.9.5 6.2 3.3c1.2 2.7-1.6 4-1.6 4s4.6-1.5 6.3.3.6 4.6.6 4.6l15-9.3-2-15.5z"/>
  <ellipse cx="156" cy="299.1" fill="#3eba5e" rx="11.9" ry="21.7"/>
  <defs>
    <ellipse id="a" cx="156" cy="299.1" rx="11.9" ry="21.7"/>
  </defs>
  <clipPath id="b">
    <use overflow="visible" xlink:href="#a"/>
  </clipPath>
  <ellipse cx="156" cy="315.7" fill="#49ce71" clip-path="url(#b)" rx="9.6" ry="16.8"/>
  <ellipse cx="156.1" cy="277.3" fill="#49ce71" rx="28.3" ry="18.3"/>
  <ellipse cx="153.7" cy="271.4" fill="#00975d" rx=".9" ry="2.8"/>
  <ellipse cx="158.2" cy="271.4" fill="#00975d" rx=".9" ry="2.8"/>
  <path fill="#009e71" d="M147.6 299.6c.2 4.2 2.1 13.8 1.9 16.7-.1 2.9-5.7 8.4-5.7 8.4s2.3-1.4 3.9-.4c1.6 1 1.5 3.2 1.5 3.2s1.6-2.4 3.3-2.2c1.6.2 3 2.6 3 2.6s-3.2-10.2-3.8-15.2-.7-9.6-1.2-12.8c-.6-3.4-3.2-5-2.9-.3zm17 0c-.2 4.2-2.1 13.8-1.9 16.7.1 2.9 5.7 8.4 5.7 8.4s-2.3-1.4-3.9-.4-1.5 3.2-1.5 3.2-1.6-2.4-3.3-2.2c-1.6.2-3 2.6-3 2.6s3.2-10.2 3.8-15.2.7-9.6 1.2-12.8c.6-3.4 3.2-5 2.9-.3z"/>
  <ellipse cx="138.7" cy="263" fill="#009e71" rx="8.6" ry="9.1"/>
  <ellipse cx="173.5" cy="263" fill="#009e71" rx="8.6" ry="9.1"/>
  <path fill="#044741" d="M167.4 262.5c.5-1.7 3-2.9 4.8-2.5s3 2.1 3 3.6c0 2.2 3.3 2.5 3.6.3.3-3.5-2.5-6.8-6.2-7.1s-5.9 2.4-6.2 5.5c-.1.5.9.7 1 .2zm-23.4.8c-.3-1.7-2.4-3-4.3-3-1.7.2-3 1.6-3.2 3.2-.2 2.1-3.5 1.9-3.3-.2.2-3.3 3.2-6.2 6.7-6s5.2 2.9 5.2 6c0 .5-1 .5-1.1 0z"/>
  <path fill="#00975d" d="M140.8 281.3s.1.2.2.7c.1.2.2.5.3.7.1.3.2.6.4.9.1.3.4.6.5 1 .2.3.4.7.7 1 .1.2.3.3.4.5.1.2.3.3.4.5.3.3.6.6 1 .9l.5.4c.2.1.4.3.5.4.4.2.7.5 1.1.7.4.2.7.4 1.1.6.4.2.7.3 1 .5.3.1.6.2.9.4.3.1.5.2.7.3.4.1.7.2.7.2s-.2.1-.7.2c-.2 0-.5.1-.8.1s-.7.1-1.1 0c-.4 0-.8-.1-1.3-.2s-.9-.2-1.4-.4c-.5-.2-1-.4-1.4-.7l-.7-.4-.6-.5c-.4-.4-.8-.7-1.1-1.2-.3-.4-.6-.9-.9-1.3-.2-.4-.4-.9-.6-1.3l-.3-1.3c0-.2-.1-.4-.1-.6v-.5c0-.3 0-.6.1-.8.4-.5.5-.8.5-.8z"/>
  <path fill="#fff" d="M196.7 69.9c0-3.1-2.4-5.5-5.3-5.5-1.9 0-3.6 1.1-4.5 2.6-.9-1.6-2.6-2.6-4.5-2.6-2.9 0-5.3 2.5-5.3 5.5 0 9.7 9.9 11.1 9.9 11.1s9.7-1.3 9.7-11.1c0 .1 0 0 0 0z"/>
  <path fill="#1a263d" d="M150.4 130c.6-2.1 3.8-3.4 5.9-3 2.1.4 3.6 2.6 3.6 4.6-.1 2.7 4 3.2 4.5.5.5-4.3-2.9-8.5-7.4-9s-7.3 2.7-7.8 6.6c-.2.7 1 .9 1.2.3zm-16.6.6c-.3-2.2-2.8-3.8-5.2-3.8-2.1.1-3.8 1.9-4 3.8-.3 2.5-4.3 2.2-4.1-.3.3-4.1 4.1-7.5 8.4-7.2s6.3 3.7 6.2 7.6c.1.5-1.1.5-1.3-.1z"/>
</svg>
