<svg width="135" height="40" fill="none" xmlns="http://www.w3.org/2000/svg"><path d="M124.249 0H10.757c-.414 0-.823 0-1.235.002-.346.002-.688.008-1.037.013-.758.008-1.513.067-2.26.177A8.208 8.208 0 0 0 4.08.819a7.294 7.294 0 0 0-1.826 1.178 6.352 6.352 0 0 0-1.33 1.621A6.093 6.093 0 0 0 .22 5.522a11.56 11.56 0 0 0-.202 2.002c-.01.306-.011.614-.017.92V31.56c.006.31.007.61.017.921.01.671.077 1.34.202 2.002a6.08 6.08 0 0 0 .705 1.905c.342.598.791 1.143 1.33 1.614.533.477 1.15.875 1.826 1.179a8.248 8.248 0 0 0 2.144.63c.748.11 1.503.168 2.26.177.35.007.692.011 1.038.011.412.002.821.002 1.235.002h113.492c.406 0 .818 0 1.223-.002.344 0 .697-.004 1.04-.01a16.872 16.872 0 0 0 2.257-.178 8.367 8.367 0 0 0 2.152-.63A7.1 7.1 0 0 0 132.746 38a6.5 6.5 0 0 0 1.333-1.614c.341-.6.576-1.242.698-1.905.126-.661.196-1.33.21-2.002.004-.31.004-.61.004-.921.009-.364.009-.725.009-1.094V9.536c0-.366 0-.73-.009-1.092 0-.306 0-.614-.004-.92a12.043 12.043 0 0 0-.21-2.002 6.096 6.096 0 0 0-.698-1.904c-.696-1.203-1.801-2.182-3.158-2.8a8.324 8.324 0 0 0-2.152-.627c-.746-.11-1.5-.169-2.257-.176-.343-.005-.696-.011-1.04-.013C125.067 0 124.655 0 124.249 0Z" fill="#A6A6A6"/><path d="M9.54 38.998c-.343 0-.679-.004-1.02-.01a16.211 16.211 0 0 1-2.108-.163 7.283 7.283 0 0 1-1.869-.544 6.131 6.131 0 0 1-1.575-1.01 5.379 5.379 0 0 1-1.151-1.387 5.225 5.225 0 0 1-.613-1.646 10.903 10.903 0 0 1-.187-1.863c-.008-.21-.017-.907-.017-.907V8.519s.01-.686.017-.888c.008-.623.07-1.245.186-1.86a5.255 5.255 0 0 1 .613-1.651c.294-.514.681-.983 1.145-1.389.464-.41.998-.752 1.582-1.016a7.205 7.205 0 0 1 1.865-.54c.7-.1 1.406-.155 2.115-.163L9.541 1h115.913l1.03.013c.702.007 1.403.061 2.096.161.655.098 1.29.282 1.884.544 1.171.532 2.123 1.372 2.724 2.404.294.516.498 1.069.604 1.638.117.62.182 1.247.196 1.875.003.282.003.584.003.884.009.373.009.728.009 1.085v20.79c0 .362 0 .714-.009 1.069 0 .323 0 .619-.004.924a11.187 11.187 0 0 1-.193 1.84 5.238 5.238 0 0 1-.609 1.66c-.297.509-.684.974-1.146 1.376a6.11 6.11 0 0 1-1.578 1.016 7.258 7.258 0 0 1-1.881.546c-.698.1-1.402.155-2.109.162-.33.007-.676.011-1.012.011l-1.222.002L9.54 38.998Z" fill="#000"/><path d="M68.14 22a4.26 4.26 0 1 0 4.27 4.25A4.19 4.19 0 0 0 68.14 22Zm0 6.83a2.58 2.58 0 1 1 2.4-2.58 2.46 2.46 0 0 1-2.4 2.58ZM58.82 22a4.26 4.26 0 1 0 4.27 4.25A4.192 4.192 0 0 0 58.82 22Zm0 6.83a2.58 2.58 0 1 1 2.4-2.58 2.46 2.46 0 0 1-2.4 2.58Zm-11.08-5.52v1.8h4.32a3.77 3.77 0 0 1-1 2.27 4.42 4.42 0 0 1-3.34 1.32 4.8 4.8 0 0 1 0-9.6A4.64 4.64 0 0 1 51 20.39l1.27-1.27a6.3 6.3 0 0 0-4.53-1.82 6.61 6.61 0 1 0 0 13.21 6.07 6.07 0 0 0 4.61-1.85 6 6 0 0 0 1.56-4.23 6.264 6.264 0 0 0-.09-1.12h-6.08Zm45.31 1.4A4 4 0 0 0 89.41 22a4 4 0 0 0-4 4.25 4.23 4.23 0 0 0 7.76 2.37l-1.45-1a2.41 2.41 0 0 1-2.09 1.17 2.15 2.15 0 0 1-2.06-1.29l5.69-2.35-.21-.44Zm-5.8 1.42a2.338 2.338 0 0 1 2.23-2.49 1.64 1.64 0 0 1 1.57.91l-3.8 1.58Zm-4.62 4.12h1.87v-12.5h-1.87v12.5Zm-3.06-7.3h-.07a2.94 2.94 0 0 0-2.24-1 4.26 4.26 0 0 0 0 8.51 2.88 2.88 0 0 0 2.24-1h.07v.61c0 1.63-.87 2.5-2.27 2.5a2.36 2.36 0 0 1-2.15-1.51l-1.62.67a4 4 0 0 0 3.77 2.52c2.19 0 4-1.29 4-4.43v-7.57h-1.73v.7Zm-2.15 5.88a2.58 2.58 0 0 1 0-5.15 2.39 2.39 0 0 1 2.28 2.57 2.38 2.38 0 0 1-2.28 2.58Zm24.39-11.08h-4.48v12.5h1.87v-4.74h2.61a3.889 3.889 0 1 0 0-7.76Zm0 6H99.2v-4.26h2.65a2.14 2.14 0 0 1 0 4.28l-.04-.02Zm11.54-1.79a3.49 3.49 0 0 0-3.33 1.91l1.65.69a1.784 1.784 0 0 1 1.71-.91 1.804 1.804 0 0 1 1.792.931c.114.21.184.441.208.679v.12a4.18 4.18 0 0 0-1.95-.48c-1.78 0-3.6 1-3.6 2.82a2.898 2.898 0 0 0 .973 2.034 2.892 2.892 0 0 0 2.137.716 2.65 2.65 0 0 0 2.38-1.22h.06v1h1.8v-4.81c0-2.19-1.66-3.46-3.79-3.46l-.04-.02Zm-.23 6.85c-.61 0-1.46-.31-1.46-1.06 0-1 1.06-1.34 2-1.34a3.32 3.32 0 0 1 1.7.42 2.259 2.259 0 0 1-2.2 2l-.04-.02Zm10.62-6.56-2.14 5.42h-.06l-2.22-5.42h-2l3.33 7.58-1.9 4.21h1.95l5.12-11.79h-2.08Zm-16.8 8h1.86v-12.5h-1.86v12.5Z" fill="#fff"/><path d="M10.44 7.79a2 2 0 0 0-.47 1.4v22.12a1.94 1.94 0 0 0 .47 1.4l.07.08L22.9 20.4v-.3L10.51 7.72l-.07.07Z" fill="url(#a)"/><path d="m27 24.53-4.1-4.13v-.3l4.1-4.13.09.06L32 18.81c1.4.79 1.4 2.09 0 2.89l-4.89 2.78-.11.05Z" fill="url(#b)"/><path d="m27.12 24.47-4.22-4.22-12.46 12.46a1.62 1.62 0 0 0 2.07.07l14.61-8.31Z" fill="url(#c)"/><path d="m27.12 16.03-14.61-8.3a1.61 1.61 0 0 0-2.07.06L22.9 20.25l4.22-4.22Z" fill="url(#d)"/><path opacity=".2" d="m27 24.38-14.49 8.25a1.66 1.66 0 0 1-2 0l-.07.07.07.08a1.66 1.66 0 0 0 2 0l14.61-8.31-.12-.09Z" fill="#000"/><path opacity=".12" d="M10.44 32.57a2 2 0 0 1-.44-1.41v.15a1.94 1.94 0 0 0 .47 1.4l.07-.07-.1-.07ZM32 21.55l-5 2.83.09.09L32 21.69a1.75 1.75 0 0 0 1.06-1.44 1.86 1.86 0 0 1-1.06 1.3Z" fill="#000"/><path opacity=".25" d="M12.51 7.87 32 18.95a1.86 1.86 0 0 1 1.06 1.3A1.75 1.75 0 0 0 32 18.81L12.51 7.73c-1.39-.8-2.54-.14-2.54 1.46v.15c.03-1.6 1.15-2.26 2.54-1.47Z" fill="#fff"/><path d="M41.28 13.25v-6h1.84a3 3 0 0 1 2.21.83 3 3 0 0 1 .83 2.17 3 3 0 0 1-.83 2.17 2.999 2.999 0 0 1-2.21.83h-1.84Zm.77-.74h1.07a2.262 2.262 0 0 0 1.64-.59 2.23 2.23 0 0 0 .61-1.67 2.089 2.089 0 0 0-2.25-2.26h-1.07v4.52ZM47.24 13.25v-6H48v6h-.76ZM51.08 13.38a2.25 2.25 0 0 1-1.28-.42 2 2 0 0 1-.82-1.2l.71-.29a1.6 1.6 0 0 0 .51.84c.242.217.555.338.88.34a1.4 1.4 0 0 0 .86-.27.84.84 0 0 0 .35-.71.93.93 0 0 0-.35-.78 3.91 3.91 0 0 0-1.13-.51 2.94 2.94 0 0 1-1.21-.65 1.35 1.35 0 0 1-.41-1 1.509 1.509 0 0 1 .51-1.13 1.91 1.91 0 0 1 1.3-.48 1.88 1.88 0 0 1 1.24.38 1.7 1.7 0 0 1 .62.83l-.7.29a1 1 0 0 0-.37-.52 1.15 1.15 0 0 0-.77-.25 1.22 1.22 0 0 0-.76.25.76.76 0 0 0-.31.62.7.7 0 0 0 .29.56c.256.19.544.332.85.42.252.075.499.166.74.27.213.098.414.218.6.36.2.139.359.329.46.55.112.24.167.504.16.77a1.66 1.66 0 0 1-.18.78 1.4 1.4 0 0 1-.48.54 2.23 2.23 0 0 1-.64.31 2.369 2.369 0 0 1-.67.1ZM55 13.25h-.77v-6h2a1.88 1.88 0 0 1 1.32.51 1.73 1.73 0 0 1 0 2.55 1.88 1.88 0 0 1-1.32.51H55v2.43Zm0-3.17h1.29a1 1 0 0 0 .78-.32 1.05 1.05 0 0 0-.355-1.696 1 1 0 0 0-.425-.074H55v2.09ZM64 12.47a2.94 2.94 0 0 1-2.2.91 2.91 2.91 0 0 1-2.2-.91 3.21 3.21 0 0 1 0-4.44 3.1 3.1 0 0 1 4.39 0 3.23 3.23 0 0 1 0 4.44H64Zm-3.83-.5a2.28 2.28 0 0 0 3.25 0 2.54 2.54 0 0 0 0-3.44 2.28 2.28 0 0 0-3.25 0 2.54 2.54 0 0 0 0 3.44ZM66 13.25v-6h.94l2.92 4.67V7.25h.77v6h-.81l-3-4.89V13.25H66ZM72 13.25v-6h.77v6H72ZM74.1 13.25v-6h2.17c.45-.004.885.16 1.22.46A1.53 1.53 0 0 1 78 8.88c.007.27-.07.535-.22.76a1.41 1.41 0 0 1-.59.49c.29.096.545.277.73.52.188.243.287.543.28.85a1.569 1.569 0 0 1-.54 1.22 1.81 1.81 0 0 1-1.28.49l-2.28.04Zm.77-3.43h1.4a.89.89 0 0 0 .7-.29.89.89 0 0 0 .03-1.28.85.85 0 0 0-.67-.28h-1.46v1.85Zm0 2.69h1.55a.92.92 0 0 0 .72-.31 1 1 0 0 0 .27-.68 1 1 0 0 0-.28-.67 1 1 0 0 0-.75-.31h-1.51v1.97ZM79.24 13.25v-6H80v5.26h2.6v.74h-3.36ZM87.08 7.99h-2.73v1.9h2.47v.72h-2.47v1.9h2.73v.74h-3.5v-6h3.5v.74ZM93.81 7.99h-2.74v1.9h2.47v.72h-2.47v1.9h2.74v.74H90.3v-6h3.51v.74ZM95 13.25v-6h1l2.92 4.67V7.25h.77v6h-.81l-3-4.89V13.25H95Z" fill="#fff" stroke="#fff" stroke-width=".2" stroke-miterlimit="10"/><defs><linearGradient id="a" x1="21.8" y1="8.96" x2="5.02" y2="25.74" gradientUnits="userSpaceOnUse"><stop stop-color="#00A0FF"/><stop offset=".01" stop-color="#00A1FF"/><stop offset=".26" stop-color="#00BEFF"/><stop offset=".51" stop-color="#00D2FF"/><stop offset=".76" stop-color="#00DFFF"/><stop offset="1" stop-color="#00E3FF"/></linearGradient><linearGradient id="b" x1="33.83" y1="20.25" x2="9.64" y2="20.25" gradientUnits="userSpaceOnUse"><stop stop-color="#FFE000"/><stop offset=".41" stop-color="#FFBD00"/><stop offset=".78" stop-color="orange"/><stop offset="1" stop-color="#FF9C00"/></linearGradient><linearGradient id="c" x1="24.83" y1="22.55" x2="2.07" y2="45.3" gradientUnits="userSpaceOnUse"><stop stop-color="#FF3A44"/><stop offset="1" stop-color="#C31162"/></linearGradient><linearGradient id="d" x1="7.3" y1=".43" x2="17.46" y2="10.59" gradientUnits="userSpaceOnUse"><stop stop-color="#32A071"/><stop offset=".07" stop-color="#2DA771"/><stop offset=".48" stop-color="#15CF74"/><stop offset=".8" stop-color="#06E775"/><stop offset="1" stop-color="#00F076"/></linearGradient></defs></svg>