<svg xmlns="http://www.w3.org/2000/svg" id="Capa_1" x="0" y="0" version="1.1" viewBox="0 0 167 199.8" xml:space="preserve">
  <style>
    .st0{fill:#ffc19b}.st2{fill:#584afa}.st3{fill:#6864ff}.st4{fill:#fff}.st7{fill:#562b48}.st8{fill:#d1b7ed}.st9{fill:#ff6c6c}.st11{fill:#ffddba}.st12{fill:#eba090}.st13{fill:#b52847}.st14{fill:#cc2e49}.st15{fill:#e23359}
  </style>
  <path d="M100.1 138.4l.6-13.4 22.6 1-.6 13.4-22.6-1zm-57.7-12.9l21.2-1.4.9 13.4-21.2 1.4-.9-13.4z" class="st0"/>
  <path fill="#ffd6b2" d="M129.4 146.7L92.7 145l1.3-27.4 36.6 1.7-1.2 27.4zm-92.6-.4L34.9 119l35.2-2.3 1.8 27.4-35.1 2.2z"/>
  <path d="M20.7 99l4.3-1 9.7 39.9-4.3 1L20.7 99z" class="st2"/>
  <path d="M23.8 98.2l9.7 39.9s18.9-6.2 14.1-25.5c-3.5-14.5-16.1-16.2-23.8-14.4z" class="st3"/>
  <path d="M127.8 136.9l9.7-39.9 4.3 1-9.7 39.9-4.3-1z" class="st2"/>
  <path d="M138.6 97.3l-9.7 39.9s-18.9-6.2-14.1-25.5c3.5-14.5 16.2-16.2 23.8-14.4z" class="st3"/>
  <path d="M71.8 86.4L46.1 63.9l-6 5.3 26.6 32.7 5.1-15.5z" class="st4"/>
  <path fill="#e6e6ef" d="M42.2 69c17.4 20 18.3 20.7 25.2 28l-1.7 3.7L40 69.2l2.2-.2z"/>
  <path d="M82.6 93.9l7.9-5.9 22.6 21.6-7.9 5.9-22.6-21.6z" class="st4"/>
  <path d="M98.1 111.5l-3-9.2v.1l3 9.1zM59.6 144.8c2.5-2.7 3.4-5.9 4.4-9.7 1.1-4 2.3-8.5 5.9-12.3 3.6-3.8 7.8-5.1 11.6-6.3 3.5-1.1 6.6-2 9.1-4.7 2.5-2.6 3.4-5.8 4.4-9.5v-.1l-3.5-10.5v.1l-.5 1.9c-1.1 4-2.3 8.5-5.9 12.3-3.6 3.8-7.8 5.1-11.6 6.3-3.5 1.1-6.6 2-9.1 4.7a21.1 21.1 0 00-4.4 9.7c-1 3.6-2.1 7.6-4.9 11.1l-1.5 6.1c-.4 1.6-.2 3.2.5 4.5 2.1-.9 3.9-1.8 5.5-3.6z" class="st3"/>
  <path d="M79.7 133.2c3.6-3.8 7.8-5.1 11.6-6.3 3.5-1.1 6.6-2 9.1-4.7l.9-1.1-3.2-9.6c-.8 1.7-1.9 3.3-3.3 4.8-3.6 3.8-7.8 5.1-11.6 6.3-3.5 1.1-6.6 2-9.1 4.7a21.1 21.1 0 00-4.4 9.7c-1.1 4-2.3 8.5-5.9 12.3a15 15 0 01-2.3 2.1h10.4c.8-1.8 1.3-3.7 1.9-5.8 1.1-4.1 2.3-8.6 5.9-12.4zM58.9 151.3h2.6-2.6zM71.3 91.3c2-2.2 3-4.8 3.9-7.7-1.4.2-2.8.6-4.3 1.2-1.7.6-3 2.2-3.5 4.1l-1.5 5.9c2-.9 3.8-1.9 5.4-3.5zM81 101.6c2.5-2.7 3.4-5.9 4.4-9.7.6-2.2 1.3-4.5 2.3-6.8l-.5-.2c-1.4-.6-3.5-1.2-5.9-1.4a28 28 0 01-5.9 12.3c-3.5 3.7-7.6 5-11.3 6.2l-2.3 9.3c3.2-2.7 6.8-3.8 10.1-4.8 3.5-1.3 6.6-2.3 9.1-4.9z" class="st3"/>
  <path d="M108.7 143.4l-5.2-15.8c-3.3 3-7.1 4.2-10.5 5.2-3.5 1.1-6.6 2-9.1 4.7a21.1 21.1 0 00-4.4 9.7l-1.2 4.1 25.4.1c3.6 0 6.3-4.1 5-8zM81.3 83.4l-2.6-.1 2.6.1zM90.4 88.4l1.1 3.4v-.1l-1.1-3.3a5.5 5.5 0 010 0z" class="st3"/>
  <path d="M103.4 127.7s.1 0 0 0l-2.1-6.6 2.1 6.6z" class="st3"/>
  <path d="M65.9 94.7l-1.8 7.2 1.8-7.2zM75.1 83.6zM71.8 151.3h6.4-6.4zM54.2 148.3s-.1 0 0 0a5.2 5.2 0 010 0zM61.8 111.2l-6.7 26.6.1-.1 6.6-26.5zM83.8 137.6c2.5-2.7 5.5-3.6 9.1-4.7 3.4-1.1 7.2-2.2 10.5-5.2l-2.2-6.6-.9 1.1c-2.5 2.7-5.6 3.6-9.1 4.7-3.8 1.2-8 2.5-11.6 6.3-3.6 3.8-4.8 8.3-5.9 12.3-.6 2.1-1.1 4.1-1.9 5.8h6.4l1.2-4.1c1-3.7 1.9-6.9 4.4-9.6zM75.4 95.7a28 28 0 005.9-12.3l-2.6-.1-3.6.3c-.9 2.9-1.8 5.5-3.9 7.7a13.3 13.3 0 01-5.3 3.4l-1.8 7.2c3.7-1.2 7.9-2.5 11.3-6.2z" class="st2"/>
  <path d="M64.4 117c2.5-2.7 5.5-3.6 9.1-4.7 3.8-1.2 8-2.5 11.6-6.3s4.8-8.3 5.9-12.3l.5-1.9-1.1-3.4a5.6 5.6 0 00-2.7-3.3c-1.1 2.3-1.7 4.7-2.3 6.8-1 3.8-1.9 7-4.4 9.7-2.5 2.7-5.5 3.6-9.1 4.7-3.2 1-6.9 2.1-10.1 4.8l-6.7 26.6c2.8-3.5 3.9-7.5 4.9-11.1 1-3.7 1.9-7 4.4-9.6zM63.8 149.3c3.6-3.8 4.8-8.3 5.9-12.3 1-3.8 1.9-7 4.4-9.7 2.5-2.7 5.5-3.6 9.1-4.7 3.8-1.2 8-2.5 11.6-6.3 1.4-1.5 2.5-3.1 3.3-4.8l-3-9.2c-1 3.7-1.9 6.9-4.4 9.5-2.5 2.7-5.5 3.6-9.1 4.7-3.8 1.2-8 2.5-11.6 6.3-3.6 3.8-4.8 8.3-5.9 12.3-1 3.8-1.9 7-4.4 9.7a14 14 0 01-5.5 3.5c.9 1.8 2.7 3 4.7 3h2.6l2.3-2z" class="st2"/>
  <path d="M109.4 96.1c1.6-1.2 3.6-1.8 5.6-2 1.4-.1 4.7-.1 5.6 1.2.8 1.2-.9 4.1-1.6 5.1a10.6 10.6 0 01-4.7 3.9 3 3 0 01-1.3.3l-3.6-8.5zm-14.2 2.6c-.5-3.6.7-7.5 3.3-10.1 1.5-1.5 2.3-1.5 3.8 0a9.6 9.6 0 011.1 12l-8.2-1.9zm16.9 6.4l2.4 3.3c2.8 3.8 5.7 7.8 6.8 12.5 1 4.7-.4 10.2-4.5 12.6-1.8 1.1-4 1.4-6.1 1.5-2.5.1-5.1 0-7.3-1a7.4 7.4 0 01-4.5-5.6c-.3-2.7 1.4-5.3 2.6-7.7 2.2-4.2 3.3-9 3.3-13.8l7.3-1.8z" class="st4"/>
  <path fill="#80f" d="M112 113c-1.8 1.1-4 1.6-6.1 1.5-1.3-.1-2.7-.4-3.3-1.5-.7-1.2-.1-2.7.8-3.8 2.1-2.6 6-3.8 9.2-2.9 4.1 1.2 2 5.1-.6 6.7z"/>
  <path d="M96.1 108.6c.9 1.1 2 1.9 3.2 2.6 3.7 2.1 8.3 2.8 11.9.8a9.6 9.6 0 004.5-11c-.8-2.3-2-4.1-3.6-5.3a12.7 12.7 0 00-8.3-2.7c-7.7.2-14.7 6.7-7.7 15.6zm21.4 23.3c1 .7 4.5-1.4 5.4-1.9 1.5-.8 3-1.8 4.1-3.2a8 8 0 001.5-5l-.1-1.9-.1-.4c-.1-1-.4-2-.6-2.9l-.6-2.4a16 16 0 01-.5-2.1l-.1-.3c-.1-.5 0-1 .3-1.3.2-.2.4-.2.6-.2h.2l.4.1c.6.2 1.1.5 1.5.8l1.1.7c.9.5 2.1.7 2.8 0 .9-.9.5-2.4-.1-3.5-.7-1.3-1.6-2.5-2.7-3.4a6.3 6.3 0 00-2.4-1.3 5.5 5.5 0 00-3.7.4l-1.4 1c-.6.6-1 1.5-1.2 2.3-.5 1.7-.4 3.7-.3 5.4v.5l.3 2.6.5 4 .1 1.5-.1 1.5a9.4 9.4 0 01-3.6 6.8c-.3.2-2.5 1.4-1.3 2.2z" class="st4"/>
  <path d="M99.6 101.7c.1-.4-.2-1.1-.6-1.2-.4-.2-.9 0-1.1.4-.3.5-1.1.1-.8-.4.4-.8 1.5-1.2 2.3-.7.8.4.9 1.3.5 2.1l-.3-.2zm5.6 1.5c.5-1.3 2-2.3 3.3-2.1 1.2.2 2.2 1.3 2 2.6-.1.8-1.3.5-1.2-.3.1-.7-.7-1.2-1.3-1.2-1 0-1.6.8-2.4 1.3-.2.2-.5 0-.4-.3zm-.4 2.4l1.7.1 1.9.2 7.6 1.2c.9.1.7.8-.1.6l-7.9-1.3-1.7-.2-1.6-.2c-.5-.2-.3-.4.1-.4zm-.3.8l1.4.2 1.6.3 6.3 1.4c.8.2.6.7-.1.5a123.7 123.7 0 00-7.9-1.8c-.4-.1-.9-.1-1.3-.3-.4-.1-.3-.3 0-.3z" class="st7"/>
  <path d="M102.8 133.5c-2.8-1.8-5.1-5.1-4-8.6a5.5 5.5 0 012.9-3.4c1.7-.8 3.6-.4 5.2.4 1.9 1.1 3.3 2.9 4.5 4.7.3.4-.3.8-.6.4-1-1.5-2.1-3-3.6-4a6 6 0 00-4.7-1.1 4.8 4.8 0 00-3 2.9 5.8 5.8 0 000 4.3c.7 1.8 1.9 3.3 3.3 4.4 0 0 0 .1 0 0z" class="st8"/>
  <path d="M108.9 115.9c-.9 2.2-2.5 4.1-4.2 5.8-.3.3-.8-.2-.5-.4 1.8-1.6 3.3-3.4 4.7-5.4z" class="st8"/>
  <path d="M100.6 104.1c.8-.5 3.1.6 2.7 1-1.1 1.1-1.8.8-2.2.6-.6-.3-.5-1.6-.5-1.6zm13.9-6.6l1.6 3.2c0 .2 3.9-2.6 2.7-3.9-1.2-1.3-4.3.7-4.3.7zm-13.1-3.4l-3.5.8c-.1.1-.5-4.7 1.2-4.6 1.8.2 2.3 3.8 2.3 3.8z" class="st9"/>
  <path d="M99.4 105c.2.1.3.2.1.2l-1.1-.2-1.2-.2-5.3-.6c-.6 0-.6-.5 0-.4l5.1.6 1.2.2c.4.3.8.3 1.2.4zm0-.5c.2.1.2.3 0 .2l-1-.4-1.1-.4-5-1.8c-.6-.2-.5-.6.1-.4l4.8 1.7 1.2.5c.3.3.7.4 1 .6z" class="st7"/>
  <path fill="#dcccf2" d="M95.8 108.2s5.4 4 9.7 4c6.4.1 9.6-4.2 9.6-4.2s-1.2 3.4-5.6 4.8c-4.5 1.4-8.8-.9-9.5-1.2-3.3-1.7-4.2-3.4-4.2-3.4z"/>
  <path d="M116.6 110.2s5-1.5 7.7 3 .4 8.4-.6 9c-1 .6-3.5 2.7-4.9 1.2-.7-.8 1.9-3.4 1.5-3.4-.4 0-4.9 1.2-5.8 0-1.1-1.5 3.7-5.4 3.7-5.4s-3.2.7-3.7-.2c-.7-1.2 2.1-4.2 2.1-4.2z" class="st11"/>
  <path d="M120 110.1s4.9 1 5.6 6.9c.7 6.1-6.1 7.2-5.7 6.9 4.3-2.2 5.8-4.6 4.7-8.5-1.2-4.1-4.6-5.3-4.6-5.3zm-2.3-.5l-2.6-.5 1 1.5 1.6-1z" class="st0"/>
  <path d="M120.1 119.1s-5.8.7-5.6.9c1 .9 4.4.6 5.8 0 2.7-1.2-.2-.9-.2-.9zM118 114s-3.7.3-3.5.5c1 .9 2.7.7 3.3.4 1.4-.7.2-.9.2-.9zM78.8 78.8a32.3 32.3 0 100-64.6 32.3 32.3 0 000 64.6z" class="st0"/>
  <path d="M77.1 77.3c14.6 0 26.5-12.8 26.5-28.7 0-15.8-11.9-28.7-26.5-28.7S50.6 32.8 50.6 48.6c0 15.9 11.9 28.7 26.5 28.7z" class="st11"/>
  <path d="M66.7 64.6H90S88.2 74 78.3 74c-9.8 0-11.6-9.4-11.6-9.4z" class="st7"/>
  <path d="M86.8 70.4a15.8 15.8 0 00-17.4-.4c.6.7 1.3 1.3 2.1 1.9.7.4 1.5.9 2.5 1.3 1.2.5 2.7.7 4.4.7a11 11 0 008.2-3.2l.2-.3z" class="st9"/>
  <path d="M58.6 63.7c2.3 0 4.2-1.2 4.2-2.6 0-1.4-1.9-2.6-4.2-2.6s-4.2 1.2-4.2 2.6c0 1.5 1.9 2.6 4.2 2.6zM97.4 63.7c2.3 0 4.2-1.2 4.2-2.6 0-1.4-1.9-2.6-4.2-2.6s-4.2 1.2-4.2 2.6c0 1.5 1.9 2.6 4.2 2.6z" class="st12"/>
  <path d="M106 39.8a15 15 0 100-30 15 15 0 000 30z" class="st13"/>
  <path d="M106 9.9a15 15 0 00-11.3 24.9 15 15 0 0019.2-22.7 15.7 15.7 0 00-7.9-2.2z" class="st14"/>
  <path d="M49.7 38.9a15 15 0 100-30 15 15 0 000 30z" class="st13"/>
  <path d="M49.3 8.7A15 15 0 0037 32.2a15 15 0 0021.8-20.1 14.5 14.5 0 00-9.5-3.4z" class="st14"/>
  <path d="M43.9 23.9a5.8 5.8 0 100-11.6 5.8 5.8 0 000 11.6zM106.9 23.4a5.8 5.8 0 100-11.6 5.8 5.8 0 000 11.6z" class="st15"/>
  <path d="M111.4 44.3c.9 25.3-23.2 33.8-19.7 31.8a27.4 27.4 0 0013.9-21.5c.2-1.2-.5-.7-6-3.8-10.4-7.5-8.3-16.6-8.5-15.5-.3 1.1-3.6 6.3-13.3 9.9l-3.3.9C53 49.7 52.6 54.5 52 57.7 46.9 64 64.8 75.8 64.8 75.8s-23.1-11.3-19.9-33c4.2-29 33.4-29.6 33.4-29.6 15.5-.1 32.4 10.7 33.1 31.1z" class="st13"/>
  <path d="M92.8 31.2s-7.7 9.5-17.9 13.6c-7.3 2.9-13.1-.1-20.2 5.5-4.8 2.9-5 11.4-5 11.4s-9.1-13.3-1.9-26.9C51.4 28 52.2 24.1 61.6 18c7.4-4.8 16-6.5 26.5-4s17.4 13.2 18.7 16.3c1.3 3.1 4.7 10.4 1.5 22.6-3.2 12.2 1.4-2.2-2.3-3.9-3.7-1.7-7.1-1.8-10.5-5.4-3.5-3.5-2.7-12.4-2.7-12.4z" class="st14"/>
  <path d="M82.7 14.7c-7.3-3.5-15.7-.3-21.2 3.3-7 4.6-15.5 15.3-15.7 25.9-.1 6.1 1.4 10.6 1.4 10.6s5.4-6.6 14.5-10.4c5.8-2.4 12.2-2.1 19-5.4 3-1.5 8.5-6.4 8.5-6.4s.9-13.9-6.5-17.6z" class="st15"/>
  <path d="M89.5 53.5c1.9-.4 4 .9 4.7 2.9.4 1.1 1.4 1.3 2.1 1.1.8-.2 1.4-1 1.1-2.1a6.6 6.6 0 00-3.4-4.3 7 7 0 00-3.4-.9c-.6 0-1.3.1-1.8.3-3.8 1.2-4.7 4.9-3.9 8.1.1.2.3.2.3.2s.3-.1.3-.3c-.1-1 .3-2.1 1.2-3.1a5 5 0 012.8-1.9zM70.5 58.5s.3 0 .3-.2c.8-3.2 0-6.9-3.9-8.1a6.8 6.8 0 00-5.2.6c-1.7.9-3 2.5-3.5 4.3-.3 1.1.3 1.8 1.1 2.1.7.2 1.7 0 2.1-1.1.7-2 2.8-3.2 4.7-2.8a5.4 5.4 0 014 4.9c.1.2.3.3.4.3z" class="st7"/>
  <path d="M78.2 11.3c-5 0-9.6-.4-13.2-1.1-1.8-.4-3.3-.8-4.3-1.4a5 5 0 01-1.6-1.1c-.7-.8-.9-1.5-.9-2.1s.2-1.3.9-2.1c.4-.4.9-.7 1.6-1.1 1.1-.5 2.5-1 4.3-1.4a83.6 83.6 0 0126.4.2c1.8.4 3.3.8 4.3 1.4a5 5 0 011.6 1.1c.7.8.9 1.5.9 2.1 0 .5-.2 1.3-.9 2.1-.4.4-.9.7-1.6 1.1-1.1.5-2.5 1-4.3 1.4-3.5.5-8.2.9-13.2.9zM62.9 5.7c.8.3 2 .7 4.1 1a73.5 73.5 0 0026.5-1c-.8-.3-2-.7-4.1-1a73.5 73.5 0 00-26.5 1z" class="st4"/>
  <path d="M75.6 78.6h5.8v6.9h-5.8v-6.9z" class="st0"/>
  <path d="M78.5 86.8c2.2 0 3.9-.4 3.9-1s-1.8-1-3.9-1c-2.2 0-3.9.4-3.9 1s1.8 1 3.9 1z" class="st0"/>
  <path d="M28.7 62.4s-.7 2.6 3.1 5c4.5 2.9 4.4.9 5.2 1.3 6.5 3.3 9.5-4.9 9.5-4.9s3.4-7.3 1.9-9.2c-.7-.9-5 1.5-5 1.5s.3-2.1-2.8-5.9c-1.6-2-3.7 3-3.7 3s-5.5.3-6.9 1.8c-.9 1 1.2 5.6 1.2 5.6l-2.5 1.8z" class="st11"/>
  <path d="M29.5 61.9c.5-.3.8 2 2.9 3.3 2.1 1.3 4 2 6 1.7 2.1-.3 5.2-5 5.2-5s2.3-2.3 3.2-7.3l.8-.3c1.1-.2 1.2.4 1.3.7.3.8.1 4.7-2.8 10.1-4.1 6.6-9.4 3.9-9.4 3.9s-.2.2-1.6 0a11 11 0 01-3.8-1.9 6.2 6.2 0 01-2.4-2.9c-.6-1.6.1-2 .6-2.3z" class="st0"/>
  <path d="M33.7 60.2s3.6.7 5.4-2.5c.5-.7 1.7 1.9 0 3-1.6 1-4 .8-5.4-.5zm-3.3-5.6c-.2 1.5.1 3.4 1.2 4.6 1.1 1.2-.6.8-.6.8s-1.6-3.5-1.1-4.9c.2-.4 0-.2.5-.5z" class="st0"/>
  <linearGradient id="SVGID_1_" x1="83.1" x2="83.1" y1="148.8" y2="190.4" gradientUnits="userSpaceOnUse">
    <stop offset="0" stop-color="#fff"/>
    <stop offset="1" stop-color="#ffdaff"/>
  </linearGradient>
  <path fill="url(#SVGID_1_)" d="M161.4 158.2c-2.5 7.3-10.6 12.7-20.1 12.7l-3.9-.3c-1.8 6.5-8.7 11.3-17 11.3-7.1 0-13.3-3.6-16-8.8-3.2 8.7-12.7 15-24.1 15-6.9 0-13.2-2.4-17.7-6.2a23.2 23.2 0 01-16.5-7.1 29.2 29.2 0 01-17.3 5.5c-11.7 0-21.6-6.4-25.1-15.3-.4 1.5-.6 3.1-.6 4.7C3.1 182 15 192 29.5 192c6.6 0 12.7-2.1 17.3-5.5 3.8 4.2 9.8 7 16.5 7.1a27.8 27.8 0 0017.7 6.2c11.3 0 20.9-6.3 24.1-15 2.7 5.2 8.8 8.8 16 8.8 8.2 0 15.2-4.8 17-11.3l3.9.3c11.5 0 20.9-7.9 20.9-17.7.1-2.3-.5-4.6-1.5-6.7z"/>
  <path d="M28.7 180.7c6.6 0 12.7-2.1 17.4-5.5 3.8 4.2 9.8 7 16.6 7.1a27.8 27.8 0 0017.8 6.2c11.3 0 20.9-6.3 24.1-15 2.7 5.2 8.9 8.8 16 8.8 8.3 0 15.2-4.8 17-11.4l3.9.3c9.5 0 17.6-5.4 20.1-12.8-3.1-6.4-10.6-10.9-19.3-10.9l-1.6.1c-1.8-10.6-12.5-18.8-25.6-18.8-4.6 0-8.9 1-12.7 2.8-2.9-8.3-12-14.3-22.7-14.3a24 24 0 00-21.9 12.4c-2.1-.6-4.4-.9-6.8-.9-12.2 0-22.1 8.4-22.1 18.7-12.4.2-22.7 7.7-25.3 17.7 3.5 9.1 13.4 15.5 25.1 15.5z" class="st4"/>
</svg>
