<svg width="500" height="500" viewBox="0 0 500 500" fill="none" xmlns="http://www.w3.org/2000/svg">
<rect width="500" height="500" rx="250" fill="#6657FF"/>
<path d="M254.108 374.441C315.746 374.441 365.713 324.489 365.713 262.87C365.713 201.251 315.746 151.298 254.108 151.298C192.471 151.298 142.504 201.251 142.504 262.87C142.504 324.489 192.471 374.441 254.108 374.441Z" fill="#FFC19B"/>
<path d="M248.095 369.309C298.719 369.309 339.758 324.889 339.758 270.095C339.758 215.301 298.719 170.881 248.095 170.881C197.471 170.881 156.432 215.301 156.432 270.095C156.432 324.889 197.471 369.309 248.095 369.309Z" fill="#FFDDBA"/>
<path d="M212.133 325.319H292.647C292.647 325.319 286.279 357.722 252.257 357.722C218.236 357.722 212.133 325.319 212.133 325.319V325.319Z" fill="#562B48"/>
<path d="M281.74 345.497C256.069 326.685 225.265 339.968 221.52 344.197C223.626 346.708 226.048 348.936 228.725 350.828C231.127 352.325 234.013 353.889 237.23 355.255C241.505 356.819 246.485 357.744 252.28 357.744C265.522 357.744 274.556 352.832 280.682 346.84C281.012 346.4 281.387 345.959 281.74 345.497V345.497Z" fill="#FF6C6C"/>
<path d="M184.064 322.367C192.132 322.367 198.673 318.324 198.673 313.336C198.673 308.348 192.132 304.305 184.064 304.305C175.996 304.305 169.455 308.348 169.455 313.336C169.455 318.324 175.996 322.367 184.064 322.367Z" fill="#EBA090"/>
<path d="M318.384 322.367C326.452 322.367 332.993 318.324 332.993 313.336C332.993 308.348 326.452 304.305 318.384 304.305C310.316 304.305 303.775 308.348 303.775 313.336C303.775 318.324 310.316 322.367 318.384 322.367Z" fill="#EBA090"/>
<path d="M348.175 239.52C376.797 239.52 400 216.324 400 187.711C400 159.097 376.797 135.901 348.175 135.901C319.552 135.901 296.35 159.097 296.35 187.711C296.35 216.324 319.552 239.52 348.175 239.52Z" fill="#B52847"/>
<path d="M347.911 136.165C319.288 136.165 296.086 159.361 296.086 187.975C296.086 201.104 300.978 213.109 309.042 222.228C316.953 227.119 326.251 229.938 336.233 229.938C364.855 229.938 388.058 206.743 388.058 178.129C388.058 165 383.166 152.995 375.101 143.853C366.928 138.815 357.513 136.152 347.911 136.165V136.165Z" fill="#CC2E49"/>
<path d="M153.147 236.591C181.769 236.591 204.972 213.395 204.972 184.781C204.972 156.167 181.769 132.971 153.147 132.971C124.525 132.971 101.322 156.167 101.322 184.781C101.322 213.395 124.525 236.591 153.147 236.591Z" fill="#B52847"/>
<path d="M151.825 131.914C123.202 131.914 100 155.109 100 183.724C100 194.694 103.415 204.87 109.232 213.241C118.468 220.798 130.041 224.917 141.976 224.894C170.598 224.894 193.801 201.698 193.801 173.084C193.801 162.114 190.385 151.937 184.568 143.567C175.333 136.01 163.76 131.891 151.825 131.914V131.914Z" fill="#CC2E49"/>
<path d="M133.206 184.781C144.207 184.781 153.125 175.865 153.125 164.868C153.125 153.87 144.207 144.954 133.206 144.954C122.205 144.954 113.287 153.87 113.287 164.868C113.287 175.865 122.205 184.781 133.206 184.781Z" fill="#E23359"/>
<path d="M351.105 182.909C362.106 182.909 371.024 173.993 371.024 162.995C371.024 151.997 362.106 143.082 351.105 143.082C340.104 143.082 331.186 151.997 331.186 162.995C331.186 173.993 340.104 182.909 351.105 182.909Z" fill="#E23359"/>
<path d="M366.704 255.138C369.767 342.611 286.455 372.128 298.42 365.234C332.771 345.453 343.194 316.574 346.587 290.779C347.138 286.484 344.692 288.18 325.941 277.761C289.87 251.878 297.23 220.422 296.37 224.101C295.489 227.779 283.789 245.798 250.517 258.354C246.793 259.764 242.915 260.799 238.993 261.46C164.583 273.928 163.371 290.581 161.123 301.397C143.606 323.028 205.523 364.132 205.523 364.132C205.523 364.132 125.78 324.901 136.687 249.94C151.34 149.58 252.28 147.466 252.28 147.466C305.955 147.422 364.259 184.605 366.704 255.138Z" fill="#B52847"/>
<path d="M302.386 209.761C302.386 209.761 275.702 242.736 240.557 256.856C215.284 267.011 195.299 256.57 170.598 275.955C154.116 285.889 153.147 315.539 153.147 315.539C153.147 315.539 121.792 269.39 146.426 222.515C158.788 199.011 161.674 185.596 194.065 164.339C219.581 147.598 249.327 141.76 285.728 150.528C322.129 159.295 345.772 196.213 350.289 206.853C354.806 217.47 366.506 242.714 355.599 284.942C344.692 327.17 360.381 277.232 347.623 271.395C334.865 265.557 322.922 265.029 311.222 252.803C299.544 240.556 302.386 209.761 302.386 209.761V209.761Z" fill="#CC2E49"/>
<path d="M267.309 152.973C242.234 140.813 212.994 151.673 194.023 164.317C169.939 180.375 140.501 217.338 139.774 253.861C139.355 274.985 144.555 290.361 144.555 290.361C144.555 290.361 163.329 267.364 194.838 254.499C215.044 246.261 237.1 247.34 260.479 235.908C270.967 230.797 289.718 213.858 289.718 213.858C289.718 213.858 293.178 165.529 267.309 152.973V152.973Z" fill="#E23359"/>
<path d="M291.039 287.035C297.716 285.801 304.811 290.118 307.235 296.903C308.535 300.582 311.95 301.397 314.55 300.582C317.216 299.745 319.464 297.211 318.45 293.423C316.775 287.277 312.479 281.88 306.618 278.642C302.916 276.593 298.928 275.536 294.961 275.536C292.802 275.536 290.643 275.844 288.571 276.483C275.285 280.514 272.178 293.445 274.998 304.481C275.219 305.296 276.122 305.164 276.21 305.142C276.364 305.12 277.18 304.921 277.113 304.084C276.849 300.604 278.325 296.661 281.168 293.268C283.944 289.942 287.536 287.695 291.039 287.035ZM225.09 304.194C225.244 304.216 226.06 304.304 226.28 303.511C229.167 292.475 226.148 279.523 212.861 275.448C206.978 273.642 200.566 274.369 194.815 277.496C188.932 280.713 184.591 286.087 182.872 292.233C181.815 296.022 184.04 298.577 186.728 299.436C189.328 300.273 192.744 299.48 194.066 295.802C196.512 289.017 203.651 284.722 210.305 286.021C213.809 286.704 217.4 288.995 220.155 292.299C222.997 295.692 224.451 299.635 224.143 303.137C224.077 304.018 224.98 304.194 225.09 304.194Z" fill="#562B48"/>
<path d="M252.038 141.033C234.896 141.033 218.722 139.624 206.471 137.09C200.191 135.791 195.167 134.227 191.532 132.421C189.24 131.297 187.477 130.086 186.111 128.698C183.511 126.054 182.982 123.345 182.982 121.517C182.982 119.688 183.533 116.979 186.111 114.336C187.455 112.97 189.24 111.736 191.532 110.613C195.167 108.829 200.213 107.265 206.471 105.943C218.7 103.41 234.896 102 252.038 102C269.181 102 285.354 103.454 297.605 105.987C303.885 107.287 308.909 108.851 312.545 110.657C314.836 111.78 316.599 112.992 317.965 114.38C320.565 117.023 321.094 119.732 321.094 121.561C321.094 123.389 320.543 126.099 317.965 128.742C316.621 130.108 314.836 131.341 312.545 132.465C308.909 134.249 303.863 135.813 297.605 137.135C285.354 139.624 269.181 141.033 252.038 141.033ZM199.023 121.539C201.646 122.574 206.008 123.896 213.103 125.129C223.944 127.002 237.782 128.037 252.016 128.037C266.251 128.037 280.088 127.002 290.929 125.129C298.046 123.896 302.409 122.574 305.009 121.539C302.387 120.503 298.024 119.182 290.929 117.948C280.088 116.076 266.251 115.041 252.016 115.041C237.76 115.041 223.944 116.076 213.103 117.948C206.008 119.182 201.646 120.503 199.023 121.539Z" fill="white"/>
</svg>
