<svg xmlns="http://www.w3.org/2000/svg" fill="none" viewBox="0 0 167 248"><path fill="#FFC19B" stroke="#FFD6B2" stroke-miterlimit="10" stroke-width="14" d="M100.059 138.357l.619-13.403 22.639 1.044-.618 13.403-22.64-1.044zm-57.6615-12.869l21.2096-1.415.8889 13.388-21.2019 1.414-.8966-13.387z"/><path fill="#584AFA" d="M20.6543 99.0222l4.2821-1.0435 9.7082 39.8763-4.2821 1.043-9.7082-39.8758z"/><path fill="#6864FF" d="M23.8311 98.2493l9.7082 39.8767s18.8522-6.161 14.1372-25.523C44.1441 98.0947 31.491 96.3865 23.8311 98.2493z"/><path fill="#584AFA" d="M127.816 136.935l9.708-39.8761 4.282 1.0435-9.708 39.8766-4.282-1.044z"/><path fill="#6864FF" d="M138.629 97.3217l-9.716 39.8763s-18.852-6.16-14.137-25.523c3.54-14.5079 16.186-16.2161 23.853-14.3533z"/><path fill="#fff" d="M71.7846 86.3614l-25.7083-22.485-6.0289 5.3256 26.5893 32.696 5.1479-15.5366z"/><path fill="#E6E6EF" d="M42.2116 69.0472c17.43 20.0348 18.3498 20.7227 25.2367 28.027l-1.7391 3.7408-25.6618-31.6132 2.1642-.1546z"/><path fill="#fff" d="M82.5747 93.8589l7.8531-5.8821 22.5542 21.6192-7.853 5.89-22.5543-21.6271z"/><path fill="#6864FF" d="M98.0958 111.536c.0077-.015.0154-.031.0232-.046l-3.0454-9.198c-.0078.023-.0155.038-.0155.062l3.0377 9.182z"/><path fill="#6864FF" d="M59.6343 144.842c2.4966-2.651 3.3933-5.897 4.429-9.654 1.1053-3.996 2.3498-8.533 5.913-12.313 3.5633-3.779 7.83-5.109 11.5942-6.284 3.5401-1.097 6.5933-2.048 9.0899-4.707 2.4734-2.62 3.3778-5.828 4.3981-9.538.0077-.023.0154-.039.0154-.062l-3.486-10.5352c-.0077.0232-.0154.0386-.0154.0618-.1778.6106-.3478 1.2367-.5256 1.8783-1.1053 3.9961-2.3498 8.5331-5.9131 12.3131-3.5633 3.78-7.8299 5.109-11.5942 6.284-3.5401 1.097-6.5932 2.048-9.0898 4.707-2.4966 2.651-3.3933 5.898-4.429 9.654-.9894 3.571-2.087 7.575-4.8618 11.092l-1.515 6.068c-.3942 1.615-.1546 3.215.5333 4.529 2.0329-.788 3.857-1.785 5.457-3.494z"/><path fill="#6864FF" d="M79.6765 133.179c3.5633-3.78 7.83-5.11 11.5942-6.284 3.5401-1.098 6.5933-2.049 9.0903-4.7.332-.348.633-.711.912-1.082.007-.015.015-.023.023-.039l-3.177-9.592a1.6395 1.6395 0 01-.0232.046c-.8193 1.655-1.8628 3.27-3.2772 4.77-3.5556 3.779-7.83 5.109-11.5943 6.284-3.54 1.097-6.5932 2.048-9.0898 4.707-2.4966 2.651-3.3932 5.897-4.429 9.654-1.1053 3.996-2.3497 8.533-5.913 12.313a17.9277 17.9277 0 01-2.3189 2.071c3.03-.007 6.5855-.007 10.3652 0 .8039-1.77 1.3372-3.725 1.9247-5.828 1.1053-4.011 2.3497-8.541 5.913-12.32zM58.9155 151.335h.0078c.7961 0 1.6541-.008 2.5507-.008-.9044.008-1.7623.008-2.5585.008zM71.259 91.2773c2.0483-2.172 3.0223-4.7537 3.8725-7.6831a22.6592 22.6592 0 00-4.2744 1.1594c-1.6928.6415-2.9913 2.1642-3.4628 4.0502l-1.4763 5.9131c1.9864-.7807 3.7719-1.7701 5.341-3.4396zM80.9676 101.588c2.4966-2.6508 3.3932-5.8972 4.429-9.6537.6029-2.1875 1.2521-4.5449 2.3033-6.8483 0-.0078.0078-.0078.0078-.0155-.1701-.0927-.3479-.17-.5334-.2396-1.4454-.5565-3.455-1.1517-5.8512-1.4068v.0078c-1.1053 3.9806-2.3575 8.5024-5.8975 12.2666-3.4706 3.687-7.6136 5.0395-11.3005 6.1915l-2.3111 9.252c3.2077-2.705 6.8251-3.834 10.0715-4.839 3.5323-1.105 6.5855-2.056 9.0821-4.715z"/><path fill="#6864FF" d="M108.701 143.436l-5.233-15.792c-.008.008-.024.016-.031.024-3.324 2.991-7.1268 4.174-10.5201 5.232-3.5401 1.098-6.5932 2.049-9.0898 4.708-2.4966 2.651-3.3933 5.897-4.429 9.654-.3633 1.314-.742 2.69-1.2135 4.073 9.2212.016 18.8676.054 25.3684.085 3.795.016 6.438-4.089 5.148-7.984zM81.3232 83.4242c-.8116-.0851-1.6618-.1392-2.5507-.1392.8889 0 1.7468.0541 2.5507.1392 0 0 0 .0077 0 0zM90.4441 88.4174l1.1208 3.3932c.0077-.0232.0154-.0387.0154-.0618l-1.1053-3.3314c-.487-1.4764-1.4918-2.6822-2.7749-3.3469 0 .0077-.0077.0077-.0077.0155 1.2753.6724 2.2647 1.8705 2.7517 3.3314z"/><path fill="#6864FF" d="M103.437 127.675c.008-.007.023-.015.031-.023l-2.172-6.562c-.008.015-.015.023-.023.038l2.164 6.547z"/><path fill="#584AFA" d="M65.8714 94.74l-1.7933 7.158c.0155-.008.0309-.008.0387-.016l1.7932-7.1651c-.0077.0077-.0232.0154-.0386.0231zM75.1313 83.5942c1.2677-.2087 2.4812-.3015 3.6406-.3015-1.1517 0-2.3729.0928-3.6406.3015zM71.8389 151.327c2.0637 0 4.1971.008 6.3536.008-2.1565 0-4.2899-.008-6.3536-.008zM54.1691 148.336c-.0077.008-.0232.008-.0309.016.9353 1.77 2.6744 2.999 4.7459 2.983h.0309c-2.0715.008-3.8106-1.221-4.7459-2.999zM61.7595 111.181l-6.6628 26.628c.0154-.023.0386-.047.0541-.07l6.6551-26.597c-.0155.015-.031.023-.0464.039zM83.835 137.608c2.4966-2.659 5.5498-3.61 9.0899-4.708 3.3932-1.058 7.1881-2.241 10.5201-5.232l-2.172-6.555c-.279.371-.58.734-.912 1.082-2.497 2.651-5.5501 3.602-9.0902 4.7-3.7643 1.175-8.031 2.504-11.5942 6.284-3.5633 3.779-4.8078 8.309-5.9131 12.313-.5797 2.11-1.1208 4.058-1.9246 5.828 2.0637 0 4.1971.007 6.3536.007.4715-1.383.8502-2.759 1.2135-4.073 1.0358-3.749 1.9324-6.995 4.429-9.646z"/><path fill="#584AFA" d="M75.4255 95.6908c3.5401-3.7642 4.8-8.2782 5.8976-12.2666-.8116-.0928-1.6619-.1392-2.5508-.1392-1.1517 0-2.3729.0928-3.6405.3092-.858 2.9295-1.8242 5.5034-3.8725 7.6831-1.5691 1.6618-3.3546 2.6589-5.3411 3.4396l-1.7932 7.1651c3.687-1.152 7.83-2.4965 11.3005-6.1912zM64.4417 116.993c2.4966-2.659 5.5498-3.609 9.0899-4.707 3.7642-1.175 8.0309-2.504 11.5942-6.284s4.8077-8.317 5.9131-12.3131c.1777-.6416.3478-1.2677.5256-1.8783l-1.1208-3.3932c-.487-1.4686-1.4763-2.6589-2.744-3.3314-1.0512 2.3034-1.7005 4.6531-2.3034 6.8483-1.0357 3.7565-1.9323 7.0029-4.4289 9.6537-2.4967 2.659-5.5498 3.61-9.0899 4.708-3.2464 1.012-6.8561 2.141-10.0715 4.838l-6.6551 26.605c2.7671-3.509 3.8724-7.513 4.8618-11.092 1.0358-3.756 1.9324-7.003 4.429-9.654zM63.7921 149.256c3.5633-3.78 4.8078-8.317 5.9131-12.313 1.0357-3.757 1.9323-7.003 4.429-9.654 2.4966-2.659 5.5497-3.61 9.0898-4.707 3.7643-1.175 8.0387-2.505 11.5942-6.285 1.4145-1.499 2.458-3.114 3.2773-4.769l-3.0377-9.182c-1.0203 3.71-1.9246 6.91-4.398 9.538-2.4967 2.659-5.5498 3.61-9.0899 4.707-3.7642 1.175-8.0309 2.505-11.5942 6.284-3.5633 3.78-4.8077 8.317-5.913 12.313-1.0358 3.757-1.9324 7.003-4.429 9.654-1.6 1.701-3.4242 2.706-5.4648 3.494.9276 1.77 2.6744 3.007 4.7382 2.999.8039 0 1.6618-.008 2.5585-.008.8038-.595 1.5768-1.275 2.3265-2.071z"/><path fill="#fff" d="M109.427 96.1004c1.623-1.1594 3.579-1.8241 5.558-1.9632 1.36-.0928 4.73-.0696 5.619 1.2367.819 1.2058-.881 4.1275-1.562 5.1401-1.143 1.716-2.782 3.115-4.691 3.903-.418.17-.851.317-1.291.333l-3.633-8.6496zm-14.2685 2.5662c-.5488-3.6328.7188-7.4744 3.2695-10.1024 1.4686-1.515 2.311-1.4686 3.764.0232 1.268 1.3063 2.172 2.9836 2.528 4.7768.494 2.458-.039 5.1015-1.43 7.1808l-8.1315-1.8784zm16.9585 6.4004c.804 1.089 1.615 2.179 2.419 3.269 2.837 3.826 5.735 7.807 6.763 12.468 1.021 4.661-.371 10.203-4.49 12.576-1.832 1.051-3.996 1.376-6.107 1.499-2.488.147-5.062.023-7.335-1.005-2.272-1.028-4.1969-3.107-4.4675-5.596-.2937-2.744 1.3685-5.256 2.6355-7.706 2.18-4.228 3.308-8.989 3.254-13.751l7.328-1.754z"/><path fill="#80F" d="M111.955 113.043c-1.778 1.137-3.95 1.562-6.06 1.461-1.26-.054-2.682-.402-3.293-1.507-.665-1.206-.062-2.728.804-3.803 2.118-2.62 5.959-3.841 9.198-2.914 4.073 1.175 1.979 5.078-.649 6.763z"/><path fill="#fff" d="M96.0628 108.568c.8811 1.121 2.0328 1.948 3.2309 2.628 3.7183 2.103 8.2703 2.752 11.9033.835 3.633-1.917 5.913-6.779 4.506-11.045-.757-2.3039-2.017-4.0662-3.563-5.3415-2.357-1.9479-5.387-2.7672-8.325-2.6744-7.6749.2473-14.7474 6.7401-7.7522 15.5979zm21.4492 23.343c.997.68 4.522-1.391 5.395-1.878 1.515-.835 3.03-1.778 4.058-3.169 1.059-1.438 1.492-3.223 1.538-5.04.016-.634-.015-1.267-.092-1.893-.016-.147-.039-.302-.054-.449-.14-.989-.364-1.971-.611-2.937-.209-.819-.433-1.631-.649-2.443-.186-.703-.356-1.399-.503-2.11-.023-.092-.038-.193-.054-.293-.069-.48-.046-.982.302-1.291.177-.155.394-.217.626-.232h.185c.139.008.278.039.41.069.556.155 1.051.456 1.538.773.363.24.727.487 1.105.696.889.487 2.095.696 2.845.016.935-.851.525-2.404-.101-3.502-.711-1.26-1.615-2.466-2.682-3.37-.734-.618-1.553-1.09-2.442-1.329-1.113-.294-2.342-.225-3.672.394-.549.255-1.005.595-1.376.997-.603.649-.989 1.461-1.236 2.35-.472 1.723-.402 3.725-.263 5.356.015.162.031.317.046.479.093.874.217 1.74.34 2.605.201 1.337.41 2.675.503 4.027.038.503.061 1.005.061 1.515 0 .495-.023.982-.069 1.469-.271 2.697-1.353 5.186-3.633 6.84-.526.387-2.69 1.546-1.515 2.35z"/><path fill="#562B48" d="M99.6184 101.666c.1237-.449-.2242-1.052-.6493-1.229-.4096-.17-.8966.038-1.113.409-.2937.495-1.0512.085-.7884-.433.4019-.8034 1.4531-1.1667 2.257-.7338.8043.4328.9123 1.3298.541 2.0868-.0618.124-.286.047-.2473-.1zm5.5576 1.53c.464-1.26 1.955-2.272 3.308-2.056 1.237.201 2.18 1.322 1.963 2.589-.131.758-1.314.472-1.167-.293.132-.696-.672-1.198-1.275-1.206-.99-.008-1.631.804-2.381 1.298-.201.132-.541-.077-.448-.332zm-.394 2.404c.564-.023 1.144.054 1.692.1.634.062 1.26.124 1.879.201 1.205.147 6.454.974 7.629 1.16.919.147.749.773-.124.58-1.098-.232-6.725-1.113-7.892-1.276l-1.739-.232c-.541-.062-1.128-.1-1.623-.216-.371-.085-.209-.302.178-.317zm-.24.812c.472.015.951.108 1.407.185.525.085 1.043.178 1.553.278.998.194 5.318 1.175 6.292 1.392.758.17.58.657-.139.456-.904-.255-5.534-1.299-6.5-1.5-.48-.1-.959-.201-1.438-.286-.448-.085-.935-.147-1.337-.27-.309-.109-.163-.271.162-.255z"/><path fill="#D1B7ED" d="M102.788 133.534c-2.8062-1.801-5.0555-5.132-3.9579-8.579.4638-1.461 1.4609-2.783 2.8679-3.432 1.677-.773 3.625-.441 5.194.433 1.948 1.074 3.3 2.937 4.537 4.738.263.378-.348.757-.61.378-1.021-1.476-2.095-2.991-3.579-4.042-1.33-.943-3.069-1.507-4.677-1.059-1.399.386-2.442 1.538-2.9677 2.86-.5565 1.399-.5256 2.914-.0386 4.336.5953 1.739 1.8243 3.223 3.2463 4.344.023.008 0 .039-.015.023z"/><path fill="#D1B7ED" d="M108.878 115.942c-.943 2.187-2.466 4.128-4.181 5.751-.294.278-.758-.17-.456-.433 1.8-1.554 3.261-3.386 4.591-5.349.023-.023.062 0 .046.031z"/><path fill="#FF6C6C" d="M100.569 104.101c.773-.518 3.146.556 2.705.989-1.113 1.105-1.824.804-2.187.611-.611-.325-.518-1.6-.518-1.6zm13.936-6.6092c.889 1.7778 1.616 3.0142 1.616 3.1692.007.154 3.949-2.5895 2.713-3.8648-1.237-1.2754-4.329.6956-4.329.6956zm-13.124-3.401c-1.9328.4638-3.3473.7034-3.471.7962-.1236.0927-.5488-4.6918 1.2213-4.5604 1.7697.1314 2.2497 3.7642 2.2497 3.7642z"/><path fill="#562B48" d="M99.3633 105.036c.2473.077.3092.247.0541.232-.3324-.016-.7189-.093-1.0744-.155a26.6564 26.6564 0 00-1.1517-.162c-.7729-.101-4.514-.549-5.256-.595-.5875-.039-.5875-.464.0232-.395.7806.093 4.2743.503 5.0705.626.4096.062.8193.132 1.2367.209.3633.07.742.131 1.0976.24zm.0464-.541c.2164.131.2473.309 0 .239-.3247-.092-.6802-.255-1.0126-.386-.3556-.139-.7189-.278-1.0821-.418-.7266-.278-4.2744-1.545-4.9855-1.762-.5643-.17-.4715-.587.1082-.379.742.263 4.0502 1.453 4.8 1.747.3864.155.7652.309 1.1517.479.3401.147.6956.286 1.0203.48z"/><path fill="#DCCCF2" d="M95.7612 108.182s5.3878 3.965 9.6928 4.042c6.4.116 9.585-4.236 9.585-4.236s-1.199 3.363-5.62 4.754c-4.506 1.415-8.85-.873-9.4607-1.19-3.2386-1.693-4.1971-3.37-4.1971-3.37z"/><path fill="#FFDDBA" d="M116.607 110.184s5.017-1.508 7.683 2.991c2.675 4.499.41 8.402-.572 8.958-.989.557-3.548 2.729-4.869 1.245-.711-.804 1.893-3.393 1.453-3.37-.441.023-4.901 1.182-5.774 0-1.082-1.476 3.702-5.38 3.702-5.38s-3.2.711-3.741-.247c-.664-1.214 2.118-4.197 2.118-4.197z"/><path fill="#FFC19B" d="M120.039 110.106s4.916.974 5.588 6.856c.696 6.083-6.144 7.173-5.665 6.918 4.29-2.249 5.836-4.614 4.661-8.502-1.222-4.043-4.584-5.272-4.584-5.272zm-2.334-.487l-2.582-.487.997 1.469 1.585-.982z"/><path fill="#FFC19B" d="M120.139 119.072s-5.835.719-5.603.928c.973.858 4.374.618 5.773 0 2.69-1.19-.17-.928-.17-.928zm-2.141-5.109s-3.687.279-3.455.487c.974.858 2.675.657 3.347.364 1.314-.58.108-.851.108-.851zM78.8419 78.7865c17.8182 0 32.2631-14.4446 32.2631-32.2628 0-17.8183-14.4449-32.2628-32.2631-32.2628-17.8183 0-32.2628 14.4445-32.2628 32.2628 0 17.8182 14.4445 32.2628 32.2628 32.2628z"/><path fill="#FFDDBA" d="M77.1026 77.3026c14.6337 0 26.4964-12.8458 26.4964-28.6918 0-15.8461-11.8627-28.6919-26.4964-28.6919-14.6337 0-26.4966 12.8458-26.4966 28.6919 0 15.846 11.8629 28.6918 26.4966 28.6918z"/><path fill="#562B48" d="M66.7061 64.5875h23.2734s-1.8396 9.3681-11.6792 9.3681c-9.8397 0-11.5942-9.3681-11.5942-9.3681z"/><path fill="#FF6C6C" d="M86.834 70.4233c-7.4203-5.4416-16.3246-1.6-17.4068-.3788.572.6802 1.2599 1.3372 2.0793 1.9169.6956.4329 1.5304.8889 2.4579 1.2831 1.2368.4561 2.6744.7189 4.3517.7189 3.8261 0 6.4387-1.4222 8.2087-3.1536.0928-.1315.201-.2551.3092-.3865z"/><path fill="#EBA090" d="M58.5899 63.7295c2.3308 0 4.2203-1.1697 4.2203-2.6126s-1.8895-2.6126-4.2203-2.6126-4.2203 1.1697-4.2203 2.6126 1.8895 2.6126 4.2203 2.6126zM97.4234 63.7295c2.3308 0 4.2206-1.1697 4.2206-2.6126s-1.8898-2.6126-4.2206-2.6126-4.2203 1.1697-4.2203 2.6126 1.8895 2.6126 4.2203 2.6126z"/><path fill="#B52847" d="M106.033 39.7682c8.274 0 14.98-6.7067 14.98-14.9797 0-8.2731-6.706-14.9797-14.98-14.9797-8.2726 0-14.9793 6.7066-14.9793 14.9797 0 8.273 6.7067 14.9797 14.9793 14.9797z"/><path fill="#CC2E49" d="M105.965 9.8861c-8.2787 0-14.9801 6.7092-14.9801 14.9797 0 3.7952 1.4145 7.2657 3.7488 9.9092 2.2879 1.4145 4.9777 2.2261 7.8613 2.2261 8.278 0 14.979-6.7092 14.979-14.9797 0-3.7952-1.414-7.2657-3.749-9.9092-2.287-1.4145-4.977-2.226-7.86-2.226z"/><path fill="#B52847" d="M49.6555 38.918c8.273 0 14.9797-6.7067 14.9797-14.9797 0-8.2731-6.7067-14.9797-14.9797-14.9797-8.2731 0-14.9797 6.7066-14.9797 14.9797 0 8.273 6.7066 14.9797 14.9797 14.9797z"/><path fill="#CC2E49" d="M49.2693 8.657c-8.2783 0-14.9797 6.7092-14.9797 14.9797 0 3.1691.9893 6.114 2.6666 8.5333 2.5817 2.1102 5.8744 3.3701 9.4686 3.3701 8.2783 0 14.9797-6.7092 14.9797-14.9797 0-3.1691-.9893-6.114-2.6666-8.5334-2.5817-2.1101-5.8744-3.37-9.4686-3.37z"/><path fill="#E23359" d="M43.8888 23.9382c3.1803 0 5.7585-2.5781 5.7585-5.7584s-2.5782-5.7585-5.7585-5.7585-5.7584 2.5782-5.7584 5.7585 2.5781 5.7584 5.7584 5.7584zM106.884 23.3972c3.18 0 5.758-2.5782 5.758-5.7585s-2.578-5.7585-5.758-5.7585-5.759 2.5782-5.759 5.7585 2.579 5.7585 5.759 5.7585z"/><path fill="#B52847" d="M111.398 44.29c.889 25.2986-23.2035 33.8319-19.7407 31.8377 9.9327-5.7198 12.9467-14.0754 13.9287-21.5343.162-1.2444-.549-.7498-5.9674-3.7643-10.427-7.4821-8.3014-16.5797-8.5488-15.5207-.2551 1.0666-3.6406 6.2763-13.256 9.9091-1.0744.4097-2.1952.7034-3.3314.8967-21.5111 3.6019-21.8589 8.4251-22.5159 11.5478-5.0706 6.2609 12.8309 18.1488 12.8309 18.1488s-23.057-11.3469-19.9034-33.028C49.1297 13.7586 78.3162 13.148 78.3162 13.148c15.513-.0078 32.3708 10.7439 33.0818 31.142z"/><path fill="#CC2E49" d="M92.8012 31.1651s-7.714 9.5381-17.8782 13.6193c-7.3044 2.9372-13.086-.085-20.2281 5.5266-4.7613 2.8676-5.0396 11.4473-5.0396 11.4473s-9.0667-13.3488-1.9401-26.8985c3.571-6.7942 4.4058-10.6744 13.7739-16.8271 7.3739-4.8386 15.9768-6.5314 26.4967-3.9961 10.5198 2.5352 17.3602 13.2096 18.6662 16.286 1.307 3.0686 4.692 10.3729 1.539 22.5855-3.154 12.2125 1.383-2.2261-2.304-3.9189-3.687-1.685-7.1418-1.8396-10.5273-5.3797-3.3778-3.5401-2.5585-12.4444-2.5585-12.4444z"/><path fill="#E23359" d="M82.6596 14.74c-7.2503-3.5169-15.7063-.3788-21.1865 3.2773-6.9643 4.6454-15.4745 15.3352-15.6832 25.8937-.1236 6.1063 1.3836 10.5584 1.3836 10.5584s5.4261-6.6473 14.5392-10.3729c5.8435-2.3807 12.2203-2.0715 18.9759-5.3797 3.0299-1.4763 8.456-6.3768 8.456-6.3768s.9894-13.9672-6.485-17.6z"/><path fill="#562B48" d="M89.516 53.511c1.9324-.3555 3.9806.8889 4.684 2.8522.3787 1.0667 1.3604 1.2986 2.1178 1.0667.773-.2396 1.4222-.9739 1.1285-2.0715-.4869-1.7778-1.7236-3.3391-3.4241-4.2744-1.0666-.5952-2.226-.8966-3.37-.8966a6.475 6.475 0 00-1.8473.2705c-3.8414 1.1672-4.738 4.9082-3.9264 8.0928.0618.2318.3246.2009.3478.1932.0463-.0077.2782-.0618.2628-.3092-.0773-1.0048.3478-2.1488 1.1748-3.1304.8039-.9507 1.8396-1.6 2.8521-1.7933zM70.4554 58.4733c.0464.0078.2783.031.3479-.2009.8347-3.1923-.0387-6.9411-3.8802-8.116-1.7005-.5256-3.5556-.3091-5.2174.5952-1.7005.9275-2.9527 2.4812-3.4551 4.2589-.3092 1.0976.3401 1.8319 1.1131 2.0793.7497.2396 1.7391.0154 2.1178-1.0512.7034-1.9633 2.7749-3.2078 4.6918-2.829 1.0126.2009 2.0483.8579 2.8444 1.8164.8194.9816 1.2445 2.1179 1.1517 3.1304-.0077.2706.2551.3169.286.3169z"/><path fill="#fff" d="M78.2459 11.2928c-4.9545 0-9.6309-.4097-13.171-1.144-1.8164-.3788-3.2695-.827-4.3207-1.3527-.6647-.3246-1.1749-.6724-1.5691-1.0744-.7497-.7652-.9043-1.5459-.9043-2.0792 0-.5333.1623-1.314.9043-2.0792.3865-.3942.9044-.7498 1.5691-1.0744 1.0512-.5179 2.5121-.9662 4.3207-1.3527C68.6073.4097 73.2836 0 78.2459 0c4.9623 0 9.6309.4174 13.171 1.1517 1.8164.3787 3.2696.827 4.3208 1.3527.6647.3246 1.1749.6724 1.5691 1.0743.7497.7653.9043 1.546.9043 2.0793 0 .5256-.1623 1.314-.9043 2.0792-.3865.3942-.9044.7498-1.5691 1.0744-1.0512.5179-2.5121.9662-4.3208 1.3526-3.5401.7189-8.2164 1.1286-13.171 1.1286zM62.9184 5.6502c.7575.3015 2.0174.6802 4.0735 1.0358 3.1304.541 7.1342.8425 11.2463.8425s8.1159-.3014 11.2464-.8425c2.056-.3556 3.3159-.742 4.0734-1.0358-.7575-.3014-2.0174-.6802-4.0734-1.0357-3.1305-.541-7.1343-.8425-11.2464-.8425-4.1198 0-8.1159.3014-11.2463.8425-2.0561.3556-3.316.742-4.0735 1.0357z"/><path fill="#FFC19B" d="M75.603 78.6395h5.7971v6.8793H75.603v-6.8793z"/><path fill="#FFC19B" d="M78.5402 86.8328c2.1772 0 3.9421-.4498 3.9421-1.0048 0-.5549-1.7649-1.0048-3.9421-1.0048-2.1771 0-3.9421.4499-3.9421 1.0048 0 .555 1.765 1.0048 3.9421 1.0048z"/><path fill="#FFDDBA" d="M28.7357 62.4466s-.7266 2.5507 3.0995 4.9855c4.4986 2.8676 4.4136.8811 5.2406 1.314 6.5005 3.3237 9.5073-4.916 9.5073-4.916s3.3855-7.2734 1.9091-9.2367c-.6956-.9276-5.0318 1.4918-5.0318 1.4918s.3091-2.087-2.7827-5.9208c-1.5922-1.9711-3.7101 3.0145-3.7101 3.0145s-5.5034.286-6.9101 1.7855c-.9276.9894 1.2289 5.6348 1.2289 5.6348l-2.5507 1.8474z"/><path fill="#FFC19B" d="M29.4576 61.9287c.5024-.2628.8194 2.0483 2.8831 3.3314 2.0638 1.2908 3.9652 1.9556 6.029 1.7005 2.0638-.2551 5.1556-5.0319 5.1556-5.0319s2.3033-2.3498 3.1536-7.2966l.7884-.2628c1.1053-.1624 1.2213.4251 1.2985.6647.2628.827.0928 4.6841-2.7748 10.0947-3.9498 6.6087-9.2677 3.8416-9.2677 3.8416s-.2009.1932-1.5613.0077c-1.3604-.1855-3.4087-1.6077-3.8029-1.8551-.3942-.2473-1.8164-1.2754-2.4425-2.9217-.6261-1.6464.0386-2.0174.541-2.2725z"/><path fill="#FFC19B" d="M33.7092 60.1585s3.5942.7343 5.4106-2.5121c.4947-.7497 1.6619 1.9324 0 2.9759-1.6618 1.0435-4.0193.9275-5.4106-.4638zm-3.2773-5.5343c-.1623 1.4763.0696 3.4087 1.1903 4.6068 1.1208 1.198-.6029.7343-.6029.7343s-1.6154-3.5169-1.0589-4.8541c.1701-.4097-.0232-.2087.4715-.487z"/><path fill="url(#paint0_linear)" d="M161.57 158.276c-2.535 7.366-10.574 12.754-20.097 12.754-1.337 0-2.651-.116-3.918-.317-1.832 6.508-8.758 11.355-17.013 11.355-7.157 0-13.302-3.633-16.015-8.843-3.177 8.711-12.7695 15.034-24.1009 15.034-6.9411 0-13.2174-2.365-17.7778-6.199-6.7478-.155-12.7227-2.922-16.5565-7.15-4.6532 3.416-10.7208 5.496-17.3681 5.496-11.7102 0-21.6503-6.439-25.1363-15.366C3.201 166.555 3 168.124 3 169.739c0 12.375 11.857 22.408 26.4734 22.408 6.6474 0 12.715-2.079 17.3681-5.496 3.8339 4.228 9.8087 6.995 16.5566 7.15C67.9585 197.635 74.2348 200 81.1758 200c11.3314 0 20.9242-6.323 24.1002-15.034 2.713 5.21 8.858 8.843 16.016 8.843 8.255 0 15.18-4.847 17.012-11.355 1.268.201 2.582.317 3.919.317 11.563 0 20.932-7.93 20.932-17.716 0-2.404-.565-4.692-1.585-6.779z"/><path fill="#fff" d="M28.7236 180.707c6.6474 0 12.715-2.079 17.3681-5.495 3.8338 4.228 9.8087 6.995 16.5565 7.149 4.5604 3.834 10.8367 6.199 17.7778 6.199 11.3314 0 20.924-6.322 24.1-15.033 2.713 5.209 8.858 8.842 16.016 8.842 8.255 0 15.181-4.846 17.012-11.355 1.268.201 2.582.317 3.919.317 9.531 0 17.562-5.387 20.097-12.753-3.138-6.423-10.613-10.937-19.339-10.937-.534 0-1.059.023-1.585.054-1.762-10.613-12.545-18.791-25.577-18.791-4.599 0-8.912 1.021-12.653 2.806-2.9446-8.263-12.0035-14.276-22.7243-14.276-9.8783 0-18.3498 5.109-21.9208 12.375a25.9522 25.9522 0 00-6.7864-.905c-12.228 0-22.1372 8.387-22.1372 18.737v.015c-12.4444.247-22.7478 7.745-25.2599 17.685 3.486 8.928 13.4261 15.366 25.1362 15.366zM44.5005 223.176c.1607-.566 2.1131-3.173 3.5654-4.423 3.6309-2.012 5.2856.53 5.2856.53 3.2381 4.464-3.9642 8.595-3.9642 8.595 8.3213 7.387 4.6845 11.048 4.6845 11.048-5.8749 3.535-9.9701-6.108-10.1665-6.566.0357.268 1.1547 6.47-3.2083 7.292-4.9225.958-6.0474-4.988-6.0474-4.988s-1.2917-5.256-.2322-11.988c1.0595-6.804 5.3511-6.673 5.3511-6.673 5.982-.166 4.8987 6.048 4.732 7.173zm26.6304 13.625s.2857 1.809-1.8392 2.66c0 0-3.8809 1.345-8.0713-.363 0 0-3.7261-1.446-3.5475-6.262 0 0 0-4.964 4.2975-6.517 0 0 4.5535-1.578 7.8689 1.369 0 0 1.4226 1.244 1.4464 3.625.0238 2.66-2.7202 3.386-5.119 2.922 1.9821 1.607 4.6547.161 4.9642 2.566zm-7.7974-5.286c.0833 1.119.7202 1.482 1.6011 1.482s1.5595-.559 1.5595-1.482c0-.839-.5595-1.685-1.5595-1.685-.9226 0-1.6845.846-1.6011 1.685zm21.4221-5.369c2.0952.542 2.4583 2.274 2.4821 3.178.0774 2.227-1.5535 3.131-1.5535 3.131-2.1726 1.268-4.4761-.494-4.4761-.494 1.1369 8.334-4.113 7.762-4.113 7.762-2.9226.077-3.7261-2.512-3.7261-2.512-1.2381-3.696-.4643-8.482-.4643-8.482.7262-3.285 3.9344-3.107 3.9344-3.107 2.8988-.101 3.4166 2.328 3.4166 2.328 1.7797-2.53 4.4999-1.804 4.4999-1.804zm10.8391 3.47c.0238 1.191-.0536 3.107.8273 3.107.8036 0 .7798-.934.8036-3.107.0238-3.387 2.9524-3.387 2.9524-3.387 3.416-.184 3.827 2.822 3.827 2.822.75 3.595-.78 6.988-.78 6.988s-1.476 4.089-6.547 3.958c-5.3571-.125-6.7796-2.691-6.7796-2.691-2.119-3.107-1.0119-8.178-1.0119-8.178.7797-3.44 3.9344-2.869 3.9344-2.869s2.6964.173 2.7738 3.357zm17.8803-2.613s4.089-1.887 7.167 1.601c1.476 1.685 1.684 5.095.696 7.191-1.161 2.511-3.155 3.238-3.155 3.238-3.958 1.809-8.458.333-10.297-2.072-3.077-4.035-1.423-13.041-1.423-13.041s.572-4.476 4.137-4.167c4.429.417 2.875 7.25 2.875 7.25zm-1.041 6c.077 1.06.678 1.399 1.511 1.399.834 0 1.477-.53 1.477-1.399 0-.798-.53-1.589-1.477-1.589-.875 0-1.589.797-1.511 1.589zm15.63 6.934c-2.922.102-3.672-2.25-3.672-2.25-1.369-3.749-.102-8.41-.102-8.41.852-3.155 3.596-3.03 3.596-3.03 3.178-.184 3.827 3.054 3.827 3.054s.803 2.767-.024 7.63c-.518 3.084-3.625 3.006-3.625 3.006zm-.309-14.41c-1.762.184-3.262-.935-3.441-2.482-.154-1.524 1.113-2.952 2.845-3.131 1.709-.185 3.262.934 3.417 2.482.155 1.53-1.113 2.952-2.821 3.131z"/><defs><linearGradient id="paint0_linear" x1="83.0763" x2="83.0763" y1="158.272" y2="199.996" gradientUnits="userSpaceOnUse"><stop stop-color="#FFF5FF"/><stop offset="1" stop-color="#FFD9FF"/></linearGradient></defs></svg>