<svg xmlns="http://www.w3.org/2000/svg" viewBox="0 0 391 349">
  <path fill="#1fa6e4" d="M314.8 212.8h25V349h-25V212.8zM51.1 143.3h25V349h-25V143.3zm126 41.8h25V349h-25V185.1z"/>
  <path fill="#39b54a" d="M120.4 196.2c-16.7 9.7-36 15.3-56.7 15.3S23.6 205.9 7 196.2l31.7-36.3 49.3-.2 32.4 36.5z"/>
  <path fill="#efb670" d="M88 159.7s-22.8 17.8-24.3 17.8-25-17.7-25-17.7c4.1-.9 8.3-1.6 12.5-2.1V143h25v14.8c4 .4 7.9 1.1 11.8 1.9z"/>
  <path fill="#efb670" d="M51.1 143h25v8.8h-25V143z" opacity=".5"/>
  <circle cx="12.1" cy="105.2" r="12.1" fill="#efb670"/>
  <circle cx="115.2" cy="105.2" r="12.1" fill="#efb670"/>
  <path fill="#ffd092" d="M113.2 41v54.7a49.54 49.54 0 01-62.3 47.2 49.54 49.54 0 01-36.7-47.8V41c0-6.3 5.1-11.3 11.3-11.3H102c6.1 0 11.2 5.1 11.2 11.3z"/>
  <path fill="#3c2415" d="M64.3 119.1c-7.1 0-17-.8-20.3-8.1-.2-.5 0-1.1.5-1.3.5-.2 1.1 0 1.3.5 2.9 6.2 11.9 6.9 18.5 6.9 10.7 0 16.7-2.2 18.5-6.8.2-.5.8-.8 1.3-.6.5.2.8.8.6 1.3-2.8 7.3-13 8.1-20.4 8.1z"/>
  <path fill="#ff4d4d" d="M67.7 106.3h-6.6l3.3-15.6 3.3 15.6z"/>
  <path fill="#ffd092" d="M113.2 95.1v.6-1.3.7z"/>
  <path fill="#feb123" d="M12.1 106.3s57-15.4 81.3-63.1c0 0-1.7 11.1 4.6 19.2 0 0-2-9.4 0-13.7 0 0 5.5 31.1 14.5 55.3 0 0 11.4-49.3.8-76.1l2-5.7-10.9 2-4.9-14-1.1 11.7s-12-20-38.6-19.2c-26.7.7-61.8 20-47.7 103.6z"/>
  <path fill="#3c2415" d="M40.3 99.3v-.2c0-.2-.1-.3-.1-.7v-1.1c.1-.4.2-.9.4-1.4s.5-1 .9-1.5.9-1 1.4-1.4c.6-.4 1.2-.8 1.9-1s1.5-.3 2.2-.4c.5 0 .6 0 1.1.1.4 0 .8.2 1.1.3.7.2 1.4.6 1.9 1 .6.4 1 .9 1.4 1.4s.7 1 .9 1.5.3 1 .4 1.4c.1.4.1.8 0 1.1 0 .3-.1.5-.1.7v.2c-.1.3-.3.5-.6.4-.2 0-.3-.2-.4-.4 0 0-.1-.3-.3-.7-.1-.2-.2-.5-.4-.8l-.6-.9c-.2-.3-.5-.6-.8-.9s-.7-.5-1.1-.7c-.4-.2-.8-.4-1.3-.5-.2 0-.5-.1-.6-.1s-.6 0-.7-.1c-.5 0-.9.1-1.4.2-.4.1-.9.3-1.3.5s-.8.5-1.1.7c-.3.3-.6.6-.8.9l-.6.9c-.1.3-.3.5-.4.8-.1.2-.1.4-.2.6 0 .1-.1.2-.1.2-.1.3-.4.4-.6.3.1-.1-.1-.2-.1-.4zm34.8 0v-.2c0-.2-.1-.3-.1-.7v-1.1c.1-.4.2-.9.4-1.4.2-.5.5-1 .9-1.5s.9-1 1.4-1.4c.6-.4 1.2-.8 1.9-1 .7-.2 1.5-.3 2.2-.4.5 0 .6 0 1.1.1.4 0 .8.2 1.1.3.7.2 1.4.6 1.9 1 .6.4 1 .9 1.4 1.4s.7 1 .9 1.5c.2.5.3 1 .4 1.4s.1.8 0 1.1c0 .3-.1.5-.1.7v.2c-.1.3-.3.5-.6.4-.2 0-.3-.2-.4-.4 0 0-.1-.3-.3-.7-.1-.2-.2-.5-.4-.8l-.6-.9c-.2-.3-.5-.6-.8-.9s-.7-.5-1.1-.7-.8-.4-1.3-.5c-.2 0-.5-.1-.6-.1s-.6 0-.7-.1c-.5 0-.9.1-1.4.2-.4.1-.9.3-1.3.5s-.8.5-1.1.7c-.3.3-.6.6-.8.9l-.6.9c-.1.3-.3.5-.4.8-.1.2-.1.4-.2.6 0 .1-.1.2-.1.2-.1.3-.4.4-.6.3 0-.1-.1-.2-.1-.4z"/>
  <path fill="#ef4136" d="M263 221a111.8 111.8 0 01-73.4 27.2c-28 0-53.7-10.3-73.4-27.2 10.6-9.1 22.9-16.3 36.4-21 .8-.3 1.7-.6 2.5-.8l1.1-.3c.5-.2 1-.3 1.5-.5.5-.1 1-.3 1.4-.4l2.2-.6h.1c.7-.2 1.4-.3 2-.5.1 0 .2-.1.3-.1.7-.2 1.4-.3 2.1-.5h.1c.7-.1 1.4-.3 2.1-.4.7-.1 1.5-.3 2.2-.4.1 0 .2 0 .3-.1l1.9-.3c.6-.1 1.1-.2 1.7-.2.4-.1.7-.1 1.1-.1.5-.1 1.1-.1 1.6-.2 4.1-.5 8.3-.7 12.5-.7s8.4.2 12.5.7c.5.1 1.1.1 1.6.2.4 0 .7.1 1.1.1.6.1 1.2.2 1.7.2.7.1 1.3.2 1.9.3.1 0 .2 0 .3.1.7.1 1.5.3 2.2.4.7.1 1.4.3 2.1.4h.1c.7.2 1.4.3 2.1.5.1 0 .2 0 .3.1.7.2 1.4.3 2 .5h.1l2.2.6c.5.1 1 .3 1.4.4.5.1 1 .3 1.5.5l1.1.3c.9.3 1.7.6 2.5.8 14.1 4.7 26.4 11.9 37 21z"/>
  <path fill="#efb670" d="M207.2 194.9l-17.6 13.8-17.6-13.8c1.1 0 2.6-.1 5.1-.4v-14.8h25v14.8c2.5.3 4 .4 5.1.4z"/>
  <path fill="#efb670" d="M177.1 179.7h25v8.8h-25v-8.8z" opacity=".5"/>
  <path fill="#ffd092" d="M239.1 77.8v90.6c0 6.3-5.1 11.3-11.3 11.3h-76.5c-6.3 0-11.3-5.1-11.3-11.3V77.8c0-6.3 5.1-11.3 11.3-11.3h76.5c6.3 0 11.3 5 11.3 11.3z"/>
  <path fill="#3c2415" d="M189.5 153.1c-8.9 0-21.3-1-25.5-10.1-.2-.5 0-1.1.5-1.3.5-.2 1.1 0 1.3.5 3.8 8 15.3 8.9 23.7 8.9 8.7 0 20.7-.9 23.7-8.9.2-.5.8-.8 1.3-.6.5.2.8.8.6 1.3-3.5 9.1-16.3 10.2-25.6 10.2z"/>
  <path fill="#efb670" d="M253.2 142c0 6.7-5.3 12.1-11.8 12.1-.8 0-1.5-.1-2.3-.2v-23.8c.7-.1 1.5-.2 2.3-.2 6.5 0 11.8 5.4 11.8 12.1zM140 130.1v23.8c-.7.1-1.5.2-2.3.2-6.5 0-11.8-5.4-11.8-12.1 0-6.7 5.3-12.1 11.8-12.1.8 0 1.6 0 2.3.2z"/>
  <path fill="#ff4d4d" d="M193.6 132c0 4.6-1.8 6.2-4 6.2s-4-1.6-4-6.2 1.8-10.6 4-10.6 4 6 4 10.6z"/>
  <path fill="#f77046" d="M236 61.3s-9.6-10.8-27-14.8c4.4 4.8 5.1 9 5.1 9-34.1-12.4-54.9-2.1-58.1-.3-.2.1-.3.2-.3.2s-.1 0-.1.1c-17 10.2-27.6 29.8-15.6 67.6v45.3c0 6.3 5.1 11.3 11.3 11.3h76.5c6.3 0 11.3-5.1 11.3-11.3V120s13.4-40.6-3.1-58.7zm-26.4 106.1c-20.1 0-15.3-8.4-15.3-8.4h-9.4s4.8 8.4-15.3 8.4c-22.5 0-24.9-32-24.9-45.1 5.6-1.1 8.8-3.6 21.3-16.1 10.3-10.2 34.9-7.5 48.1-22 0 0 5.9 25.1 20.3 35.6.3 10.9-.7 47.6-24.8 47.6z"/>
  <path fill="#be1e2d" d="M159.4 200l4.4-11.5 25.8 20.2-15.1 12.3-15.1-21z"/>
  <path fill="#be1e2d" d="M219.7 200l-4.3-11.5-25.8 20.2 15.1 12.3 15-21z"/>
  <path fill="#f77046" d="M188.8 147.4h-14s2.7-3.8 14-3.3v3.3zm1.5 0h14s-2.7-3.8-14-3.3v3.3z"/>
  <path fill="#7e5329" d="M155.7 55.4l-.1.1s.1 0 .1-.1z"/>
  <ellipse cx="172.1" cy="128.3" fill="#3c2415" rx="3.5" ry="4.4"/>
  <ellipse cx="207.1" cy="128.3" fill="#3c2415" rx="3.5" ry="4.4"/>
  <path fill="#5b2900" d="M378.2 152.3H275.8l-3 71.9h108.4l-3-71.9z"/>
  <path fill="#fff380" d="M384 265.9c-16.7 9.7-36 15.3-56.7 15.3s-40.1-5.6-56.7-15.3l14.7-28.8 17-7.5 49.3-.2 16.2 6.9 16.2 29.6z"/>
  <path fill="#efb670" d="M327.3 247.3s-14.7 10.8-22.9-3.2c-4.9-8.5-2.2-14.5-2.2-14.5l25.1 17.7z" opacity=".5"/>
  <path fill="#efb670" d="M327 247.3s14.7 10.8 22.9-3.2c4.9-8.5 2.2-14.5 2.2-14.5L327 247.3z" opacity=".5"/>
  <path fill="#efb670" d="M351.7 229.5s-22.8 17.8-24.3 17.8-25-17.7-25-17.7c4.1-.9 8.3-1.6 12.5-2.1v-14.8h25v14.8c4 .5 7.9 1.1 11.8 2z"/>
  <path fill="#efb670" d="M314.8 212.8h25v8.8h-25v-8.8z" opacity=".5"/>
  <circle cx="275.8" cy="175" r="12.1" fill="#efb670"/>
  <circle cx="378.9" cy="175" r="12.1" fill="#efb670"/>
  <path fill="#ffd092" d="M376.9 110.8v54.7a49.54 49.54 0 01-62.3 47.2 49.54 49.54 0 01-36.7-47.8v-54.1c0-6.3 5.1-11.3 11.3-11.3h76.5c6.1 0 11.2 5.1 11.2 11.3z"/>
  <path fill="#ff4d4d" d="M324.7 162.9h5.4V175h-5.4v-12.1z"/>
  <path fill="#602b00" d="M374.7 181.3s-1.6-7-4.5-16.8c-3.1-10.4-5.5-24-2.1-35.5 0 0-12.9 1.7-16.1-14.5-27.1 27-65 14.5-65 14.5 3.4 11.5 1 25.2-2.2 35.7-2.9 9.7-4.4 16.6-4.4 16.6-1.6-4.9-7.5-52.3-7.5-52.3v-.3c.1-19.9 10.9-37.3 26.9-46.7 0-.3.1-.5.2-.8a54.65 54.65 0 0154.9 0c.1.3.1.5.2.8 16 9.4 26.8 26.8 26.9 46.7-.1.1-5.7 47.7-7.3 52.6z"/>
  <path fill="#3c2415" d="M327.3 186.7c-7.6 0-16.7-.9-20.1-8-.2-.5 0-1.1.5-1.3.5-.2 1.1 0 1.3.5 2.9 6.1 11.3 6.8 18.3 6.8 6.8 0 16-.7 18.3-6.8.2-.5.8-.8 1.3-.6.5.2.8.8.6 1.3-2.8 7.3-12.8 8.1-20.2 8.1z"/>
  <path fill="#ffd092" d="M376.9 164.9v.6-1.3.7z"/>
  <path fill="#3c2415" d="M304 169.1v-.2c0-.2-.1-.3-.1-.7v-1.1c.1-.4.2-.9.4-1.4.2-.5.5-1 .9-1.5s.9-1 1.4-1.4c.6-.4 1.2-.8 1.9-1l1.1-.3c.2 0 .4-.1.6-.1h.6c.5 0 1.5.1 2.1.4.7.2 1.4.6 1.9 1 .6.4 1 .9 1.4 1.4s.7 1 .9 1.5c.2.5.3 1 .4 1.4s.1.8 0 1.1c0 .3-.1.5-.1.7v.2c-.1.3-.3.5-.6.4-.2 0-.3-.2-.4-.4 0 0-.1-.3-.3-.7-.1-.2-.2-.5-.4-.8l-.6-.9c-.2-.3-.5-.6-.8-.9-.3-.3-.7-.5-1.1-.7s-.8-.4-1.3-.5-.7-.2-1.4-.2h.1-.6c-.2 0-.5.1-.7.1-.4.1-.9.3-1.3.5s-.8.5-1.1.7c-.3.3-.6.6-.8.9l-.6.9c-.1.3-.3.5-.4.8-.1.2-.1.4-.2.6 0 .1-.1.2-.1.2-.1.3-.4.4-.6.3-.1 0-.2-.1-.2-.3zm34.7 0v-.2c0-.2-.1-.3-.1-.7v-1.1c.1-.4.2-.9.4-1.4.2-.5.5-1 .9-1.5s.9-1 1.4-1.4c.6-.4 1.2-.8 1.9-1 .7-.2 1.5-.3 2.2-.4.5 0 .6 0 1.1.1.4 0 .8.2 1.1.3.7.2 1.4.6 1.9 1 .6.4 1 .9 1.4 1.4s.7 1 .9 1.5c.2.5.3 1 .4 1.4s.1.8 0 1.1c0 .3-.1.5-.1.7v.2c-.1.3-.3.5-.6.4-.2 0-.3-.2-.4-.4 0 0-.1-.3-.3-.7-.1-.2-.2-.5-.4-.8l-.6-.9c-.2-.3-.5-.6-.8-.9-.3-.3-.7-.5-1.1-.7s-.8-.4-1.3-.5c-.2 0-.5-.1-.6-.1s-.6 0-.7-.1c-.5 0-.9.1-1.4.2-.4.1-.9.3-1.3.5s-.8.5-1.1.7c-.3.3-.6.6-.8.9l-.6.9c-.1.3-.3.5-.4.8-.1.2-.1.4-.2.6 0 .1-.1.2-.1.2-.1.3-.4.4-.6.3.1-.1 0-.2-.1-.4z"/>
</svg>
