<svg xmlns="http://www.w3.org/2000/svg" fill="none" viewBox="0 0 273 166">
  <ellipse cx="136.3" cy="153.3" fill="#29273F" fill-opacity=".3" rx="136.3" ry="6.7"/>
  <path fill="#F3F2FF" d="M50.6 49.1L129.2 2c4.4-2.5 9.8-2.5 14.1 0l78.6 47.2v77l-171.3-8.7V49.1z"/>
  <path fill="url(#paint0_linear)" d="M50.6 49.1L129.2 2c4.4-2.5 9.8-2.5 14.1 0l78.6 47.2v77l-171.3-8.7V49.1z"/>
  <g clip-path="url(#clip0)">
    <path fill="#fff" d="M144.7 82.8l19-26.8-5-3.9L140 71l4.8 11.9z"/>
    <path fill="#E6E6EF" d="M162 56h1.7l-18.4 25.9-1.5-2.8c5-6 5.7-6.7 18.2-23.1z"/>
    <path fill="#fff" d="M128 70.8L109 52l-4.9 3.9 19.1 26.8 4.8-11.9z"/>
    <path fill="#E6E6EF" d="M105.8 55.9c12.6 16.4 13.3 17 18.3 23l-1.6 2.9-18.4-26h1.7z"/>
    <path fill="#FFDDBA" d="M95.6 49.6s-.7 2 2.2 4c3.3 2.5 3.4 1 4 1.3 4.9 3 7.6-3.3 7.6-3.3s3-5.5 2-7.1c-.5-.8-4 .9-4 .9s.3-1.6-1.9-4.8c-1.1-1.6-3 2.2-3 2.2s-4.3 0-5.5 1c-.7.8.7 4.5.7 4.5l-2 1.3z"/>
    <path fill="#FFC19B" d="M96.2 49.3c.4-.2.5 1.6 2 2.7a7 7 0 004.7 1.6c1.6 0 4.2-3.6 4.2-3.6s2-1.8 2.9-5.6l.6-.1c.8-.1.9.4 1 .5.1.7-.2 3.7-2.7 7.8-3.4 5-7.4 2.5-7.4 2.5h-1.2c-1-.3-2.6-1.5-2.9-1.7a5 5 0 01-1.7-2.4c-.4-1.3.1-1.6.5-1.7z"/>
    <path fill="#FFC19B" d="M99.6 48.1s2.8.7 4.3-1.7c.5-.6 1.2 1.6-.1 2.3-1.4.8-3.2.5-4.2-.6zm-2.3-4.5c-.2 1.2 0 2.7.7 3.7.8 1-.5.5-.5.5s-1-2.8-.6-3.8c.2-.3 0-.2.4-.4z"/>
    <path fill="#FFDDBA" d="M170.2 48.4s1.4-3.7.7-4.4c-1.2-1.1-5.5-1-5.5-1s-1.9-3.8-3-2.2c-2.3 3.1-2 4.7-2 4.7s-3.4-1.6-3.9-.9c-1 1.6 2 7.1 2 7.1s2.7 6.3 7.6 3.4c.6-.4.6 1.1 4-1.3 2.8-2 2.2-4 2.2-4l-2.1-1.4z"/>
    <path fill="#FFC19B" d="M171.7 49.4c.4.2.9.4.5 1.7a5 5 0 01-1.8 2.4c-.3.2-1.8 1.4-2.8 1.7-1 .2-1.2 0-1.2 0s-4 2.4-7.4-2.5c-2.5-4-2.9-7-2.7-7.7 0-.2.1-.7 1-.6l.6.1c1 3.9 2.8 5.6 2.8 5.6s2.7 3.5 4.3 3.6a7 7 0 004.6-1.6c1.5-1 1.7-2.9 2-2.7z"/>
    <path fill="#FFC19B" d="M164 48.8c-1.3-.7-.5-2.8 0-2.3 1.5 2.5 4.3 1.7 4.3 1.7-1 1.2-2.9 1.4-4.2.6zm7-4.7c.4 1-.6 3.8-.6 3.8s-1.4.5-.6-.5c.9-1 1-2.5.7-3.7.4.2.3 0 .4.4z"/>
    <path fill="#6864FF" d="M146.5 86.1l-2-6.1 2 6.1zM120.9 108.4c1.6-1.8 2.2-4 3-6.4.7-2.7 1.5-5.8 3.9-8.3 2.3-2.5 5.2-3.4 7.7-4.2 2.3-.7 4.4-1.3 6-3.1a14 14 0 003-6.4l-2.3-7-.4 1.2c-.7 2.7-1.6 5.7-4 8.3-2.3 2.5-5.2 3.4-7.7 4.2-2.3.7-4.4 1.3-6 3.1-1.7 1.8-2.3 4-3 6.4-.6 2.4-1.4 5.1-3.2 7.5l-1 4c-.3 1-.1 2.2.3 3a9.4 9.4 0 003.7-2.3z"/>
    <path fill="#6864FF" d="M134.2 100.6c2.4-2.5 5.2-3.4 7.8-4.2 2.3-.7 4.3-1.4 6-3.1l.6-.8-2-6.4h-.1a13 13 0 01-2.2 3.2c-2.4 2.6-5.2 3.4-7.7 4.2-2.4.8-4.4 1.4-6 3.2-1.7 1.7-2.3 4-3 6.4-.8 2.7-1.6 5.7-4 8.2l-1.5 1.4h6.9c.5-1.1.9-2.5 1.3-3.9.7-2.6 1.5-5.7 4-8.2zM120.4 112.7h1.7-1.7zM128.6 72.6c1.4-1.4 2-3.2 2.6-5.1-1 .1-1.9.4-2.9.8s-2 1.4-2.3 2.7l-1 4a9.3 9.3 0 003.6-2.4zM135 79.5c1.7-1.8 2.3-4 3-6.4.4-1.5.9-3 1.6-4.6l-.4-.2c-1-.4-2.3-.8-3.9-1-.7 2.7-1.6 5.8-4 8.3a16 16 0 01-7.4 4.1l-1.6 6.2a18 18 0 016.7-3.2c2.4-.8 4.4-1.4 6-3.2z"/>
    <path fill="#6864FF" d="M153.6 107.5L150 96.9c-2.3 2-4.8 2.8-7 3.5-2.4.8-4.4 1.4-6.1 3.2-1.7 1.7-2.3 4-3 6.4l-.8 2.7h17c2.5.1 4.2-2.6 3.4-5.2zM135.3 67.4zM141.4 70.7l.7 2.3-.7-2.3c-.3-1-1-1.8-1.8-2.2.8.4 1.5 1.2 1.8 2.2z"/>
    <path fill="#6864FF" d="M150 97l-1.4-4.5 1.5 4.4z"/>
    <path fill="#584AFA" d="M125 75l-1.2 4.7 1.2-4.8zM131.2 67.5zM129 112.7h4.2-4.2zM117.2 110.7c.6 1.2 1.8 2 3.2 2-1.4 0-2.6-.8-3.2-2zM122.3 86l-4.5 17.7 4.5-17.8zM137 103.6c1.7-1.8 3.7-2.4 6-3.2 2.3-.7 4.8-1.5 7-3.5l-1.4-4.4-.6.8a12.7 12.7 0 01-6 3.1c-2.6.8-5.4 1.7-7.8 4.2-2.4 2.5-3.2 5.6-4 8.2-.3 1.4-.7 2.7-1.2 4h4.2l.8-2.8c.7-2.5 1.3-4.7 3-6.4zM131.4 75.6c2.3-2.6 3.2-5.6 4-8.2a15 15 0 00-4.2 0 12 12 0 01-2.6 5.2 9.4 9.4 0 01-3.5 2.3l-1.2 4.8a16 16 0 007.5-4.1z"/>
    <path fill="#584AFA" d="M124 89.8c1.7-1.8 3.8-2.4 6.1-3.1 2.5-.8 5.4-1.7 7.8-4.2 2.3-2.6 3.2-5.6 3.9-8.3l.3-1.2-.7-2.3c-.3-1-1-1.8-1.8-2.2A30 30 0 00138 73c-.7 2.5-1.3 4.6-3 6.4a12.7 12.7 0 01-6 3.1c-2.1.7-4.5 1.5-6.7 3.3l-4.4 17.8c1.8-2.4 2.6-5 3.2-7.5.7-2.5 1.3-4.6 3-6.4zM123.6 111.3c2.4-2.5 3.2-5.5 4-8.2.7-2.5 1.3-4.7 3-6.4 1.6-1.8 3.6-2.4 6-3.2 2.5-.8 5.3-1.6 7.7-4.2 1-1 1.7-2 2.2-3.2l-2-6a14 14 0 01-3 6.3 12.7 12.7 0 01-6 3.1c-2.5.8-5.4 1.7-7.7 4.2-2.4 2.6-3.2 5.6-4 8.3-.7 2.5-1.3 4.6-3 6.4a9.4 9.4 0 01-3.6 2.3c.6 1.2 1.8 2 3.2 2h1.7l1.5-1.4z"/>
    <path fill="#FFC19B" d="M133.7 64.3a21.5 21.5 0 100-43 21.5 21.5 0 000 43z"/>
    <path fill="#FFDDBA" d="M132.5 63.3c9.8 0 17.7-8.6 17.7-19.2s-8-19.2-17.7-19.2-17.7 8.6-17.7 19.2 8 19.2 17.7 19.2z"/>
    <path fill="#562B48" d="M125.6 54.8H141s-1.2 6.2-7.8 6.2-7.7-6.2-7.7-6.2z"/>
    <path fill="#FF6C6C" d="M139 58.7c-5-3.7-10.9-1-11.6-.3a7.4 7.4 0 003 2.2c.8.3 1.8.4 3 .4 2.5 0 4.2-1 5.4-2l.2-.3z"/>
    <path fill="#EBA090" d="M120.2 54.2c1.5 0 2.8-.8 2.8-1.7 0-1-1.3-1.8-2.8-1.8-1.6 0-2.8.8-2.8 1.8s1.2 1.7 2.8 1.7zM146 54.2c1.6 0 2.9-.8 2.9-1.7 0-1-1.3-1.8-2.8-1.8-1.6 0-2.9.8-2.9 1.8s1.3 1.7 2.9 1.7z"/>
    <path fill="#B52847" d="M151.8 38.2a10 10 0 100-20 10 10 0 000 20z"/>
    <path fill="#CC2E49" d="M151.7 18.2a10 10 0 00-7.4 16.7A10 10 0 00157 19.8a10 10 0 00-5.3-1.6z"/>
    <path fill="#B52847" d="M114.2 37.6a10 10 0 100-20 10 10 0 000 20z"/>
    <path fill="#CC2E49" d="M114 17.4a10 10 0 00-8.2 15.7 10 10 0 0014.5-13.5 10 10 0 00-6.3-2.2z"/>
    <path fill="#E23359" d="M110.4 27.6a3.8 3.8 0 100-7.7 3.8 3.8 0 000 7.7zM152.4 27.3a3.8 3.8 0 100-7.7 3.8 3.8 0 000 7.7z"/>
    <path fill="#B52847" d="M155.4 41.2c.6 17-15.5 22.6-13.2 21.3 6.6-3.8 8.6-9.4 9.3-14.4.1-.8-.4-.5-4-2.5-7-5-5.5-11-5.7-10.4-.2.7-2.4 4.2-8.8 6.6-.7.3-1.5.5-2.2.6-14.4 2.4-14.6 5.7-15 7.8-3.4 4.1 8.5 12 8.5 12s-15.4-7.5-13.3-22c2.9-19.4 22.3-19.8 22.3-19.8 10.4 0 21.6 7.2 22 20.8z"/>
    <path fill="#CC2E49" d="M143 32.5s-5.2 6.3-12 9c-4.8 2-8.7 0-13.4 3.7-3.2 2-3.4 7.7-3.4 7.7s-6-9-1.3-18c2.4-4.5 3-7.1 9.2-11.2 5-3.3 10.6-4.4 17.7-2.7 7 1.7 11.5 8.8 12.4 10.9.9 2 3.1 7 1 15-2 8.2 1-1.4-1.5-2.5-2.5-1.2-4.8-1.3-7-3.6-2.3-2.4-1.7-8.3-1.7-8.3z"/>
    <path fill="#E23359" d="M136.2 21.5c-4.8-2.4-10.5-.3-14.1 2.2-4.7 3-10.3 10.2-10.5 17.3 0 4 1 7 1 7s3.6-4.4 9.7-7c3.8-1.5 8.1-1.3 12.6-3.5 2-1 5.6-4.3 5.6-4.3s.7-9.3-4.3-11.7z"/>
    <path fill="#562B48" d="M140.8 47.4c1.3-.3 2.6.6 3.1 1.9.3.7 1 .9 1.4.7.5-.2 1-.6.8-1.4a4.7 4.7 0 00-2.3-2.8 4.6 4.6 0 00-3.5-.5c-2.5.8-3.1 3.3-2.6 5.5 0 .1.2 0 .2 0l.2-.1c0-.7.2-1.5.8-2.1.5-.7 1.2-1 1.9-1.2zM128 50.7l.3-.1c.6-2.2 0-4.7-2.6-5.5a4.8 4.8 0 00-5.8 3.2c-.2.8.3 1.3.8 1.5.5.1 1.1 0 1.4-.7.5-1.3 1.8-2.2 3.1-2 .7.2 1.4.7 2 1.3.5.7.7 1.4.7 2 0 .3.2.3.2.3z"/>
    <path fill="#fff" d="M133.3 19.2c-3.3 0-6.4-.3-8.8-.8-1.2-.2-2.2-.5-2.9-.9-.4-.2-.8-.4-1-.7a2 2 0 01-.6-1.4c0-.4 0-.9.6-1.4.2-.3.6-.5 1-.7.7-.4 1.7-.7 2.9-1a46 46 0 0120.4 1c.5.2.8.5 1 .7.6.5.7 1 .7 1.4 0 .4-.1.9-.6 1.4l-1 .7c-.8.4-1.7.7-3 1-2.3.4-5.4.7-8.7.7zM123 15.4a46 46 0 0020.4 0l-2.7-.7a45.9 45.9 0 00-17.7.7z"/>
    <path fill="#FFC19B" d="M131.5 64.2h3.9v4.6h-3.9v-4.6z"/>
    <path fill="#FFC19B" d="M133.5 69.6c1.4 0 2.6-.3 2.6-.6 0-.4-1.2-.7-2.6-.7-1.5 0-2.7.3-2.7.7 0 .3 1.2.6 2.7.6z"/>
  </g>
  <g filter="url(#filter0_d)">
    <path fill="#F3F2FF" d="M222 49v102.7H50.5V49l85.7 51.4L221.9 49z"/>
  </g>
  <path fill="#fff" d="M50.6 151.7L129 95.3c4.3-3 10-3 14.4 0l78.4 56.4H50.6z"/>
  <defs>
    <linearGradient id="paint0_linear" x1="136.3" x2="136.3" y1="0" y2="126" gradientUnits="userSpaceOnUse">
      <stop stop-color="#A7A3D4"/>
      <stop offset="1" stop-color="#3D33A8" stop-opacity=".1"/>
    </linearGradient>
    <clipPath id="clip0">
      <path fill="#fff" d="M0 0h106.8v101.2H0z" transform="translate(83.1 11.6)"/>
    </clipPath>
    <filter id="filter0_d" width="199.4" height="130.8" x="36.6" y="34.9" color-interpolation-filters="sRGB" filterUnits="userSpaceOnUse">
      <feFlood flood-opacity="0" result="BackgroundImageFix"/>
      <feColorMatrix in="SourceAlpha" values="0 0 0 0 0 0 0 0 0 0 0 0 0 0 0 0 0 0 127 0"/>
      <feOffset/>
      <feGaussianBlur stdDeviation="7"/>
      <feColorMatrix values="0 0 0 0 0.0901961 0 0 0 0 0.0666667 0 0 0 0 0.168627 0 0 0 0.2 0"/>
      <feBlend in2="BackgroundImageFix" result="effect1_dropShadow"/>
      <feBlend in="SourceGraphic" in2="effect1_dropShadow" result="shape"/>
    </filter>
  </defs>
</svg>
