<svg xmlns="http://www.w3.org/2000/svg" viewBox="0 0 6527 1467.4">
  <path fill="none" d="M5466.6 898.2c-33.5.1-62.1 24.5-70.2 53.8 8 38.7 34.8 51.6 70.2 51.6 33.6 0 60.7-18 68.3-48.6-7-30.6-30.8-56.8-68.3-56.8zM3126 822.6c-35.6.1-66.3 26.5-74.6 57.8 8.1 41.9 36.7 55.9 74.6 55.9 35.9 0 64.8-19.4 72.6-52.5-7.1-32.8-32.4-61.2-72.6-61.2z"/>
  <circle cx="790.9" cy="788" r="506.5" fill="#ffc19b"/>
  <ellipse cx="763.6" cy="820.8" fill="#ffddba" rx="416" ry="450.4"/>
  <path fill="#562b48" d="M600.4 1071.5h365.4s-28.9 147.1-183.3 147.1-182.1-147.1-182.1-147.1z"/>
  <path fill="#ff6c6c" d="M916.3 1163.1c-116.5-85.4-256.3-25.1-273.3-5.9a173 173 0 0032.7 30.1c10.9 6.8 24 13.9 38.6 20.1 19.4 7.1 42 11.3 68.3 11.3 60.1 0 101.1-22.3 128.9-49.5 1.5-2 3.1-4.1 4.8-6.1z"/>
  <ellipse cx="473" cy="1017.1" fill="#eba090" rx="66.3" ry="41"/>
  <ellipse cx="1082.6" cy="1017.1" fill="#eba090" rx="66.3" ry="41"/>
  <circle cx="1217.8" cy="446.8" r="235.2" fill="#b52847"/>
  <path fill="#cc2e49" d="M1216.6 212.8c-129.9 0-235.2 105.3-235.2 235.2 0 59.6 22.2 114.1 58.8 155.6 35.9 22.2 78.1 35 123.4 35 129.9 0 235.2-105.3 235.2-235.2 0-59.6-22.2-114.1-58.8-155.6-35.9-22.2-78.2-35-123.4-35z"/>
  <circle cx="332.7" cy="433.5" r="235.2" fill="#b52847"/>
  <path fill="#cc2e49" d="M326.7 193.5c-129.9 0-235.2 105.3-235.2 235.2 0 49.8 15.5 96 41.9 134A233.9 233.9 0 00282 615.6c129.9 0 235.2-105.3 235.2-235.2 0-49.8-15.5-96-41.9-134a234.3 234.3 0 00-148.6-52.9z"/>
  <circle cx="242.2" cy="343.1" r="90.4" fill="#e23359"/>
  <circle cx="1231.1" cy="334.6" r="90.4" fill="#e23359"/>
  <path fill="#b52847" d="M1301.9 752.9C1315.8 1150 937.7 1284 992 1252.7c155.9-89.8 203.2-220.9 218.6-338 2.5-19.5-8.6-11.8-93.7-59.1C953.2 738.1 986.6 595.3 982.7 612c-4 16.7-57.1 98.5-208.1 155.5-16.9 6.4-34.5 11.1-52.3 14.1-337.7 56.6-343.2 132.2-353.4 181.3-79.5 98.2 201.5 284.8 201.5 284.8S208.5 1069.6 258 729.3c66.5-455.6 524.6-465.2 524.6-465.2 243.6-.2 508.2 168.6 519.3 488.8z"/>
  <path fill="#cc2e49" d="M1010 546.9S888.9 696.6 729.4 760.7c-114.7 46.1-205.4-1.3-317.5 86.7-74.8 45.1-79.2 179.7-79.2 179.7s-142.3-209.5-30.5-422.3c56.1-106.7 69.2-167.6 216.2-264.1 115.8-76 250.8-102.5 416-62.7s272.5 207.4 293 255.7c20.5 48.2 73.6 162.8 24.1 354.5s21.7-35-36.2-61.5c-57.9-26.5-112.1-28.9-165.2-84.4-53-55.6-40.1-195.4-40.1-195.4z"/>
  <path fill="#e23359" d="M850.8 289.1c-113.8-55.2-246.5-5.9-332.6 51.5C408.9 413.5 275.3 581.3 272 747.1c-1.9 95.9 21.7 165.7 21.7 165.7S378.9 808.4 521.9 750c91.7-37.4 191.8-32.5 297.9-84.4 47.6-23.2 132.7-100.1 132.7-100.1s15.7-219.4-101.7-276.4z"/>
  <path fill="#562b48" d="M958.4 897.6c30.3-5.6 62.5 14 73.5 44.8 5.9 16.7 21.4 20.4 33.2 16.7 12.1-3.8 22.3-15.3 17.7-32.5-7.6-27.9-27.1-52.4-53.7-67.1-16.8-9.3-34.9-14.1-52.9-14.1-9.8 0-19.6 1.4-29 4.3-60.3 18.3-74.4 77-61.6 127.1 1 3.7 5.1 3.1 5.5 3 .7-.1 4.4-1 4.1-4.8-1.2-15.8 5.5-33.7 18.4-49.1 12.7-15 29-25.3 44.8-28.3zM659.1 975.6c.7.1 4.4.5 5.4-3.1 13.1-50.1-.6-108.9-60.9-127.4-26.7-8.2-55.8-4.9-81.9 9.3-26.7 14.6-46.4 39-54.2 66.9-4.8 17.2 5.3 28.8 17.5 32.7 11.8 3.8 27.3.2 33.3-16.5 11.1-30.8 43.5-50.3 73.7-44.4 15.9 3.1 32.2 13.5 44.7 28.5 12.9 15.4 19.5 33.3 18.1 49.2-.3 3.9 3.9 4.7 4.3 4.8z"/>
  <path fill="#fff" d="M781.5 234.9c-77.8 0-151.2-6.4-206.8-17.9-28.5-5.9-51.3-13-67.8-21.2-10.4-5.1-18.4-10.6-24.6-16.9-11.8-12-14.2-24.3-14.2-32.6s2.5-20.6 14.2-32.6c6.1-6.2 14.2-11.8 24.6-16.9 16.5-8.1 39.4-15.2 67.8-21.2 55.5-11.5 129-17.9 206.8-17.9s151.2 6.4 206.8 17.9c28.5 5.9 51.3 13 67.8 21.2 10.4 5.1 18.4 10.6 24.6 16.9 11.8 12 14.2 24.3 14.2 32.6s-2.5 20.6-14.2 32.6c-6.1 6.2-14.2 11.8-24.6 16.9-16.5 8.1-39.4 15.2-67.8 21.2-55.6 11.5-129.1 17.9-206.8 17.9zm-240.6-88.5c11.9 4.7 31.7 10.7 63.9 16.3 49.2 8.5 112 13.2 176.6 13.2s127.4-4.7 176.6-13.2c32.3-5.6 52.1-11.6 63.9-16.3-11.9-4.7-31.7-10.7-63.9-16.3-49.2-8.5-112-13.2-176.6-13.2-64.7 0-127.4 4.7-176.6 13.2-32.3 5.6-52 11.6-63.9 16.3zm497.7 9.1zM2149.9 473.8c8-27.7 104.1-156.1 175.6-217.7 178.8-98.9 259.9 26 259.9 26 159.3 219.7-194.9 423-194.9 423 409.6 363.5 230.6 543.6 230.6 543.6-289.2 173.9-490.6-300.4-500.3-323.1 1.6 13.1 56.8 318.3-157.7 358.9-242.2 47.2-297.5-245.4-297.5-245.4s-63.5-258.5-11.4-590c52-334.9 263.3-328.3 263.3-328.3 294-8.1 240.6 297.8 232.4 353zm1310.2 670.6s14 89.1-90.4 131.1c0 0-190.9 66.1-397.3-17.9 0 0-183.4-71.3-174.4-308.2 0 0 0-244.4 211.3-320.8 0 0 224.1-77.7 387.1 67.5 0 0 70.1 61.1 71.3 178.2 1.2 131.1-133.7 166.7-252 143.9 97.9 79 229.2 7.7 244.4 126.2zm-383.5-260.2c4 55.1 35.5 72.8 78.8 72.8 43.4 0 76.9-27.5 76.9-72.8 0-41.3-27.5-82.8-76.9-82.8-45.4.1-82.9 41.5-78.8 82.8zm1054.1-264.1c103.1 26.7 121 112 122.2 156.5 3.8 109.5-76.3 154-76.3 154-106.8 62.3-220.3-24.2-220.3-24.2 55.9 410-202.5 381.8-202.5 381.8-143.9 3.8-183.4-123.5-183.4-123.5-61-182-22.9-417.5-22.9-417.5 35.6-161.7 193.5-152.8 193.5-152.8 142.6-5 168 114.6 168 114.6 87.9-124.6 221.7-88.9 221.7-88.9zm533.4 170.6c1.2 58.6-2.6 152.8 40.7 152.8 39.5 0 38.2-45.8 39.5-152.8C4745.5 624 4889.4 624 4889.4 624c168-9 188.4 138.8 188.4 138.8 36.9 176.9-38.2 343.7-38.2 343.7s-72.6 201.1-322.2 194.8c-263.6-6.3-333.6-132.5-333.6-132.5-104.4-152.8-49.7-402.3-49.7-402.3 38.3-169.4 193.6-141.3 193.6-141.3s132.6 8.8 136.4 165.5zm879.8-128.5s201.1-92.9 352.7 78.9c72.6 82.8 82.8 250.8 34.4 353.9-57.2 123.5-155.3 159.2-155.3 159.2-194.8 89.1-416.2 16.5-506.6-101.8-151.5-198.6-70.1-641.6-70.1-641.6s28-220.3 203.7-204.9c217.5 20.2 141.2 356.3 141.2 356.3zm-51.4 295.3c3.7 52.1 33.5 68.9 74.5 68.9s72.6-26.1 72.6-68.9c0-39.2-26.1-78.2-72.6-78.2-43 0-78.3 39.1-74.5 78.2zm769.3 341.1c-143.9 5-180.7-110.8-180.7-110.8-67.5-184.6-5-413.8-5-413.8C6118 618.7 6253 625 6253 625c156.5-9 188.4 150.2 188.4 150.2s39.5 136.2-1.2 375.6c-25.6 151.7-178.4 147.8-178.4 147.8zm-15.4-709.1c-86.5 9-160.4-45.8-169.4-122.2-7.7-75.1 54.7-145.2 140-154 84.1-9 160.4 45.8 168 122.2 8 75.2-54.5 145.2-138.6 154z"/>
</svg>
