<svg xmlns="http://www.w3.org/2000/svg" fill="none" viewBox="0 0 212 176"><g clip-path="url(#clip0)"><path fill="#fff" d="M90.0193 35.3467L52.2654 88.2818l9.8009 7.6161 37.3966-37.1311-9.4436-23.4201z"/><path fill="#E6E6EF" d="M55.6037 88.3125l-3.3486-.0306L88.692 37.1027l3.0424 5.5947c-9.8928 11.9142-11.2405 13.0679-36.1307 45.6151z"/><path fill="#fff" d="M123.128 59.0016l37.397 37.1312 9.801-7.6161-37.754-52.9352-9.444 23.4201z"/><path fill="#E6E6EF" d="M166.977 88.5474c-24.89-32.5473-26.238-33.7009-36.13-45.6152l3.042-5.5946 36.437 51.1791-3.349.0307z"/><path fill="#FFDDBA" d="M187.202 100.88s1.368-3.859-4.288-7.9836c-6.646-4.8494-6.708-1.7866-7.943-2.5319-9.689-5.7478-15.12 6.6462-15.12 6.6462s-5.921 10.8733-3.839 14.0383c.98 1.5 7.892-1.808 7.892-1.808s-.684 3.186 3.706 9.393c2.256 3.185 6.003-4.278 6.003-4.278s8.515.082 10.822-2.082c1.521-1.43-1.348-8.801-1.348-8.801l4.115-2.593z"/><path fill="#FFC19B" d="M186.048 101.605c-.796.357-1.062-3.2365-4.114-5.4111-3.053-2.1847-5.911-3.3996-9.117-3.2057-3.206.194-8.433 7.2488-8.433 7.2488s-3.777 3.389-5.564 10.924l-1.235.326c-1.715.143-1.838-.775-1.94-1.153-.327-1.297.316-7.218 5.258-15.2733 6.728-9.7907 14.64-5.0128 14.64-5.0128s.327-.2756 2.409.143c2.083.4186 5.084 2.8075 5.666 3.2261.582.4186 2.675 2.144 3.482 4.7371.806 2.5929-.255 3.1039-1.052 3.4509z"/><path fill="#FFC19B" d="M179.33 103.912s-5.462-1.48-8.575 3.339c-.838 1.102-2.369-3.135.285-4.584 2.655-1.45 6.279-1.032 8.29 1.245zm4.503 8.841c.398-2.256.224-5.257-1.389-7.207-1.613-1.95 1.001-1.072 1.001-1.072s2.144 5.574 1.153 7.575c-.296.623.021.327-.765.704z"/><path fill="#FFDDBA" d="M39.4935 103.238s-2.8688 7.361-1.3477 8.801c2.3073 2.174 10.8117 2.072 10.8117 2.072s3.7468 7.473 6.003 4.278c4.39-6.207 3.706-9.393 3.706-9.393s6.9117 3.308 7.8918 1.807c2.0827-3.165-3.8387-14.0374-3.8387-14.0374s-5.4314-12.3941-15.12-6.6463c-1.2353.7453-1.2965-2.3175-7.9428 2.5319-5.6559 4.1246-4.2879 7.9838-4.2879 7.9838l4.1246 2.603z"/><path fill="#FFC19B" d="M36.543 101.37c-.7963-.347-1.8581-.847-1.0516-3.4507.8066-2.5932 2.8893-4.3186 3.4814-4.7372.5819-.4185 3.5937-2.8075 5.6764-3.2261 2.0827-.4186 2.4094-.1429 2.4094-.1429s7.9224-4.778 14.6401 5.0128c4.9413 8.0551 5.5845 13.9761 5.2578 15.2731-.0919.378-.2144 1.297-1.9398 1.154l-1.2353-.327c-1.7866-7.535-5.5641-10.924-5.5641-10.924s-5.2271-7.0547-8.4328-7.2486c-3.2058-.194-6.0644 1.0209-9.1169 3.2057-3.0628 2.1746-3.3283 5.7679-4.1246 5.4109z"/><path fill="#FFC19B" d="M51.5406 102.442c2.6646 1.45 1.123 5.687.2858 4.584-3.1138-4.819-8.5758-3.338-8.5758-3.338 2.0112-2.287 5.6355-2.696 8.29-1.246zm-13.558 9.372c-.9903-2.001 1.1536-7.575 1.1536-7.575s2.6136-.878 1.0006 1.072c-1.6131 1.95-1.7765 4.951-1.3885 7.208-.7861-.378-.4696-.082-.7657-.705z"/><path fill="#6864FF" d="M86.3952 28.6901l-.0306.0612 4.0225 12.1491c.0102-.0306.0204-.051.0204-.0817l-4.0123-12.1286z"/><path fill="#6864FF" d="M137.197-15.3119c-3.298 3.5017-4.482 7.7896-5.85 12.7514-1.46 5.2782-3.104 11.271-7.81 16.2634-4.707 4.9923-10.342 6.7483-15.314 8.3001-4.676 1.4497-8.7089 2.7055-12.0065 6.2175-3.2669 3.4609-4.4614 7.6978-5.8091 12.5982-.0102.0307-.0204.0511-.0204.0817l4.6044 13.9153c.0102-.0307.0204-.0511.0204-.0817.2349-.8065.4595-1.6335.6943-2.4809 1.4599-5.2782 3.1036-11.271 7.8099-16.2634 4.707-4.9923 10.342-6.7483 15.314-8.3001 4.676-1.4497 8.709-2.7055 12.006-6.2175 3.298-3.5017 4.482-7.7897 5.85-12.7514 1.307-4.7167 2.757-10.005 6.422-14.6503l2.001-8.0143c.521-2.1337.204-4.247-.705-5.9826-2.685 1.0413-5.094 2.3685-7.207 4.6146z"/><path fill="#6864FF" d="M110.724.094c-4.707 4.9923-10.342 6.7483-15.314 8.3002-4.6758 1.4497-8.7085 2.7054-12.0061 6.2072-.439.4594-.8372.9392-1.2047 1.4293-.0102.0204-.0204.0306-.0306.051l4.196 12.6698.0306-.0613c1.0822-2.1848 2.4605-4.3185 4.3288-6.2991 4.6962-4.9924 10.342-6.7484 15.314-8.3002 4.676-1.4497 8.708-2.7054 12.006-6.2174 3.298-3.5018 4.482-7.7897 5.85-12.7514 1.46-5.2782 3.104-11.2711 7.81-16.2634a23.623 23.623 0 013.063-2.7361c-4.002.0102-8.698.0102-13.691 0-1.062 2.3379-1.766 4.9209-2.542 7.6978-1.46 5.2986-3.104 11.2813-7.81 16.2736zM121.842 55.4384c-2.706 2.8688-3.992 6.2787-5.115 10.148a29.9356 29.9356 0 005.646-1.5314c2.236-.8473 3.951-2.8586 4.574-5.3496l1.949-7.8101c-2.623 1.0311-4.982 2.3379-7.054 4.5431zM109.019 41.8192c-3.298 3.5018-4.482 7.7897-5.85 12.7514-.796 2.8892-1.654 6.0031-3.043 9.0454 0 .0102-.01.0103-.01.0205.225.1225.46.2246.705.3164 1.909.7351 4.563 1.5212 7.728 1.8581v-.0102c1.46-5.2578 3.114-11.2302 7.79-16.2021 4.584-4.8698 10.056-6.6565 14.926-8.1776l3.052-12.2206c-4.236 3.5733-9.014 5.0638-13.302 6.391-4.666 1.46-8.699 2.7157-11.996 6.2277z"/><path fill="#6864FF" d="M72.3881-13.4538l6.9116 20.8576c.0103-.0102.0307-.0204.0409-.0306 4.39-3.951 9.4129-5.513 13.8948-6.9117C97.9113-.9882 101.944-2.244 105.242-5.756c3.297-3.5018 4.481-7.7897 5.849-12.7514.48-1.7356.981-3.5529 1.603-5.3803-12.179-.0204-24.9205-.0715-33.5066-.1123-5.0127-.0204-8.5043 5.4007-6.7993 10.5462zM108.549 65.8111c1.072.1123 2.195.1838 3.369.1838-1.174 0-2.307-.0715-3.369-.1838zM96.5024 59.2158l-1.4803-4.4818c-.0102.0306-.0204.051-.0204.0816l1.4599 4.4002c.6432 1.95 1.9704 3.5427 3.6654 4.4207 0-.0102.01-.0102.01-.0205-1.6846-.8882-2.9914-2.4604-3.6346-4.4002z"/><path fill="#6864FF" d="M79.3304 7.3732c-.0102.0102-.0307.0204-.0409.0307l2.8688 8.6676c.0102-.0204.0205-.0306.0307-.051l-2.8586-8.6473z"/><path fill="#584AFA" d="M128.958 50.8646l2.368-9.4538c-.02.0102-.041.0102-.051.0205l-2.368 9.464c.01-.0102.03-.0204.051-.0307zM116.717 65.5968c.01-.0102.01-.0102 0 0-1.674.2756-3.277.3981-4.809.3981 1.532-.0102 3.145-.1225 4.809-.3981zM134.389 29.1496l8.8-35.171c-.02.0307-.051.0613-.071.092l-8.79 35.1301c.02-.0102.041-.0306.061-.0511zM105.231-5.7561c-3.297 3.512-7.3299 4.7677-12.0058 6.2175C88.7433 1.86 83.7306 3.422 79.3304 7.373l2.8688 8.6575c.3675-.49.7657-.9699 1.2047-1.4293 3.2976-3.5018 7.3303-4.7575 12.0061-6.2072 4.972-1.5518 10.607-3.3078 15.314-8.3002 4.706-4.9923 6.35-10.975 7.81-16.2634.766-2.7871 1.48-5.3598 2.542-7.6978-2.726 0-5.543-.0102-8.392-.0102-.623 1.8275-1.123 3.6447-1.603 5.3803-1.368 4.9515-2.552 9.2394-5.85 12.7412z"/><path fill="#584AFA" d="M116.339 49.609c-4.676 4.9719-6.34 10.9341-7.79 16.2021 1.072.1225 2.195.1838 3.37.1838 1.521 0 3.134-.1225 4.808-.4084 1.133-3.8693 2.41-7.269 5.115-10.148 2.072-2.195 4.431-3.512 7.055-4.5432l2.368-9.464c-4.87 1.5212-10.342 3.2976-14.926 8.1777zM130.846 21.4723c-3.297 3.512-7.33 4.7677-12.006 6.2174-4.972 1.5518-10.607 3.3078-15.314 8.3002-4.7061 4.9923-6.3498 10.9852-7.8098 16.2634-.2348.8473-.4594 1.6743-.6942 2.4808l1.4804 4.4819c.6431 1.9398 1.9499 3.512 3.6246 4.4002 1.388-3.0424 2.246-6.146 3.042-9.0454 1.368-4.9617 2.552-9.2496 5.85-12.7514 3.298-3.512 7.33-4.7677 12.006-6.2175 4.288-1.3374 9.056-2.828 13.303-6.391l8.79-35.1404c-3.655 4.635-5.115 9.9235-6.422 14.6504-1.368 4.9617-2.552 9.2496-5.85 12.7514zM131.704-21.1413c-4.706 4.9923-6.35 10.9852-7.81 16.2634-1.368 4.9617-2.552 9.2496-5.85 12.7514-3.298 3.5119-7.33 4.7677-12.006 6.2174-4.972 1.5518-10.6178 3.3078-15.3141 8.3002-1.8683 1.9806-3.2466 4.1143-4.3287 6.2991l4.0122 12.1286c1.3476-4.9004 2.5421-9.1271 5.8091-12.5982 3.2976-3.512 7.3305-4.7678 12.0065-6.2175 4.972-1.5518 10.607-3.3078 15.314-8.3001 4.706-4.9924 6.35-10.9852 7.81-16.2634 1.368-4.9618 2.552-9.2497 5.85-12.7514 2.113-2.2461 4.522-3.5733 7.218-4.6146-1.226-2.338-3.533-3.9715-6.259-3.9613-1.062 0-2.195.0103-3.379.0103-1.062.7861-2.093 1.6947-3.073 2.7361z"/><path fill="#FFC19B" d="M111.826 71.9367c-23.5345 0-42.6133 19.0787-42.6133 42.6133 0 23.535 19.0788 42.614 42.6133 42.614 23.535 0 42.614-19.079 42.614-42.614 0-23.5346-19.079-42.6133-42.614-42.6133z"/><path fill="#FFDDBA" d="M114.123 73.8969c-19.3281 0-34.997 16.967-34.997 37.8971 0 20.93 15.6688 37.897 34.997 37.897 19.329 0 34.998-16.967 34.998-37.897 0-20.9301-15.669-37.8971-34.998-37.8971z"/><path fill="#562B48" d="M127.855 90.7014H97.1149s2.4298-12.3737 15.4261-12.3737c12.996.0001 15.314 12.3737 15.314 12.3737z"/><path fill="#FF6C6C" d="M101.27 82.9932c9.801 7.1874 21.562 2.1134 22.991.5003-.755-.8984-1.664-1.7662-2.746-2.5319-.919-.5717-2.022-1.1741-3.247-1.6947-1.633-.6024-3.532-.9495-5.747-.9495-5.054 0-8.505 1.8785-10.843 4.1654-.132.1633-.275.3369-.408.5104z"/><path fill="#EBA090" d="M138.575 91.8243c-3.079 0-5.574 1.545-5.574 3.4508 0 1.9058 2.495 3.4507 5.574 3.4507 3.078 0 5.574-1.5449 5.574-3.4507s-2.496-3.4508-5.574-3.4508zM87.2834 91.8243c-3.0786 0-5.5743 1.545-5.5743 3.4508 0 1.9058 2.4957 3.4507 5.5743 3.4507 3.0786 0 5.5743-1.5449 5.5743-3.4507s-2.4957-3.4508-5.5743-3.4508z"/><path fill="#B52847" d="M75.8999 123.473c-10.9272 0-19.7856 8.859-19.7856 19.786 0 10.927 8.8584 19.785 19.7856 19.785 10.9273 0 19.7856-8.858 19.7856-19.785s-8.8583-19.786-19.7856-19.786z"/><path fill="#CC2E49" d="M76.002 162.953c10.9342 0 19.7856-8.862 19.7856-19.786 0-5.013-1.8683-9.597-4.9515-13.088-3.022-1.869-6.5748-2.941-10.3828-2.941-10.9342 0-19.7857 8.862-19.7857 19.786 0 5.013 1.8683 9.597 4.9515 13.088 3.022 1.858 6.5748 2.941 10.3829 2.941z"/><path fill="#B52847" d="M150.377 124.596c-10.928 0-19.786 8.859-19.786 19.786 0 10.927 8.858 19.785 19.786 19.785 10.927 0 19.785-8.858 19.785-19.785s-8.858-19.786-19.785-19.786z"/><path fill="#CC2E49" d="M150.877 164.576c10.934 0 19.786-8.862 19.786-19.786 0-4.185-1.307-8.075-3.523-11.271-3.41-2.787-7.759-4.451-12.506-4.451-10.934 0-19.786 8.862-19.786 19.786 0 4.185 1.307 8.075 3.523 11.271 3.42 2.787 7.769 4.451 12.506 4.451z"/><path fill="#E23359" d="M157.993 144.382c-4.201 0-7.606 3.405-7.606 7.606 0 4.2 3.405 7.606 7.606 7.606 4.201 0 7.606-3.406 7.606-7.606 0-4.201-3.405-7.606-7.606-7.606zM74.7871 145.096c-4.2006 0-7.6059 3.406-7.6059 7.606 0 4.201 3.4053 7.606 7.6059 7.606 4.2007 0 7.606-3.405 7.606-7.606 0-4.2-3.4053-7.606-7.606-7.606z"/><path fill="#B52847" d="M68.8247 117.501c-1.174-33.4152 30.6483-44.6863 26.0746-42.0523-13.119 7.5549-17.1006 18.5911-18.3972 28.4433-.2144 1.643.7249.99 7.8816 4.972 13.7723 9.882 10.9648 21.899 11.2915 20.5.3369-1.409 4.8088-8.29 17.5088-13.088 1.419-.541 2.9-.929 4.4-1.185 28.413-4.757 28.872-11.128 29.74-15.2523 6.697-8.2695-16.947-23.9612-16.947-23.9612s30.454 14.977 26.288 43.6145c-5.594 38.335-44.144 39.142-44.144 39.142-20.5008.02-42.757-14.191-43.6963-41.133z"/><path fill="#CC2E49" d="M93.3885 134.836s10.1885-12.598 23.6145-17.989c9.647-3.879 17.284.113 26.717-7.299 6.289-3.798 6.667-15.1202 6.667-15.1202s11.975 17.6312 2.562 35.5282c-4.716 8.974-5.819 14.099-18.192 22.226-9.74 6.391-21.103 8.627-34.9979 5.278-13.8949-3.349-22.9301-17.448-24.6555-21.511-1.7254-4.053-6.197-13.701-2.0316-29.832 4.1654-16.1303-1.8275 2.941 3.0423 5.177 4.8699 2.225 9.4334 2.429 13.9051 7.105 4.4512 4.676 3.3691 16.437 3.3691 16.437z"/><path fill="#E23359" d="M106.783 156.531c9.576 4.645 20.745.5 27.984-4.329 9.198-6.136 20.439-20.255 20.714-34.201.164-8.065-1.827-13.946-1.827-13.946s-7.167 8.78-19.204 13.701c-7.718 3.145-16.141 2.736-25.063 7.106-4.002 1.95-11.1694 8.422-11.1694 8.422s-1.317 18.449 8.5654 23.247z"/><path fill="#562B48" d="M97.7173 105.321c-2.5523.47-5.2578-1.174-6.1868-3.767-.5003-1.409-1.7968-1.7152-2.7973-1.409-1.021.317-1.8785 1.286-1.4906 2.736.6432 2.348 2.2767 4.411 4.5227 5.646 1.4089.786 2.9403 1.184 4.4512 1.184.827 0 1.6539-.122 2.44-.357 5.0745-1.542 6.2585-6.483 5.1865-10.6893-.082-.3062-.429-.2654-.46-.2552-.061.0102-.367.0817-.347.4084.102 1.3271-.459 2.8381-1.552 4.1351-1.051 1.255-2.4293 2.113-3.7667 2.368zM122.903 98.7668c-.061-.0102-.367-.0409-.459.2654-1.103 4.2168.051 9.1678 5.125 10.7198 2.246.694 4.696.408 6.891-.786 2.246-1.225 3.9-3.277 4.564-5.625.408-1.45-.449-2.42-1.47-2.747-.991-.316-2.297-.02-2.798 1.389-.929 2.593-3.665 4.237-6.197 3.736-1.337-.265-2.705-1.133-3.757-2.399-1.082-1.296-1.643-2.797-1.521-4.1346.01-.3472-.337-.4186-.378-.4186z"/><path fill="#fff" d="M112.613 161.094c6.544 0 12.72.542 17.396 1.511 2.399.501 4.319 1.093 5.707 1.787.878.429 1.552.888 2.073 1.419.99 1.011 1.194 2.042 1.194 2.746 0 .705-.214 1.736-1.194 2.747-.511.52-1.195.99-2.073 1.419-1.388.684-3.318 1.276-5.707 1.786-4.665.95-10.852 1.491-17.396 1.491-6.545 0-12.7213-.551-17.3971-1.521-2.3992-.5-4.3186-1.093-5.707-1.787-.878-.429-1.5518-.888-2.0725-1.419-.9903-1.011-1.1945-2.042-1.1945-2.746 0-.694.2144-1.736 1.1945-2.747.5105-.52 1.1945-.99 2.0725-1.419 1.3884-.684 3.318-1.276 5.707-1.786 4.6758-.95 10.8521-1.481 17.3971-1.481zm20.245 7.443c-1.001-.398-2.665-.898-5.381-1.368-4.134-.715-9.423-1.113-14.854-1.113-5.432 0-10.72.398-14.8548 1.113-2.7157.47-4.3798.98-5.3803 1.368 1.0005.398 2.6646.898 5.3803 1.368 4.1348.715 9.4228 1.113 14.8548 1.113 5.441 0 10.72-.398 14.854-1.113 2.716-.47 4.38-.97 5.381-1.368z"/><path fill="#FFC19B" d="M116.104 72.1306h-7.657v-9.0862h7.657v9.0862z"/><path fill="#FFC19B" d="M112.224 61.3087c-2.875 0-5.206.5942-5.206 1.3272s2.331 1.3272 5.206 1.3272c2.876 0 5.207-.5942 5.207-1.3272s-2.331-1.3272-5.207-1.3272z"/></g><defs><clipPath id="clip0"><path fill="#fff" d="M0 0h212v176H0z" transform="rotate(-180 106 88)"/></clipPath></defs></svg>