<svg xmlns="http://www.w3.org/2000/svg" viewBox="0 0 1363 1236.8">
  <circle cx="700.9" cy="730.3" r="506.5" fill="#ffc19b"/>
  <ellipse cx="673.6" cy="763.1" fill="#ffddba" rx="416" ry="450.4"/>
  <path fill="#562b48" d="M510.4 1013.8h365.4s-28.9 147.1-183.3 147.1-182.1-147.1-182.1-147.1z"/>
  <path fill="#ff6c6c" d="M826.3 1105.4c-116.5-85.4-256.3-25.1-273.3-5.9a173 173 0 0032.7 30.1c10.9 6.8 24 13.9 38.6 20.1 19.4 7.1 42 11.3 68.3 11.3 60.1 0 101.1-22.3 128.9-49.5 1.5-2 3.2-4 4.8-6.1z"/>
  <ellipse cx="383" cy="959.4" fill="#eba090" rx="66.3" ry="41"/>
  <ellipse cx="992.6" cy="959.4" fill="#eba090" rx="66.3" ry="41"/>
  <circle cx="1127.8" cy="389.1" r="235.2" fill="#b52847"/>
  <path fill="#cc2e49" d="M1126.6 155.1c-129.9 0-235.2 105.3-235.2 235.2 0 59.6 22.2 114.1 58.8 155.5 35.9 22.2 78.1 35 123.4 35 129.9 0 235.2-105.3 235.2-235.2 0-59.6-22.2-114.1-58.8-155.6a234.5 234.5 0 00-123.4-34.9z"/>
  <circle cx="242.7" cy="375.8" r="235.2" fill="#b52847"/>
  <path fill="#cc2e49" d="M236.7 135.8C106.8 135.8 1.5 241.1 1.5 371c0 49.8 15.5 96 41.9 134A233.9 233.9 0 00192 557.9c129.9 0 235.2-105.3 235.2-235.2 0-49.8-15.5-96-41.9-134a233.9 233.9 0 00-148.6-52.9z"/>
  <circle cx="152.2" cy="285.4" r="90.4" fill="#e23359"/>
  <circle cx="1141.1" cy="276.9" r="90.4" fill="#e23359"/>
  <path fill="#b52847" d="M1211.9 695.2c13.9 397.1-364.2 531.1-309.9 499.8 155.9-89.8 203.2-220.9 218.6-338 2.5-19.5-8.6-11.8-93.7-59.1-163.7-117.5-130.3-260.3-134.2-243.6-4 16.7-57.1 98.5-208.1 155.5-16.9 6.4-34.5 11.1-52.3 14.1-337.7 56.6-343.2 132.2-353.4 181.3-79.5 98.2 201.5 284.8 201.5 284.8S118.5 1011.9 168 671.6C234.5 216 692.6 206.4 692.6 206.4c243.6-.2 508.2 168.6 519.3 488.8z"/>
  <path fill="#cc2e49" d="M920 489.2S798.9 638.9 639.4 703c-114.7 46.1-205.4-1.3-317.5 86.7-74.8 45.1-79.2 179.7-79.2 179.7s-142.3-209.5-30.5-422.3c56.1-106.7 69.2-167.6 216.2-264.1 115.8-76 250.8-102.5 416-62.7s272.5 207.4 293 255.7c20.5 48.2 73.6 162.8 24.1 354.5s21.7-35-36.2-61.5c-57.9-26.5-112.1-28.9-165.2-84.4-53-55.6-40.1-195.4-40.1-195.4z"/>
  <path fill="#e23359" d="M760.8 231.4c-113.8-55.2-246.5-5.9-332.6 51.5C318.9 355.8 185.3 523.6 182 689.4c-1.9 95.9 21.7 165.7 21.7 165.7s85.2-104.4 228.2-162.8c91.7-37.4 191.8-32.5 297.9-84.4 47.6-23.2 132.7-100.1 132.7-100.1s15.7-219.4-101.7-276.4z"/>
  <path fill="#562b48" d="M868.5 840c30.3-5.6 62.5 14 73.5 44.8 5.9 16.7 21.4 20.4 33.2 16.7 12.1-3.8 22.3-15.3 17.7-32.5-7.6-27.9-27.1-52.4-53.7-67.1-16.8-9.3-34.9-14.1-52.9-14.1-9.8 0-19.6 1.4-29 4.3-60.3 18.3-74.4 77-61.6 127.1 1 3.7 5.1 3.1 5.5 3 .7-.1 4.4-1 4.1-4.8-1.2-15.8 5.5-33.7 18.4-49.1 12.6-15.1 28.9-25.3 44.8-28.3zM569.2 917.9c.7.1 4.4.5 5.4-3.1 13.1-50.1-.6-108.9-60.9-127.4-26.7-8.2-55.8-4.9-81.9 9.3-26.7 14.6-46.4 39-54.2 66.9-4.8 17.2 5.3 28.8 17.5 32.7 11.8 3.8 27.3.2 33.3-16.5 11.1-30.8 43.5-50.3 73.7-44.4 15.9 3.1 32.2 13.5 44.7 28.5 12.9 15.4 19.5 33.3 18.1 49.2-.3 4 3.8 4.8 4.3 4.8z"/>
  <path fill="#fff" d="M691.5 177.2c-77.8 0-151.2-6.4-206.8-17.9-28.5-5.9-51.3-13-67.8-21.2-10.4-5.1-18.4-10.6-24.6-16.9-11.8-12-14.2-24.3-14.2-32.6S380.6 68 392.3 56c6.1-6.2 14.2-11.8 24.6-16.9 16.5-8.1 39.4-15.2 67.8-21.2C540.2 6.4 613.7 0 691.5 0s151.2 6.6 206.8 18.1c28.5 5.9 51.3 13 67.8 21.2 10.4 5.1 18.4 10.6 24.6 16.9 11.8 12 14.2 24.3 14.2 32.6s-2.5 20.6-14.2 32.6c-6.1 6.2-14.2 11.8-24.6 16.9-16.5 8.1-39.4 15.2-67.8 21.2-55.6 11.3-129 17.7-206.8 17.7zM450.9 88.7c11.9 4.7 31.7 10.7 63.9 16.3 49.2 8.5 112 13.2 176.6 13.2S818.8 113.5 868 105c32.3-5.6 52.1-11.6 63.9-16.3C920 84 900.2 78 868 72.4c-49.2-8.5-112-13.2-176.6-13.2-64.7 0-127.4 4.7-176.6 13.2-32.2 5.6-52 11.6-63.9 16.3zm497.7 9.1z"/>
</svg>
