<svg xmlns="http://www.w3.org/2000/svg" xmlns:xlink="http://www.w3.org/1999/xlink" viewBox="0 0 200 200">
  <path fill="#dad7f2" d="M0 0h200v200H0V0z"/>
  <path fill="#4f3949" d="M65.6 107.3h68.9S129.1 135 99.9 135s-34.3-27.7-34.3-27.7z"/>
  <defs>
    <path id="a" d="M65.6 107.3h68.9S129.1 135 99.9 135s-34.3-27.7-34.3-27.7z"/>
  </defs>
  <clipPath id="b">
    <use overflow="visible" xlink:href="#a"/>
  </clipPath>
  <path fill="#f78f8f" d="M73.4 124c-.4 1.2 31.4 26.9 51.9.7-23.1-16.9-50.9-3.7-51.9-.7z" clip-path="url(#b)"/>
  <ellipse cx="41.6" cy="97.1" fill="#db6e6e" opacity=".54" rx="12.5" ry="7.7"/>
  <ellipse cx="158.4" cy="97.1" fill="#db6e6e" opacity=".54" rx="12.5" ry="7.7"/>
  <path fill="#42404e" d="M121.9 84.5c-.4-6 5.2-12.8 10.8-14 5.3-1.1 10.6 2.8 12.4 8 2.4 7.1 12.4 3.8 10.5-3.5-2.9-11.3-14.6-18.6-25.2-15.2-10.7 3.4-14.1 14.5-11.6 25.2.5 2 3.3 1.5 3.1-.5zm-44.6-.8c.5-6-5.2-12.8-10.7-14-5.3-1.1-10.7 2.8-12.4 8-2.4 7.1-12.4 3.8-10.5-3.6C46.6 62.9 58.4 55.6 69 59c10.7 3.5 14 14.7 11.4 25.3-.4 1.9-3.2 1.4-3.1-.6z"/>
</svg>
