<svg xmlns="http://www.w3.org/2000/svg" xmlns:xlink="http://www.w3.org/1999/xlink" viewBox="0 0 500 374">
  <path fill="#dad7f2" d="M0 0h500v374H0V0z"/>
  <path fill="#4f3949" d="M175.9 200.6h154.5s-12.2 62.2-77.5 62.2-77-62.2-77-62.2z"/>
  <defs>
    <path id="a" d="M175.9 200.6h154.5s-12.2 62.2-77.5 62.2-77-62.2-77-62.2z"/>
  </defs>
  <clipPath id="b">
    <use overflow="visible" xlink:href="#a"/>
  </clipPath>
  <path fill="#f78f8f" d="M193.3 237.9c-1 2.8 70.4 60.2 116.3 1.5-51.6-37.8-113.9-8.2-116.3-1.5z" clip-path="url(#b)"/>
  <ellipse cx="122.1" cy="177.6" fill="#db6e6e" opacity=".54" rx="28" ry="17.3"/>
  <ellipse cx="383.9" cy="177.6" fill="#db6e6e" opacity=".54" rx="28" ry="17.3"/>
  <path fill="#42404e" d="M302.2 149.5c-1-13.5 11.7-28.8 24.1-31.3 11.9-2.4 23.8 6.3 27.8 18 5.3 15.9 27.8 8.6 23.6-7.8-6.4-25.3-32.8-41.7-56.6-34.1-24 7.7-31.6 32.6-25.9 56.4 1 4.4 7.3 3.2 7-1.2zm-100.1-1.8c1.1-13.5-11.6-28.8-24-31.4-11.9-2.5-23.9 6.2-27.9 17.9-5.4 15.9-27.8 8.5-23.5-8 6.6-25.2 33-41.6 56.8-33.8 24 7.8 31.5 32.8 25.6 56.5-.9 4.4-7.3 3.2-7-1.2z"/>
</svg>
