<svg width="259" height="138" viewBox="0 0 259 138" fill="none" xmlns="http://www.w3.org/2000/svg">
<rect x="20" width="220" height="138" rx="69" fill="#F3F2FF"/>
<g filter="url(#filter0_i)">
<path d="M70 69C70 81.615 76.59 91.5 85 91.5C93.41 91.5 100 81.615 100 69C100 56.385 93.41 46.5 85 46.5C76.59 46.5 70 56.385 70 69Z" fill="#CFCDE1"/>
<path d="M111.25 54C102.84 54 96.25 44.115 96.25 31.5C96.25 18.885 102.84 9 111.25 9C119.66 9 126.25 18.885 126.25 31.5C126.25 44.115 119.66 54 111.25 54Z" fill="#CFCDE1"/>
<path d="M175 87.75C166.59 87.75 160 77.865 160 65.25C160 52.635 166.59 42.75 175 42.75C183.41 42.75 190 52.635 190 65.25C190 77.865 183.41 87.75 175 87.75Z" fill="#CFCDE1"/>
<path d="M148.75 54C140.34 54 133.75 44.115 133.75 31.5C133.75 18.885 140.34 9 148.75 9C157.16 9 163.75 18.885 163.75 31.5C163.75 44.115 157.16 54 148.75 54Z" fill="#CFCDE1"/>
<path d="M130 129C111.39 129 96.25 117.225 96.25 102.75C96.3712 99.1052 97.3288 95.5371 99.0489 92.3215C100.769 89.1059 103.205 86.3288 106.17 84.205C106.61 83.834 106.958 83.3658 107.186 82.8374C107.414 82.309 107.517 81.7347 107.485 81.16L107.48 80.255C107.48 67.84 117.575 57.75 129.98 57.75C142.385 57.75 152.48 67.845 152.48 80.25V80.98C152.432 81.6058 152.537 82.234 152.785 82.8105C153.033 83.387 153.417 83.8947 153.905 84.29C156.834 86.392 159.244 89.1359 160.95 92.312C162.657 95.488 163.614 99.0122 163.75 102.615C163.75 109.81 160.17 116.475 153.67 121.455C147.32 126.32 138.915 129 130 129Z" fill="#CFCDE1"/>
</g>
<defs>
<filter id="filter0_i" x="70" y="9" width="120" height="120" filterUnits="userSpaceOnUse" color-interpolation-filters="sRGB">
<feFlood flood-opacity="0" result="BackgroundImageFix"/>
<feBlend mode="normal" in="SourceGraphic" in2="BackgroundImageFix" result="shape"/>
<feColorMatrix in="SourceAlpha" type="matrix" values="0 0 0 0 0 0 0 0 0 0 0 0 0 0 0 0 0 0 127 0" result="hardAlpha"/>
<feOffset dy="-10"/>
<feComposite in2="hardAlpha" operator="arithmetic" k2="-1" k3="1"/>
<feColorMatrix type="matrix" values="0 0 0 0 0.571667 0 0 0 0 0.571667 0 0 0 0 0.7 0 0 0 0.24 0"/>
<feBlend mode="normal" in2="shape" result="effect1_innerShadow"/>
</filter>
</defs>
</svg>
