<svg width="259" height="138" viewBox="0 0 259 138" fill="none" xmlns="http://www.w3.org/2000/svg">
<rect x="20" width="220" height="138" rx="69" fill="#F3F2FF"/>
<g filter="url(#filter0_i)">
<path d="M130 9C163.137 9 190 35.8631 190 69C190 102.137 163.137 129 130 129C96.8631 129 70 102.137 70 69C70 35.8631 96.8631 9 130 9Z" fill="#CFCDE1"/>
</g>
<path d="M151 47.2869C151 40.5047 145.921 35 139.648 35C135.554 35 131.983 37.3343 129.977 40.8415C127.971 37.3691 124.411 35.0697 120.352 35.0697C114.079 35.0697 109 40.5744 109 47.3566C109 68.9109 130 72 130 72C130 72 151 68.9109 151 47.3566V47.2869Z" fill="#EFEEF7"/>
<path d="M83 100.01C88.3089 106.839 95.245 112.359 103.232 116L109.953 111.232C117.683 113.053 127.879 113.189 136.985 110.24C147.237 106.92 151.14 101.368 152.153 99.5496C154.366 95.5717 155.973 89.9791 154.319 88.8588C152.946 87.9282 149.989 90.5272 147.613 92.0312C140.783 96.3544 130.89 95.2544 122.308 93.6898C120.533 93.3662 120.555 90.8358 122.335 90.5442C124.496 90.1903 126.599 89.8749 129.071 89.4661C134.837 88.5119 139.219 88.666 139.692 86.8727C139.842 86.302 139.673 85.0548 138.997 84.0617C138.792 83.7613 138.524 83.5209 138.208 83.3408C134.976 81.159 123.335 80.1546 115.315 81.8619C112.311 82.5015 110.139 83.2226 108.599 84.0034C107.837 84.3896 101.096 88.7289 101.096 88.7289L83 100.01Z" fill="#C0BFD6"/>
<defs>
<filter id="filter0_i" x="70" y="9" width="120" height="120" filterUnits="userSpaceOnUse" color-interpolation-filters="sRGB">
<feFlood flood-opacity="0" result="BackgroundImageFix"/>
<feBlend mode="normal" in="SourceGraphic" in2="BackgroundImageFix" result="shape"/>
<feColorMatrix in="SourceAlpha" type="matrix" values="0 0 0 0 0 0 0 0 0 0 0 0 0 0 0 0 0 0 127 0" result="hardAlpha"/>
<feOffset dy="-10"/>
<feComposite in2="hardAlpha" operator="arithmetic" k2="-1" k3="1"/>
<feColorMatrix type="matrix" values="0 0 0 0 0.571667 0 0 0 0 0.571667 0 0 0 0 0.7 0 0 0 0.24 0"/>
<feBlend mode="normal" in2="shape" result="effect1_innerShadow"/>
</filter>
</defs>
</svg>
