<svg width="220" height="138" viewBox="0 0 220 138" fill="none" xmlns="http://www.w3.org/2000/svg">
<rect width="220" height="138" rx="69" fill="#F3F2FF"/>
<g filter="url(#filter0_i)">
<path d="M56.5343 125C55.938 125.001 55.3514 124.85 54.829 124.563C54.3066 124.275 53.8655 123.86 53.5468 123.356C53.2281 122.852 53.0422 122.276 53.0064 121.681C52.9706 121.086 53.086 120.491 53.342 119.953L67.048 91.1706C62.4592 83.1484 60.0504 74.0647 60.0608 64.8228C60.1032 35.697 83.8332 12 112.959 12H113.124C123.021 12 132.696 14.7638 141.101 19.99C147.021 23.6491 152.156 28.4462 156.209 34.1035C160.262 39.7609 163.152 46.1662 164.713 52.9484C166.31 59.7212 166.549 66.7436 165.414 73.6092C164.279 80.4747 161.794 87.047 158.102 92.9457C154.444 98.8649 149.647 104 143.991 108.053C138.334 112.106 131.93 114.997 125.149 116.558C112.126 119.617 98.4276 117.613 86.8277 110.95L58.0504 124.661C57.5755 124.883 57.0582 124.998 56.5343 125Z" fill="#CFCDE1"/>
</g>
<g filter="url(#filter1_i)">
<circle cx="88.5" cy="60.5" r="7.5" fill="#CFCDE1"/>
</g>
<g filter="url(#filter2_i)">
<circle cx="112.5" cy="60.5" r="7.5" fill="#CFCDE1"/>
</g>
<g filter="url(#filter3_i)">
<circle cx="136.5" cy="60.5" r="7.5" fill="#CFCDE1"/>
</g>
<defs>
<filter id="filter0_i" x="53" y="12" width="113.118" height="113" filterUnits="userSpaceOnUse" color-interpolation-filters="sRGB">
<feFlood flood-opacity="0" result="BackgroundImageFix"/>
<feBlend mode="normal" in="SourceGraphic" in2="BackgroundImageFix" result="shape"/>
<feColorMatrix in="SourceAlpha" type="matrix" values="0 0 0 0 0 0 0 0 0 0 0 0 0 0 0 0 0 0 127 0" result="hardAlpha"/>
<feOffset dy="-10"/>
<feComposite in2="hardAlpha" operator="arithmetic" k2="-1" k3="1"/>
<feColorMatrix type="matrix" values="0 0 0 0 0.571667 0 0 0 0 0.571667 0 0 0 0 0.7 0 0 0 0.24 0"/>
<feBlend mode="normal" in2="shape" result="effect1_innerShadow"/>
</filter>
<filter id="filter1_i" x="81" y="53" width="15" height="15" filterUnits="userSpaceOnUse" color-interpolation-filters="sRGB">
<feFlood flood-opacity="0" result="BackgroundImageFix"/>
<feBlend mode="normal" in="SourceGraphic" in2="BackgroundImageFix" result="shape"/>
<feColorMatrix in="SourceAlpha" type="matrix" values="0 0 0 0 0 0 0 0 0 0 0 0 0 0 0 0 0 0 127 0" result="hardAlpha"/>
<feOffset dy="-3"/>
<feComposite in2="hardAlpha" operator="arithmetic" k2="-1" k3="1"/>
<feColorMatrix type="matrix" values="0 0 0 0 0.571667 0 0 0 0 0.571667 0 0 0 0 0.7 0 0 0 0.24 0"/>
<feBlend mode="normal" in2="shape" result="effect1_innerShadow"/>
</filter>
<filter id="filter2_i" x="105" y="53" width="15" height="15" filterUnits="userSpaceOnUse" color-interpolation-filters="sRGB">
<feFlood flood-opacity="0" result="BackgroundImageFix"/>
<feBlend mode="normal" in="SourceGraphic" in2="BackgroundImageFix" result="shape"/>
<feColorMatrix in="SourceAlpha" type="matrix" values="0 0 0 0 0 0 0 0 0 0 0 0 0 0 0 0 0 0 127 0" result="hardAlpha"/>
<feOffset dy="-3"/>
<feComposite in2="hardAlpha" operator="arithmetic" k2="-1" k3="1"/>
<feColorMatrix type="matrix" values="0 0 0 0 0.571667 0 0 0 0 0.571667 0 0 0 0 0.7 0 0 0 0.24 0"/>
<feBlend mode="normal" in2="shape" result="effect1_innerShadow"/>
</filter>
<filter id="filter3_i" x="129" y="53" width="15" height="15" filterUnits="userSpaceOnUse" color-interpolation-filters="sRGB">
<feFlood flood-opacity="0" result="BackgroundImageFix"/>
<feBlend mode="normal" in="SourceGraphic" in2="BackgroundImageFix" result="shape"/>
<feColorMatrix in="SourceAlpha" type="matrix" values="0 0 0 0 0 0 0 0 0 0 0 0 0 0 0 0 0 0 127 0" result="hardAlpha"/>
<feOffset dy="-3"/>
<feComposite in2="hardAlpha" operator="arithmetic" k2="-1" k3="1"/>
<feColorMatrix type="matrix" values="0 0 0 0 0.571667 0 0 0 0 0.571667 0 0 0 0 0.7 0 0 0 0.24 0"/>
<feBlend mode="normal" in2="shape" result="effect1_innerShadow"/>
</filter>
</defs>
</svg>
