<svg width="259" height="138" viewBox="0 0 259 138" fill="none" xmlns="http://www.w3.org/2000/svg">
<rect x="20" width="220" height="138" rx="69" fill="#F3F2FF"/>
<mask id="path-2-outside-1" maskUnits="userSpaceOnUse" x="57" y="30" width="146" height="88" fill="black">
<rect fill="white" x="57" y="30" width="146" height="88"/>
<path fill-rule="evenodd" clip-rule="evenodd" d="M63.2467 107.745C64.0457 108.555 65.1167 109 66.25 109C67.3833 109 68.4543 108.555 69.2533 107.745L109.997 66.7413C110.796 65.937 111.867 65.4921 113 65.4921C114.139 65.4921 115.204 65.937 116.003 66.7413L133.734 84.5882C136.137 87.0122 139.339 88.3412 142.744 88.3412C146.156 88.3412 149.357 87.0122 151.766 84.5882L189.5 46.6072V50.6072L151.766 88.5882C149.357 91.0122 146.156 92.3412 142.744 92.3412C139.339 92.3412 136.137 91.0122 133.734 88.5882L116.003 70.7413C115.204 69.937 114.139 69.4921 113 69.4921C111.867 69.4921 110.796 69.937 109.997 70.7413L69.2533 111.745C68.4543 112.555 67.3833 113 66.25 113C65.1167 113 64.0457 112.555 63.2467 111.745C62.442 110.941 62 109.863 62 108.722C62 108.015 62.1701 107.331 62.4913 106.722C62.6879 107.095 62.9411 107.44 63.2467 107.745ZM189.5 74.7778V78.7778C189.5 81.1391 191.404 83.0556 193.75 83.0556C196.096 83.0556 198 81.1391 198 78.7778V74.7778C198 77.1391 196.096 79.0556 193.75 79.0556C191.404 79.0556 189.5 77.1391 189.5 74.7778ZM197.303 33.9324C198.716 34.7264 199.84 36.0063 200.458 37.5133L200.477 37.5588L200.484 37.5784L200.484 37.5794L200.499 37.6162C200.511 37.646 200.538 37.7138 200.568 37.7994C200.853 38.5875 201 39.4336 201 40.2778V78.7778C201 82.7775 197.771 86.0556 193.75 86.0556C189.729 86.0556 186.5 82.7775 186.5 78.7778V57.8833L153.894 90.7025C150.921 93.6944 146.953 95.3412 142.744 95.3412C138.541 95.3412 134.572 93.6947 131.605 90.7013L131.604 90.7L113.875 72.8557C113.639 72.6177 113.339 72.4921 113 72.4921C112.664 72.4921 112.36 72.6192 112.125 72.8557L71.389 113.852L71.3844 113.857C70.0194 115.238 68.1801 116 66.25 116C64.3211 116 62.4828 115.239 61.1181 113.859C59.7487 112.486 59 110.646 59 108.722C59 106.798 59.7495 104.956 61.1203 103.583L61.1259 103.577L101.856 62.5809C102.427 62.0063 103.035 61.4813 103.674 61.008L103.984 60.6953C106.393 58.2713 109.594 56.9423 113.006 56.9423C116.417 56.9423 119.619 58.277 122.021 60.6953L122.333 61.0087C122.972 61.482 123.579 62.0069 124.15 62.5809L140.745 79.2849C141.357 79.6159 142.044 79.7913 142.756 79.7913C143.467 79.7913 144.154 79.6159 144.766 79.2849L176.29 47.5556H155.5C151.479 47.5556 148.25 44.2775 148.25 40.2778C148.25 37.5651 149.735 35.1845 151.945 33.9332C152.705 32.7691 154.014 32 155.5 32H193.75C194.254 32 194.747 32.0913 195.229 32.2738C195.291 32.2966 195.354 32.3194 195.41 32.3422C196.168 32.654 196.837 33.219 197.303 33.9324ZM151.743 38.2778C151.428 38.8747 151.25 39.5554 151.25 40.2778C151.25 42.6391 153.154 44.5556 155.5 44.5556H179.525L183.499 40.5556H155.5C153.872 40.5556 152.456 39.6323 151.743 38.2778Z"/>
</mask>
<path fill-rule="evenodd" clip-rule="evenodd" d="M63.2467 107.745C64.0457 108.555 65.1167 109 66.25 109C67.3833 109 68.4543 108.555 69.2533 107.745L109.997 66.7413C110.796 65.937 111.867 65.4921 113 65.4921C114.139 65.4921 115.204 65.937 116.003 66.7413L133.734 84.5882C136.137 87.0122 139.339 88.3412 142.744 88.3412C146.156 88.3412 149.357 87.0122 151.766 84.5882L189.5 46.6072V50.6072L151.766 88.5882C149.357 91.0122 146.156 92.3412 142.744 92.3412C139.339 92.3412 136.137 91.0122 133.734 88.5882L116.003 70.7413C115.204 69.937 114.139 69.4921 113 69.4921C111.867 69.4921 110.796 69.937 109.997 70.7413L69.2533 111.745C68.4543 112.555 67.3833 113 66.25 113C65.1167 113 64.0457 112.555 63.2467 111.745C62.442 110.941 62 109.863 62 108.722C62 108.015 62.1701 107.331 62.4913 106.722C62.6879 107.095 62.9411 107.44 63.2467 107.745ZM189.5 74.7778V78.7778C189.5 81.1391 191.404 83.0556 193.75 83.0556C196.096 83.0556 198 81.1391 198 78.7778V74.7778C198 77.1391 196.096 79.0556 193.75 79.0556C191.404 79.0556 189.5 77.1391 189.5 74.7778ZM197.303 33.9324C198.716 34.7264 199.84 36.0063 200.458 37.5133L200.477 37.5588L200.484 37.5784L200.484 37.5794L200.499 37.6162C200.511 37.646 200.538 37.7138 200.568 37.7994C200.853 38.5875 201 39.4336 201 40.2778V78.7778C201 82.7775 197.771 86.0556 193.75 86.0556C189.729 86.0556 186.5 82.7775 186.5 78.7778V57.8833L153.894 90.7025C150.921 93.6944 146.953 95.3412 142.744 95.3412C138.541 95.3412 134.572 93.6947 131.605 90.7013L131.604 90.7L113.875 72.8557C113.639 72.6177 113.339 72.4921 113 72.4921C112.664 72.4921 112.36 72.6192 112.125 72.8557L71.389 113.852L71.3844 113.857C70.0194 115.238 68.1801 116 66.25 116C64.3211 116 62.4828 115.239 61.1181 113.859C59.7487 112.486 59 110.646 59 108.722C59 106.798 59.7495 104.956 61.1203 103.583L61.1259 103.577L101.856 62.5809C102.427 62.0063 103.035 61.4813 103.674 61.008L103.984 60.6953C106.393 58.2713 109.594 56.9423 113.006 56.9423C116.417 56.9423 119.619 58.277 122.021 60.6953L122.333 61.0087C122.972 61.482 123.579 62.0069 124.15 62.5809L140.745 79.2849C141.357 79.6159 142.044 79.7913 142.756 79.7913C143.467 79.7913 144.154 79.6159 144.766 79.2849L176.29 47.5556H155.5C151.479 47.5556 148.25 44.2775 148.25 40.2778C148.25 37.5651 149.735 35.1845 151.945 33.9332C152.705 32.7691 154.014 32 155.5 32H193.75C194.254 32 194.747 32.0913 195.229 32.2738C195.291 32.2966 195.354 32.3194 195.41 32.3422C196.168 32.654 196.837 33.219 197.303 33.9324ZM151.743 38.2778C151.428 38.8747 151.25 39.5554 151.25 40.2778C151.25 42.6391 153.154 44.5556 155.5 44.5556H179.525L183.499 40.5556H155.5C153.872 40.5556 152.456 39.6323 151.743 38.2778Z" fill="#C0BFD6"/>
<path d="M63.2467 107.745L64.6705 106.341L64.6605 106.331L63.2467 107.745ZM69.2533 107.745L67.8346 106.335L67.8295 106.341L69.2533 107.745ZM109.997 66.7413L111.415 68.151L111.415 68.1509L109.997 66.7413ZM116.003 66.7413L114.585 68.1509L116.003 66.7413ZM133.734 84.5882L135.155 83.1802L135.153 83.1786L133.734 84.5882ZM151.766 84.5882L153.184 85.9977L151.766 84.5882ZM189.5 46.6072H191.5V41.7564L188.081 45.1976L189.5 46.6072ZM189.5 50.6072L190.919 52.0168L191.5 51.4318V50.6072H189.5ZM151.766 88.5882L153.184 89.9977L151.766 88.5882ZM133.734 88.5882L135.155 87.1802L135.153 87.1786L133.734 88.5882ZM116.003 70.7413L114.585 72.1509L116.003 70.7413ZM109.997 70.7413L111.415 72.151L111.415 72.1509L109.997 70.7413ZM69.2533 111.745L67.8346 110.335L67.8295 110.341L69.2533 111.745ZM63.2467 111.745L64.6705 110.341L64.6605 110.331L63.2467 111.745ZM62.4913 106.722L64.2603 105.789L62.4913 102.435L60.7223 105.789L62.4913 106.722ZM197.303 33.9324L195.63 35.0274L195.897 35.4364L196.323 35.6758L197.303 33.9324ZM200.458 37.5133L202.308 36.7541L202.308 36.754L200.458 37.5133ZM200.477 37.5588L202.358 36.8808L202.344 36.8399L202.327 36.7996L200.477 37.5588ZM200.484 37.5784L198.602 38.2564L198.611 38.2799L198.62 38.3031L200.484 37.5784ZM200.484 37.5794L198.62 38.304L198.623 38.3124L198.627 38.3207L200.484 37.5794ZM200.499 37.6162L202.357 36.8775L202.356 36.8749L200.499 37.6162ZM200.568 37.7994L198.679 38.4584L198.683 38.4693L198.687 38.4801L200.568 37.7994ZM186.5 57.8833H188.5V53.0326L185.081 56.4737L186.5 57.8833ZM153.894 90.7025L152.475 89.2929L153.894 90.7025ZM131.605 90.7013L130.184 92.109L130.185 92.1094L131.605 90.7013ZM131.604 90.7L133.024 89.2923L133.022 89.2904L131.604 90.7ZM113.875 72.8557L115.294 71.4461L113.875 72.8557ZM112.125 72.8557L113.544 74.2654L113.544 74.2653L112.125 72.8557ZM71.389 113.852L69.9703 112.442L69.9663 112.446L71.389 113.852ZM71.3844 113.857L72.8069 115.263L72.8071 115.262L71.3844 113.857ZM61.1181 113.859L62.54 112.453L62.5341 112.447L61.1181 113.859ZM61.1203 103.583L59.7056 102.169L59.705 102.17L61.1203 103.583ZM61.1259 103.577L62.5406 104.991L62.5447 104.987L61.1259 103.577ZM101.856 62.5809L100.437 61.1713V61.1713L101.856 62.5809ZM103.674 61.008L104.864 62.6152L104.986 62.5251L105.093 62.4176L103.674 61.008ZM103.984 60.6953L102.566 59.2857L102.566 59.2857L103.984 60.6953ZM122.021 60.6953L123.44 59.2857V59.2857L122.021 60.6953ZM122.333 61.0087L120.914 62.4183L121.021 62.5257L121.142 62.6159L122.333 61.0087ZM124.15 62.5809L125.568 61.1713L125.568 61.1713L124.15 62.5809ZM140.745 79.2849L139.326 80.6945L139.534 80.9037L139.794 81.044L140.745 79.2849ZM144.766 79.2849L145.718 81.0441L145.977 80.9037L146.185 80.6945L144.766 79.2849ZM176.29 47.5556L177.708 48.9652L181.096 45.5556H176.29V47.5556ZM151.945 33.9332L152.931 35.6736L153.354 35.4338L153.62 35.0263L151.945 33.9332ZM195.229 32.2738L194.52 34.144L194.531 34.148L194.542 34.1519L195.229 32.2738ZM195.41 32.3422L196.172 30.4929L196.165 30.4899L196.157 30.4869L195.41 32.3422ZM151.743 38.2778L153.512 37.3456L151.743 33.9869L149.973 37.3456L151.743 38.2778ZM179.525 44.5556V46.5556H180.357L180.944 45.9652L179.525 44.5556ZM183.499 40.5556L184.918 41.9652L188.305 38.5556H183.499V40.5556ZM66.25 107C65.6493 107 65.0919 106.768 64.6705 106.341L61.8229 109.15C62.9995 110.342 64.5841 111 66.25 111V107ZM67.8295 106.341C67.4081 106.768 66.8507 107 66.25 107V111C67.9159 111 69.5005 110.342 70.6771 109.15L67.8295 106.341ZM108.578 65.3316L67.8346 106.335L70.672 109.155L111.415 68.151L108.578 65.3316ZM113 63.4921C111.335 63.4921 109.753 64.1489 108.578 65.3317L111.415 68.1509C111.838 67.7251 112.398 67.4921 113 67.4921V63.4921ZM117.422 65.3317C116.248 64.1499 114.672 63.4921 113 63.4921V67.4921C113.606 67.4921 114.161 67.7241 114.585 68.1509L117.422 65.3317ZM135.153 83.1786L117.422 65.3317L114.585 68.1509L132.316 85.9977L135.153 83.1786ZM142.744 86.3412C139.871 86.3412 137.181 85.2242 135.155 83.1802L132.314 85.9961C135.093 88.8002 138.807 90.3412 142.744 90.3412V86.3412ZM150.347 83.1786C148.315 85.2241 145.624 86.3412 142.744 86.3412V90.3412C146.687 90.3412 150.4 88.8003 153.184 85.9977L150.347 83.1786ZM188.081 45.1976L150.347 83.1786L153.184 85.9977L190.919 48.0168L188.081 45.1976ZM191.5 50.6072V46.6072H187.5V50.6072H191.5ZM188.081 49.1976L150.347 87.1786L153.184 89.9977L190.919 52.0168L188.081 49.1976ZM150.347 87.1786C148.315 89.2241 145.624 90.3412 142.744 90.3412V94.3412C146.687 94.3412 150.4 92.8003 153.184 89.9977L150.347 87.1786ZM142.744 90.3412C139.871 90.3412 137.181 89.2242 135.155 87.1802L132.314 89.9961C135.093 92.8002 138.807 94.3412 142.744 94.3412V90.3412ZM135.153 87.1786L117.422 69.3317L114.585 72.1509L132.316 89.9977L135.153 87.1786ZM117.422 69.3317C116.248 68.1499 114.672 67.4921 113 67.4921V71.4921C113.606 71.4921 114.161 71.7241 114.585 72.1509L117.422 69.3317ZM113 67.4921C111.335 67.4921 109.753 68.1489 108.578 69.3317L111.415 72.1509C111.838 71.7251 112.398 71.4921 113 71.4921V67.4921ZM108.578 69.3316L67.8346 110.335L70.672 113.155L111.415 72.151L108.578 69.3316ZM67.8295 110.341C67.4081 110.768 66.8507 111 66.25 111V115C67.9159 115 69.5005 114.342 70.6771 113.15L67.8295 110.341ZM66.25 111C65.6493 111 65.0919 110.768 64.6705 110.341L61.8229 113.15C62.9995 114.342 64.5841 115 66.25 115V111ZM64.6605 110.331C64.2357 109.906 64 109.339 64 108.722H60C60 110.387 60.6483 111.976 61.8328 113.16L64.6605 110.331ZM64 108.722C64 108.337 64.0921 107.974 64.2603 107.655L60.7223 105.789C60.248 106.688 60 107.692 60 108.722H64ZM64.6605 106.331C64.4971 106.167 64.3635 105.985 64.2603 105.789L60.7223 107.655C61.0123 108.205 61.3852 108.712 61.8328 109.16L64.6605 106.331ZM191.5 78.7778V74.7778H187.5V78.7778H191.5ZM193.75 81.0556C192.521 81.0556 191.5 80.0468 191.5 78.7778H187.5C187.5 82.2314 190.287 85.0556 193.75 85.0556V81.0556ZM196 78.7778C196 80.0468 194.979 81.0556 193.75 81.0556V85.0556C197.213 85.0556 200 82.2314 200 78.7778H196ZM196 74.7778V78.7778H200V74.7778H196ZM196 74.7778C196 76.0468 194.979 77.0556 193.75 77.0556V81.0556C197.213 81.0556 200 78.2314 200 74.7778H196ZM193.75 77.0556C192.521 77.0556 191.5 76.0468 191.5 74.7778H187.5C187.5 78.2314 190.287 81.0556 193.75 81.0556V77.0556ZM196.323 35.6758C197.338 36.2459 198.158 37.1762 198.608 38.2726L202.308 36.754C201.521 34.8363 200.094 33.2068 198.283 32.1889L196.323 35.6758ZM198.608 38.2725L198.626 38.318L202.327 36.7996L202.308 36.7541L198.608 38.2725ZM198.595 38.2368L198.602 38.2564L202.365 36.9004L202.358 36.8808L198.595 38.2368ZM198.62 38.3031L198.62 38.304L202.348 36.8548L202.348 36.8538L198.62 38.3031ZM198.627 38.3207L198.641 38.3575L202.356 36.8749L202.342 36.8381L198.627 38.3207ZM198.64 38.3549C198.649 38.3777 198.664 38.4138 198.679 38.4584L202.456 37.1403C202.412 37.0137 202.372 36.9144 202.357 36.8775L198.64 38.3549ZM198.687 38.4801C198.892 39.0474 199 39.663 199 40.2778H203C203 39.2042 202.813 38.1276 202.448 37.1186L198.687 38.4801ZM199 40.2778V78.7778H203V40.2778H199ZM199 78.7778C199 81.6868 196.653 84.0556 193.75 84.0556V88.0556C198.89 88.0556 203 83.8682 203 78.7778H199ZM193.75 84.0556C190.847 84.0556 188.5 81.6868 188.5 78.7778H184.5C184.5 83.8682 188.61 88.0556 193.75 88.0556V84.0556ZM188.5 78.7778V57.8833H184.5V78.7778H188.5ZM185.081 56.4737L152.475 89.2929L155.313 92.1121L187.919 59.2929L185.081 56.4737ZM152.475 89.2929C149.879 91.9063 146.422 93.3412 142.744 93.3412V97.3412C147.485 97.3412 151.964 95.4825 155.313 92.1121L152.475 89.2929ZM142.744 93.3412C139.073 93.3412 135.616 91.9066 133.025 89.2932L130.185 92.1094C133.529 95.4827 138.01 97.3412 142.744 97.3412V93.3412ZM133.026 89.2936L133.024 89.2923L130.183 92.1078L130.184 92.109L133.026 89.2936ZM133.022 89.2904L115.294 71.4461L112.456 74.2653L130.185 92.1096L133.022 89.2904ZM115.294 71.4461C114.682 70.8305 113.872 70.4921 113 70.4921V74.4921C112.919 74.4921 112.816 74.4763 112.707 74.431C112.599 74.3859 112.515 74.3238 112.456 74.2653L115.294 71.4461ZM113 70.4921C112.132 70.4921 111.317 70.8312 110.706 71.4461L113.544 74.2653C113.481 74.3286 113.396 74.3889 113.293 74.4319C113.189 74.4749 113.088 74.4921 113 74.4921V70.4921ZM110.706 71.446L69.9703 112.442L72.8077 115.262L113.544 74.2654L110.706 71.446ZM69.9663 112.446L69.9617 112.451L72.8071 115.262L72.8117 115.258L69.9663 112.446ZM69.9619 112.451C68.9745 113.45 67.6481 114 66.25 114V118C68.712 118 71.0644 117.026 72.8069 115.263L69.9619 112.451ZM66.25 114C64.8527 114 63.5272 113.451 62.54 112.453L59.6963 115.266C61.4385 117.027 63.7895 118 66.25 118V114ZM62.5341 112.447C61.5432 111.454 61 110.123 61 108.722H57C57 111.169 57.9541 113.519 59.7022 115.272L62.5341 112.447ZM61 108.722C61 107.321 61.5438 105.99 62.5357 104.996L59.705 102.17C57.9551 103.923 57 106.275 57 108.722H61ZM62.535 104.997L62.5406 104.991L59.7112 102.164L59.7056 102.169L62.535 104.997ZM62.5447 104.987L103.275 63.9905L100.437 61.1713L59.7071 102.168L62.5447 104.987ZM103.275 63.9905C103.775 63.4872 104.306 63.0283 104.864 62.6152L102.483 59.4008C101.763 59.9342 101.079 60.5254 100.437 61.1713L103.275 63.9905ZM105.093 62.4176L105.403 62.1049L102.566 59.2857L102.255 59.5984L105.093 62.4176ZM105.403 62.1049C107.435 60.0594 110.126 58.9423 113.006 58.9423V54.9423C109.063 54.9423 105.35 56.4832 102.566 59.2857L105.403 62.1049ZM113.006 58.9423C115.884 58.9423 118.575 60.0639 120.603 62.1049L123.44 59.2857C120.663 56.49 116.95 54.9423 113.006 54.9423V58.9423ZM120.603 62.1049L120.914 62.4183L123.751 59.5991L123.44 59.2857L120.603 62.1049ZM121.142 62.6159C121.7 63.029 122.231 63.4878 122.731 63.9905L125.568 61.1713C124.927 60.5259 124.243 59.9349 123.523 59.4014L121.142 62.6159ZM122.731 63.9905L139.326 80.6945L142.164 77.8753L125.568 61.1713L122.731 63.9905ZM139.794 81.044C140.699 81.5336 141.713 81.7913 142.756 81.7913V77.7913C142.375 77.7913 142.015 77.6982 141.697 77.5258L139.794 81.044ZM142.756 81.7913C143.799 81.7913 144.813 81.5336 145.718 81.0441L143.815 77.5258C143.496 77.6982 143.136 77.7913 142.756 77.7913V81.7913ZM146.185 80.6945L177.708 48.9652L174.871 46.146L143.347 77.8753L146.185 80.6945ZM176.29 45.5556H155.5V49.5556H176.29V45.5556ZM155.5 45.5556C152.597 45.5556 150.25 43.1868 150.25 40.2778H146.25C146.25 45.3682 150.36 49.5556 155.5 49.5556V45.5556ZM150.25 40.2778C150.25 38.3101 151.326 36.5821 152.931 35.6736L150.96 32.1927C148.144 33.7868 146.25 36.8202 146.25 40.2778H150.25ZM153.62 35.0263C154.029 34.4001 154.722 34 155.5 34V30C153.306 30 151.381 31.1381 150.27 32.8401L153.62 35.0263ZM155.5 34H193.75V30H155.5V34ZM193.75 34C194.007 34 194.26 34.0454 194.52 34.144L195.938 30.4035C195.234 30.1371 194.502 30 193.75 30V34ZM194.542 34.1519C194.611 34.1772 194.642 34.1888 194.663 34.1975L196.157 30.4869C196.066 30.45 195.972 30.416 195.916 30.3956L194.542 34.1519ZM194.649 34.1916C195.012 34.341 195.371 34.632 195.63 35.0274L198.977 32.8373C198.302 31.806 197.323 30.9671 196.172 30.4929L194.649 34.1916ZM153.25 40.2778C153.25 39.8878 153.345 39.5263 153.512 39.21L149.973 37.3456C149.511 38.2232 149.25 39.223 149.25 40.2778H153.25ZM155.5 42.5556C154.271 42.5556 153.25 41.5468 153.25 40.2778H149.25C149.25 43.7314 152.037 46.5556 155.5 46.5556V42.5556ZM179.525 42.5556H155.5V46.5556H179.525V42.5556ZM180.944 45.9652L184.918 41.9652L182.08 39.146L178.106 43.146L180.944 45.9652ZM183.499 38.5556H155.5V42.5556H183.499V38.5556ZM155.5 38.5556C154.648 38.5556 153.896 38.0745 153.512 37.3456L149.973 39.21C151.016 41.1901 153.095 42.5556 155.5 42.5556V38.5556Z" fill="#C0BFD6" mask="url(#path-2-outside-1)"/>
<mask id="path-4-outside-2" maskUnits="userSpaceOnUse" x="57" y="20" width="146" height="88" fill="black">
<rect fill="white" x="57" y="20" width="146" height="88"/>
<path fill-rule="evenodd" clip-rule="evenodd" d="M63.2467 97.7452C64.0457 98.5551 65.1167 99 66.25 99C67.3833 99 68.4543 98.5551 69.2533 97.7452L109.997 56.7413C110.796 55.937 111.867 55.4921 113 55.4921C114.139 55.4921 115.204 55.937 116.003 56.7413L133.734 74.5882C136.137 77.0122 139.339 78.3412 142.744 78.3412C146.156 78.3412 149.357 77.0122 151.766 74.5882L189.5 36.6072V40.6072L151.766 78.5882C149.357 81.0122 146.156 82.3412 142.744 82.3412C139.339 82.3412 136.137 81.0122 133.734 78.5882L116.003 60.7413C115.204 59.937 114.139 59.4921 113 59.4921C111.867 59.4921 110.796 59.937 109.997 60.7413L69.2533 101.745C68.4543 102.555 67.3833 103 66.25 103C65.1167 103 64.0457 102.555 63.2467 101.745C62.442 100.941 62 99.863 62 98.7222C62 98.0146 62.1701 97.3312 62.4913 96.7222C62.6879 97.095 62.9411 97.4398 63.2467 97.7452ZM189.5 64.7778V68.7778C189.5 71.1391 191.404 73.0556 193.75 73.0556C196.096 73.0556 198 71.1391 198 68.7778V64.7778C198 67.1391 196.096 69.0556 193.75 69.0556C191.404 69.0556 189.5 67.1391 189.5 64.7778ZM197.303 23.9324C198.716 24.7264 199.84 26.0063 200.458 27.5133L200.477 27.5588L200.484 27.5784L200.484 27.5794L200.499 27.6162C200.511 27.646 200.538 27.7138 200.568 27.7994C200.853 28.5875 201 29.4336 201 30.2778V68.7778C201 72.7775 197.771 76.0556 193.75 76.0556C189.729 76.0556 186.5 72.7775 186.5 68.7778V47.8833L153.894 80.7025C150.921 83.6944 146.953 85.3412 142.744 85.3412C138.541 85.3412 134.572 83.6947 131.605 80.7013L131.604 80.7L113.875 62.8557C113.639 62.6177 113.339 62.4921 113 62.4921C112.664 62.4921 112.36 62.6192 112.125 62.8557L71.389 103.852L71.3844 103.857C70.0194 105.238 68.1801 106 66.25 106C64.3211 106 62.4828 105.239 61.1181 103.859C59.7487 102.486 59 100.646 59 98.7222C59 96.7978 59.7495 94.956 61.1203 93.583L61.1259 93.5774L101.856 52.5809C102.427 52.0063 103.035 51.4813 103.674 51.008L103.984 50.6953C106.393 48.2713 109.594 46.9423 113.006 46.9423C116.417 46.9423 119.619 48.277 122.021 50.6953L122.333 51.0087C122.972 51.482 123.579 52.0069 124.15 52.5809L140.745 69.2849C141.357 69.6159 142.044 69.7913 142.756 69.7913C143.467 69.7913 144.154 69.6159 144.766 69.2849L176.29 37.5556H155.5C151.479 37.5556 148.25 34.2775 148.25 30.2778C148.25 27.5651 149.735 25.1845 151.945 23.9332C152.705 22.7691 154.014 22 155.5 22H193.75C194.254 22 194.747 22.0913 195.229 22.2738C195.291 22.2966 195.354 22.3194 195.41 22.3422C196.168 22.654 196.837 23.219 197.303 23.9324ZM151.743 28.2778C151.428 28.8747 151.25 29.5554 151.25 30.2778C151.25 32.6391 153.154 34.5556 155.5 34.5556H179.525L183.499 30.5556H155.5C153.872 30.5556 152.456 29.6323 151.743 28.2778Z"/>
</mask>
<path fill-rule="evenodd" clip-rule="evenodd" d="M63.2467 97.7452C64.0457 98.5551 65.1167 99 66.25 99C67.3833 99 68.4543 98.5551 69.2533 97.7452L109.997 56.7413C110.796 55.937 111.867 55.4921 113 55.4921C114.139 55.4921 115.204 55.937 116.003 56.7413L133.734 74.5882C136.137 77.0122 139.339 78.3412 142.744 78.3412C146.156 78.3412 149.357 77.0122 151.766 74.5882L189.5 36.6072V40.6072L151.766 78.5882C149.357 81.0122 146.156 82.3412 142.744 82.3412C139.339 82.3412 136.137 81.0122 133.734 78.5882L116.003 60.7413C115.204 59.937 114.139 59.4921 113 59.4921C111.867 59.4921 110.796 59.937 109.997 60.7413L69.2533 101.745C68.4543 102.555 67.3833 103 66.25 103C65.1167 103 64.0457 102.555 63.2467 101.745C62.442 100.941 62 99.863 62 98.7222C62 98.0146 62.1701 97.3312 62.4913 96.7222C62.6879 97.095 62.9411 97.4398 63.2467 97.7452ZM189.5 64.7778V68.7778C189.5 71.1391 191.404 73.0556 193.75 73.0556C196.096 73.0556 198 71.1391 198 68.7778V64.7778C198 67.1391 196.096 69.0556 193.75 69.0556C191.404 69.0556 189.5 67.1391 189.5 64.7778ZM197.303 23.9324C198.716 24.7264 199.84 26.0063 200.458 27.5133L200.477 27.5588L200.484 27.5784L200.484 27.5794L200.499 27.6162C200.511 27.646 200.538 27.7138 200.568 27.7994C200.853 28.5875 201 29.4336 201 30.2778V68.7778C201 72.7775 197.771 76.0556 193.75 76.0556C189.729 76.0556 186.5 72.7775 186.5 68.7778V47.8833L153.894 80.7025C150.921 83.6944 146.953 85.3412 142.744 85.3412C138.541 85.3412 134.572 83.6947 131.605 80.7013L131.604 80.7L113.875 62.8557C113.639 62.6177 113.339 62.4921 113 62.4921C112.664 62.4921 112.36 62.6192 112.125 62.8557L71.389 103.852L71.3844 103.857C70.0194 105.238 68.1801 106 66.25 106C64.3211 106 62.4828 105.239 61.1181 103.859C59.7487 102.486 59 100.646 59 98.7222C59 96.7978 59.7495 94.956 61.1203 93.583L61.1259 93.5774L101.856 52.5809C102.427 52.0063 103.035 51.4813 103.674 51.008L103.984 50.6953C106.393 48.2713 109.594 46.9423 113.006 46.9423C116.417 46.9423 119.619 48.277 122.021 50.6953L122.333 51.0087C122.972 51.482 123.579 52.0069 124.15 52.5809L140.745 69.2849C141.357 69.6159 142.044 69.7913 142.756 69.7913C143.467 69.7913 144.154 69.6159 144.766 69.2849L176.29 37.5556H155.5C151.479 37.5556 148.25 34.2775 148.25 30.2778C148.25 27.5651 149.735 25.1845 151.945 23.9332C152.705 22.7691 154.014 22 155.5 22H193.75C194.254 22 194.747 22.0913 195.229 22.2738C195.291 22.2966 195.354 22.3194 195.41 22.3422C196.168 22.654 196.837 23.219 197.303 23.9324ZM151.743 28.2778C151.428 28.8747 151.25 29.5554 151.25 30.2778C151.25 32.6391 153.154 34.5556 155.5 34.5556H179.525L183.499 30.5556H155.5C153.872 30.5556 152.456 29.6323 151.743 28.2778Z" fill="#CFCDE1"/>
<path d="M63.2467 97.7452L64.6705 96.3406L64.6605 96.3306L63.2467 97.7452ZM69.2533 97.7452L67.8346 96.3355L67.8295 96.3406L69.2533 97.7452ZM109.997 56.7413L111.415 58.151L111.415 58.1509L109.997 56.7413ZM116.003 56.7413L114.585 58.1509L116.003 56.7413ZM133.734 74.5882L135.155 73.1802L135.153 73.1786L133.734 74.5882ZM151.766 74.5882L153.184 75.9977L151.766 74.5882ZM189.5 36.6072H191.5V31.7564L188.081 35.1976L189.5 36.6072ZM189.5 40.6072L190.919 42.0168L191.5 41.4318V40.6072H189.5ZM151.766 78.5882L153.184 79.9977L151.766 78.5882ZM133.734 78.5882L135.155 77.1802L135.153 77.1786L133.734 78.5882ZM116.003 60.7413L114.585 62.1509L116.003 60.7413ZM109.997 60.7413L111.415 62.151L111.415 62.1509L109.997 60.7413ZM69.2533 101.745L67.8346 100.335L67.8295 100.341L69.2533 101.745ZM63.2467 101.745L64.6705 100.341L64.6605 100.331L63.2467 101.745ZM62.4913 96.7222L64.2603 95.7891L62.4913 92.4354L60.7223 95.7891L62.4913 96.7222ZM197.303 23.9324L195.63 25.0274L195.897 25.4364L196.323 25.6758L197.303 23.9324ZM200.458 27.5133L202.308 26.7541L202.308 26.754L200.458 27.5133ZM200.477 27.5588L202.358 26.8808L202.344 26.8399L202.327 26.7996L200.477 27.5588ZM200.484 27.5784L198.602 28.2564L198.611 28.2799L198.62 28.3031L200.484 27.5784ZM200.484 27.5794L198.62 28.304L198.623 28.3124L198.627 28.3207L200.484 27.5794ZM200.499 27.6162L202.357 26.8775L202.356 26.8749L200.499 27.6162ZM200.568 27.7994L198.679 28.4584L198.683 28.4693L198.687 28.4801L200.568 27.7994ZM186.5 47.8833H188.5V43.0326L185.081 46.4737L186.5 47.8833ZM153.894 80.7025L152.475 79.2929L153.894 80.7025ZM131.605 80.7013L130.184 82.109L130.185 82.1094L131.605 80.7013ZM131.604 80.7L133.024 79.2923L133.022 79.2904L131.604 80.7ZM113.875 62.8557L115.294 61.4461L113.875 62.8557ZM112.125 62.8557L113.544 64.2654L113.544 64.2653L112.125 62.8557ZM71.389 103.852L69.9703 102.442L69.9663 102.446L71.389 103.852ZM71.3844 103.857L72.8069 105.263L72.8071 105.262L71.3844 103.857ZM61.1181 103.859L62.54 102.453L62.5341 102.447L61.1181 103.859ZM61.1203 93.583L59.7056 92.1692L59.705 92.1699L61.1203 93.583ZM61.1259 93.5774L62.5406 94.9911L62.5447 94.987L61.1259 93.5774ZM101.856 52.5809L100.437 51.1713V51.1713L101.856 52.5809ZM103.674 51.008L104.864 52.6152L104.986 52.5251L105.093 52.4176L103.674 51.008ZM103.984 50.6953L102.566 49.2857L102.566 49.2857L103.984 50.6953ZM122.021 50.6953L123.44 49.2857V49.2857L122.021 50.6953ZM122.333 51.0087L120.914 52.4183L121.021 52.5257L121.142 52.6159L122.333 51.0087ZM124.15 52.5809L125.568 51.1713L125.568 51.1713L124.15 52.5809ZM140.745 69.2849L139.326 70.6945L139.534 70.9037L139.794 71.044L140.745 69.2849ZM144.766 69.2849L145.718 71.0441L145.977 70.9037L146.185 70.6945L144.766 69.2849ZM176.29 37.5556L177.708 38.9652L181.096 35.5556H176.29V37.5556ZM151.945 23.9332L152.931 25.6736L153.354 25.4338L153.62 25.0263L151.945 23.9332ZM195.229 22.2738L194.52 24.144L194.531 24.148L194.542 24.1519L195.229 22.2738ZM195.41 22.3422L196.172 20.4929L196.165 20.4899L196.157 20.4869L195.41 22.3422ZM151.743 28.2778L153.512 27.3456L151.743 23.9869L149.973 27.3456L151.743 28.2778ZM179.525 34.5556V36.5556H180.357L180.944 35.9652L179.525 34.5556ZM183.499 30.5556L184.918 31.9652L188.305 28.5556H183.499V30.5556ZM66.25 97C65.6493 97 65.0919 96.7678 64.6705 96.3406L61.8229 99.1498C62.9995 100.342 64.5841 101 66.25 101V97ZM67.8295 96.3406C67.4081 96.7678 66.8507 97 66.25 97V101C67.9159 101 69.5005 100.342 70.6771 99.1498L67.8295 96.3406ZM108.578 55.3316L67.8346 96.3355L70.672 99.1549L111.415 58.151L108.578 55.3316ZM113 53.4921C111.335 53.4921 109.753 54.1489 108.578 55.3317L111.415 58.1509C111.838 57.7251 112.398 57.4921 113 57.4921V53.4921ZM117.422 55.3317C116.248 54.1499 114.672 53.4921 113 53.4921V57.4921C113.606 57.4921 114.161 57.7241 114.585 58.1509L117.422 55.3317ZM135.153 73.1786L117.422 55.3317L114.585 58.1509L132.316 75.9977L135.153 73.1786ZM142.744 76.3412C139.871 76.3412 137.181 75.2242 135.155 73.1802L132.314 75.9961C135.093 78.8002 138.807 80.3412 142.744 80.3412V76.3412ZM150.347 73.1786C148.315 75.2241 145.624 76.3412 142.744 76.3412V80.3412C146.687 80.3412 150.4 78.8003 153.184 75.9977L150.347 73.1786ZM188.081 35.1976L150.347 73.1786L153.184 75.9977L190.919 38.0168L188.081 35.1976ZM191.5 40.6072V36.6072H187.5V40.6072H191.5ZM188.081 39.1976L150.347 77.1786L153.184 79.9977L190.919 42.0168L188.081 39.1976ZM150.347 77.1786C148.315 79.2241 145.624 80.3412 142.744 80.3412V84.3412C146.687 84.3412 150.4 82.8003 153.184 79.9977L150.347 77.1786ZM142.744 80.3412C139.871 80.3412 137.181 79.2242 135.155 77.1802L132.314 79.9961C135.093 82.8002 138.807 84.3412 142.744 84.3412V80.3412ZM135.153 77.1786L117.422 59.3317L114.585 62.1509L132.316 79.9977L135.153 77.1786ZM117.422 59.3317C116.248 58.1499 114.672 57.4921 113 57.4921V61.4921C113.606 61.4921 114.161 61.7241 114.585 62.1509L117.422 59.3317ZM113 57.4921C111.335 57.4921 109.753 58.1489 108.578 59.3317L111.415 62.1509C111.838 61.7251 112.398 61.4921 113 61.4921V57.4921ZM108.578 59.3316L67.8346 100.335L70.672 103.155L111.415 62.151L108.578 59.3316ZM67.8295 100.341C67.4081 100.768 66.8507 101 66.25 101V105C67.9159 105 69.5005 104.342 70.6771 103.15L67.8295 100.341ZM66.25 101C65.6493 101 65.0919 100.768 64.6705 100.341L61.8229 103.15C62.9995 104.342 64.5841 105 66.25 105V101ZM64.6605 100.331C64.2357 99.906 64 99.3388 64 98.7222H60C60 100.387 60.6483 101.976 61.8328 103.16L64.6605 100.331ZM64 98.7222C64 98.3369 64.0921 97.9741 64.2603 97.6553L60.7223 95.7891C60.248 96.6883 60 97.6923 60 98.7222H64ZM64.6605 96.3306C64.4971 96.1673 64.3635 95.9848 64.2603 95.7891L60.7223 97.6553C61.0123 98.2052 61.3852 98.7124 61.8328 99.1598L64.6605 96.3306ZM191.5 68.7778V64.7778H187.5V68.7778H191.5ZM193.75 71.0556C192.521 71.0556 191.5 70.0468 191.5 68.7778H187.5C187.5 72.2314 190.287 75.0556 193.75 75.0556V71.0556ZM196 68.7778C196 70.0468 194.979 71.0556 193.75 71.0556V75.0556C197.213 75.0556 200 72.2314 200 68.7778H196ZM196 64.7778V68.7778H200V64.7778H196ZM196 64.7778C196 66.0468 194.979 67.0556 193.75 67.0556V71.0556C197.213 71.0556 200 68.2314 200 64.7778H196ZM193.75 67.0556C192.521 67.0556 191.5 66.0468 191.5 64.7778H187.5C187.5 68.2314 190.287 71.0556 193.75 71.0556V67.0556ZM196.323 25.6758C197.338 26.2459 198.158 27.1762 198.608 28.2726L202.308 26.754C201.521 24.8363 200.094 23.2068 198.283 22.1889L196.323 25.6758ZM198.608 28.2725L198.626 28.318L202.327 26.7996L202.308 26.7541L198.608 28.2725ZM198.595 28.2368L198.602 28.2564L202.365 26.9004L202.358 26.8808L198.595 28.2368ZM198.62 28.3031L198.62 28.304L202.348 26.8548L202.348 26.8538L198.62 28.3031ZM198.627 28.3207L198.641 28.3575L202.356 26.8749L202.342 26.8381L198.627 28.3207ZM198.64 28.3549C198.649 28.3777 198.664 28.4138 198.679 28.4584L202.456 27.1403C202.412 27.0137 202.372 26.9144 202.357 26.8775L198.64 28.3549ZM198.687 28.4801C198.892 29.0474 199 29.663 199 30.2778H203C203 29.2042 202.813 28.1276 202.448 27.1186L198.687 28.4801ZM199 30.2778V68.7778H203V30.2778H199ZM199 68.7778C199 71.6868 196.653 74.0556 193.75 74.0556V78.0556C198.89 78.0556 203 73.8682 203 68.7778H199ZM193.75 74.0556C190.847 74.0556 188.5 71.6868 188.5 68.7778H184.5C184.5 73.8682 188.61 78.0556 193.75 78.0556V74.0556ZM188.5 68.7778V47.8833H184.5V68.7778H188.5ZM185.081 46.4737L152.475 79.2929L155.313 82.1121L187.919 49.2929L185.081 46.4737ZM152.475 79.2929C149.879 81.9063 146.422 83.3412 142.744 83.3412V87.3412C147.485 87.3412 151.964 85.4825 155.313 82.1121L152.475 79.2929ZM142.744 83.3412C139.073 83.3412 135.616 81.9066 133.025 79.2932L130.185 82.1094C133.529 85.4827 138.01 87.3412 142.744 87.3412V83.3412ZM133.026 79.2936L133.024 79.2923L130.183 82.1078L130.184 82.109L133.026 79.2936ZM133.022 79.2904L115.294 61.4461L112.456 64.2653L130.185 82.1096L133.022 79.2904ZM115.294 61.4461C114.682 60.8305 113.872 60.4921 113 60.4921V64.4921C112.919 64.4921 112.816 64.4763 112.707 64.431C112.599 64.3859 112.515 64.3238 112.456 64.2653L115.294 61.4461ZM113 60.4921C112.132 60.4921 111.317 60.8312 110.706 61.4461L113.544 64.2653C113.481 64.3286 113.396 64.3889 113.293 64.4319C113.189 64.4749 113.088 64.4921 113 64.4921V60.4921ZM110.706 61.446L69.9703 102.442L72.8077 105.262L113.544 64.2654L110.706 61.446ZM69.9663 102.446L69.9617 102.451L72.8071 105.262L72.8117 105.258L69.9663 102.446ZM69.9619 102.451C68.9745 103.45 67.6481 104 66.25 104V108C68.712 108 71.0644 107.026 72.8069 105.263L69.9619 102.451ZM66.25 104C64.8527 104 63.5272 103.451 62.54 102.453L59.6963 105.266C61.4385 107.027 63.7895 108 66.25 108V104ZM62.5341 102.447C61.5432 101.454 61 100.123 61 98.7222H57C57 101.169 57.9541 103.519 59.7022 105.272L62.5341 102.447ZM61 98.7222C61 97.3211 61.5438 95.9895 62.5357 94.996L59.705 92.1699C57.9551 93.9226 57 96.2745 57 98.7222H61ZM62.535 94.9967L62.5406 94.9911L59.7112 92.1636L59.7056 92.1692L62.535 94.9967ZM62.5447 94.987L103.275 53.9905L100.437 51.1713L59.7071 92.1678L62.5447 94.987ZM103.275 53.9905C103.775 53.4872 104.306 53.0283 104.864 52.6152L102.483 49.4008C101.763 49.9342 101.079 50.5254 100.437 51.1713L103.275 53.9905ZM105.093 52.4176L105.403 52.1049L102.566 49.2857L102.255 49.5984L105.093 52.4176ZM105.403 52.1049C107.435 50.0594 110.126 48.9423 113.006 48.9423V44.9423C109.063 44.9423 105.35 46.4832 102.566 49.2857L105.403 52.1049ZM113.006 48.9423C115.884 48.9423 118.575 50.0639 120.603 52.1049L123.44 49.2857C120.663 46.49 116.95 44.9423 113.006 44.9423V48.9423ZM120.603 52.1049L120.914 52.4183L123.751 49.5991L123.44 49.2857L120.603 52.1049ZM121.142 52.6159C121.7 53.029 122.231 53.4878 122.731 53.9905L125.568 51.1713C124.927 50.5259 124.243 49.9349 123.523 49.4014L121.142 52.6159ZM122.731 53.9905L139.326 70.6945L142.164 67.8753L125.568 51.1713L122.731 53.9905ZM139.794 71.044C140.699 71.5336 141.713 71.7913 142.756 71.7913V67.7913C142.375 67.7913 142.015 67.6982 141.697 67.5258L139.794 71.044ZM142.756 71.7913C143.799 71.7913 144.813 71.5336 145.718 71.0441L143.815 67.5258C143.496 67.6982 143.136 67.7913 142.756 67.7913V71.7913ZM146.185 70.6945L177.708 38.9652L174.871 36.146L143.347 67.8753L146.185 70.6945ZM176.29 35.5556H155.5V39.5556H176.29V35.5556ZM155.5 35.5556C152.597 35.5556 150.25 33.1868 150.25 30.2778H146.25C146.25 35.3682 150.36 39.5556 155.5 39.5556V35.5556ZM150.25 30.2778C150.25 28.3101 151.326 26.5821 152.931 25.6736L150.96 22.1927C148.144 23.7868 146.25 26.8202 146.25 30.2778H150.25ZM153.62 25.0263C154.029 24.4001 154.722 24 155.5 24V20C153.306 20 151.381 21.1381 150.27 22.8401L153.62 25.0263ZM155.5 24H193.75V20H155.5V24ZM193.75 24C194.007 24 194.26 24.0454 194.52 24.144L195.938 20.4035C195.234 20.1371 194.502 20 193.75 20V24ZM194.542 24.1519C194.611 24.1772 194.642 24.1888 194.663 24.1975L196.157 20.4869C196.066 20.45 195.972 20.416 195.916 20.3956L194.542 24.1519ZM194.649 24.1916C195.012 24.341 195.371 24.632 195.63 25.0274L198.977 22.8373C198.302 21.806 197.323 20.9671 196.172 20.4929L194.649 24.1916ZM153.25 30.2778C153.25 29.8878 153.345 29.5263 153.512 29.21L149.973 27.3456C149.511 28.2232 149.25 29.223 149.25 30.2778H153.25ZM155.5 32.5556C154.271 32.5556 153.25 31.5468 153.25 30.2778H149.25C149.25 33.7314 152.037 36.5556 155.5 36.5556V32.5556ZM179.525 32.5556H155.5V36.5556H179.525V32.5556ZM180.944 35.9652L184.918 31.9652L182.08 29.146L178.106 33.146L180.944 35.9652ZM183.499 28.5556H155.5V32.5556H183.499V28.5556ZM155.5 28.5556C154.648 28.5556 153.896 28.0745 153.512 27.3456L149.973 29.21C151.016 31.1901 153.095 32.5556 155.5 32.5556V28.5556Z" fill="#CFCDE1" mask="url(#path-4-outside-2)"/>
</svg>
