<svg xmlns="http://www.w3.org/2000/svg" viewBox="0 0 373 344.8">
  <path fill="#fef38b" d="M169.5 48.6c-1 .1-1.9-.6-2-1.6l-5.1-42.4c-.1-1 .6-1.9 1.6-2s1.9.6 2 1.6l5.1 42.4c.1.9-.6 1.9-1.6 2z"/>
  <path fill="#e85b92" d="M172.2 29.4c.3 2.7-1.6 5.2-4.3 5.5-2.7.3-5.2-1.6-5.5-4.3s1.6-5.2 4.3-5.5c2.7-.4 5.2 1.6 5.5 4.3zm8.3 25.9c-.8-5.4-5.8-9.3-11.3-8.6-5.5.7-9.5 5.6-8.9 11l20.2-2.4z"/>
  <path fill="#03cdf5" d="M91.5 268.1c0 8.9 7.3 16.2 16.2 16.2h151.2c8.9 0 16.2-7.3 16.2-16.2v-60.4c0-8.9-7.3-16.2-16.2-16.2H107.6c-8.9 0-16.2 7.2-16.2 16.2v60.4h.1z"/>
  <path fill="#e85b92" d="M114.6 328.6c0 8.9 7.3 16.2 16.2 16.2h104.7c8.9 0 16.2-7.3 16.2-16.2v-11.3c0-8.9-7.3-16.2-16.2-16.2H130.8c-8.9 0-16.2 7.3-16.2 16.2v11.3z"/>
  <path fill="#f7eb1a" d="M214.5 322.9a11.29 11.29 0 1022.6 0 11.29 11.29 0 10-22.6 0z"/>
  <circle cx="183.3" cy="322.9" r="11.3" fill="#f7eb1a"/>
  <circle cx="140.6" cy="322.9" r="11.3" fill="#f7eb1a"/>
  <path fill="#e85b92" d="M146.5 254.4c0 4.5 3.6 8.1 8.1 8.1h57.2c4.5 0 8.1-3.6 8.1-8.1v-33c0-4.5-3.6-8.1-8.1-8.1h-57.2c-4.4 0-8.1 3.6-8.1 8.1v33z"/>
  <path fill="#03cdf5" d="M132.3 160.4v-54A47.7 47.7 0 01180 58.7h6.4a47.7 47.7 0 0147.7 47.7v54.1l-101.8-.1z"/>
  <path fill="#f4d915" d="M148.3 167.4h69.9v17h-69.9v-17z"/>
  <path fill="#e85b92" d="M239.2 107.1c7.2 1.2 12.6 7.5 12.6 14.9v10.1c0 7.5-5.4 13.7-12.6 14.9v-39.9zm-110.9 0c-7.1 1.2-12.6 7.5-12.6 14.9v10.1c0 7.5 5.4 13.7 12.6 14.9v-39.9z"/>
  <path fill="#fff" d="M208.5 228.5c0 2.9-2.3 5.2-5.2 5.2H163c-2.9 0-5.2-2.3-5.2-5.2s2.3-5.2 5.2-5.2h40.3c2.9 0 5.2 2.3 5.2 5.2zm0 18.8c0 2.9-2.3 5.2-5.2 5.2H163c-2.9 0-5.2-2.3-5.2-5.2s2.3-5.2 5.2-5.2h40.3c2.9 0 5.2 2.3 5.2 5.2z"/>
  <path fill="#03487c" d="M205.1 98.8c.8-3.1 5.4-5.4 8.8-4.6 3.1.8 5.4 3.8 5.4 6.9 0 4.2 6.1 4.6 6.5.4.8-6.5-4.6-12.6-11.5-13.4s-11.1 4.2-11.5 10.3c.4 1.2 2.3 1.5 2.3.4zm-43.3 1.6c-.4-3.1-4.6-5.7-7.7-5.4-3.1.4-5.7 3.1-6.1 5.7-.4 3.8-6.5 3.8-6.5-.4.4-6.1 6.1-11.5 12.3-11.1 6.5.4 10 5.4 9.6 11.1.3.8-1.6 1.2-1.6.1z"/>
</svg>
