<svg width="145" height="117" fill="none" xmlns="http://www.w3.org/2000/svg"><ellipse cx="72.5" cy="100" rx="72.5" ry="17" fill="#07072B" fill-opacity=".04"/><path d="M72.792 113.383c33.022 0 59.791-6.748 59.791-19.062 0-12.313-26.769-25.53-59.791-25.53S13 82.008 13 94.321c0 12.314 26.77 19.062 59.792 19.062z" fill="#6657FF"/><path d="M100.115 71.251c10.476 4.007 16.915 9.501 16.915 15.532 0 12.318-26.77 22.295-59.792 22.295-9.854 0-23.173-.665-31.366-2.233 10.87 4.166 30.097 6.538 46.92 6.538 33.023 0 59.792-6.744 59.792-19.062 0-8.648-13.177-19.38-32.469-23.07z" fill="#5347D5"/><path d="M72.17 90.918c21.633 0 39.17-7.848 39.17-17.529 0-9.68-17.537-17.528-39.17-17.528C50.537 55.86 33 63.709 33 73.389s17.537 17.529 39.17 17.529z" fill="#6657FF"/><path d="M90.07 57.795c6.863 3.15 11.08 7.47 11.08 12.21 0 9.684-17.536 17.529-39.17 17.529-6.455 0-12.532-.702-17.899-1.934 7.12 3.275 17.068 5.318 28.089 5.318 21.633 0 39.17-7.845 39.17-17.529 0-6.8-8.633-12.694-21.27-15.594z" fill="#5347D5"/><path d="M86.557 69.104c-5.639 1.97-40.606 5.302-42.405-8.667C40.992 35.831 88.1 55.727 80.162 30c21.694 20.473 16.07 35.74 6.395 39.104z" fill="#6657FF"/><path d="M80.163 30c.166.56.317 1.09.438 1.602 16.342 18.15 10.855 31.43 1.92 34.538-4.308 1.506-25.775 3.813-36.449-1.442 7.726 8.94 35.512 6.136 40.486 4.406C96.233 65.74 101.857 50.473 80.163 30z" fill="#5347D5"/><path d="M28.5 61.669c1.04.127 2.786.809 2.72 1.367-.071.568-1.926.799-2.974.674-1.04-.127-.787-2.169.254-2.041zM32.25 59.72c-.47.94-.861 2.77-.355 3.02.508.256 1.73-1.166 2.2-2.107.471-.94-1.373-1.855-1.844-.914z" fill="#D9D8FF" stroke="#584AFA" stroke-width=".214" stroke-miterlimit="10"/><path d="M32.338 62.684c.178.403.021.87-.355 1.04-.376.168-.832-.022-1.01-.425-.178-.403-.02-.87.355-1.04.377-.168.826.025 1.01.425z" fill="#584AFA"/><path d="M103.931 54.639c.88.965 1.976 3.026 1.459 3.5-.528.479-2.467-.809-3.356-1.777-.88-.966 1.016-2.689 1.897-1.723zM109.058 55.842c-1.209.507-3.064 1.918-2.789 2.564.272.655 2.58.304 3.789-.203 1.209-.506.209-2.868-1-2.361z" fill="#D9D8FF" stroke="#584AFA" stroke-width=".214" stroke-miterlimit="10"/><path d="M106.733 58.715c-.159.525-.687.839-1.18.693-.492-.146-.768-.696-.609-1.221.159-.525.687-.84 1.179-.693.493.146.761.693.61 1.22z" fill="#584AFA"/><path d="M48.276 10.619s-.03.022-.105.056c-.076.044-.167.1-.303.178-.257.168-.62.413-1.013.77-.196.179-.408.38-.604.614a8.093 8.093 0 00-.605.77 7.588 7.588 0 00-.952 2.008 8.673 8.673 0 00-.409 2.489c-.03.893.076 1.83.288 2.79.211.96.559 1.941.997 2.912.439.97.998 1.93 1.648 2.868.076.111.166.234.242.346l.121.178.136.19.242.357.12.179c.046.055.077.122.122.19.151.256.332.501.453.758.136.257.288.502.393.77a12.513 12.513 0 011.044 3.102 9.94 9.94 0 01.09 2.98c-.12.948-.347 1.83-.665 2.61-.317.793-.71 1.485-1.103 2.087a10.85 10.85 0 01-1.18 1.473c-.362.39-.695.681-.922.87-.106.101-.212.168-.272.213l-.09.067s.03-.023.075-.078c.045-.056.12-.134.212-.235.196-.212.453-.524.74-.937.303-.413.62-.926.922-1.529.303-.602.59-1.305.802-2.075.211-.77.363-1.618.393-2.511.03-.893-.06-1.841-.287-2.8-.06-.235-.121-.48-.197-.726-.045-.123-.076-.246-.12-.357l-.061-.179-.076-.178a7.388 7.388 0 00-.302-.726c-.06-.122-.106-.234-.167-.357-.06-.123-.12-.234-.181-.357-.121-.245-.257-.469-.393-.714s-.287-.458-.438-.692c-.046-.056-.076-.111-.121-.178l-.121-.179-.257-.357-.257-.346a5.429 5.429 0 01-.257-.368 18.02 18.02 0 01-1.724-3.024 16.276 16.276 0 01-.59-1.551 12.01 12.01 0 01-.377-1.551 10.545 10.545 0 01-.106-2.99 8.637 8.637 0 01.71-2.634 7.784 7.784 0 011.316-2.042c.241-.28.498-.536.755-.76a8.836 8.836 0 011.95-1.239c.152-.066.258-.11.348-.144.106 0 .136-.011.136-.011zM92.722 3.466s-.03.022-.106.056c-.075.044-.166.1-.302.178a7.73 7.73 0 00-1.013.77c-.196.179-.408.38-.605.614a8.087 8.087 0 00-.604.77 7.587 7.587 0 00-.953 2.009 8.673 8.673 0 00-.408 2.488c-.03.893.076 1.83.287 2.79.212.96.56 1.941.998 2.912.439.971.998 1.93 1.648 2.868.076.111.166.234.242.346l.12.178.137.19.242.357.12.179c.046.056.076.123.122.19.15.256.332.502.453.758.136.257.287.502.393.77a12.509 12.509 0 011.043 3.102 9.94 9.94 0 01.091 2.98c-.12.948-.348 1.83-.665 2.61-.318.793-.71 1.485-1.104 2.088a10.857 10.857 0 01-1.179 1.473c-.363.39-.695.68-.922.87-.106.1-.212.167-.272.212l-.09.067s.03-.022.075-.078.12-.134.211-.235c.197-.212.454-.524.741-.937.303-.413.62-.926.922-1.529.303-.602.59-1.305.802-2.075.211-.77.362-1.618.393-2.51.03-.894-.06-1.842-.288-2.802-.06-.234-.12-.48-.196-.725-.046-.123-.076-.246-.121-.357l-.06-.179-.076-.178a7.39 7.39 0 00-.302-.726c-.061-.122-.106-.234-.167-.357-.06-.122-.12-.234-.181-.357-.121-.245-.257-.468-.393-.714-.136-.245-.287-.457-.439-.692-.045-.055-.075-.111-.12-.178l-.122-.179-.257-.357-.257-.346c-.09-.123-.181-.245-.257-.368-.68-.97-1.27-1.997-1.723-3.024a16.264 16.264 0 01-.59-1.551 12.01 12.01 0 01-.377-1.551 10.545 10.545 0 01-.106-2.99 8.636 8.636 0 01.71-2.634 7.78 7.78 0 011.315-2.042c.242-.28.5-.536.756-.76.257-.222.514-.412.756-.568a8.837 8.837 0 011.195-.67c.15-.067.257-.111.347-.145.09 0 .136-.01.136-.01zM70.205 0s-.03.022-.105.056c-.076.044-.167.1-.303.178-.257.168-.62.413-1.013.77a6.33 6.33 0 00-.604.614 8.121 8.121 0 00-.605.77 7.594 7.594 0 00-.953 2.009 8.673 8.673 0 00-.408 2.488c-.03.893.076 1.83.288 2.79.211.96.559 1.941.997 2.912.439.97.998 1.93 1.648 2.868.076.111.166.234.242.346l.121.178.136.19.242.357.12.179c.046.056.077.122.122.19.151.256.332.502.453.758.136.257.288.502.393.77a12.505 12.505 0 011.043 3.102 9.937 9.937 0 01.091 2.98c-.12.948-.347 1.83-.665 2.61-.317.793-.71 1.485-1.103 2.088a10.866 10.866 0 01-1.18 1.473c-.363.39-.695.68-.922.87-.106.1-.212.167-.272.212l-.09.067s.03-.023.075-.078c.045-.056.12-.134.212-.235.196-.212.453-.524.74-.937.303-.413.62-.926.922-1.529.303-.602.59-1.305.802-2.075.211-.77.362-1.618.393-2.511a10.66 10.66 0 00-.288-2.8c-.06-.235-.12-.48-.196-.726-.045-.123-.076-.246-.12-.357l-.061-.179-.076-.178a7.364 7.364 0 00-.302-.726c-.06-.122-.106-.234-.167-.357-.06-.122-.12-.234-.181-.357-.121-.245-.257-.469-.393-.714s-.287-.457-.439-.692c-.045-.056-.075-.111-.12-.178l-.121-.179-.257-.357-.257-.346a5.429 5.429 0 01-.257-.368c-.68-.97-1.27-1.998-1.724-3.024a16.24 16.24 0 01-.59-1.551 12.028 12.028 0 01-.377-1.551 10.549 10.549 0 01-.106-2.99 8.633 8.633 0 01.71-2.634 7.78 7.78 0 011.316-2.042c.241-.28.498-.536.755-.76.257-.222.514-.412.756-.568a8.831 8.831 0 011.195-.67 6.11 6.11 0 01.347-.145c.106 0 .136-.011.136-.011z" fill="#6864FF" opacity=".25"/></svg>