<svg xmlns="http://www.w3.org/2000/svg" id="Capa_1" viewBox="0 0 2684 317"><style>.st0{fill:#584afa}.st1{fill:#423fd8}.st2{fill:#65787a}.st3{fill:#b7b6d8}.st5{fill:#a1b4b7}.st6{fill:#ffc61b}</style><g id="XMLID_713_"><g id="XMLID_714_"><g id="XMLID_718_"><path id="XMLID_730_" d="M2301 262c-3 9 0 14 5 16 5 1 10-3 12-12 3-8-4-20-4-20s-11 7-13 16z" class="st0"/><path id="XMLID_729_" d="M2301 262c-3 9 0 14 5 16l8-32s-11 7-13 16z" class="st1"/><g id="XMLID_724_"><path id="XMLID_728_" d="M2315 254l-4 3v1z" class="st1"/><path id="XMLID_727_" d="M2314 250l-2 2v1z" class="st1"/><path id="XMLID_726_" d="M2315 259l-5 4-1 2z" class="st1"/><path id="XMLID_725_" d="M2315 264l-7 6-1 4z" class="st1"/></g><g id="XMLID_719_"><path id="XMLID_723_" d="M2310 252l2 3-1 1z" class="st0"/><path id="XMLID_722_" d="M2312 249l1 2h-1z" class="st0"/><path id="XMLID_721_" d="M2308 255l2 6v2z" class="st0"/><path id="XMLID_720_" d="M2305 260l4 8-1 2z" class="st0"/></g></g><g id="XMLID_715_"><path id="XMLID_717_" d="M2305 280h2v-4h-1z" class="st1"/><path id="XMLID_716_" d="M2307 276l-1 4 1-4z" class="st0"/></g></g></g><g id="XMLID_1_"><g id="XMLID_2_"><g id="XMLID_6_"><path id="XMLID_18_" d="M2172 180c9 11 19 13 25 8 7-5 7-15-2-27-9-11-30-15-30-15s-2 22 7 34z" class="st0"/><path id="XMLID_17_" d="M2172 180c9 11 19 13 25 8l-32-42s-2 22 7 34z" class="st1"/><g id="XMLID_12_"><path id="XMLID_16_" d="M2176 154v7l2 2z" class="st1"/><path id="XMLID_15_" d="M2171 150v4l1 1z" class="st1"/><path id="XMLID_14_" d="M2182 158v11l3 3z" class="st1"/><path id="XMLID_13_" d="M2190 163v16l3 4z" class="st1"/></g><g id="XMLID_7_"><path id="XMLID_11_" d="M2169 157l6 2 1 1z" class="st0"/><path id="XMLID_10_" d="M2166 152l4 1 1 1z" class="st0"/><path id="XMLID_9_" d="M2171 163l9 3 2 3z" class="st0"/><path id="XMLID_8_" d="M2174 171l13 4 3 4z" class="st0"/></g></g><g id="XMLID_3_"><path id="XMLID_5_" d="M2199 192l2-2-5-5-1 1z" class="st1"/><path id="XMLID_4_" d="M2196 186l4 5 1-1-5-5z" class="st0"/></g></g></g><g id="XMLID_19_"><g id="XMLID_21_"><g id="XMLID_26_"><path id="XMLID_38_" d="M2432 241c-9-2-15 1-16 6s2 10 11 12 21-4 21-4-8-12-16-14z" class="st0"/><path id="XMLID_37_" d="M2432 241c-9-2-15 1-16 6l32 8s-8-12-16-14z" class="st1"/><g id="XMLID_32_"><path id="XMLID_36_" d="M2440 255l-3-3-2-1z" class="st1"/><path id="XMLID_35_" d="M2444 255l-2-2h-1z" class="st1"/><path id="XMLID_34_" d="M2435 256l-4-6h-3z" class="st1"/><path id="XMLID_33_" d="M2429 256l-6-7-3-1z" class="st1"/></g><g id="XMLID_27_"><path id="XMLID_31_" d="M2442 251l-4 1h-1z" class="st0"/><path id="XMLID_30_" d="M2445 252l-2 1h-1z" class="st0"/><path id="XMLID_29_" d="M2439 248l-6 3-2-1z" class="st0"/><path id="XMLID_28_" d="M2434 246l-8 3h-3z" class="st0"/></g></g><g id="XMLID_22_"><path id="XMLID_25_" d="M2414 246v1l4 1v-1z" class="st1"/><path id="XMLID_24_" d="M2418 247l-4-1-1 1 5 1z" class="st0"/></g></g></g><path d="M2562 192s6-3 12 3c5 6-1 22-8 22-8 0-8-4-8-4l2-10 2-11z" class="st2"/><ellipse cx="2527.6" cy="204.3" transform="rotate(-76 2528 204)" class="st2" rx="12.9" ry="7.7"/><path id="XMLID_42_" d="M1809 183l21-1 21 1h11l10 1 23 2a573 573 0 01136 34l90 33c30 10 60 20 91 26a255 255 0 0089-1c28-6 54-14 78-23l67-26c21-8 40-16 58-20a189 189 0 0182-2l8 2 3 1-2-1-9-2a161 161 0 00-81 4c-18 5-37 12-57 21l-65 28c-24 9-50 18-78 24a231 231 0 01-95 3c-32-5-64-16-95-26-30-11-53-23-83-33l-48-16c-15-4-27-8-42-10-14-3-24-6-38-7l-27-4" class="st3"/><path id="XMLID_20_" d="M2075 239l3-1 8-1 29-6 19-4a227 227 0 0021-7l10-4 5-2 5-3 4-2 5-3 8-7c10-9 18-20 27-30 9-9 18-18 28-24a77 77 0 0138-11h-3l-8 2a79 79 0 00-26 11c-9 6-18 14-26 24l-12 15-14 16a80 80 0 01-12 11l-5 3-5 3-5 2-10 5-11 4-10 3a505 505 0 01-48 12l-8 2h-3l-4-8z" class="st3"/><path d="M2490 144s-23 25-57 23-27 49 17 34c0 0 20 31 55-36l-15-21z"/><path d="M2486 156s-10 4-11 12 5 9 10 8c4-1 9-6 10-10s-3-5-3-5l-6-5z" fill="#f23084"/><path d="M2655 143s27-28 27-64c1-36-13-75-58-77s-89 16-111 41c-24 24-60 103-4 144 57 40 120-14 91-83 0 0 49 11 55 39z"/><path d="M2556 192s13-5 12 10c-1 16-18 20-16 2 0 0-4 0-3-5 0-6 7-7 7-7z" class="st5"/><path d="M2600 104s49 12 55 39c0 0 27-28 27-64 1-36-12-67-44-75-91-23-132 113-38 100" class="st6"/><path d="M2539 33s7 1 3 21 2 33 5 44c4 13-1 58-26 59s-28-48-22-72c4-15 17-43 34-51l6-1z" fill="#fff"/><path d="M2518 90c-11-3-17-15-12-25 7-13 16-26 27-31l5-1s8 1 3 21l-1 17c1 13-11 22-23 19z" class="st6"/><path d="M2680 95s2-53-34-60-41 49-17 65 27 35 26 43c0 0 20-22 25-48z" fill="#231f20"/><ellipse cx="2519.5" cy="204.3" transform="rotate(-76 2519 204)" class="st5" rx="12.9" ry="7.7"/><path d="M2596 103s-35 1-28-33c0 0-10 35 21 35l7-2z" fill="#d69005"/><path d="M2537 55c-2-3-6-4-10-4-3 1-4 4-4 7 0 4-6 5-6 1-1-6 3-12 10-13 6-2 10 3 12 9h-2z"/><path id="XMLID_40_" d="M1948 195c-29-5-59-10-93-12-32-2-67-2-101-1-70 3-138 11-204 19l-197 26-97 10c-32 3 73 7 106 3l196-28c65-9 131-17 196-20a1035 1035 0 01186 8" class="st3"/><path id="XMLID_39_" d="M1495 221c-80 13-80 13-120 17-40 5-82 7-123 7-84-1-167-10-247-21-81-11-161-23-239-32a3476 3476 0 00-232-20H423l-27 1-26 1-27 2-13 1h-2s1 0 0 0h-4l-6 1-49 5-47 7a818 818 0 00-151 42c-19 9-34 18-46 28a94 94 0 00-36 56 78 78 0 006 48l1 2 1 1-73 11-1-1-1-4-5-13c-3-11-5-28 0-49s19-47 51-71c16-13 36-24 60-35a920 920 0 01176-46l51-6 53-5 7-1h8l13-1 27-1 57-2a2098 2098 0 01356 26c80 11 159 24 238 36s159 22 238 24c40 1 79-1 117-5s92-5 126-14" class="st3"/></svg>